<?xml version="1.0" encoding="UTF-8"?>
<svg id="_レイヤー_2" xmlns="http://www.w3.org/2000/svg" version="1.1" viewBox="0 0 284.4 240.7">
  <!-- Generator: Adobe Illustrator 29.6.1, SVG Export Plug-In . SVG Version: 2.1.1 Build 9)  -->
  <defs>
    <style>
      .st0 {
        fill: #c7be91;
      }

      .st1 {
        fill: #75899e;
      }

      .st2 {
        fill: #757b9c;
      }

      .st3 {
        fill: #a2845c;
      }

      .st4 {
        fill: #747b99;
      }

      .st5 {
        fill: #8d9da9;
      }

      .st6 {
        fill: #7b7e9f;
      }

      .st7 {
        fill: #8493a2;
      }

      .st8 {
        fill: #c4a165;
      }

      .st9 {
        fill: #897f98;
      }

      .st10 {
        fill: #97929d;
      }

      .st11 {
        fill: #a1855e;
      }

      .st12 {
        fill: #9ca4a9;
      }

      .st13 {
        fill: #fff;
      }

      .st14 {
        fill: #627995;
      }

      .st15 {
        fill: #c5a363;
      }

      .st16 {
        fill: #c6a466;
      }

      .st17 {
        fill: #75889f;
      }

      .st18 {
        fill: #b1905f;
      }

      .st19 {
        fill: #93919f;
      }

      .st20 {
        fill: #b99d69;
      }

      .st21 {
        fill: #a59697;
      }

      .st22 {
        fill: #8a8b9c;
      }

      .st23 {
        fill: #d6cfaa;
      }

      .st24 {
        fill: #777d9b;
      }

      .st25 {
        fill: #c7bd92;
      }

      .st26 {
        fill: #8e803b;
      }
    </style>
  </defs>
  <g id="_レイヤー_1-2">
    <path class="st0" d="M241.6,60.7l1-.5c1,1.3,2.3,2.3,3,4.3l-4-3.8h0Z"/>
    <path class="st23" d="M31.3,172l1.2-.6c.8,1.3,2,2.2,2.3,3.9,0,0-3.5-3.3-3.5-3.3Z"/>
    <path class="st25" d="M84.8,20.5c-1.4.3-2.6,1.4-4.4,1,.6-1.2,1.9-1.3,2.9-1.9.1.7,1,.8,1.6.9h0Z"/>
    <path class="st26" d="M83.3,19.6c-.2,1,.7,1,1.6.9,6.7-1.5,13.6-1.2,20,2.3-14.2,12.9-28.3,4.8-36,8.3-3.7,1.7-7.2,3.9-9.8,7.6,7.9-3.3,15.4-4.7,23.4-2.2-12.5,15.9-29.3,10.8-35.5,15.9-3.2,2.7-5.9,5.9-7.7,9.7,6.6-5.9,14.8-8.8,23.3-8.2-8.1,17.4-23.7,16.7-29.2,21.5-3.6,3.1-5.3,7.7-6.4,12.5l4.5-5.3c4.7-4.2,10.3-6.9,16.3-8-.9,8.1-5,14-10.6,19l-11.1,8.2c-4.1,4.3-4.9,11-3.8,16.4,2.1-9.2,8.5-15.9,17.1-19.6,1.1,10.7-3.4,19.8-10.7,27-6.4,6.3-5.8,11.3-2.8,20,.9-9.3,4.6-17.3,12-22.2,3.3,10,1.7,20.1-3.6,29-2,3.4-2.5,7.4-.8,10.9,1.4,2.9,2.2,5.7,4.8,8.1-2.2-9-.9-17.1,4.8-23.9,5.6,8.8,7,18.8,4.6,28.6-1.2,5,.8,9,4.2,12.4,7.8,8,16.2,15.1,26.7,19.8-3.9-4.6-6.9-9.4-6.8-16,8.7,1.4,15.6,7.2,18.7,15.4,1.6,4.2,4.9,7.1,9.2,8.2,2.2.5,4,2.2,6.5,1.3-7.3-3.8-12.4-9.5-13.7-17.6,10.9,1.2,19.4,7.5,25.7,15.8,2.8,3.7,6.5,5.4,11,6.5l12.9,3.2,16-4.3c3.6-.9,6-3.3,8.1-6.1,6.1-8.2,14.7-13.9,24.9-15.2-1.2,8.3-6.6,14.1-13.8,17.5,2,1.1,3.6-.4,5.2-.7,5-.9,8.6-4.1,10.5-8.8,3.3-8.1,10.2-14,18.9-15.2-.2,6.6-3,11.4-7.4,16,8.7-3.7,16-9,23-15.2l5.6-6c3.1-3.3,4.2-7.4,3-11.8-2.7-9.6-.3-19.6,4.8-27.9,6.3,7,7.4,15.4,4.7,24.2,5.4-7.1,8.4-13,3.9-20.6-5.1-8.5-6.4-18.1-3.2-27.5,8.1,5,11.8,13,11.9,22.4,3.5-10.2,3.8-14.1-3.3-21.4-7-7.1-11.4-15.6-10.3-25.9,9,3.6,15.3,10.5,17.6,20.2.8-4.3,0-8.5-1.3-12.7-1-3-3.4-5.1-5.9-6.9l-10.2-7.2c-5.1-4.5-8.4-10.3-9.9-17.3,9.5,1.3,17.6,6.3,22.4,14.4-.3-3.4-2.2-5.9-3.4-8.9-1.4-3.3-3.8-5.6-7.3-6.9l-12.6-4.7c-6.9-2.6-12.1-7.9-15.2-14.6,8.6-.9,16.5,1.5,22.9,6.6,1.4.5,2.7,1.6,3.7,3.5-1.2-1.3-2.1-2.6-2.7-3.9-5.4-6.9-8-10-17.5-10.7-10.6-.8-20.3-4.9-27.3-12.8,8.9-3.1,16.8-1.2,25.1,2.6-3.5-3.9-7.6-6.9-12.4-8.6-6.6-2.3-20.9,4.7-35.3-7.8,7.7-4.1,15.5-3.6,23.9-1.8-4.2-3-8.8-4.1-13.7-5.2-9.2-2.1-17.2-7.2-22.2-15.4,4.1-1,7.7-.1,11.3.5,9.2,1.5,16,6.7,21.8,13.7,2.2,2.7,6.2,3.8,9,5.8-4-5.9-7.4-11.6-7.8-19,24.7,9.3,21.2,27.9,25.6,32l8.1,7.6c-3.3-7.1-5-14.1-3.5-21.8,12.2,7.7,17,17.4,16.2,31.3-.2,2.9.7,5,2.3,7.4l6,8.7c-1.7-7.9-2.5-16.5,1.9-24.3,9.9,10.6,12.1,23,6.4,35.7-.8,1.9-.6,3.4,0,5.3l3.8,11.7c0-9.6,2-18.4,8.6-25.5,12,23.2-5.8,34.8-5.8,39.5v13.7c2.4-9.8,7.5-18.2,16.5-23.1,3.8,24.8-13.2,29.7-17.8,37.8-2,3.5-2.5,7.6-3.4,11.8,5-8.4,12.1-14.9,21.9-17.2-3.5,26-24.3,26.5-28.4,32.9l-5.9,9.3c8.3-6.7,14.3-10.2,25.4-10.5-4.6,12-15.2,19.5-27.6,21.4-4.6.7-8.4,2.6-11.3,6.2-1.5,1.8-4.1,2.4-4.9,5.1,8.2-5.2,17-7.3,26.7-4.7-6.9,11.3-22.5,16.4-35.7,14.6-2.6-.3-5.1.4-7.3,1.6l-8.9,4.8c9.4-2,18.6-2,27.2,3.3-11,8.2-25.1,9.2-37.4,4.4-3.3-1.3-6.5-1.4-9.9-.3l-7,2.1c9.1.6,17.5,3,24.2,9.5-10.7,4.8-22.9,3.5-33-2.4-7.9-4.6-12.7-4.7-21.5-1.5,5.5,3.2,10.3,6.1,14.6,10.5-1.1,1.4-2.6,2.2-4.3,2.5-5.4-3.5-11.1-9.2-17.8-10.3-6.3,1-11.5,6.6-16.4,10.1-1.4.7-3.5-1-4.4-2.3,3.9-4.5,8.6-7.3,13.9-10.5-7.9-2.8-13.1-3.2-20.5,1.1-10.1,5.9-22,7.7-33.4,3,6.5-6.7,15.1-9.4,24.3-9.8l-6.4-1.8c-4.2-1.2-7.9-1.1-11.9.4-12.1,4.6-25.5,3.2-36.3-4.8,8.3-4.9,17.2-5,26.5-3.2l-7.9-4.6c-2.4-1.4-4.9-2.1-7.7-1.7-12.6,1.7-27.8-3.2-35.2-14.7,8.7-2.3,17.5-.7,25.5,3.9-4.5-6.1-8.6-9.3-15.6-10.5-12.2-2.1-22.4-9.5-26.9-21.4,8.4,0,16.3,2.7,22.2,8.4,1.3.2,2.4,1.2,3.4,3-1.3-1.2-2.1-2.4-2.2-3.6-1.7-2.8-2.9-6.7-5.9-8.3l-10.4-5.8C7,152.2,1.5,142.7,0,132c9.5,2.2,16.5,8.3,21.3,16.5-.8-4-1.3-8-3-11.4-2-3.8-6-6.1-9-9C1.6,120.7-1.3,110,.9,99.7l7.7,6c4.9,3.9,6.4,10.1,8.6,16.4v-12.9c0-4.4-17.9-16.9-5.7-39.5,6,6.6,8.5,15.3,8.2,24.1l3.2-9c.9-2.6,1.3-5.2.3-7.8-5.2-13.1-2.9-23.9,6.3-34.4,4.1,7.8,3.9,15.8,1.6,24.2l7.2-10.9c2.5-3.8-5.4-22.8,15.3-36.4,1.9,7.3.2,14-2.6,21.2,2.8-2,5.3-4.3,7.4-7.1,3.7-5,.9-22.7,24.3-32-.7,7-3.1,13.1-7.3,18.8,5.8-2.5,9.7-6.7,13.9-11.2C95.2,2.6,107.4-.7,116.7.4c-4.7,8-12.4,13.3-21.4,15.4-4.2,1-8.1,1.8-12,3.9h0Z"/>
    <path class="st13" d="M131.4,202.4l-.5,3.2c-3,1.2-6.1.2-7.7-2.6l-4.8-8.7c-1.1-2-2.2-3.5-4-5,3.7-.9,5.9-3.1,6.1-6.2.2-3-1.1-5.9-4.3-7.2-5.6-2.3-12.4-1.9-17.5,1.2-3.6,2.2-5,6.7-2.7,10,1.6,2.4,5.5,3.1,6.8.2-1.3-.6-2.7-.9-3.1-1.7-.6-1-.7-2.3-.6-3.6.3-4.5,4.7-6.6,9.1-6.5,2.4,0,4.5.6,6,2.2,2.6,2.6,2.1,8.6-.7,10.1-1.5.8-3.3,1.1-4.7.4v-10.1c-1.9-.2-3.2-.3-5.2,0,.8,1.1,1.2,2,1.2,3.3v14.1c0,1.7-.6,2.6-1.9,3.8h8c-1.4-1.4-2-2.2-2-3.8v-5.9c1.6-.2,2.7.6,3.4,1.9l4.3,8.6c3.2,6.3,11.2,9.1,17.3,5.7,1.5-.8,1.5-2.9.9-3.7-.7-.9-3-1.3-3.2,0h0Z"/>
    <path class="st13" d="M189.5,169.3c-1.7,0-3,.3-4.4,1.6-1.7-1.9-4.1-1.2-5.5.2.8.7,1.1,1.4,1.1,2.3v10.1c-.3.5-1.4,1.2-1.3,2.2l6.8-.2c-.7-.7-1.6-1.4-1.6-2.4v-9c0-1.4.9-2.3,1.9-2.6,1-.3,2.8-.1,2.9,1.6l.2,8.7c0,1.6-.5,2.6-1.7,3.8h6.9c-3.3-6,1.6-16.1-5.2-16.2h0Z"/>
    <path class="st13" d="M145,176.4l-4-1.8c-1.1-.5-1.6-1.6-1.3-2.7.2-.7,1.3-1.7,2.4-1.5,2,.3,2.8,2,3.8,4.1,1.6-1.1,1.4-3.2.5-4.4-.6-.9-6.8-1.9-9.1,1.3-.9,1.3-1.3,3.3,0,5,2.2,2.9,7.5,2.7,7.3,6.3,0,1.3-1,2.1-2.2,2.1-3.8.1-3.1-4.2-6-4.8-.3,1.1-.8,3.6.3,4.6,1.7,1.6,5,1.6,7.6,1,2.6-.6,3.6-2.9,3.6-4.8,0-1.8-1-3.5-3-4.4h0Z"/>
    <path class="st13" d="M157.5,183.5c-4.4-1-5.6-8.5-2.4-12.2,1-1.1,2.4-.9,3.1-.6.9.6.9,2.1,1,3.3,0,1.6,2.4,1.5,3,.3.5-.9.6-2.1-.5-3.2-2.1-2.3-5.7-2.3-8.5-.7-2.3,1.3-3.8,4.3-3.8,7.5,0,3.6,1.9,6.9,5.3,7.8,3,.8,7.1-.1,8.1-4.1-2,.9-3.4,2.4-5.3,1.9h0Z"/>
    <path class="st13" d="M204.9,170c-1.5,0-3.4-.1-3.4-.9l-.3-3.8c-1.9,2.1-3.3,3.8-5.7,5.1,1,.4,1.9.9,1.9,1.6l.3,11.4c0,2,2.5,2.6,4.1,2.3,1.3-.3,3.3-.6,2.9-2.9-.7,1.2-3.1,1.3-3.1,0v-11.6c1.3-.2,2.6.3,3.4-1.3h0Z"/>
    <path class="st13" d="M117.1,171.5c-.8-2.6-5.7-3.1-7.5-.6l.3.5c.7,0,1.5,0,2.3.1.9.3,1.4,1.3,1.4,2.5v7.4c0,1.6-.3,2.8-1.3,4.2h6.5c-2.6-3.8-.3-9.3-1.7-14.1h0Z"/>
    <path class="st13" d="M95.2,185.5c2.7.3,4.6.3,7.1,0-.9-1.1-1.5-1.9-1.5-3v-12.9c-2.1.2-3.3.6-5,1.4.8,1.2,1.1,2.3,1.1,3.7v7.1c0,1.6-.5,2.6-1.6,3.7h0Z"/>
    <path class="st13" d="M109.6,170.9c-.2.2-1,.5-1.1.3l-.7-1.4c-1.2-.3-3,.3-4.3,1.2.4.4,1.1,1.1,1,1.8v10.6c-.4.6-1.3,1.2-1.3,2.1h6.8c-1.9-1.9-1.6-4.1-1.5-6.5,0-2.9-.4-5.7,1.3-7.8-.5.2-.6,0-.3-.5h0Z"/>
    <circle class="st13" cx="98.7" cy="165.3" r="2.2"/>
    <path class="st13" d="M131.9,171.4c-2.3-3.3-8.3-2.6-10.6,0-1,1.1-.4,2.4.2,2.8,2.6,2,2-3,4.1-3.8,1-.4,2.1,0,2.5.5.7.9,1.2,2.5.5,3.5-1.7,2.5-8.7,1.6-8.4,7.4,0,2,1.1,3.4,3.3,3.9,1.8.4,3.5-.7,5.4-1.5,1,.6,2.3,1.8,3.3,1.6,1-.3,1.9-.4,2.9-1.9-4.4-.9-.5-8.9-3.1-12.7h0ZM126.5,183.8c-1.3,0-2.3-1.1-2.3-2.8,0-2.4,2.1-4,4.6-4.5.6,4.3.4,7.3-2.3,7.3h0Z"/>
    <path class="st13" d="M175.9,170.8c-1.5-1.4-3.8-1.8-6.1-1.3-4.3.9-6.2,5.4-5.6,9.6.4,3.4,2.7,6.2,5.8,6.7,3.2.6,6.8-.5,7.7-4.5-2.3,1.5-4,3-6.3,1.8-1.8-.9-3.3-2.7-3.3-5.8l9.5-.9c.5-2.2-.2-4.4-1.6-5.7h0ZM173.4,175.5l-5.4.8c0-2.1.7-5.6,3.3-5.8,2.2-.2,3.2,3.4,2.1,5h0Z"/>
    <path class="st13" d="M212.5,183.2c-1.8-.9-3.3-2.8-3.3-5.8l9.5-1c.6-2.4-.4-5.1-2.6-6.3-2.6-1.5-5.5-.9-7.9.7-2,1.3-3,4.1-3,7,0,3.7,2.1,6.9,5.4,7.8,3.2.9,7.3,0,8.3-4.2-2.3,1.5-4.2,2.8-6.4,1.7h0ZM212.5,170.5c2.2-.3,3.3,3.4,2.1,5l-5.3.8c0-2,.7-5.5,3.2-5.8h0Z"/>
    <path class="st17" d="M97.5,57.5v1.6c-.7.4-4,3.5-4,3.7.1,5.4,12,15.1,16.2,17.9,4.6,3.1,10.7,7.1,16.2,7.9,2.9-.8,5.6-.7,8.1.4,2.7,2.8,4.6,6.2,6.4,9.8.5,0,1.3,0,1.3.4.9,3.6,1.3,8.7.4,12.3l-2,3.6c-3.3-7.1-14.2-18.7-17-15.4-2.5,2.9,0,10.3,4.5,15,2.1,5.1,5,9.5,8.7,13.2l.2,1.7-3.8,4.8-11.7-11.2c-8.1-7.8-12.3-19.6-6.5-30-5.8-2.2-11-5.7-16.2-9.5-13.7-10-20.7-26.1-12.2-40.4,3.3-5.6,9.7-10.8,17.2-11.9-9.7,5.7-10.7,18.6-5.7,26.1h0Z"/>
    <path class="st3" d="M160.7,77.2l2.1-.5c1.7,1.6,3.2,3.5,4.5,5.7,1.7-1.5,3.1-1.9,4.3-1.2,2.5-1.7,7.8,1.9,6.7,4.6-4,2.9-8.2,5.5-12.9,7.3.6.9,0,1.6-1.5,2.1,2.3,5.3,1.8,10.9-1.7,16.8,2,.9,2.9,2.1,2.7,3.5-2.3,3.9-5.7,7.1-9,10.5l-10.9,11c-6,6.1-8.7,13.6-8.5,22.5-8.7-11.9-6.2-20,2.4-30.4,1-.6,2.4-.6,4.2,0,4.7-4.9,9.2-9.8,13.5-14.7-1.9-.8-2.5-1.7-1.9-2.9,2.3-2.8,3.4-6.3,2.8-10.1-1.2-7.1-12.5,5-15.4,10.3-.8-.9-.5-2.4-.6-3.9l-1.1-8.8c1.6-8.9,13-16.1,20.3-21.7h0Z"/>
    <path class="st2" d="M90.3,80.7c1,1.4,1,3.2,0,5.5.7,3.2,3.2,4.8,7.6,4.9,2.9,1.1,4.9,3.4,6.1,6.8l2.2,1.1c1.5,0,2.7.4,3.6,1.1v7.1c0,0,1.5,6.4,1.5,6.4l-18.6-10.5c-6.8-3.8-13.1-8.8-17-15.8-7-12.7-5.4-29,3.9-40.2-2.4,15,.2,23.7,10.5,33.6h0Z"/>
    <path class="st16" d="M189.5,75.7c-.5.6-1,.9-1.5.8l-4.6-4.2-9.3,8.6-2.5.2-4.3,2.9c-2.7-1.9-3-6-6.5-6.8,7-5.2,14-10.5,19.7-17.3,3.2-3.9,4.3-8.4,4.4-13.3.2-6.5-3-11.5-8.3-15.4,9,1.1,15.6,7.7,18.6,14.5,3.9,8.8,2.9,17.8-2.3,25.1l-3.5,4.9h0Z"/>
    <path class="st24" d="M102,112.2c2.2,2.4,4.7,4.4,7.5,6.3,1,2.7,2.3,5.1,3.9,7.4l10.2,7.5c3.4,2,5.6,4.4,6.7,7.4l-.3,10.1c-12-12.4-27-19.3-40-30.7-9-7.9-13.8-17.2-15.8-29.4,7.4,11.1,16.4,15.6,27.8,21.3h0Z"/>
    <path class="st9" d="M178.9,88.8l2.2-.5c5.4,2.5,7.3,3.1,11.6-1.5,7.4-8,10.7-14.8,12.1-25.6.4-1.3,1.1-1.5,2.3-.9,4.4,15.5-2,31.1-15.5,39.8-7.5,4.9-15.1,8.9-23.1,13.4,1.8-6.1,2.2-12.1.5-18.3l9.8-6.4h0Z"/>
    <path class="st4" d="M184.5,125.2l-17.9,12.7c-10.3,7.3-20.6,15.2-25.7,27.6-5.8-13.1.3-23.2,9.7-32.3,1.7-.5,3.5-.7,5.6-.6l2.7-1,19.1-13.3c3.8-1.1,9.4,3.4,6.6,6.9h0Z"/>
    <path class="st6" d="M159.4,59.4c-15.1,2.9-20.3,19.2-18.2,33l-.3,1.3c-.2.5-.4,1-1.1,1.2-3.4-5.8-7.8-10.3-13.3-14,2.9-5.3,3.4-11.1,6.9-15.9-4.8-.1-9-2.1-9.5-7,4.4,1.8,8.2.9,12.1-.7l9.1-3.8c3.1-1.2,6.3-.7,8.7,1.8,3.9-1,7.8.9,8.2,4.7-1.1.2-1.9-.3-2.7-.5Z"/>
    <path class="st22" d="M184.5,125.2c-.5-3.4-2.4-6.1-6.2-5.7l-17.6,12.5c-3.1,2.2-6.7,2.7-10.1,1.2l13.9-13.5c3.7-3.6,8.7-5,13.1-7.6,10.9-5.1,21.1-10.5,27.9-20.8-.6,9.2-4.6,16.7-9.8,23.5-3.3,4-6.9,7.4-11.1,10.4h0Z"/>
    <path class="st7" d="M134,89.1c-1.1,1-3.4,0-4.4.3-4.9,1.5-8.2-.1-12.1-2.5-5-3.1-10.1-5.4-14.5-9.4-4.5-4.1-9.1-8.4-10.8-14.7,1.2-2.2,3.2-3.8,5.2-5.2,9.2,13.9,26.4,20.9,36.5,31.6h0Z"/>
    <path class="st11" d="M166.7,42c-5.7.3-10.9-.9-15.5-3.6l.5-1.6c5.6-4.8,13.3-7.3,21-5.1,5.5,1.6,9.3,6.5,10.2,12.1,1,5.5-.6,10.9-4.1,15.3,1.2-8.8-4.5-15-12.1-17.1h0Z"/>
    <path class="st21" d="M207.2,60.3c-1.1.6-1.4,1.9-1.7,3.4-.9,5.8-2.2,11.5-5.6,16.3-2.8,3.9-5.7,7.6-9.4,10.5-2,1.5-4.3,1.4-6.4.6l-5.3-2.2c6.5-4.3,12.1-9.4,16.7-15.7,5.6-7.8,6.7-17,3.8-26.7,4.3,3.8,6.3,8.7,7.8,13.9h0Z"/>
    <path class="st3" d="M159.4,59.4c-4.3,1.3-7.6,5.1-8.8,8.4-1.9,5.1-.1,9.9,1.8,13.6-4.1,3.7-8.9,7.4-11.6,12.3-.7-.3-1.3-1-1.3-2l.2-10.8c.9-6.9,3.8-13.4,9.2-17.8,3.1-2.5,6.9-4.8,10.4-3.7Z"/>
    <path class="st14" d="M109.9,31.1c7.6,1.6,5.8,6.4.3,9.9l-3.2,3.9c-4.1,3.3-6.2,7.7-6.5,13.7-3.7-3.7-4.6-8.5-4.2-13.4.7-7.7,6.4-13.2,13.6-14.2h0Z"/>
    <path class="st10" d="M130.2,140.7c-5-4.9-10.7-8.8-16.4-12.8-2.4-1.7-3.6-4-4.3-6.8-1-4.1-7.9-4.3-7.6-9,4.8,2.4,10,4.1,13.9,7.8l16.1,15.4-1.7,5.4h0Z"/>
    <path class="st19" d="M109.9,107.2c-.5-2.1-.5-4-.4-6.7-2.7.4-6.5-.8-7.3-3.3-1.1-3.2-2.8-5-6.6-5.3-3.5-.3-6.9-2.5-6.4-6.5.2-1.6,1.3-3.2,1.1-4.7,7.5,7.2,20,13.3,20.5,14.6.4,1-.5,2-.5,2.9l-.3,9h0Z"/>
    <path class="st1" d="M126.2,35c2.2,2.2-1,5.5-3.1,6.8-3.1,0-6.1.2-9.1.3-2.5.5-4.7,1.5-6.9,2.8.4-6.8,10-7.6,5.8-11.2l-2.9-2.6c5.9-.8,11.4.6,16.3,3.9Z"/>
    <path class="st18" d="M189.5,75.7c-2.9,4.1-7.1,7-11.1,10-1.8-2.2-3.8-4-6.7-4.6,4-2.7,6.8-6.7,10.9-9.8,2.2-1.7,4.5,4,6.9,4.4h0Z"/>
    <path class="st5" d="M113.9,42.1c.8-.2,1.8-.9,3.2-.6,4.6.9,8.3-2.1,9-6.4,6.1,4.1,10.9,10.3,12.3,18.4-5.1-4.9-10.3-9.1-17-10.9l-7.5-.4h0Z"/>
    <path class="st15" d="M139,129c4-4.9,8.8-9.1,13-14.1l2.9-3.4c1,1,2.2,1.4,3.5,2-.3,1.7-1.3,3-2.4,4.1-4.3,4-8,8.2-12,12.5-1.4.9-3.8-.5-5-1.1h0Z"/>
    <path class="st20" d="M151.7,36.8c1.1,2.9,4.7,1.2,8.3,4.4l6.7.8c-6.7-.6-13.2,1.1-18.6,5.4l-6.4,5.1c1.2-7.1,5.2-11.6,10.1-15.7Z"/>
    <path class="st8" d="M164.9,115.4l-4.4-3.2,2.8-6.5c1.6-3.8,1.1-7.9-1.4-11.4l3.5-1.3c4,6.8,3.5,15.6-.5,22.4h0Z"/>
    <path class="st12" d="M136.4,129.6c-3.2-2-5-4.8-6.7-8.1-1.2-2.2-3-4-2.2-6.8,3.7,3.9,7.9,7.3,11.3,11.9-.5,1.2-1.7,2-2.4,3h0Z"/>
  </g>
</svg>