<?xml version="1.0" encoding="UTF-8"?><svg id="_レイヤー_2" xmlns="http://www.w3.org/2000/svg" width="177.1427" height="172.9855" viewBox="0 0 177.1427 172.9855"><g id="Layer_1"><path d="M163.6419,119.9613s.0945-.0318.0857.3339c.4955.2103.991.4206,1.7335.7054.1984.1568.3967.3137.6558.8328.0346.0723.0497.1704.1064.2131,2.3384,1.7602,7.3604,1.1672,9.8094-2.1155,1.667-2.2343,1.4362-8.2111-.5567-9.8987-.4314-.3653-1.1521-.3889-1.7158-.5997,0,0-.026.0313-.0572-.3114-.4768-.2007-.9535-.4014-1.4113-.6472,0,0-.0247.0467-.0393-.2989-.4715-.2106-.9431-.4211-1.4009-.6728,0,0-.0206.0408-.0295-.3107-.981-.5123-1.9621-1.0245-3.2174-1.6258-.3836-.2801-.7671-.5603-1.149-1.1969-.7946-.3808-1.5892-.7617-2.3861-1.1983,0,0-.0117.0549-.0163-.2839-.3446-.1526-.6892-.3051-1.0823-.4901,0,0-.0486-.0324.0662-.362-.6103-.2304-1.2207-.4608-2.1069-.7757-.2213-.1749-.4425-.3498-.6987-.8602-1.1798-1.1078-2.1846-2.5754-3.5744-3.2515-3.3097-1.6101-3.7224-2.2878-2.6781-5.9013.3246-1.1231.301-2.3469.4683-3.9075.487-4.6566,1.5033-9.3327,1.3334-13.9652-.2378-6.4787-2.9831-11.8724-9.5477-14.9526-2.0879-1.2938-4.1759-2.5877-6.1981-4.3394-.0336-15.0413-.0829-30.0826-.0851-45.1239-.0004-2.4855-.7565-4.3782-3.3559-5.5518-5.449-4.3316-6.6742-4.3792-12.5872-1.0039-5.1939,2.9649-10.4629,5.7983-15.8624,8.393-1.1906-.9906-2.3812-1.9812-3.7636-3.2423-2.0589-1.8552-4.3257-1.7465-6.6421-.6243-3.4981,1.6945-5.9941,4.3429-7.5897,8.2658-.3366.9655-.6732,1.9309-1.152,3.1673-.0343.2991-.0685.5982-.2869,1.2115-.1376.8539-.2751,1.7078-.742,2.6162-8.3522,4.7215-16.6928,9.4635-25.0619,14.1548-3.6084,2.0227-7.6056,3.519-9.9956,7.5591-1.661.9009-1.3843,2.3571-1.1153,4.1988-.0104.5052-.0207,1.0105-.1195,1.5041,0,0-.0848-.0276-.3609.0542.0663.4884.1325.9768.2876,1.9024.0439,3.5467.0877,7.0934.0417,11.0532-.0171,1.1255-.0341,2.2511-.244,3.7297-.0377,1.8202-.1512,3.6429-.0936,5.4601.0716,2.2567.2846,4.5089.5069,7.1611-.0181.6718-.0362,1.3437-.3364,2.3016.0855,4.0824.1709,8.1648.327,12.6923-.0262,2.2623-.0524,4.5245-.4304,6.7932-.3509.2586-.8932.4443-1.0236.7868-1.6466,4.3261-6.1297,5.2982-9.3241,7.73-2.0133,1.5326-4.8295,1.9635-7.1679,3.1253-5.8011,2.882-11.5504,5.87-17.2876,8.878-2.3157,1.2141-4.6212,2.4786-6.7932,3.9271-2.0859,1.3911-3.899,3.1954-6.0002,4.5587-3.5255,2.2873-4.9525,7.8357-2.6743,11.2927.2848.4322.8116.7398,1.2815,1.0086,1.2635.7229,2.5947,1.3326,3.829,2.0999,1.6197,1.0068,3.1432,2.1678,4.7596,3.1804,3.6522,2.2879,7.2905,4.6038,11.0198,6.761,3.6012,2.0831,7.3093,3.9814,11.0269,6.2961.7863.3695,1.5726.7389,2.696,1.1439,2.1415,1.2673,4.283,2.5347,6.6623,3.8199,0,0,.2384-.002.2716.3401,1.2759.6851,2.5518,1.3702,4.0613,2.0712,0,0,.234.0052.2868.3348,1.7527.8522,3.5054,1.7044,5.2576,2.5588,0,0,.0024-.0018.0613.3463,2.2933.6873,4.5528,1.5909,6.8962,1.9573.9637.1507,2.1083-.8555,3.5418-1.3403,1.1716-.7894,2.3431-1.5789,3.8075-2.407.1958-.0213.3915-.0426.9522-.0512,1.6616-1.1109,3.3232-2.2218,4.9926-3.327,0,0-.0035-.0076.3705.0045,2.445-1.4512,4.8902-2.9024,7.6329-4.3865.1987-.0194.3974-.0388.9206-.0252.2374-.3014.4747-.6027,1.0124-.9432.3618-.1732.7236-.3463,1.4319-.4872.5449-.4707,1.0897-.9414,1.853-1.4419,0,0,.2191-.0241.5792-.0088.8645-.624,1.7291-1.2479,2.9025-2.015,5.1066-2.9347,10.2145-5.8675,15.3196-8.8048,5.6902-3.2739,11.3839-6.5416,17.0643-9.8326,2.7771-1.6089,5.5271-3.2645,8.468-4.6422,3.5623-2.0841,7.1553-4.1193,10.6477-6.3146.4344-.2731.5541-1.4337.4368-2.1175-.2504-1.4606-.7517-2.8782-1.1497-4.6376.0428-.2115.0856-.423.3096-.7806-.0396-.271-.0792-.542-.1751-1.2078.0247-.6622.0495-1.3244.3773-2.0942-.1301-1.2622-.2603-2.5245-.4944-4.0612-.0509-.0835-.1018-.167-.0118-.5498,1.8979-2.2002,3.7959-4.4005,5.9403-6.3826.2678.3426.5355.6852.7974,1.3889.0292,2.311,1.441,3.5472,3.561,4.6417,2.6996,1.8006,5.3991,3.6011,8.0989,5.7568.7953.3897,1.5906.7795,2.3474,1.2025,0,0,.0306-.0408.0693.315.5043.1905,1.0086.3809,1.7624.6368.1976.1544.3952.3088.6993.6998.1542.0632.3084.1264.3639.2037Z" fill="#fdfefd"/><path d="M104.5726,7.8229c1.1906.9906,2.3812,1.9812,3.6836,3.2965,1.12.9965-.6757,3.4409,1.8716,3.3175-.3253.9677-.6366,1.7486-.9456,2.5239,3.0975-1.283,5.9236-2.4536,8.8334-3.5894.0836.0348.259.0792.2635.2474.3759,2.975.7473,5.7819,1.0741,8.7999-.0763,1.0911-.1476,1.9716-.1317,2.8506.0431,2.3765-.8989,4.0147-3.0633,5.2249-11.5195,6.4408-22.979,12.9889-34.5985,19.4498-.2104-.1183-.2816-.1865-.3633-.4836-.0041-3.5875.0025-6.9461.0082-10.3046.003-1.7984-.7618-2.8105-2.8987-2.7313,0,2.8098,0,5.5155-.0785,8.3364-.3206.241-.5625.3667-.8089.2699-.0592-2.968-.114-5.7134-.072-8.5845.4058-.6752.7149-1.2248,1.1964-1.7688.9872.3061,1.8021.6066,2.7141.9429.8913-2.9729,3.3453-4.4343,5.8821-5.9109.8722-.5077,1.3842-1.6342,2.2553-2.5491.6061-.1165,1.0176-.1619,1.5526-.0669,2.9595-.1962,5.8006-.4966,8.6287-.8903.9135-.1272,1.9002-.3326,2.6518-.8159.5423-.3487.7509-1.2163,1.1084-1.8524-.6272-.2982-1.2544-.5964-1.9648-1.0516-1.0836-.5516-2.0841-.9462-3.0234-1.4794.3555-.3732.6501-.6078,1.1269-.7758,1.2193-.1625,2.7441-.0622,3.1749-.7004.5943-.8803.4887-2.3295.3804-3.5072-.022-.2385-1.3898-.3533-2.2883-.5437-1.1475.4492-2.1439.9169-3.2528,1.4411-.1914.2012-.2702.3458-.3189.4904.0301,0,.0576.0535-.118.0303-1.5839-.0488-2.7867,2.2717-4.3324.1894.1672-.5503.305-.9465.5636-1.4458,2.7267-4.3663,5.6885-8.148,11.2896-8.3593Z" fill="#444c50"/><path d="M146.4003,58.707c6.3974,2.7937,9.1427,8.1875,9.3805,14.6662.1699,4.6325-.8464,9.3086-1.4744,14.276-1.4146,3.6075-2.6883,6.9042-4.0702,10.3357-.7632,1.3323-1.4182,2.5299-2.2191,3.788-.8712,1.082-1.5963,2.1036-2.3214,3.1251-1.8979,2.2002-3.7958,4.4005-5.9192,6.7813-2.1873,1.6999-4.1492,3.2192-6.2797,4.7991-5.2085,2.7049-10.4174,4.2795-16.242,2.487-.3569-.1863-.6146-.2753-.9641-.4705-.352-.1872-.6123-.2682-1.0045-.4573-1.6785-1.1565-3.2248-2.205-4.6292-3.3535-.0318-.9061-.1813-1.7183-.3838-2.517-.6805-2.6843-1.38-5.3637-1.9513-8.1405-.1137-.516-.3483-.9364-.5907-1.5578-.0111-.8724-.0145-1.544-.0151-2.3847.3216-.5327.6402-.8963,1.059-1.1939.0351-.4572-.0301-.9802-.0975-1.6623-.0052-.371-.0081-.5829.0982-.8516.2082-.1852.3071-.3138.5762-.413,1.4858.4907,2.8013.952,4.1482,1.6106.1287,1.2273.2262,2.2572.3309,3.473.2455,1.1599.4837,2.1339.6986,3.2885.4273,1.3556.878,2.5307,1.387,3.8581,1.7265,3.173,4.3542,4.344,7.7884,4.2785,3.0089,1.2877,5.5559.0507,8.2792-1.1492.9667-.5306,1.7541-1.061,2.5677-1.5478,4.8005-2.8724,8.1751-7.0389,10.9396-11.9802.9984-2.1299,1.8708-4.157,2.7413-6.1933-.0019-.0092-.0125.0059.1043-.0382.21-.1812.3031-.3182.5257-.5633,1.1038-3.2013,2.0781-6.2945,3.0524-9.3878-.2794-.0774-.5587-.1548-.8381-.2322-.1632.7393-.1578,1.5833-.5343,2.1904-.4294.6925-1.1991,1.174-1.8162,1.5568.2934-1.6504.5818-3.1105,1.0644-4.628.4037-1.7286,1.1374-3.5541.7015-5.0353-.6767-2.2991-2.1501-4.3636-3.2701-6.5323.0157-.0047.0128.0279-.0006-.1357-.2253-.3859-.4373-.6081-.7822-.9104-1.4515-.7984-2.7701-1.5168-4.2179-2.3201-.8144-.0967-1.4998-.1086-2.3126-.2614-1.1562-.1186-2.1851-.0964-3.2468-.2552-1.3214-1.2502-2.6097-2.3193-3.7891-3.5177,3.5026-1.9318,7.1107-2.8621,11.1759-2.767.9254.0004,1.6383-.0284,2.3512-.0572Z" fill="#3d4549"/><path d="M32.9631,160.0627c-3.6612-1.9795-7.3693-3.8777-10.9705-5.9608-3.7293-2.1571-7.3676-4.4731-11.0198-6.761-1.6164-1.0126-3.14-2.1736-4.7596-3.1804-1.2343-.7673-2.5655-1.377-3.829-2.0999-.4699-.2688-.9967-.5764-1.2815-1.0086-2.2782-3.457-.8513-9.0054,2.6743-11.2927,2.1012-1.3633,3.9143-3.1675,6.0002-4.5587,2.1721-1.4486,4.4775-2.713,6.7932-3.9271,5.7372-3.008,11.4865-5.9959,17.2876-8.878,2.3384-1.1618,5.1547-1.5926,7.1679-3.1253,3.1945-2.4318,7.6776-3.4039,9.3241-7.73.1304-.3425.6727-.5282,1.2575-.57.2044,4.0888.1749,7.9608-.0377,11.8287-1.1022-.0351-2.2055-.4119-2.9086-.0374-3.1354,1.6702-6.1422,3.5797-9.2226,5.3556-3.0304,1.7471-6.1006,3.4248-9.1403,5.1559-3.8237,2.1776-7.7284,4.2326-11.4193,6.6173-2.7489,1.7761-5.8317,3.2972-7.3761,6.5005-.0896.1857-.3681.3562-.5829.3934-1.4693.2548-1.8563,1.3243-1.5355,2.4924.4244,1.5456.776,3.4013,1.834,4.4279,3.0679,2.9768,6.389,5.7154,9.7814,8.3257,1.71,1.3158,3.7894,2.1515,5.826,3.2564.3608.1804.5971.3088.8536.6093.8428.792,1.6667,1.4103,2.4881,2.032.9353.708,1.8683,1.4191,2.8011,2.1299-.0014.001-.0058.0049-.0058.0049Z" fill="#f7f6f1"/><path d="M119.3979,22.2076c-.3715-2.8068-.743-5.6137-.9703-8.5777.5914-.2957,1.0789-.3616,1.4799-.5836,5.6027-3.1023,11.1935-6.2259,16.7873-9.3443,2.4987.8772,3.2548,2.77,3.2551,5.2555.0022,15.0413.0516,30.0826-.1568,45.334-2.1821.0161-4.1222-.178-6.0528-.5929-.019-11.2009-.0462-22.1808-.0786-33.1608-.0024-.8003.0326-1.6109-.0774-2.3989-.3689-2.642-1.4059-3.0941-3.7151-1.7784-3.4735,1.9789-6.9792,3.901-10.4713,5.8472Z" fill="#e2a653"/><path d="M51.753,112.8032c.0295-3.872.0591-7.7441.0306-11.8361-.0318-2.4823-.0057-4.7445.0426-7.449-.0077-4.4735-.0373-8.5049-.0669-12.5363.0181-.6718.0361-1.3437.0718-2.4246.0214-1.7022.0253-2.9952.131-4.442.0281-1.3604-.0455-2.5671-.12-3.9467.0001-.519.001-.865.1094-1.3765-.0008-2.3069-.109-4.4483-.2173-6.5896-.0438-3.5467-.0876-7.0934-.1011-11.0435.0063-.7958-.0178-1.1883-.042-1.5807,0,0,.0848.0276.25.1131.254.3541.3428.6227.4252,1.1139.0895,1.7358.0509,3.2721.3056,4.7582.9146,5.3368,1.8925,10.6249,1.6694,16.1165-.3499,8.6104-.4122,17.2359-.4296,25.8553-.0129,6.3656.2691,12.7313.3625,19.0978.0496,3.3851.0198,3.408,3.3705,3.1204.0309.6968.0499,1.2035.0523,1.896-.0011.5579.0146.9301.0127,1.4772-.0019.5257.0138.8764.0066,1.4509-.0327,2.1722-.0425,4.1206-.1971,6.0872-.2981.216-.4513.414-.6044.612.2533.1087.5065.2173.8907.4773.203,5.0343.275,9.9174.3389,15.0264-.0062,3.8338-.0685,7.443.0168,11.0487.0754,3.1868.3154,6.3696.3098,9.5182-3.9204-1.9059-6.8883-4.0728-6.2774-9.1226.428-3.5381-.0386-7.1845-.0628-10.9963-.0474-2.7746-.1376-5.3354-.2034-8.1218.002-3.6144-.0204-7.0033-.0117-10.5832.0122-.7055-.0067-1.2201.0021-1.8544.0098-.1998-.008-.2799-.0002-.4804.0098-.2011-.006-.2817.1121-.4961.052-1.491-.0297-2.8481-.0829-4.398-.0072-.7083-.0429-1.2239-.0397-1.9299.0148-.7062-.0091-1.222.0121-1.8964.0168-.3746-.0116-.5907,0-1.0182.0047-1.3566-.0306-2.5016-.066-3.6467Z" fill="#ae6f31"/><path d="M78.3704,34.6718c-.309.5496-.6181,1.0992-1.1975,1.7924-1.9972,1.0878-3.7763,1.9489-5.4395,2.9943-2.9986,1.8849-5.9278,3.8803-9.0297,5.9061-3.1782,2.3317-4.1516,5.5463-4.1604,9.1063-.0398,16.2266-.0255,32.4533-.1781,48.6807-.3434-.0084-.5395-.0175-.7493-.2498-.0481-16.9215-.0824-33.6197-.0772-50.5027.3143-1.0071.7123-1.8133.8231-2.6571.0825-.6281.0224-1.6109-.3713-1.906-1.5005-1.1248-3.162-2.0349-4.7595-3.1782.0184-.3561.033-.5593.0476-.7625,2.0221-4.0325,6.0193-5.5288,9.6277-7.5515,8.369-4.6914,16.7097-9.4334,25.2718-13.9822-.0856,1.5274-.3813,2.8822-.8288,4.2192-.3892.1333-.6266.2843-1.0202.4899-1.867,1.0695-3.8046,1.8431-5.2198,3.1727-1.2215,1.1477-1.8489,2.9279-2.7389,4.4285Z" fill="#e7ba6d"/><path d="M133.6655,116.4178c1.9618-1.5193,3.9237-3.0387,6.0405-4.589.206.0526.2568.1361.3114.5684.065,1.5059.1263,2.663.1876,3.82-.0247.6622-.0495,1.3244-.1043,2.3381-.012.5685.0059.7854.024,1.0024-.0428.2115-.0856.423-.2499.9105-.6669,1.6518-1.2125,3.0276-1.8993,4.4824-.9192,1.0854-1.4976,2.4119-2.5096,3.0425-4.1917,2.6122-8.5146,5.014-12.8705,7.339-2.7225-1.9687-5.4776-3.3369-8.7171-2.5145,5.3054-3.1,10.3859-6.306,15.7438-8.9497,3.3834-1.6694,4.7618-3.8413,4.0433-7.4503Z" fill="#da984d"/><path d="M136.6445,3.5537c-5.5434,3.2666-11.1343,6.3902-16.737,9.4925-.401.222-.8884.288-1.4842.4154-.1486-.011-.3241-.0554-.4518-.2493-1.2076-1.7602-2.6245-2.0035-4.23-1.1357-1.2316.6657-2.4018,1.4448-3.5994,2.1734-2.5614.3102-.7657-2.1342-1.8038-2.9823,5.2059-3.0679,10.4749-5.9013,15.6687-8.8662,5.913-3.3753,7.1381-3.3278,12.6376,1.1521Z" fill="#e7ba6d"/><path d="M122.6766,135.4864c4.2747-2.4791,8.5976-4.8809,12.7893-7.4931,1.012-.6307,1.5905-1.9571,2.6369-2.9371.4695,1.92-.419,3.0785-2.0496,3.9947-2.1261,1.1947-4.1197,2.6253-6.1704,3.9543-2.7622,1.6344-5.5122,3.29-8.2893,4.8989-5.6804,3.291-11.3741,6.5587-17.0643,9.8326-5.1052,2.9373-10.213,5.87-15.6451,8.8855-1.196.6935-2.0665,1.3062-2.937,1.919,0,0-.2191.0241-.4934.0512-.8247.4789-1.375.9307-1.9253,1.3825-.3618.1732-.7236.3464-1.3871.5514-.5462.314-.7907.5962-1.0351.8783-.1987.0194-.3974.0388-.9185.0877-2.7765,1.468-5.2305,2.9064-7.6845,4.3449,0,0,.0035.0076-.1725.0163-1.8445,1.1077-3.513,2.2067-5.1815,3.3056-.1958.0213-.3915.0426-.9164.0869-1.4984.3503-2.6678.6775-3.8438.8787-.0064-.2097-.0061-.2933.0027-.5166.0374-.322.0665-.5044.2893-.7234,1.7636-.6798,3.4248-1.1618,4.8884-1.9922,10.1918-5.7822,20.3426-11.6367,30.6174-17.4994.2553-.1118.3428-.2332.3768-.4048.0034-.0091.0172.0046.1891-.008,2.481-1.4465,4.79-2.8804,7.2041-4.3315.105-.0172.3055-.0889.4609-.0798.5508-.2829.9462-.5749,1.5141-.8829,5.0299-2.744,9.8874-5.4719,14.7448-8.1998Z" fill="#d5c6af"/><path d="M133.7308,53.9193c1.9401.194,3.8803.3881,6.0295.601,2.297,1.3127,4.385,2.6065,6.5565,4.0436-.6293.172-1.3422.2008-2.308.0188-2.926-.0778-5.6513-.2196-8.2551.2765-2.0255.3859-3.8994,1.5667-5.8651,2.2228-1.464-1.6639-2.9035-3.1565-4.2034-4.7519,2.775-.8721,5.4104-1.6414,8.0457-2.4107Z" fill="#6d777f"/><path d="M92.69,17.7821c1.575,1.9282,2.7779-.3923,4.3318-.1585-.0336,1.4791-.2125,2.7499-.3791,4.2009,1.2521,2.9021,1.9688,2.9971,4.8115.8157.6272.2982,1.2544.5964,1.8816.8946-.3575.6361-.5661,1.5037-1.1084,1.8524-.7516.4833-1.7383.6887-2.6518.8159-2.8281.3937-5.6692.6941-8.6279.67-.1145-1.2304-.1391-2.1018-.0916-2.9693.1028-1.8763.0589-3.6733-1.9619-4.6454.0343-.2991.0686-.5982.3547-.9798.877.2361,1.5021.5547,2.2233.9224.4149-.4835.8163-.9512,1.2176-1.4189Z" fill="#3d4549"/><path d="M166.0561,121.4711c-.1984-.1568-.3967-.3137-.7955-.6418-.6418-.4141-1.0831-.6569-1.5243-.8997,0,0-.0945.0318-.0976-.0928-.1579-.1883-.3126-.252-.4673-.3157-.1976-.1544-.3952-.3088-.8063-.6244-.6715-.3846-1.1296-.608-1.5876-.8315,0,0-.0306.0408-.0902-.1147-.8024-.571-1.5453-.9866-2.2881-1.4021-2.6996-1.8006-5.3991-3.6012-8.1221-5.6506.1124-.3441.2482-.4394.5893-.5316,1.1707-.0075,2.1362-.0181,3.1767.1247.3085.3672.5175.6191.7795.789,3.808,2.4685,7.5519,5.0481,11.4678,7.3327,1.851,1.08,4.0346,1.59,6.2207,2.3651.3577.0104.5621.0139.6472.1446-2.405,1.523-4.7377,1.439-7.1022.3486Z" fill="#ae6f31"/><path d="M104.4767,7.6876c-5.5052.3465-8.467,4.1282-11.3337,8.4368-1.1014-.3681-1.9419-.7815-2.7824-1.1949,1.3842-3.6586,3.8802-6.3069,7.3782-8.0015,2.3164-1.1221,4.5833-1.2308,6.738.7596Z" fill="#838b94"/><path d="M160.2666,100.7342c.2212.1749.4425.3498.88.6954.7362.4253,1.256.68,1.7759.9346,0,0,.0486.0324.125.1733.3877.3233.6991.5057,1.0105.6881,0,0,.0117-.055.0936.109.8221.5729,1.5623.9819,2.3025,1.3908.3836.2801.7671.5603,1.3789,1.018,1.1515.7183,2.0748,1.2589,2.9982,1.7996,0,0,.0206-.0408.0794.1159.4914.3916.924.6267,1.3567.8617,0,0,.0247-.0467.0832.1117.5003.3828.9421.6072,1.3839.8316,0,0,.026-.0313.0853.1268.6968,1.0183,1.3343,1.8783,1.7778,2.7359-1.0292-.2439-1.9782-.3072-2.681-.756-4.3371-2.7696-8.6932-5.5223-12.8713-8.5199-1.1811-.8474-1.7878-2.4954-2.5077-3.7086,1.0098.5091,1.8695.9506,2.7292,1.3921Z" fill="#d6a157"/><path d="M53.2272,44.8106c1.6013.9903,3.2629,1.9004,4.7633,3.0252.3937.2951.4538,1.2779.3713,1.906-.1108.8439-.5088,1.65-.998,2.6352-1.84-.4896-3.4656-1.142-5.0912-1.7945-.0888-.2686-.1776-.5372-.3874-.8855-.1106-.585-.1002-1.0902.0458-1.8937.5225-1.1964.9093-2.0946,1.2962-2.9928Z" fill="#da984d"/><path d="M46.9447,167.7783s-.234-.0052-.3781-.1772c-1.4128-.8618-2.6817-1.5516-3.9505-2.2414,0,0-.2384.002-.3607-.1734-.2867-.6986-.451-1.2218-.4909-1.7491.2075-.0076.2904-.0111.5521-.0118.5361.0082.8935.0136,1.2792.1837.4921.3751.9559.5857,1.5169.9264,3.1641,1.7711,6.1545,3.5843,9.3243,4.9938,2.1977.9771,4.6427,1.3981,6.8488,2.2129-1.3102.1462-2.5149.2938-3.6686.1143-1.8047-.2809-3.575-.7831-5.3599-1.1916,0,0-.0024.0018-.0746-.148-1.7942-1.0127-3.5161-1.8757-5.2381-2.7386Z" fill="#ece4d9"/><path d="M160.2491,100.5665c-.8422-.2738-1.7019-.7153-2.817-1.3559-2.0296-1.3609-3.8549-2.269-6.1755-1.3617-.3909.0033-.6515.0022-.9122.0012,1.2737-3.2967,2.5473-6.5935,3.9462-10.0095-.0105,1.0584.0131,2.2822-.3115,3.4053-1.0442,3.6135-.6316,4.2912,2.6781,5.9013,1.3898.6761,2.3946,2.1437,3.5919,3.4193Z" fill="#ece4d9"/><path d="M129.9722,133.1336c1.9613-1.4574,3.9549-2.888,6.081-4.0827,1.6306-.9162,2.5191-2.0747,2.1909-4.0737.4182-1.4813.9637-2.8571,1.6304-4.3468.5197,1.3213,1.021,2.7389,1.2714,4.1994.1172.6838-.0024,1.8444-.4368,2.1175-3.4924,2.1953-7.0854,4.2305-10.737,6.1863Z" fill="#ece4d9"/><path d="M145.8189,105.007c.6019-1.1306,1.327-2.1522,2.3553-3.1727,1.844,1.5531,3.3849,3.105,4.9122,4.8239-.0197.3884-.0258.6099-.207.8386-.4026.0602-.6301.1132-1.0444.1381-1.821-.5158-3.4554-1.0033-5.0897-1.4909-.2678-.3426-.5355-.6852-.9265-1.137Z" fill="#a1a09b"/><path d="M175.7913,112.3291c-.6375-.86-1.2749-1.7201-1.9836-2.7234.5162.0377,1.2369.0613,1.6683.4266,1.9929,1.6876,2.2237,7.6644.5567,9.8987-2.449,3.2827-7.471,3.8757-9.8094,2.1155-.0567-.0427-.0719-.1408-.1368-.3943,2.3342.9093,4.6668.9933,7.0743-.5267.1217-.1241.1164-.1284.2505-.1737.2739-.171.4138-.2968.6897-.4925.6519-.8321,1.1678-1.5943,1.8134-2.5013.0454-1.9729-.0388-3.8009-.1231-5.6289Z" fill="#ece4d9"/><path d="M88.8022,19.4156c2.1128.815,2.1567,2.6119,2.0539,4.4882-.0475.8675-.023,1.7389-.0319,2.8289-.4123.2657-.8238.3111-1.5958.3781-.8227-.0572-1.285-.136-1.7317-.2885.0155-.0737.0045-.2238.0045-.2238.2956-1.3548.5912-2.7095.8416-4.2642.0922-1.0537.2298-1.9077.4594-2.9187Z" fill="#1f2629"/><path d="M146.7425,106.3245c1.6373.3071,3.2716.7947,5.0588,1.4608-.2781.9784-.7092,1.7781-1.1402,2.5779-.1358.0953-.2716.1905-.4683.3959-2.0123-.7068-3.424-1.9431-3.4503-4.4346Z" fill="#b97632"/><path d="M90.2548,15.0617c.9462.2813,1.7868.6947,2.7672,1.1659.0022.4539-.1356.8501-.3027,1.4005-.4307.6218-.8321,1.0895-1.247,1.573-.7213-.3677-1.3463-.6863-2.1522-1.0579.1557-1.0184.4923-1.9838.9347-3.0815Z" fill="#68737a"/><path d="M41.64,163.4414c.1644.5232.3287,1.0463.4965,1.736-2.138-1.1009-4.2795-2.3682-6.5795-3.7968-.0052-.3874.1482-.6134.4798-.8382,1.9866.9672,3.7949,1.9331,5.6031,2.8991Z" fill="#f1eee6"/><path d="M52.2869,170.8389c1.7554.2344,3.5257.7366,5.3304,1.0175,1.1537.1796,2.3584.032,3.8242-.1118.4902-.1581.6965-.1734.9133-.1694.0107.0193.0284.0596.0284.0596-1.0623.48-2.2068,1.4862-3.1706,1.3355-2.3435-.3664-4.6029-1.2701-6.9257-2.1314Z" fill="#f1eee6"/><path d="M72.6903,165.8433c2.2669-1.4445,4.721-2.883,7.3487-4.3344-2.2715,1.4381-4.7166,2.8893-7.3487,4.3344Z" fill="#ece4d9"/><path d="M46.9711,167.9431c1.6956.6982,3.4175,1.5611,5.212,2.5727-1.6802-.7035-3.4329-1.5557-5.212-2.5727Z" fill="#f1eee6"/><path d="M51.8601,74.269c-.0039,1.293-.0078,2.586-.0643,4.0892-.2046-2.044-.4176-4.2962-.4892-6.5529-.0576-1.8172.056-3.6399.2343-5.4281.1948.8815.2489,1.731.303,2.5804-.0009.346-.0018.692-.0447,1.4258-.0077,1.5538.0266,2.7197.0609,3.8856Z" fill="#ece4d9"/><path d="M67.3317,169.1655c1.486-1.1053,3.1545-2.2043,4.9952-3.3148-1.4895,1.0993-3.1511,2.2102-4.9952,3.3148Z" fill="#ece4d9"/><path d="M51.6181,81.1249c.1707,3.8883.2004,7.9197.1727,12.1707-.1428-3.8628-.2283-7.9452-.1727-12.1707Z" fill="#ece4d9"/><path d="M42.6328,165.5308c1.2522.5187,2.521,1.2086,3.8171,2.0624-1.2486-.5211-2.5245-1.2062-3.8171-2.0624Z" fill="#f1eee6"/><path d="M62.3957,170.2508c1.1694-.3272,2.3387-.6545,3.6908-.9855-.9889.7857-2.1605,1.5751-3.5177,2.367-.1856.0024-.2034-.0379-.205-.2193.0096-.5084.0207-.8353.0318-1.1622Z" fill="#ece4d9"/><path d="M53.231,44.6577c-.3907,1.0511-.7775,1.9493-1.2893,2.955-.4153-1.3527-.6921-2.8089,1.153-3.7136.1693.1994.1547.4025.1363.7587Z" fill="#ece4d9"/><path d="M51.9513,68.792c-.1616-.6839-.2157-1.5334-.3141-2.5914-.0271-1.3341-.0101-2.4596.0519-3.7917.1532,1.9348.2614,4.0762.2622,6.3831Z" fill="#bba88f"/><path d="M35.8586,160.5411c-.1533.2261-.3067.4521-.4701.8217-.7964-.2259-1.5827-.5954-2.3972-1.1324-.0282-.1676-.0238-.1714.139-.1725.3782-.0032.5935-.0054.9887-.0048.5397.0031.8997.0034,1.3645.057.2346.1508.3247.2767.3751.431Z" fill="#f7f6f1"/><path d="M86.1272,158.5489c.6904-.6204,1.561-1.2332,2.6026-1.8551-.6934.6148-1.558,1.2388-2.6026,1.8551Z" fill="#ece4d9"/><path d="M170.8266,107.3674c-.9189-.3649-1.8423-.9056-2.8566-1.5794.89.3791,1.8711.8914,2.8566,1.5794Z" fill="#ece4d9"/><path d="M140.3566,116.1635c-.2128-1.1032-.2742-2.2603-.2872-3.629.1785,1.0506.3087,2.3129.2872,3.629Z" fill="#ece4d9"/><path d="M166.4548,104.5472c-.741-.2307-1.4813-.6396-2.3021-1.1847.7139.2447,1.5085.6256,2.3021,1.1847Z" fill="#ece4d9"/><path d="M158.3993,116.726c.7428.238,1.4856.6535,2.3073,1.2079-.7165-.2509-1.5118-.6406-2.3073-1.2079Z" fill="#ece4d9"/><path d="M162.9798,102.1995c-.5772-.0899-1.0971-.3446-1.6953-.7276.532.102,1.1424.3324,1.6953.7276Z" fill="#ece4d9"/><path d="M83.7017,159.991c.3771-.468.9273-.9198,1.6428-1.3838-.3798.4585-.9246.9292-1.6428,1.3838Z" fill="#ece4d9"/><path d="M51.453,49.619c.1622.3516.1864.744.1356,1.3213-.1411-.3036-.2073-.792-.1356-1.3213Z" fill="#ece4d9"/><path d="M172.2598,108.3478c-.4254-.0622-.858-.2973-1.3563-.6684.4059.0745.8774.285,1.3563.6684Z" fill="#ece4d9"/><path d="M173.7187,109.2925c-.4263-.053-.8681-.2774-1.3779-.6376.4088.0649.8855.2655,1.3779.6376Z" fill="#ece4d9"/><path d="M163.7319,120.1124c.4456.06.8869.3028,1.4051.6796-.4185-.0763-.914-.2865-1.4051-.6796Z" fill="#ece4d9"/><path d="M160.7969,118.2432c.4387.0455.8967.269,1.4435.6208-.4156-.062-.9199-.2525-1.4435-.6208Z" fill="#ece4d9"/><path d="M164.0555,103.0562c-.3091-.013-.6204-.1954-.9839-.5024.2924.0279.637.1805.9839.5024Z" fill="#ece4d9"/><path d="M81.2684,161.4211c.0822-.2987.3267-.5808.7227-.8753-.0858.289-.3231.5904-.7227.8753Z" fill="#ece4d9"/><path d="M140.2153,119.4847c-.1086-.1439-.1265-.3609-.0863-.7319.0978.1169.1374.3879.0863.7319Z" fill="#ece4d9"/><path d="M163.2247,119.6394c.1015-.0546.2562.0092.4634.1904-.1018.0543-.2559-.0089-.4634-.1904Z" fill="#ece4d9"/><path d="M133.7403,53.6984c-2.6449.9902-5.2803,1.7596-8.2201,2.6396-1.4513.7135-2.5981,1.3164-3.7759,1.7397-.8421-1.9687-1.6531-3.7579-2.4651-5.5464-.0008.0007.0007-.0011-.0139-.1663-4.3629-7.0049-13.8778-6.693-20.055-2.3464-.0682-.0147-.1857.0603-.3399.0761-.4068.3065-.6595.5972-.8582.8962.0539.0083-.0516-.0214-.22-.0155-3.5417,2.2929-7.0262,4.4618-9.0636,8.3231-.2419.1374-.3143.2676-.4643.5048-.5349.6714-.9294,1.2705-1.3099,1.8809.0141.0113-.0043-.0193-.1431.0502-.6617.6906-1.1846,1.3116-1.7225,1.7506,1.0645-2.2393,2.1438-4.2966,3.4377-6.7626-1.5935-.3045-2.9474-.6007-4.314-.8161-2.4451-.3853-4.4148-1.3292-4.934-4.1259.8646-.6771,1.6425-1.2317,2.4204-1.7864,11.4803-6.511,22.9398-13.0591,34.4593-19.4999,2.1644-1.2102,3.1064-2.8484,3.0633-5.2249-.016-.879.0554-1.7595.1317-2.8506,3.5368-2.1575,7.0426-4.0795,10.5161-6.0584,2.3093-1.3157,3.3463-.8635,3.7151,1.7784.11.788.075,1.5986.0774,2.3989.0324,10.9799.0596,21.9599.0786,33.1608Z" fill="#e2e7ec"/><path d="M62.8475,45.288c2.9581-1.9492,5.8874-3.9446,8.8859-5.8295,1.6632-1.0455,3.4423-1.9066,5.3427-2.8687.2284,2.7275.2832,5.4729.1929,8.5366-2.64,1.5908-5.1349,2.8633-7.5834,3.9717-.0281-.6508.0277-1.4857-.1975-1.57-2.1866-.8186-4.4203-1.5114-6.6406-2.2401Z" fill="#e2a653"/><path d="M87.4812,26.8959c.4622.0789.9245.1577,1.5526.2861-.5107.8933-1.0226,2.0198-1.8948,2.5275-2.5368,1.4766-4.9908,2.938-5.8821,5.9109-.912-.3363-1.7269-.6368-2.7142-.9429.7176-1.5062,1.345-3.2865,2.5665-4.4342,1.4152-1.3296,3.3528-2.1032,5.3072-3.0716.5173-.0609.791-.1684,1.0648-.2758Z" fill="#77818b"/><path d="M78.3059,44.6455v-8.2212c2.1369-.0792,2.9017.933,2.8987,2.7313-.0057,3.3586-.0123,6.7171-.1796,10.2259-.3814-.6471-.5078-1.4874-.8474-2.2303-.3689-.8071-.9359-1.5237-1.5325-2.332-.1903-.0928-.2648-.1333-.3393-.1737Z" fill="#1f2629"/><path d="M78.2274,44.7607c.153-.0747.2275-.0343.4178.2486-.0327,1.3814-.1812,2.5203-.5202,3.6604-2.14-.54-3.826.0952-5.5131,1.044-2.1077,1.1853-4.2968,2.2258-6.5605,3.2657-.3226-.1968-.5354-.3305-.7197-.6225,1.4548-1.1372,2.8811-2.116,4.3075-3.0948,2.495-1.2725,4.9899-2.5449,7.6343-3.9132.3914-.2215.6333-.3473.9539-.5882Z" fill="#f1eee6"/><path d="M110.1279,14.437c1.2117-.9155,2.382-1.6946,3.6135-2.3603,1.6055-.8678,3.0225-.6244,4.1465,1.1009-2.782,1.3297-5.6082,2.5003-8.7056,3.7833.3091-.7753.6203-1.5562.9456-2.5239Z" fill="#68737a"/><path d="M96.6303,21.6444c.1789-1.2708.3579-2.5417.567-3.9975.03-.185.0025-.2386.0989-.2753.1659-.1945.2354-.3523.3049-.5101.9964-.4677,1.9929-.9354,3.1261-1.2088-.3872,1.6325-.9112,3.0707-1.4351,4.5088-.2945.2346-.589.4691-1.0841.8648-.6597.3134-1.1187.4657-1.5777.6181Z" fill="#e7ba6d"/><path d="M99.4745,20.2281c.3416-1.5047.8655-2.9429,1.4038-4.5569.7617-.004,2.1296.1108,2.1515.3493.1082,1.1777.2138,2.6268-.3804,3.5072-.4308.6382-1.9556.5379-3.1749.7004Z" fill="#343d43"/><path d="M78.3153,48.6686c.1486-1.1389.2972-2.2779.4457-3.6069.4807.5659,1.0477,1.2825,1.4166,2.0896.3396.7429.466,1.5832.8578,2.4593.2427.1469.3139.2151.5243.3334-.6387.6048-1.4166,1.1594-2.4547,1.8245-.4366-.9596-.6131-2.0298-.7897-3.0999Z" fill="#ada8b2"/><path d="M96.6427,21.8245c.4466-.3325.9056-.4848,1.5042-.6596,1.1401.3721,2.1406.7667,3.2241,1.3183-2.7595,2.3384-3.4762,2.2435-4.7284-.6587Z" fill="#606c72"/><path d="M97.4886,16.9179c.043.1013-.0265.2592-.2225.4537-.0477-.1079.0311-.2526.2225-.4537Z" fill="#3d4549"/><path d="M133.4968,116.4784c.8871,3.5484-.4912,5.7203-3.8746,7.3897-5.3579,2.6437-10.4384,5.8496-15.9005,8.9809-3.6323,2.0936-7.0004,4.0239-10.498,5.9947-.2528.1706-.3761.3007-.5888.4329-.0894.0021-.2437.0924-.3608.1151-.2722.0985-.3656.2215-.3791.3969.0181.0054.0063-.0306-.1393-.0226-.3706.1743-.5956.3406-.8092.5133.0114.0064-.0062-.0135-.1779.0044-3.7552,2.0984-7.3386,4.1788-10.9117,6.2652.0104.006-.0047-.0131-.1614-.0033-.5778.3109-.999.6119-1.5852.9412-5.5881,3.1001-10.996,6.1994-16.4439,9.2265-1.5661.8702-3.2477,1.5325-4.8793,2.1448.0107-.3395.0243-.5337.207-.7316,1.281-.5597,2.393-1.1158,3.4851-1.6619-1.1006-2.5357.1575-4.1941,2.7004-4.007,3.2897.2421,5.7656-1.7283,9.229-3.2168-2.1217-1.2254-3.6274-2.095-5.4387-3.1411,4.0662-.9545,7.9742.4574,11.6829-1.7361-1.6378-.9581-2.8547-1.6699-4.1293-2.4155,1.2399-.7436,2.1181-1.2703,2.9964-1.797-.1314-.2718-.2628-.5436-.3942-.8154-.7543.0998-1.5314.1169-2.2579.3176-1.296.3581-1.8177-.1302-1.6782-1.5197,7.8564-4.56,15.6056-9.0044,23.3641-13.4327,1.2507-.7139,2.2731-1.5206,2.1286-3.191,2.2196-.7075,4.2608-1.3659,6.2559-2.1427.2766-.1077.3256-.7999.48-1.2215.2602.081.5204.162.8883.4902.421.307.7342.3669,1.0474.4268,5.7254,1.6951,10.9343.1205,16.1428-2.5844Z" fill="#d4dce2"/><path d="M142.3508,65.6503c1.3186.7184,2.6372,1.4368,4.1478,2.3784.3735.4591.5551.695.7366.9309,0,0,.0029-.0326.0122.1483,1.836,3.7195,2.3588,7.5289,2.3495,11.4488-.2885,1.4601-.5769,2.9201-1.0079,4.6868-.6971,1.9994-1.2519,3.6923-1.9419,5.4886-1.0145,2.2864-1.8935,4.4692-2.8399,6.8007-3.252,4.3704-6.4316,8.5969-11.1486,11.4794-.2297.1495-.3164.2742-.413.5301-.144.2313-.2663.3195-.6114.3683-2.7998.8014-5.4058,1.602-8.0118,2.4026-3.3516.2243-5.9793-.9466-7.5366-4.1393.3355-.2015.5603-.231.8486-.1012.9518.6497,2.0447,1.7412,2.6911,1.5211,2.2246-.7575,4.2931-1.9736,6.5281-3.0748.1967-.1919.2865-.3238.367-.4615-.0091-.0057-.0093.0159.1384.0119.3769-.1659.6061-.3278.8266-.4887-.0087.001.0028.0176.1714.0008,2.1712-1.7771,4.1737-3.5373,6.3095-5.3788,2.1045-3.0714,4.0757-6.0615,6.1623-9.1222.208-.225.3004-.3795.3938-.5812.0009-.0472-.0387-.1329.0982-.2556,1.3654-4.2877,2.5939-8.4527,3.9362-12.7746.5602-4.2869-.6087-8.0955-2.2061-11.8189Z" fill="#5f7994"/><path d="M113.8237,100.8612c-.0974-1.0299-.1949-2.0598-.2792-3.4788.9308-3.8113,1.8485-7.2335,2.9149-10.5935.6005-.0486,1.261-.0075,1.4701-.2949,1.3085-1.7986,2.5163-3.6705,3.8647-5.3785,1.6162.1396,3.1293.0709,4.6332.1586,1.5038.0877,3.0168.2403,4.4909.5374,1.099.2215,2.1425.7184,3.2311,1.2858.0348.7114.0493,1.2297.0609,1.9535-.0318,1.0266-.0609,1.8476-.2679,2.6748-3.2825.9709-6.626,1.6965-6.1986,6.1408.0198.2056-.1799.4323-.4551.6419-.6825.1981-1.2008.3757-1.6901.6132-3.928,1.9068-7.8506,3.825-11.7748,5.7396Z" fill="#9db5d0"/><path d="M127.4663,94.5156c.0975-.2169.2972-.4436.2774-.6491-.4274-4.4444,2.9161-5.1699,6.2296-5.9351.0926,4.2506-.0238,8.3016-.1401,12.3527-2.0025,1.7602-4.005,3.5205-6.1858,5.0906-.1783-1.1047-.1783-2.0192-.1783-3.6787-3.9257,2.303-7.262,4.2602-10.5982,6.2175-.2248.0295-.4496.0591-.8435.1082-.6197-1.1554-1.0704-2.3305-1.3257-3.6902,3.6175-2.0579,7.0187-3.9712,10.4709-5.7874,1.6789-.8833,2.5855-2.0832,2.2938-4.0285Z" fill="#95acc8"/><path d="M108.6748,98.8244c-.3187.3635-.6373.7271-1.1581,1.2571-1.3594.0626-2.7289-.4541-3.6019-.0052-.6184.3179-.5656,1.9414-.8124,2.982-.2084-.6968-.0307-1.4546-.2549-2.0648-.261-.7108-.7087-1.7296-1.8391-.8627-.0578-.3591-.0705-.5679-.0704-1.0054-.0513-4.3444-.2975-8.4814,1.5827-12.3175,2.2028,1.9764,4.2502,3.8812,6.278,5.9793-.0572,1.3441-.0948,2.495-.1324,3.6459.003.212.0059.424-.0376.9142-.0156.6779.0152,1.0775.0461,1.4771Z" fill="#343d43"/><path d="M101.0535,100.2812c1.0853-1.0172,1.533.0016,1.794.7124.2242.6102.0464,1.368.2549,2.0648.2469-1.0407.1941-2.6641.8124-2.982.8731-.4488,2.2425.0678,3.599.1744.2028.6742.2062,1.3457.2079,2.3823.1585.7398.3188,1.1145.4792,1.4892.6923,2.6813,1.3917,5.3607,2.0723,8.045.2025.7987.352,1.611.2359,2.4951-.4837.0317-.6776-.0146-.9322-.1999-.824-.6459-1.5872-1.1529-2.4653-1.7674-.9604-.8968-1.8059-1.6861-2.694-2.6186-.4637-.7876-.8847-1.432-1.3465-2.2612-.6997-2.6346-1.3586-5.0843-2.0175-7.534Z" fill="#1f2629"/><path d="M109.6376,114.6013c.1939.0464.3878.0927.7295.161,1.6942,1.0704,3.2406,2.1188,4.9191,3.2753-.0223.5297-.0713,1.2219-.3479,1.3295-1.9951.7768-4.0363,1.4352-6.347,2.0131-.797-.0895-1.388-.217-1.8094-.0059-1.9615.9826-3.8761,2.059-5.904,2.9558-1.4823-.6982-2.8683-1.2505-4.1-1.8745,1.7986-1.0158,3.4693-1.9176,5.0816-2.9138,2.6127-1.6143,5.1873-3.2905,7.778-4.9406Z" fill="#dae1ec"/><path d="M116.3107,86.7266c-.9177,3.4223-1.8354,6.8445-2.7976,10.4584-1.36-.2697-2.6755-.7309-4.1693-1.4139,1.0979-3.9584,2.3741-7.6953,3.7472-11.2972,1.1069.6877,2.1171,1.2406,3.159,1.9065.0318.1131.0607.3462.0607.3462Z" fill="#444c50"/><path d="M127.2886,94.5084c.4695,1.9525-.4372,3.1525-2.1161,4.0357-3.4522,1.8162-6.8534,3.7295-10.4476,5.6068-.4102-.97-.6484-1.944-.8939-3.1039,3.917-2.1005,7.8395-4.0186,11.7675-5.9255.4892-.2375,1.0075-.4151,1.6901-.6132Z" fill="#8290a6"/><path d="M129.9129,61.2532c1.9413-.8275,3.8153-2.0082,5.8407-2.3941,2.6037-.4961,5.3291-.3543,8.0425-.3056-3.8123.1157-7.4203,1.046-11.0885,3.0078-2.4291,1.7256-4.5836,3.2919-6.8787,4.9389-1.9438,1.9912-3.7469,3.9017-5.6506,5.937-.9507,1.0536-1.8008,1.9825-2.8143,2.8663-.2744-.0664-.3854-.0876-.4364-.2506.3475-.6854.635-1.2291,1.0527-1.867,3.1719-4.9301,7.5213-8.4622,11.9327-11.9326Z" fill="#838b94"/><path d="M142.2217,65.5655c1.7265,3.8082,2.8954,7.6169,2.13,11.8966-1.8234.331-2.6901-.222-2.9302-1.8233-.1223-.8159-.6064-1.5775-.9273-2.5247-.1513-.5317-.3021-.9023-.4576-1.4983-.003-2.2072-.0014-4.189.0001-6.1707.6853.0119,1.3706.0238,2.1851.1205Z" fill="#9db5d0"/><path d="M125.9696,66.4195c2.1545-1.5663,4.3089-3.1327,6.629-4.729,1.454,1.0391,2.7424,2.1083,3.9306,3.4534-.9973.6551-1.8944,1.0342-2.9622,1.4242-1.9576,1.0428-3.7444,2.0748-5.6068,2.9355-.7138-1.1422-1.3522-2.1131-1.9906-3.084Z" fill="#343d43"/><path d="M153.1,106.4914c-1.5408-1.552-3.0817-3.104-4.7796-4.7175.4977-1.2591,1.1527-2.4567,1.9159-3.7891.3689-.1337.6295-.1326,1.0796.0312.6907.6418,1.1541,1.17,1.6996,1.5917,3.0711,2.3741,3.1038,4.335.0845,6.8837Z" fill="#cad4de"/><path d="M132.7607,108.959c4.6148-2.8293,7.7945-7.0558,11.2141-11.4278.6201.0219,1.0054.1941,1.3906.3664-2.6385,4.8386-6.0131,9.0051-10.8135,11.8775-.8136.4868-1.6009,1.0172-2.5672,1.3689-.1634-.5171-.1601-.8756-.1567-1.234.1513-.048.2736-.1362.5201-.4213.2825-.2512.369-.3755.4127-.5296Z" fill="#77818b"/><path d="M133.7376,66.5572c.8971-.3791,1.7942-.7583,2.8245-1.2323,1.162-.1172,2.1908-.1394,3.347-.0208.126,2.1226.1244,4.1044-.027,6.3079-.3546.2148-.5596.2078-.8541.0555-1.1344-1.9244-2.7562-2.3634-4.8239-2.2459-.2566-1.0396-.3616-1.952-.4666-2.8643Z" fill="#a1a09b"/><path d="M116.8675,75.1946c.111.0213.222.0426.4524.269-1.3623,3.0953-2.844,5.9854-4.3257,8.8754-1.2762,3.7368-2.5525,7.4737-3.8206,11.4027-.0908.3208-.1898.4494-.398.6346-.0717-1.0942-.0341-2.2451.1282-3.7242.512-1.8553.8992-3.3825,1.408-5.0204,1.4875-3.2485,2.8535-6.3861,4.3558-9.6057.8242-.9985,1.512-1.915,2.1999-2.8316Z" fill="#6d777f"/><path d="M146.7823,90.6286c.5548-1.6928,1.1095-3.3857,1.8019-5.1947.7595-.6894,1.5292-1.1709,1.9586-1.8634.3765-.6071.3711-1.4511.5343-2.1904.2794.0774.5587.1548.8381.2322-.9743,3.0932-1.9486,6.1865-3.1684,9.4363-.3392.2907-.4329.4248-.5267.5589,0,0,.0107-.0151-.1396-.0288-.5329-.3258-.9156-.638-1.2982-.9501Z" fill="#5b6367"/><path d="M146.6471,90.7321c.5179.2086.9006.5208,1.4354.8558-.7202,2.05-1.5926,4.0772-2.591,6.207-.5113-.0695-.8966-.2418-1.4494-.4124.7115-2.1812,1.5906-4.364,2.605-6.6504Z" fill="#68737a"/><path d="M131.6342,109.9107c.1904.3577.1871.7162.1833,1.2536-2.5566,1.3585-5.1035,2.5955-8.1125,1.3078,2.5233-.9594,5.1294-1.76,7.9292-2.5614Z" fill="#606c72"/><path d="M149.791,80.4992c-.1848-3.8624-.7076-7.6719-2.5593-11.3867,1.1107,1.9877,2.5841,4.0523,3.2608,6.3514.4359,1.4812-.2978,3.3067-.7015,5.0353Z" fill="#1f2629"/><path d="M108.3218,104.0267c-.2813-.2792-.4416-.6539-.5925-1.1927.2442.2563.4788.6767.5925,1.1927Z" fill="#343d43"/><path d="M108.775,98.8903c-.131-.4655-.1619-.8651-.144-1.384.114.4038.1791.9268.144,1.384Z" fill="#444c50"/><path d="M117.2547,118.9654c-.214.0374-.5272-.0225-.8564-.2233.2418-.052.4994.037.8564.2233Z" fill="#dae1ec"/><path d="M147.2218,68.7959c-.1681-.0723-.3496-.3082-.5902-.6872.1529.0791.3649.3013.5902.6872Z" fill="#1f2629"/><path d="M148.337,91.5633c-.0231-.0899.0707-.224.2804-.4066.0228.0885-.0703.2255-.2804.4066Z" fill="#68737a"/><path d="M51.57,112.799c.2184,1.1492.2537,2.2943.1384,3.7197-.0786.5562-.0066.8321.0653,1.108.024.5157.048,1.0315-.1675,1.7368-1.8204.3237-3.6725-.028-4.935.6766-5.3398,2.9802-10.5474,6.2065-15.7209,9.4733-5.2825,3.3355-11.0688,6.2005-13.9523,12.1995-.6278,1.3062-.9065,3.5702-.1924,4.5651,1.4393,2.0053,3.675,3.4375,5.5755,5.1137,1.4455,1.275,2.8808,2.5615,4.3207,3.8429-1.9124-1.0528-3.9917-1.8886-5.7017-3.2043-3.3924-2.6103-6.7135-5.3489-9.7814-8.3257-1.0581-1.0266-1.4096-2.8823-1.834-4.4279-.3208-1.1682.0662-2.2376,1.5355-2.4924.2148-.0373.4933-.2077.5829-.3934,1.5443-3.2032,4.6272-4.7244,7.3761-6.5005,3.6909-2.3847,7.5956-4.4397,11.4193-6.6173,3.0397-1.7311,6.1099-3.4088,9.1403-5.1559,3.0804-1.7759,6.0873-3.6854,9.2226-5.3556.7031-.3746,1.8065.0023,2.9086.0374Z" fill="#f1eee6"/><path d="M26.8261,155.2867c-1.5642-1.3335-2.9995-2.62-4.4451-3.895-1.9005-1.6762-4.1362-3.1084-5.5755-5.1137-.7141-.9949-.4354-3.2589.1924-4.5651,2.8835-5.9991,8.6698-8.8641,13.9523-12.1995,5.1736-3.2667,10.3811-6.4931,15.7209-9.4733,1.2625-.7046,3.1146-.3529,4.8962-.4861.2363.5165.272,1.032.1091,1.8421-.0926,1.673.0132,3.0516.1191,4.4302.0158.0806.0315.1612-.1019.3617-.2316.1213-.314.1225-.5773.1021-1.0851-.0215-2.1838-.3587-2.8625.0326-5.1625,2.976-10.4371,5.8202-15.2871,9.2556-3.8405,2.7204-7.1663,6.1804-10.6239,9.4153-.5508.5153-1.0563,1.8039-.79,2.3441,1.2793,2.5939,3.0851,4.7646,6.2164,5.5397.2371.1487.3283.2741.4035.5952.4888.378.9531.5898,1.4186.8007.0012-.0009-.0012.0015.0248.1673.4908.377.9557.5882,1.474.904.1505.2346.2764.3241.4508.5289.4875.6966.9554,1.2374,1.2367,1.7751-1.8303-.6437-3.4741-1.2843-5.1179-1.9248-.2364-.1284-.4728-.2567-.8336-.4372Z" fill="#ece4d9"/><path d="M27.6797,155.896c1.6238.4683,3.2676,1.1089,5.2036,1.8044.4239.1511.5146.2767.5803.5976.1692.6946.3224,1.2234.4756,1.7522-.2154.0022-.4307.0044-.8076.0066-1.0956-.7097-2.0286-1.4208-2.9639-2.1288-.8214-.6217-1.6453-1.2401-2.4881-2.032Z" fill="#f1eee6"/><path d="M103.3532,138.8034c3.3681-1.9303,6.7362-3.8607,10.2609-5.8223,3.5037-.9856,6.2588.3826,8.9813,2.3513-4.7762,2.882-9.6336,5.6099-14.8352,8.3433-.7287.2985-1.1133.5914-1.4979.8844,0,0-.2005.0716-.4989.0765-2.4775,1.0931-4.6688,2.1587-6.8191,3.3013-.2402.1277-.2479.6929-.3635,1.0552,0,0-.0138-.0136-.1236.0338-.2435.1307-.334.2476-.3812.398-10.164,5.8313-20.3147,11.6857-30.5065,17.468-1.4636.8304-3.1248,1.3124-5.0894,1.937-1.5753-.4946-2.7558-.9705-3.9363-1.4464-.1673-3.1846-.4074-6.3674-.4828-9.5542-.0853-3.6057-.023-7.215.1706-11.0912.3882-1.073.74-1.8759.7482-2.6823.0516-5.1266.0263-10.254.0285-15.3812.0017-3.9474.9163-4.773,4.8198-4.1094,0-2.1874-.0706-4.346.0427-6.4949.0343-.6501.5779-1.2733.9131-1.6817.0295,1.187.0381,2.1469.0385,3.1068.0049,11.84-.015,23.6801.0416,35.5198.0074,1.5431-.4561,3.5073,1.9261,3.9885,1.6286-.7576,3.3102-1.4199,4.8763-2.2901,5.4479-3.0272,10.8557-6.1264,16.6294-9.2082.7525-.3297,1.1544-.6495,1.5564-.9694,0,0,.0151.0191.1938.0191,3.3224-1.572,6.485-3.1085,9.5925-4.7491.5513-.291.8737-1.0156,1.3018-1.54,0,0,.0175.0199.1552.0092.3603-.1795.583-.3482.8057-.517,0,0,.0118.036.104-.0044.233-.1185.3309-.2332.3858-.3845,0,0,.1543-.0904.3826-.1197.3454-.1682.4625-.3071.5795-.4461Z" fill="#d69247"/><path d="M64.759,116.1612c-.3103.6355-.8539,1.2587-.8882,1.9088-.1133,2.1489-.0427,4.3076-.0427,6.4949-3.9035-.6636-4.8181.162-4.8198,4.1094-.0022,5.1271.0231,10.2545-.0285,15.3812-.0081.8064-.3599,1.6093-.7402,2.4562-.2593-4.8406-.3313-9.7236-.5316-14.9172-.1337-.5231-.1389-.7356-.1442-.9481.0098-1.9485.0197-3.8969.2021-6.0915.0688-.6986-.035-1.151-.1388-1.6035-.0157-.3721-.0313-.7443.1543-1.3457.3811-.9564.7112-1.6825.7168-2.4111.0413-5.3476.0177-10.6958.0145-16.0438.0051-16.2267-.0092-32.4534.0306-48.68.0087-3.56.9822-6.7746,4.1604-9.1063,2.3641.6521,4.5978,1.3449,6.7844,2.1635.2252.0843.1693.9192.1975,1.57-1.4728,1.1429-2.8992,2.1217-4.4718,3.3123-.2552.3439-.3642.476-.5445.6504-.0986.0898-.1606.1578-.1469.1814.0526.0897.1296.165.213.407-.0034.3761-.0225.5909-.2207.8611-.3467.4741-.6591.8922-.6605,1.3113-.0282,8.5813-.0732,17.1631-.0009,25.7439.0427,5.0734.4011,10.1452.3999,15.2176-.0013,5.1126-.3102,10.2246-.3806,15.3384-.0098.7112.5739,1.4306.9018,2.3353.0075.6942-.0039,1.1993-.0152,1.7045Z" fill="#e29b45"/><path d="M52.2662,50.8051c1.632.4299,3.2576,1.0824,5.0581,1.7568.2092,16.7201.2436,33.4184.2639,50.5684-.0278,5.7788-.0416,11.1058-.0554,16.4328-3.3388.4778-3.3091.4549-3.3587-2.9302-.0934-6.3665-.3754-12.7322-.3625-19.0978.0174-8.6194.0797-17.2449.4296-25.8553.2231-5.4916-.7548-10.7797-1.6694-16.1165-.2547-1.4861-.2161-3.0224-.3056-4.7582Z" fill="#b97632"/><path d="M51.8027,139.332c.0902,2.5608.1805,5.1217.0783,7.9548-2.5072,1.404-4.9114,2.3877-7.1085,3.7143-1.7479,1.0553-3.2387,2.5347-4.8513,3.8161-1.2316.9787-1.5285,1.9489-.1787,3.1186.7124.6174,1.273,1.4101,1.71,2.1259-1.1645-.3778-2.1688-.6935-3.1006-1.1553-1.0267-.5087-1.9869-1.1516-3.094-1.7387-.1181-.0026-.3542-.0065-.359-.1875-.4768-.6224-.8939-1.1507-1.4305-1.4898-2.1018-1.3281-3.2241-4.346-1.6805-5.3346,3.5069-2.246,5.0479-6.8398,9.5549-7.8231.4988-.1088.8905-.6486,1.3677-.927,1.8895-1.1023,3.762-2.2429,5.7176-3.215.3974-.1976,1.1369.2463,1.7012.4445.5692.1999,1.1166.4621,1.6735.6969Z" fill="#d5c6af"/><path d="M51.8272,139.1065c-.5814-.0093-1.1288-.2715-1.698-.4714-.5643-.1982-1.3039-.6421-1.7012-.4445-1.9555.9721-3.8281,2.1127-5.7176,3.215-.4772.2784-.8689.8182-1.3677.927-4.507.9833-6.0479,5.5771-9.5549,7.8231-1.5436.9886-.4214,4.0064,1.6805,5.3346.5366.3391.9537.8674,1.2739,1.4252-1.1748-.3216-2.1979-.7597-3.2209-1.1977-.1547-.0491-.2806-.1387-.4981-.5136-.5579-.4731-.9954-.7012-1.433-.9294,0,0,.0024-.0024-.0232-.1678-.49-.3772-.9543-.5889-1.4186-.8007-.0508-.1548-.142-.2803-.4444-.5801-.7431-.9647-1.4273-1.6696-1.8469-2.5071-.2638-.5265-.426-1.5295-.1296-1.8449,2.8335-3.0154,5.6473-6.0733,8.7361-8.8155,1.6762-1.4882,4.064-2.1613,5.7942-3.6053,3.1696-2.6455,6.6346-4.4582,10.7009-5.087.2767-.7212.5512-1.4366.8257-2.1521.0224,3.3889.0448,6.7778.0428,10.3921Z" fill="#dcd2c3"/><path d="M51.8155,128.5233c-.3057.9064-.5802,1.6218-.8569,2.3431-4.0663.6288-7.5313,2.4415-10.7009,5.087-1.7302,1.4441-4.118,2.1171-5.7942,3.6053-3.0888,2.7422-5.9026,5.8-8.7361,8.8155-.2964.3154-.1342,1.3184.1296,1.8449.4196.8375,1.1037,1.5424,1.7414,2.4545-2.9605-.5714-4.7663-2.7421-6.0456-5.336-.2663-.5402.2392-1.8288.79-2.3441,3.4576-3.235,6.7834-6.695,10.6239-9.4153,4.85-3.4354,10.1246-6.2796,15.2871-9.2556.6788-.3913,1.7774-.0541,2.9159.0734.3326.2602.4612.3486.6202.3928.0188.5145.0377,1.029.0255,1.7346Z" fill="#e3dbcf"/><path d="M41.6447,160.0594c-.6292-.7136-1.1897-1.5062-1.9022-2.1237-1.3498-1.1697-1.0529-2.1399.1787-3.1186,1.6126-1.2814,3.1035-2.7608,4.8513-3.8161,2.1971-1.3266,4.6013-2.3103,7.0656-3.5005.2167,3.5395.6832,7.1859.2552,10.724-.6109,5.0498,2.3571,7.2167,6.2774,9.1226,1.3535.5119,2.534.9879,3.9155,1.519.172.2376.1429.42-.1023.7331-1.0471.1415-1.8779.1522-2.8024.0201-3.2196-1.8766-6.3259-3.6473-9.4775-5.3333-2.7256-1.4581-5.5026-2.8198-8.2569-4.2259,0-.0017-.0024-.001-.0024-.001Z" fill="#bba88f"/><path d="M57.5446,119.7533c.002-5.5171.0158-10.8441.0573-16.3997.2238-.2195.4198-.2104.7633-.202.1507,5.3474.1743,10.6955.133,16.0431-.0056.7286-.3357,1.4547-.7001,2.2253-.2037-.4632-.2227-.9699-.2536-1.6668Z" fill="#e2a653"/><path d="M51.9294,125.6924c-.2397-1.2448-.3455-2.6233-.2814-4.1036.2517,1.2555.3335,2.6126.2814,4.1036Z" fill="#bba88f"/><path d="M51.962,74.1152c-.1362-1.0122-.1705-2.1781-.162-3.5588.1165.9918.1901,2.1984.162,3.5588Z" fill="#bba88f"/><path d="M57.6095,123.1265c.1214.2775.2252.73.1792,1.2048-.1655-.3284-.1811-.6791-.1792-1.2048Z" fill="#e2a653"/><path d="M57.419,130.6645c.1501.1944.1553.4069.158.7787-.2559.0506-.5091-.058-.7624-.1667.1532-.198.3064-.396.6044-.612Z" fill="#b97632"/><path d="M51.8189,117.4681c-.1171-.1173-.1891-.3931-.1506-.7378.139.1472.1674.3632.1506.7378Z" fill="#ece4d9"/><path d="M51.8176,126.6689c-.1865.0756-.3152-.0128-.4668-.2512.029-.1072.1114-.1085.3174-.1092.1414.0806.1592.1606.1494.3605Z" fill="#dcd2c3"/><path d="M87.4968,26.8222c-.2893.1811-.5631.2886-.9241.2949.15-.2521.3874-.4032.7767-.5365.1519.0177.1629.1679.1474.2415Z" fill="#444c50"/><path d="M59.4752,169.7622c.8309-.0107,1.6617-.0214,2.7003-.0232.2075.0925.2071.1761.2135.3858-.0045.4529-.0156.7799-.0358,1.2689-.2153.1774-.4215.1927-.7834.2055-2.4901-.6719-4.9351-1.0929-7.1328-2.0701-3.1698-1.4095-6.1602-3.2226-9.3902-5.1348-.6019-.4975-1.0406-.7237-1.4793-.9499-.3574-.0055-.7148-.011-1.2711-.1869-1.0069-.8653-1.8224-1.5515-2.621-2.2569-1.4385-1.2708-2.867-2.553-4.2996-3.8305.9891.5845,1.9493,1.2274,2.976,1.7361.9319.4618,1.9361.7775,3.1006,1.1553.1922-.0023.1946-.0029.2173.1639,5.522,3.3727,11.0149,6.5896,16.5387,9.7525.2869.1643.8383-.1333,1.2667-.2158Z" fill="#dcd2c3"/><path d="M98.7528,148.9804c-.0563-.3497-.0486-.915.1916-1.0426,2.1503-1.1426,4.3415-2.2082,6.7141-3.2841-2.1157,1.4463-4.4247,2.8802-6.9056,4.3267Z" fill="#da984d"/><path d="M106.4177,144.5691c.2292-.302.6137-.5949,1.17-.8773-.2238.3025-.6191.5944-1.17.8773Z" fill="#da984d"/><path d="M98.1868,149.3932c-.0636-.1189.0269-.2357.267-.3574.0758.1242-.0118.2456-.267.3574Z" fill="#da984d"/><path d="M129.8885,61.0819c-4.387,3.6417-8.7365,7.1738-11.9784,11.9529-1.1977-1.0453-2.2247-2.0064-3.1839-3.031-.7794-.8326-1.4773-1.7415-2.2124-2.7571.0267-.3276.0546-.5147.1826-.7501.226-.1408.3045-.2635.4579-.4976.2168-.3491.3116-.617.3925-.8712-.0139.0137.0251.0159.1831-.0094.6906-.6531,1.2233-1.281,1.755-1.9192-.0009-.0104-.0214-.0151.1058-.057.2169-.1918.3067-.3416.4728-.5537.1733-.1513.2601-.2495.4601-.3969.2121-.1849.3005-.3299.5177-.521.351-.2048.5733-.3635.9279-.5584.3693-.3088.6064-.5814.8362-.8605-.0072-.0064-.002.0118.1172-.0268.2114-.173.3036-.3074.3783-.4455-.0175-.0037-.0072.0306.1338.0181.3446-.1871.5482-.3616.7729-.5311.0211.0051.027-.0379.1416-.065.2616-.109.3526-.2323.3806-.3983-.0066-.0012.002.0096.1557-.0035.3991-.1895.6445-.3659.8899-.5423,1.1468-.6028,2.2936-1.2057,3.6053-1.8165,1.6044,1.4846,3.0439,2.9772,4.5079,4.6412Z" fill="#68737a"/><path d="M150.8663,110.3663c.2258-.8029.6569-1.6026,1.1217-2.5528.2613-.2034.4888-.2565,1.0841-.3149,1.3511-.1709,2.3343-.3365,3.4951-.4758,3.9844,2.2449,7.7805,4.4824,11.6024,6.675,2.3345,1.3393,4.7086,2.6096,7.1239,4.0256.2031.203.3472.2912.4912.3794-.5159.7622-1.0318,1.5244-1.8231,2.3977-.4118.2396-.5481.3681-.6844.4965,0,0,.0053.0043.0028.0013-.2068-.0066-.4113-.0101-.8034-.182-2.5088-1.8177-4.778-3.5465-7.1635-5.0966-3.1232-2.0296-6.3152-3.9581-9.5439-5.8147-.3889-.2236-1.1907.2709-1.8012.4326-.9655.0106-1.931.0212-3.1018.0287Z" fill="#d69247"/><path d="M154.0431,110.491c.5355-.3151,1.3374-.8096,1.7262-.586,3.2287,1.8566,6.4206,3.7851,9.5439,5.8147,2.3854,1.5501,4.6547,3.279,7.0101,5.0898-1.9984-.6068-4.1819-1.1168-6.0329-2.1968-3.9158-2.2846-7.6598-4.8642-11.4678-7.3327-.262-.1699-.471-.4218-.7795-.789Z" fill="#b97632"/><path d="M156.3898,106.9965c-.9833.1656-1.9666.3311-3.1425.4949-.1865-.2233-.1804-.4448-.1607-.8332,3.0328-2.7155,3-4.6764-.071-7.0505-.5455-.4217-1.0089-.9499-1.5693-1.596,2.1311-1.0702,3.9565-.1621,5.8359,1.1312.9753,1.4123,1.582,3.0603,2.7631,3.9077,4.1781,2.9976,8.5342,5.7503,12.8713,8.5199.7028.4488,1.6518.5121,2.681.756.2783,1.8305.3625,3.6585.3171,5.6314-.2738.0566-.4178-.0316-.5704-.3725-1.0197-1.0647-1.9803-1.9516-3.051-2.6758-4.2675-2.8864-8.6151-5.6569-12.8339-8.6117-1.4926-1.0454-2.2915-.6103-3.0694.6986Z" fill="#e7ba6d"/><path d="M35.2578,157.1676c1.5507,1.2801,2.9791,2.5623,4.4176,3.8331.7986.7054,1.6141,1.3916,2.4423,2.2542-.0627.1712-.1457.1746-.3532.1823-1.9328-.9617-3.7411-1.9277-5.7277-2.8949-.2287-.1555-.3188-.2814-.5691-.5977-.7538-.75-1.387-1.2812-2.0202-1.8124-.0498-.1551-.1405-.2807-.3778-.4286-.5735-.5927-1.0414-1.1336-1.5289-1.8302,1.0034.2823,2.0265.7204,3.2061,1.223.1566.0646.3927.0685.5108.0711Z" fill="#e3dbcf"/><path d="M43.5959,163.6091c.4104.0617.8491.2879,1.3537.6552-.3978-.0695-.8617-.2801-1.3537-.6552Z" fill="#e3dbcf"/><path d="M173.4113,120.9518c.0022-.0832.1386-.2117.4143-.3814-.0005.0846-.1403.2104-.4143.3814Z" fill="#ae6f31"/><path d="M33.4636,158.2981c.6173.3654,1.2505.8966,1.8994,1.5933-.3443.1651-.7043.1648-1.244.1617-.333-.5316-.4862-1.0604-.6554-1.755Z" fill="#ece4d9"/><path d="M88.4047,59.7311c.0098-.165.0821-.2952.5072-.4395.7463-.3425,1.1731-.8124,1.6646-.8944,1.1867-.1981,2.4957-.5128,3.57-.1808.5467.169.6931,1.6327.8968,2.6094-.2134.5037-.3032.9091-.5598,1.3539-2.9624,3.153-3.2621,9.6523-1.9233,12.4428.6579,1.3712,1.8311,5.8113,1.6679,6.8574-.0087-.0215.0209.0143-.1527.0174-.8731.955-1.5727,1.9069-2.2756,2.8598-.0034.0011-.0041.0082-.1139.0594-.1897.1879-.2696.3246-.3592.4436-.0097-.0177.0255.0019-.0922.0474-.1988.1876-.2801.3297-.3655.4493-.0041-.0226.0348.0019-.1021.0642-.221.3389-.305.6155-.4037.8783-.0147-.0138.0208.0053-.1071.074-.2148.3365-.3017.6044-.3897.8741-.0012.0018-.0035.0055-.1704.0282-1.9236,3.9228-3.6803,7.8228-5.4666,11.7882-2.5287-1.5489-3.6895-4.5551-4.2936-7.1955-1.6481-7.2041-.3813-14.1828,3.1185-20.7954,1.5807-2.9867,2.614-6.263,3.8957-9.4079,0,0,.0184.0306.1806.0096.5329-.6618.9034-1.3026,1.2739-1.9435Z" fill="#e6a048"/><path d="M117.8368,61.1482c-.2223.1587-.4445.3173-.9275.5117-.3484.0346-.4362.0335-.7315.0326-1.8673-.4172-3.5162-.8883-5.1914-1.2305-.912-.1863-1.8687-.1536-2.9274-.3175-.4151-.4973-.708-.8966-1.1066-1.3686-.3096-.3426-.5136-.6124-.7262-1.0474-.3356-.3766-.6626-.5879-.9951-.7984-.0055.0009-.0119.0177-.0678-.1569-1.9389-.5666-3.8075-1.0656-5.7089-1.322-2.1487-.2897-2.8694-1.4925-1.8616-3.4117.1733-.33.2477-.712.3679-1.0699,0,0,.1055.0296.2203.0397.3578-.3034.6007-.6168.8437-.9303,0,0,.1175-.075.3851-.0454,1.4636-.418,2.6901-.7985,3.8489-1.3277,2.2319-1.0194,4.4252-1.105,6.6943-.115,3.0931,1.3494,6.2165,2.6295,9.3269,3.9393,0,0-.0015.0018-.0041.1927.4836,2.1572.9698,4.1235,1.456,6.0898,0,0-.0086-.0109-.1072.0329-.2304.1271-.3275.24-.3901.3828,0,0-.0059.0431-.1658.0573-.3651.1842-.5701.3542-.7752.5242,0,0-.0104-.0343-.1084.0133-.1927.1785-.2873.3093-.3819.4402,0,0-.0052-.0183-.1503.0007-.3688.3074-.5925.5957-.8162.8841Z" fill="#e6a048"/><path d="M78.1249,48.6697c.3669,1.069.5434,2.1391.8934,3.2212.7794,2.6862,2.7491,3.6301,5.1942,4.0154,1.3666.2153,2.7205.5116,4.314.8161-1.2939,2.466-2.3732,4.5233-3.4438,6.7554.0088.1749.0051.1758-.1673.1823-.8672.6034-1.5621,1.2003-2.0798,1.6451-1.3649-.2731-2.5651-.3868-3.6761-.7635-1.9694-.6677-4.6505-.7887-5.0817-3.2738-.3761-2.1673-1.5945-3.0159-3.2918-3.5404-1.4321-.4425-2.959-.5782-4.4757-1.0613-.0709-1.3489-.1101-2.4863-.1493-3.6236,2.154-1.103,4.3431-2.1435,6.4508-3.3288,1.687-.9488,3.373-1.584,5.5131-1.044Z" fill="#dde3eb"/><path d="M86.8113,61.7345c-1.1428,3.0753-2.1762,6.3517-3.7569,9.3383-3.4998,6.6126-4.7667,13.5914-3.1185,20.7954.6041,2.6404,1.7648,5.6465,4.2936,7.1955,1.7863-3.9655,3.543-7.8655,5.4457-11.6159-1.3072,4.5584-2.7605,8.9672-4.3837,13.3568-1.6442-1.318-3.1185-2.6167-4.5979-4.0583-.1613-.3672-.3173-.5915-.4858-.9529-.0495-.2209-.0865-.3049-.1318-.4967-.0692-.2513-.1742-.346-.3276-.5027-.0044-.111-.1029-.3102-.1013-.4959-.4326-2.1643-.8667-4.1429-1.2769-6.3192-.006-.8598-.036-1.5218-.0336-2.3579.0187-.5268.0048-.8796.1035-1.382.1444-1.1721.1762-2.1947.2656-3.392.0748-.5399.092-.905.2304-1.4009.4333-1.2072.6588-2.3182,1.0725-3.354,1.6614-4.1588,3.3809-8.2944,5.079-12.4386,0,0,.0037-.001.0098.0063.529-.6138,1.0519-1.2348,1.7137-1.9254Z" fill="#d6a157"/><path d="M97.7923,50.9755c.0482.3521-.0263.734-.1995,1.0641-1.0078,1.9191-.2872,3.122,1.8616,3.4117,1.9014.2564,3.77.7554,5.531,1.2985-1.2805.1611-2.6057-.1873-3.5616.2576-1.8375.8552-3.4659,2.1598-5.3101,3.3139-.2261.1794-.323.323-.4004.4741.0195.0075.035.0464-.1095.0133-.2419-.0491-.3394-.0651-.4369-.0812-.3274-.8784-.4738-2.3422-1.0205-2.5112-1.0743-.3321-2.3833-.0173-3.57.1808-.4915.0821-.9182.552-1.5576.8525,1.7473-3.8123,5.2318-5.9812,8.7735-8.2741Z" fill="#e2a653"/><path d="M119.2653,52.3651c-3.0958-1.1447-6.2192-2.4248-9.3123-3.7742-2.2692-.99-4.4624-.9044-6.6943.115-1.1588.5292-2.3854.9097-3.7808,1.3424,5.9096-4.3762,15.4245-4.6881,19.7874,2.3168Z" fill="#e2a653"/><path d="M120.8855,58.7995c-.6399-1.9531-1.1261-3.9194-1.6088-6.0773.8144,1.5976,1.6255,3.3868,2.4676,5.3555-.2144.3558-.4598.5322-.8588.7217Z" fill="#e2a653"/><path d="M88.2644,59.8033c-.2302.5685-.6007,1.2094-1.1476,1.8599.2182-.5894.6127-1.1885,1.1476-1.8599Z" fill="#d6a157"/><path d="M98.8705,50.0948c-.0888.2977-.3318.6111-.7435.9062.084-.3091.3366-.5998.7435-.9062Z" fill="#e2a653"/><path d="M66.0513,52.9794c.1489,1.2005.1881,2.3379.2218,3.9099.0369,4.6177.0792,8.8008.0742,13.2049.0869,9.4019.2213,18.5829.3395,27.9893.02,9.2356.0559,18.2457.0709,27.481.0217,5.5403.0642,10.8554.0715,16.3501-.0074.5426.0205.9056.0126,1.4915-.0295,5.0566-.0231,9.8903-.0167,14.724-.0137.1942-.0273.3885-.0379.728-2.3792-.3359-1.9158-2.3001-1.9231-3.8432-.0566-11.8397-.0367-23.6798-.0416-35.5198-.0004-.9599-.0089-1.9199-.0385-3.1068-.0135-.7322-.0021-1.2373.0157-2.1582.0082-4.101.0185-7.7862.0104-11.4714-.0358-16.1013-.0769-32.2026-.1161-48.3038.0191-.2148.0381-.4296.0639-.9222.0067-.2778-.017-.5141-.017-.5141.1089-.1321.2178-.2642.4446-.4498.3307.0802.5435.2139.8661.4107Z" fill="#a1a09b"/><path d="M66.8645,141.735c-.0426-5.3151-.0852-10.6302.0622-16.1352,1.7539,1.9462,4.045.9835,6.2665,1.1874.6154-.0234,1.0266-.046,1.5981-.085,1.2953-.5968,2.4518-1.1391,3.562-1.7636,8.7073-4.8975,17.4058-9.8107,26.1069-14.7191.8455.7893,1.691,1.5787,2.6057,2.6366-2.3336,1.7062-4.7127,3.1853-7.1435,4.5739-7.8647,4.4926-15.7423,8.9628-23.6302,13.4145-1.4875.8394-2.3784,1.8051-1.3198,3.8016,4.3695-2.3663,8.6404-4.6791,13.0179-6.847,2.3233.3852,4.3376-.9608,4.8611-3.0887,1.3254-.8108,2.5489-1.4969,3.7725-2.1831,1.3859.5523,2.7718,1.1046,4.1539,1.9237-1.9633,1.3019-3.9229,2.3371-6.0795,3.3542-.6027.333-1.0083.684-1.5108,1.1628-5.1924,3.0215-10.2878,5.9151-15.4173,8.6507-1.1736-.8375-1.2591-.774-1.4626.97-1.4341,1.0461-2.3511,2.0908-1.3329,3.9062.8492-.3335,1.5804-.6206,2.3243-.7032.4604.9094.8662,1.6516,1.4135,2.2683.0621.07.9194-.5658,1.4079-.8743-.5334-.5644-1.0681-1.1277-1.5991-1.6943-.107-.1142-.2001-.2415-.2002-.4895,1.6545-1.0003,3.2096-1.8739,4.7647-2.7475-.0354,1.2685.4864,1.7568,1.7823,1.3987.7265-.2007,1.5036-.2178,2.2579-.3176.1314.2718.2628.5436.3942.8154-.8783.5267-1.7564,1.0534-2.9964,1.797,1.2746.7456,2.4915,1.4574,4.1293,2.4155-3.7087,2.1935-7.6167.7817-11.6829,1.7361,1.8112,1.0461,3.3169,1.9157,5.4387,3.1411-3.4634,1.4885-5.9393,3.4589-9.229,3.2168-2.5429-.1871-3.801,1.4713-2.7004,4.007-1.0921.5462-2.2041,1.1022-3.4851,1.6619-.1755-4.8301-.1818-9.6638.0135-14.7167,1.5299.0601,2.858.3395,4.4026.6644.3196,1.2622.6893,2.7218,1.0962,4.3289.5539-.2868,1.1578-.5994,2.0116-1.0414-2.4174-1.9486.3172-2.4785.9672-3.8024-1.1574-.29-2.3322-.2615-3.0332-.8236-1.7473-1.4012-3.5796-1.4896-5.5876-1.0006M70.0818,150.0274c-.1046-1.3092,1.4075-3.1265-1.1201-3.7789-.2217,1.8717-.4282,3.6145-.6347,5.3573.1432.0794.2864.1588.4296.2382.424-.4829.848-.9658,1.3252-1.8166Z" fill="#d3dae4"/><path d="M77.8042,137.7769c5.0954-2.8936,10.1908-5.7872,15.5368-8.8545.6852-.4821,1.1197-.7906,1.5542-1.0991,1.9596-1.0351,3.9191-2.0703,5.979-3.2263,2.0316-1.1637,3.9462-2.24,5.9077-3.2226.4214-.2111,1.0124-.0836,1.6164.0175.4286,1.7885-.5938,2.5952-1.8445,3.3091-7.7584,4.4283-15.5076,8.8727-23.3641,13.4327-1.6593.9945-3.2144,1.8681-4.9984,2.9019-.4543.2907-.6798.4213-.9053.5519-.7312.2871-1.4623.5742-2.3116.9077-1.0182-1.8154-.1012-2.8601,1.4873-3.9387.6112-.3725.9768-.576,1.3424-.7796Z" fill="#838b94"/><path d="M100.7687,140.2838c-.2564.5064-.5788,1.231-1.1301,1.522-3.1076,1.6407-6.2702,3.1772-9.603,4.7431,3.3945-2.0864,6.9779-4.1668,10.7331-6.2652Z" fill="#da984d"/><path d="M89.6955,146.5456c-.2453.31-.6472.6298-1.2346.9313.2356-.3194.6568-.6204,1.2346-.9313Z" fill="#da984d"/><path d="M101.7557,139.766c-.0772.1608-.2998.3295-.6715.5026.0759-.162.301-.3283.6715-.5026Z" fill="#da984d"/><path d="M102.2741,139.3918c.0621.1287-.0358.2434-.2869.3565-.0788-.135.0147-.2579.2869-.3565Z" fill="#da984d"/><path d="M103.2237,138.8438c.0125.0985-.1046.2374-.3606.4036-.0155-.1029.1078-.2331.3606-.4036Z" fill="#da984d"/><path d="M133.9665,100.2028c-.0169-3.9698.0995-8.0208.1849-12.2776-.002-1.0267.027-1.8477.2257-2.8037,2.0974.4687,4.025,1.0725,5.9864,1.8912.0626,1.2613.0915,2.3076.1203,3.354,0,0,.0397.0857-.0733.2098-.2077.2744-.3025.4246-.3972.5748-1.9712,2.9901-3.9423,5.9802-6.0468,9.0516Z" fill="#838b94"/><path d="M140.6207,90.2438c-.1658-.9236-.1947-1.97-.2098-3.4553-.0974-4.3244-.2085-8.2098-.2072-12.1984.1718-.5071.2312-.9111.2907-1.315.3206.7861.8047,1.5477.927,2.3636.2401,1.6013,1.1069,2.1544,2.8165,1.9803-1.0233,4.1721-2.2518,8.3371-3.6172,12.6248Z" fill="#cad4de"/><path d="M116.9344,108.0728c3.2727-2.1166,6.6089-4.0738,10.5347-6.3769,0,1.6595,0,2.574.0097,3.6955.0097.207-.0018.1905-.1424.1916-.3688.1642-.5969.3273-.8251.4904,0,0,.0002-.0216-.1075-.0187-.1909.1767-.274.3505-.3572.5242-2.128,1.0414-4.1965,2.2574-6.4211,3.0149-.6463.2201-1.7393-.8714-2.6911-1.5211Z" fill="#8290a6"/><path d="M126.659,106.0695c.0805-.1591.3086-.3222.6861-.4875-.08.1597-.3092.3216-.6861.4875Z" fill="#95acc8"/><path d="M126.1536,106.5191c-.0238-.1139.0593-.2877.2593-.4587.0271.1348-.0626.2668-.2593.4587Z" fill="#95acc8"/><path d="M132.6586,109.0123c.0584.1009-.0281.2252-.2599.3735-.0566-.0993.0301-.224.2599-.3735Z" fill="#606c72"/><path d="M140.1288,91.0806c-.0207-.0796.074-.2299.2808-.457.0196.0775-.0728.232-.2808.457Z" fill="#b4bdc4"/><path d="M133.5669,66.5681c.2756.9015.3806,1.8139.5998,2.9465.1142.2203.0633.4161-.1148.4198-2.4818,1.4247-4.7855,2.8457-7.229,4.3423-.8436.9991-1.5473,1.9226-2.3814,2.9369-1.0051,1.3146-1.8799,2.5384-2.7546,3.7621-1.2411,1.8476-2.4489,3.7196-3.7574,5.5182-.2091.2874-.8696.2464-1.4701.2949-.1487-.0623-.1776-.2954-.1452-.5763,2.4821-4.3345,4.9317-8.3881,7.5196-12.5156,1.4929-1.3899,2.8474-2.706,4.2018-4.022,1.7869-1.032,3.5737-2.064,5.5313-3.1069Z" fill="#95acc8"/><path d="M140.0914,74.6933c.1111,3.8854.2222,7.7708.2858,11.8802-1.9751-.3797-3.9027-.9834-5.9973-1.6578-.1813-.5888-.1958-1.1071-.2046-2.034.0126-1.7107.0196-3.0128.2006-4.335,1.5746-1.1842,2.9531-2.3769,4.3926-3.4909.3343-.2587.8764-.2489,1.3229-.3626Z" fill="#a1a09b"/><path d="M134.202,78.567c-.0071,1.302-.0141,2.6041-.047,4.1217-1.0942-.1587-2.1377-.6556-3.2367-.8771-1.4742-.2971-2.9872-.4497-4.4909-.5374-1.5039-.0877-3.0169-.019-4.6332-.1586.7674-1.3635,1.6422-2.5872,2.8523-3.9015,3.2521.2251,6.1688.5406,9.1367.9624.1427.2411.2653.3358.4188.3906Z" fill="#b1bece"/><path d="M72.9889,126.7881c-2.0172-.2047-4.3084.758-6.0413-1.4134-.205-9.0454-.2409-18.0555-.0899-27.2746,1.823,1.1737,3.7471.2533,4.4463-.7883,1.7772-2.6474,4.1428-3.3091,7.1235-3.2585.4957.1817.8569.3061,1.218.4305,0,0,.0985.1992.1314.4106.0914.3414.1829.4411.3075.5102.037.0839.0739.1679.1358.5309.1761.504.3274.7288.4786.9536,1.4742,1.2987,2.9485,2.5975,4.7113,4.0483,2.7176.4108,5.2016,1.1083,7.5612.8127,2.7089-.3394,5.3074-1.5587,7.9539-2.3959.0127.2088.0253.4176.0831.7767.704,2.6,1.3629,5.0498,1.8747,7.6863-9.1899,5.2403-18.2456,10.2715-27.2479,15.3963-.614.3496-.8284,1.4012-1.405,2.1309-.5313.4843-.8863.964-1.2412,1.4437Z" fill="#d8dfe6"/><path d="M100.9379,99.1255c-2.6591,1.0658-5.2577,2.2852-7.9665,2.6246-2.3595.2956-4.8435-.4019-7.3912-.7935,1.3345-4.5416,2.7878-8.9504,4.2619-13.5316.0209-.1723.0232-.176.145-.2534.2135-.3407.3053-.6039.3971-.8671,0,0-.0355-.0191.1023-.0816.231-.3298.3242-.5971.4174-.8643,0,0-.0388-.0244.0825-.0466.2028-.1648.2844-.3074.3659-.4499,0,0-.0351-.0196.0886-.0479.2007-.1685.2778-.3087.3549-.4489,0,0,.0007-.0071.1458-.0793.8659-.9787,1.5867-1.8852,2.3075-2.7918,0,0-.0295-.0358.1271-.0796,3.1871-2.6348,6.1664-5.3188,10.5129-5.5284.1534,1.2232.4706,2.3653.2206,3.3656-.3589,1.436-1.1312,2.7686-1.7524,4.3193-.3475,1.1711-.6698,2.1682-.992,3.1654-1.7247,3.9076-1.4786,8.0446-1.4273,12.389Z" fill="#5b6367"/><path d="M102.5206,86.808c.1668-1.0686.4891-2.0657,1.023-3.2387,1.7859.818,3.3724,1.7934,4.9284,2.8151.608.3992,1.1476.9024,1.7183,1.3583-.3872,1.5271-.7745,3.0543-1.2668,4.7164-2.1526-1.7698-4.2-3.6747-6.4029-5.6511Z" fill="#3d4549"/><path d="M87.8836,127.6542c-4.2708,2.3128-8.5417,4.6257-12.9112,6.9919-1.0586-1.9965-.1676-2.9621,1.3198-3.8016,7.8879-4.4517,15.7654-8.9219,23.6302-13.4145,2.4308-1.3886,4.8099-2.8676,7.2584-4.4664.8089.3459,1.5721.853,2.3961,1.4988-2.5299,1.789-5.1045,3.4652-7.7173,5.0795-1.6124.9962-3.283,1.898-5.0816,2.9138-1.3777.7578-2.6013,1.444-4.0871,2.3059-1.7773,1.0813-3.2923,1.9869-4.8072,2.8925Z" fill="#838b94"/><path d="M74.4065,125.3398c.4002-.7251.6146-1.7767,1.2286-2.1263,9.0023-5.1248,18.0579-10.156,27.2887-15.2114.6089.6424,1.0299,1.2868,1.4936,2.0744-8.6585,5.0515-17.357,9.9648-26.0643,14.8622-1.1102.6245-2.2667,1.1668-3.6012,1.5933-.2482-.5-.2968-.8461-.3455-1.1922Z" fill="#838b94"/><path d="M123.6955,73.7709c-2.4496,4.0536-4.8992,8.1072-7.413,12.3287-1.0743-.385-2.0845-.9379-3.1915-1.6256,1.3849-3.0249,2.8666-5.915,4.3923-8.9652.8941-1.089,1.7442-2.0179,2.8682-3.0711,1.2973.3615,2.3207.8474,3.344,1.3333Z" fill="#343d43"/><path d="M112.5149,67.3871c.734.8751,1.4319,1.784,2.2113,2.6166.9591,1.0246,1.9861,1.9857,3.0538,3.1253-.2175.6947-.505,1.2384-.8525,1.9238-.7479,1.0583-1.4358,1.9748-2.4242,2.9071-2.3258-1.419-4.3512-2.8537-6.3432-4.4479.6793-1.3101,1.3254-2.4607,1.9648-3.6169-.0067-.0056.0021.0085.1257-.067.2131-.3458.3027-.6161.3749-.8918-.0172-.0055-.0063.029.1091-.0185.2028-.1847.2902-.3219.3617-.4632-.016-.0042.0073.0193.1443-.0395.5161-.3819.8953-.705,1.2743-1.028Z" fill="#535c64"/><path d="M123.8339,73.697c-1.1617-.412-2.1851-.8979-3.3817-1.3842,1.6298-1.9109,3.4329-3.8215,5.3767-5.8126.7791.8902,1.4175,1.8611,2.1313,3.0034-1.279,1.4874-2.6335,2.8035-4.1263,4.1934Z" fill="#444c50"/><path d="M134.3759,78.5468c-.3274-.0346-.45-.1293-.5894-.5601-.0427-.8032-.0376-1.3103-.0339-1.8209-.0015-.0035.0031-.0114.1729-.0273,1.8439-1.4524,3.518-2.889,5.1921-4.3256.205.0069.41.0139.7692.0245.3052.3742.456.7448.6073,1.2766-.0591.5651-.1185.969-.2903,1.4761-.5589.2169-1.1009.2071-1.4352.4658-1.4395,1.1139-2.818,2.3067-4.3926,3.4909Z" fill="#b4bdc4"/><path d="M139.0281,71.6675c-1.5846,1.5821-3.2587,3.0187-5.1052,4.273-.0126-2.1247.1473-4.0672.3071-6.0098,0,0,.0509-.1958.0882-.2889,1.9536-.3378,3.5755.1012,4.7098,2.0256Z" fill="#e3dbcf"/><path d="M108.1269,73.6716c2.0253,1.4347,4.0507,2.8694,6.2402,4.3703-1.2018,3.2039-2.5678,6.3415-4.0553,9.59-.6923-.3451-1.2319-.8483-1.8398-1.2475-1.556-1.0217-3.1424-1.9971-4.9031-2.9891.4095-1.3748,1.1819-2.7075,1.5407-4.1435.25-1.0003-.0672-2.1424-.041-3.3826,1.0794-.8402,2.0689-1.5189,3.0583-2.1976Z" fill="#444c50"/><path d="M28.1728,153.4726c.4399.0455.9043.2572,1.393.6353-.44-.0455-.9043-.2573-1.393-.6353Z" fill="#e3dbcf"/><path d="M29.6162,154.4406c.4115.0624.8491.2906,1.3536.6591-.3979-.0709-.8628-.2821-1.3536-.6591Z" fill="#e3dbcf"/><path d="M64.5147,54.5104c.2184,16.0458.2595,32.1471.2953,48.2484.0082,3.6852-.0021,7.3704-.0292,11.2823-.3343-.489-.9181-1.2083-.9083-1.9196.0705-5.1137.3794-10.2257.3806-15.3384.0012-5.0724-.3572-10.1442-.3999-15.2176-.0723-8.5808-.0273-17.1626.0009-25.7439.0014-.4191.3137-.8372.6605-1.3113Z" fill="#d69247"/><path d="M64.6692,53.0608c.0715-.0423.0952.194.0729.3106-.0902.0358-.1672-.0395-.2197-.1292-.0138-.0236.0482-.0915.1469-.1814Z" fill="#d69247"/><path d="M59.3815,169.6195c-.3346.2253-.886.5228-1.173.3585-5.5238-3.1628-11.0168-6.3798-16.5387-9.7508,2.7316,1.2392,5.5086,2.6009,8.2342,4.059,3.1516,1.6859,6.2579,3.4566,9.4775,5.3333Z" fill="#d5c6af"/><path d="M108.1812,60.2425c.9365.0661,1.8932.0334,2.8052.2196,1.6752.3421,3.3241.8133,5.1928,1.3653.2128.2244.2168.3142.2208.404-.0763.1075-.1631.2057-.4588.4082-.2915.2572-.3845.4008-.4775.5444,0,0,.0204.0046-.152.0067-.6948.6523-1.2172,1.3026-1.7396,1.953,0,0-.039-.0022-.162.0483-.2078.3298-.2927.609-.3776.8882-.0314.1529-.1099.2756-.5066.4263-.6548.6946-1.0385,1.3311-1.4222,1.9675,0,0-.0232-.0235-.122.029-.1866.1891-.2745.3257-.3623.4624,0,0-.0109-.0345-.1228.0427-.1977.35-.2835.6229-.3693.8957,0,0-.0088-.0141-.1952-.0131-3.004-.0043-2.3492-2.3343-2.7969-3.9137.0128.0038.0219.0274.176-.0749.3928-1.9547.6316-3.8071.8703-5.6595Z" fill="#e2a653"/><path d="M113.73,65.1183c.3644-.625.8868-1.2753,1.5825-1.9172-.3592.6362-.8919,1.2641-1.5825,1.9172Z" fill="#d6a157"/><path d="M111.2406,68.4152c.2467-.5777.6304-1.2142,1.1849-1.8605.1429.1772.1151.3643.0883.6919-.3779.4636-.7571.7867-1.2732,1.1686Z" fill="#d6a157"/><path d="M117.9691,61.112c.0914-.2522.315-.5406.6911-.8415-.0847.2601-.3217.5327-.6911.8415Z" fill="#e2a653"/><path d="M119.4346,59.7974c.064-.1575.2691-.3275.613-.5169-.0648.1552-.2684.3298-.613.5169Z" fill="#e2a653"/><path d="M113.1543,65.9989c-.0371-.198.0478-.4772.2696-.8207.0421.2036-.0527.4715-.2696.8207Z" fill="#d6a157"/><path d="M118.9225,60.2248c-.0246-.0922.07-.2231.2802-.3979.0234.0905-.0689.2249-.2802.3979Z" fill="#e2a653"/><path d="M115.5907,63.1421c-.0341-.1017.0589-.2453.2742-.4402.0325.0986-.0573.2484-.2742.4402Z" fill="#d6a157"/><path d="M120.3491,59.2013c-.052-.1157.0451-.2286.2821-.3545.0705.1222-.0205.2455-.2821.3545Z" fill="#e2a653"/><path d="M116.5236,62.1914c-.1276-.0498-.1316-.1396-.137-.3642.0865-.1337.1743-.1326.394-.1211.0436.1554-.0449.3004-.257.4853Z" fill="#d6a157"/><path d="M156.5672,107.0228c.6005-1.3351,1.3994-1.7702,2.892-.7248,4.2189,2.9549,8.5664,5.7253,12.8339,8.6117,1.0706.7241,2.0313,1.611,2.992,2.561-2.4069-1.1634-4.781-2.4336-7.1155-3.773-3.8219-2.1926-7.618-4.4301-11.6024-6.675Z" fill="#e2a653"/><path d="M107.122,65.9732c.4606,1.5832-.1943,3.9131,2.8164,3.9231-.4529,1.1552-1.0989,2.3057-1.7782,3.6159-1.0228.8382-2.0123,1.5169-3.1813,2.2126-4.4364.3711-7.4157,3.0551-10.5941,5.7114.0064-1.0023-1.1668-5.4423-1.8247-6.8135-1.3388-2.7905-1.0391-9.2898,1.9542-12.416.1977-.0126.2594.0392.2188.2098-.7003,3.0133-1.5769,5.8285-1.9423,8.7086-.2372,1.8693.6394,3.6249,2.6169,4.4381,1.9543.8036,3.679.2564,5.3629-.8722,3.1931-2.1402,4.9982-5.2557,6.3515-8.7175Z" fill="#d6a157"/><path d="M94.0754,81.4972c-.5472.9035-1.268,1.81-2.1306,2.7876.5578-.8808,1.2574-1.8327,2.1306-2.7876Z" fill="#d6a157"/><path d="M95.0433,60.8257c.2211-.0822.3186-.0662.5265.1241-.1917.5481-.4939.9219-.7961,1.2957,0,0-.0617-.0518-.0925-.0786.0589-.4322.1487-.8376.3621-1.3413Z" fill="#d6a157"/><path d="M90.7669,85.4208c.0437.205-.0496.4722-.2659.8158-.0391-.2003.045-.4769.2659-.8158Z" fill="#d6a157"/><path d="M90.2562,86.3731c.0361.1946-.0557.4578-.268.7966-.0337-.1922.0532-.4601.268-.7966Z" fill="#d6a157"/><path d="M91.2345,84.9074c.0361.0972-.0454.2398-.2442.4271-.036-.0974.0453-.2395.2442-.4271Z" fill="#d6a157"/><path d="M91.6858,84.4164c.0327.089-.0444.2292-.2355.4153-.0341-.0908.0458-.2274.2355-.4153Z" fill="#d6a157"/><path d="M94.7331,62.4162c.3428-.5445.645-.9183.9812-1.4333.034-.1412.0185-.1801.1226-.229.2047-.1888.3054-.3286.406-.4685,1.7151-1.1182,3.3434-2.4229,5.1809-3.2781.9559-.4449,2.2811-.0965,3.6174-.083.1779.0235.1843.0067.2456.1367.3568.3642.6524.5984.9481.8326.204.2698.408.5397.7578,1.08.152,2.5238.158,4.7772.1642,7.0307,0,0-.0091-.0236-.0219-.0274-1.3661,3.458-3.1712,6.5735-6.3643,8.7137-1.6839,1.1286-3.4086,1.6758-5.3629.8722-1.9775-.8132-2.8541-2.5688-2.6169-4.4381.3654-2.88,1.2419-5.6953,1.9423-8.7086Z" fill="#5b6367"/><path d="M107.3108,65.902c-.1602-2.1511-.1663-4.4045-.2126-6.8557.2527.2016.5456.6009.9607,1.0982-.1165,1.9503-.3553,3.8027-.7481,5.7574Z" fill="#d6a157"/><path d="M106.2262,57.7285c-.287-.069-.5826-.3032-.9339-.6683.2713.0804.5983.2918.9339.6683Z" fill="#d6a157"/><path d="M66.3947,69.8733c-.0423-4.1831-.0846-8.3662-.0898-12.7724,1.5221.0484,3.049.1842,4.4811.6267,1.6973.5245,2.9157,1.3731,3.2918,3.5404.4312,2.4851,3.1123,2.6061,5.0817,3.2738,1.111.3767,2.3112.4903,3.6761.7635.5177-.4448,1.2126-1.0417,2.0798-1.6451-1.5257,4.1377-3.2452,8.2733-4.9066,12.4321-.4137,1.0358-.6392,2.1468-1.2056,3.2405-.0205-1.2088.2134-2.4348.4495-3.8543-.0764-1.4781-3.6949-6.2118-4.7936-6.4643-.0768-.0176-.16-.0272-.2377-.0185-2.6092.2909-5.2179.5845-7.8268.8776Z" fill="#e2e7ec"/><path d="M66.3473,70.0943c2.6562-.5142,5.265-.8077,7.8742-1.0986.0777-.0087.1609.0009.2377.0185,1.0987.2525,4.7172,4.9862,4.5927,6.4673-1.5918.0636-1.8086.9099-1.7229,2.0122.1145,1.4731-.2372,2.6039-1.3065,3.8501-.7425.8654-.4762,2.701-.3626,4.0786.0161.1956,1.7211.2519,2.6443.3727.03.6621.06,1.3241-.0823,2.3181-.0912,2.1822-.0101,4.0325.071,5.8829-2.8462.0067-5.2117.6684-6.9889,3.3158-.6992,1.0416-2.6233,1.9619-4.4303.5628-.3051-9.1974-.4394-18.3783-.5264-27.7803Z" fill="#dde3eb"/><path d="M78.3367,85.6211c-.9557.0532-2.6607-.0031-2.6768-.1988-.1136-1.3776-.3799-3.2132.3626-4.0786,1.0693-1.2462,1.421-2.377,1.3065-3.8501-.0857-1.1023.1311-1.9486,1.7206-1.8188-.0329,1.2231-.2668,2.4491-.3676,3.7886.1159.4786.0987.8437-.1137,1.4769-.2104,1.3282-.2256,2.3882-.2406,3.4482.0138.3528.0277.7057.009,1.2324Z" fill="#d8dfe6"/><path d="M78.4275,94.0533c-.2157-1.9076-.2968-3.7579-.2296-5.7424.5825,1.8444,1.0166,3.823,1.4492,5.9873-.3628.0613-.7239-.0631-1.2196-.2448Z" fill="#e2e7ec"/><path d="M78.4402,84.2391c-.0975-.9105-.0823-1.9705.0704-3.1239.1058.9292.074,1.9518-.0704,3.1239Z" fill="#e2e7ec"/><path d="M80.6936,96.7463c-.146-.082-.2972-.3069-.4609-.6738.1436.0823.2996.3066.4609.6738Z" fill="#e2e7ec"/><path d="M80.076,95.2967c-.1162.0387-.2077-.0609-.2947-.2913.1205-.0546.2254.04.2947.2913Z" fill="#e2e7ec"/><path d="M96.1137,60.3212c.0285.104-.0721.2439-.2964.4251-.0267-.1021.0703-.2457.2964-.4251Z" fill="#d6a157"/><path d="M66.8292,141.9146c2.0433-.6685,3.8756-.5802,5.6229.821.701.5622,1.8758.5336,3.0332.8236-.65,1.3239-3.3846,1.8538-.9672,3.8024-.8538.442-1.4577.7546-2.0116,1.0414-.407-1.607-.7766-3.0667-1.0962-4.3289-1.5446-.3249-2.8727-.6042-4.3668-.8873-.1938-.3667-.2217-.7297-.2143-1.2723Z" fill="#d4dce2"/><path d="M70.0551,150.2113c-.4506.6669-.8746,1.1497-1.2986,1.6326-.1432-.0794-.2864-.1588-.4296-.2382.2065-1.7428.413-3.4856.6347-5.3573,2.5276.6524,1.0155,2.4697,1.0934,3.9629Z" fill="#d4dce2"/><path d="M87.9903,127.7992c1.4083-1.0505,2.9233-1.9561,4.5987-2.9129-.2611,1.9521-2.2754,3.2981-4.5987,2.9129Z" fill="#d4dce2"/><path d="M77.2988,141.7919c.2127-.335.4382-.4656.7932-.6295.229.0878.3221.2151.4291.3293.531.5666,1.0657,1.1299,1.5991,1.6943-.4885.3085-1.3458.9442-1.4079.8743-.5472-.6167-.9531-1.3589-1.4135-2.2683Z" fill="#d4dce2"/><path d="M74.2301,125.3444c.2251.3415.2737.6876.3616,1.204-.3719.1929-.7831.2155-1.3985.2389.1507-.4789.5056-.9585,1.0369-1.4429Z" fill="#d4dce2"/><path d="M77.77,137.6189c-.3314.3615-.697.565-1.217.801-.0421-1.5751.0434-1.6385,1.217-.801Z" fill="#d4dce2"/><path d="M94.6982,127.8054c-.2375.3264-.672.6349-1.2602.9892.2519-.3052.6575-.6562,1.2602-.9892Z" fill="#d4dce2"/><path d="M134.0519,69.9344c.0183,1.9388-.1416,3.8814-.2988,6.0219.0026.198-.0019.206-.1861.2015-2.3242-.6552-4.4642-1.3059-6.6042-1.9566,2.3037-1.421,4.6073-2.842,7.0892-4.2667Z" fill="#d8dfe6"/><path d="M126.8229,74.2767c2.2798.5751,4.4199,1.2258,6.7455,1.8845.1805.5151.1753,1.0222.167,1.7191-2.9201-.1258-5.8368-.4413-8.9586-.7572.4988-.9238,1.2025-1.8473,2.0461-2.8464Z" fill="#cad4de"/><path d="M110.2506,69.8282c-.0378-.1973.0481-.4701.263-.8146.0396.1986-.0499.4688-.263.8146Z" fill="#d6a157"/><path d="M110.7346,68.9179c-.0275-.0892.0604-.2258.2629-.4108.0273.0889-.0602.2261-.2629.4108Z" fill="#d6a157"/></g></svg>