<?xml version="1.0" encoding="UTF-8"?><svg id="_レイヤー_2" xmlns="http://www.w3.org/2000/svg" width="151.6421" height="169.4344" viewBox="0 0 151.6421 169.4344"><g id="Layer_1"><path d="M72.3027,4.9042s-.0107-.042-.296.0154c-.2802.2541-.5604.5082-.7946.8847,0,0-.0736-.1082-.3505.0502-3.7175,4.6374-2.9714,10.3025,1.9405,14.909.0095.2151.019.4301-.3741.6224-7.5253.3431-10.637,6.1395-14.4142,11.6204-1.5302,1.9283-3.8284,3.6398-4.4453,5.8258-1.7972,6.3687-2.9967,12.9126-4.2652,19.4201-.3846,1.9729.7192,3.5757,2.7292,3.9012,2.0041.3246,2.9953-1.107,3.433-2.9104.6227-2.5656,1.2106-5.1397,1.8477-7.7017,1.197-4.8129,1.4315-10.0495,5.8544-13.4634.0476-.0367.0342-.1524.3462-.376.5257-.1474,1.0514-.2949,1.5448-.0393-.3078,7.4139-.6157,14.8278-.9572,22.6926.2665,4.6729.5765,9.3439.7874,14.0194.2185,4.8424.8186,9.7168-1.2047,14.4579-1.0909.5052-2.2405.915-3.2558,1.5424-1.006.6216-1.8788,1.4596-2.8058,2.2079-2.1042,1.6985-4.2132,3.3912-6.298,5.1132-.2285.1887-.3376.5426-.4583.8379-.6014,1.4718-1.1219,2.9805-1.7925,4.4195-1.8274,3.9211-3.6481,7.7372-8.5499,8.8848-2.1749.5091-4.1516,1.9044-6.1873,2.9573-1.6933.8759-3.2996,1.9267-5.0187,2.7439-2.5954,1.2337-4.7722,2.7575-5.7965,5.6515-.3921,1.1077-1.3553,2.0133-2.2329,3.2588.3519.5561.9698,1.301,1.3326,2.1543.7383,1.7366,2.0256,3.9069.1745,5.2843-2.9843,2.2207-6.3103,4.0396-9.6554,5.699-2.4616,1.2212-5.2162,1.8289-6.6502,4.558-.2541.4836-1.0697.6461-1.5667,1.033-1.4096,1.097-2.8526,2.164-4.1605,3.3746-1.2056,1.1158-.8835,2.2622.2785,3.285,2.0314,1.7881,3.8693,3.857,6.0952,5.3511,6.0486,4.0599,12.0645,8.0733,19.466,9.6792,6.2153,1.3485,12.3152,2.9687,19.024,2.4613.2228-.15.4456-.3001,1.0464-.4464.8409-.1585,1.6818-.317,2.8727-.5132,1.1682-.7925,2.3364-1.585,3.8533-2.4474,1.3801-.6285,2.8115-1.1652,4.1306-1.9028,3.9499-2.2086,7.8539-4.4992,11.78-6.7505,1.7256-.9895,3.5014-1.8977,5.1839-2.9549,3.2208-2.0239,6.3206-4.2485,9.5983-6.1722,5.7342-3.3652,11.5658-6.5643,17.3547-9.8363,3.4238-1.9352,6.8606-3.8483,10.262-5.8224,4.8347-2.8059,9.6282-5.683,14.4666-8.4823,2.881-1.6668,5.8388-3.2008,8.7171-4.872,2.5159-1.4608,4.9228-3.1126,7.4616-4.5299,2.9494-1.6465,5.9901-3.1295,8.9912-4.6834l.0851-.9921c-1.0185-.4777-2.0371-.9555-3.1449-1.8545-.028-8.9872-.0449-17.9745-.0869-26.9616-.0434-9.3046-.1111-18.6091-.1771-28.2501-3.8602-2.3137-7.7204-4.6274-11.5508-7.282,1.942-3.5453,3.8839-7.0905,6.1563-10.6359,1.8064.9079,3.6128,1.8158,5.6021,3.0207.9263.5003,1.8526,1.0006,3.4133,1.8436-.4542-7.1407-.86-13.5196-1.2175-20.2072-.0281-.205-.0562-.41-.0369-1.0024-.0441-.5154-.0882-1.0308-.0301-1.9779-.1612-3.2316-.3223-6.4632-.4274-10.1071-.0486-.6878-.0972-1.3757-.0673-2.3951-.1318-.5137-.2635-1.0273-.5228-1.8474-.8856-.412-1.7712-.8241-3.0274-1.2667-3.5757,2.1128-7.1687,4.1969-10.7234,6.3445-6.4263,3.8828-12.8297,7.8035-19.5869,11.9179,2.4574,1.4262,4.5683,2.6878,6.7165,3.8826,1.0686.5944,1.5918,1.1824.8292,2.4473-3.3016,5.4756-6.5417,10.9883-10.147,16.4982-.7881-.4723-1.5762-.9446-2.4893-1.7643-.8081-2.0318-2.4934-1.7596-4.061-1.4077-3.2707.7342-6.5002,1.6529-9.7728,2.3768-.765.1692-1.6348-.1359-2.5328-.5144-.3197-.3717-.6393-.7433-.985-1.4802-.1733-.5981-.1995-1.3024-.5427-1.7779-3.391-4.6979-6.7659-9.4255-11.9993-12.6122.1848-.5241.3696-1.0481.8268-1.7125.7118-.5637,1.4236-1.1275,2.3498-1.8455.078-.1545.1561-.3091.2814-.6312,0,0-.0062-.174.1996-.3315.0693-.1548.1387-.3095.4455-.7455.0687-2.8048.1376-5.6096.3726-8.717.2599-.3989.7397-.7975.7403-1.1969.0022-1.4968.2486-3.1837-.3481-4.4433-.7616-1.6079-2.3902-2.0068-4.2824-1.302-1.4332.5338-3.0328.6325-4.565.8847-1.2467.2053-2.5033.3512-4.0572.5366-.2403.1624-.4807.3249-.6788.4974" fill="#fdfefd"/><path d="M148.0301,52.1939c.0571,9.3046.1248,18.6091.1682,27.9137.042,8.9871.0589,17.9744.0433,27.3582-.5607,1.3019-.8555,2.5584-1.6338,3.0513-3.2471,2.0564-6.6428,3.8777-9.9783,5.7951-14.5926,8.3888-29.1878,16.773-43.7729,25.175-8.6101,4.9601-17.2229,9.9163-25.7962,14.9394-5.1713,3.03-10.2693,6.1852-15.5388,9.3075-.375.1754-.6114.3273-.9602.4325-.1908-.0274-.2694-.008-.4992-.035-.423-.194-.6948-.3415-.8161-.6396.2224-4.7333.2943-9.3161.5341-13.9102.559-.1787.9501-.3461,1.5124-.5456,4.7226-2.5075,9.3157-4.9102,13.8065-7.4909,2.0429-1.174,3.8832-2.7005,5.8021-4.0738-.0133-.0067-.0156.023.1388.0051.415-.1711.6756-.3243,1.1036-.4745.8223-.5233,1.4771-1.0495,2.2128-1.7487.1655-4.9543.25-9.7356.51-14.5803,4.1611-2.118,8.2189-4.0463,12.1095-6.2673,3.1062-1.7732,6.0089-3.9029,8.9889-5.8747-.013-.0003-.0185.025.1289.013.3812-.1722.615-.3324,1.0115-.4886.6305-.4014,2.6415.3672,1.4568-1.4831.3862-.7605.738-1.4787.7446-2.2002.0386-4.1653-.0044-8.3314.1616-12.5695,6.1604-3.3212,12.1395-6.57,18.2892-9.8319,1.4104-.7422,2.6966-1.405,3.8701-2.2285.583-.4091.9591-1.113,1.6139-1.7142.3569-.7528.669-1.4734.6768-2.1974.0406-3.7291.0032-7.4591.0301-11.3288.3348-.5169.6326-.8938,1.0474-1.3221.2032-.1929.2893-.3343.3751-.5843-.0005-.1086.0048-.3257.0958-.3189s.2737.0079.389.1245c.4911.0481.9257.079,1.2341-.1035,6.5128-3.8537,13.0115-7.7314,19.6653-11.6176.5267-.1709.9009-.3286,1.2751-.4863Z" fill="#5b666d"/><path d="M113.7438,41.0798c3.2626-5.4992,6.5027-11.0119,9.8043-16.4875.7627-1.2649.2394-1.8529-.8292-2.4473-2.1482-1.1948-4.2591-2.4564-6.7165-3.8826,6.7571-4.1144,13.1605-8.0351,19.5869-11.9179,3.5546-2.1477,7.1477-4.2318,10.8722-6.0983.1548,2.0114.119,3.7777.1738,5.5413.2761,8.8751.5757,17.7495.6767,26.6277-1.9753.1651-3.7602.3265-5.7365.488-.7018-.0004-1.2122-.0008-1.8896.0218-1.3458,2.2618-2.5246,4.5007-3.7055,6.7337-.002-.0059.0105-.0062-.1014.0419-.2017.1804-.2914.3127-.3818.4391-.0008-.006.0114-.0047-.1362.0669-1.0855,1.4511-2.0927,2.789-2.9485,4.2177-2.6981,4.5046-5.3395,9.0432-8.101,13.4315-.9278-.5816-1.8089-.9526-2.5752-1.4877-1.1804-.8243-2.1573-2.0737-3.4426-2.5879-3.0571-1.223-6.2443-2.1208-9.3722-3.3179.3214-1.0004.636-1.8328,1.0233-2.8136,1.3149-2.2885,2.557-4.4287,3.7991-6.569Z" fill="#d97c8d"/><path d="M64.1351,59.9045c.3078-7.4139.6157-14.8278.9345-22.6704.011-3.6522.011-6.8758.011-9.9663-.6261.932-1.3835,2.1216-2.2051,3.265-.8306,1.1561-1.7247,2.2664-2.7531,3.3694-.7209-.3746-1.2797-.7219-1.8387-1.0691,3.5072-5.3077,6.6189-11.1042,14.3441-11.2602.8923,1.1526,1.4786,2.8196,2.2985,2.9438,1.9575.2966,4.0251-.1344,6.0483-.2716,5.2768,2.8522,8.6516,7.5798,12.0427,12.2777.3432.4755.3693,1.1798.39,1.9895-1.9964,1.6683-3.8402,3.125-5.849,4.5597-.4971.0033-.8291.0285-1.2005-.1236-1.9652-3.0741-3.8909-5.9708-5.8167-8.8675.01,1.9314.5146,3.6398.947,5.3663.891,3.5579,1.683,7.1424,2.668,10.6734.1756.63,1.085,1.0553,1.6729,1.7905-.1487,1.984-.3147,3.7526-.4595,5.72.4215,3.0028-1.7985,4.0776-3.6797,5.5429-6.2411,1.6042-11.8032.3251-17.1065-2.9162-.1575-.2329-.2885-.3159-.4484-.3535Z" fill="#bac1ca"/><path d="M45.3443,169.3439c-6.4267.4931-12.5266-1.1271-18.7419-2.4756-7.4014-1.6059-13.4173-5.6193-19.466-9.6792-2.2259-1.494-4.0639-3.563-6.0952-5.3511-1.162-1.0229-1.484-2.1692-.2785-3.285,1.3079-1.2106,2.7509-2.2776,4.1605-3.3746.4971-.3869,1.3126-.5494,1.5667-1.033,1.434-2.7291,4.1885-3.3369,6.6502-4.558,3.345-1.6594,6.6711-3.4783,9.6554-5.699,1.851-1.3774.5637-3.5477-.1745-5.2843-.3628-.8534-.9807-1.5983-1.3326-2.1543.8776-1.2456,1.8408-2.1511,2.2329-3.2588,1.0243-2.894,3.2011-4.4178,5.7965-5.6515,1.7191-.8171,3.3255-1.868,5.0187-2.7439,2.0356-1.053,4.0123-2.4482,6.1873-2.9573,4.9018-1.1475,6.7226-4.9636,8.5499-8.8848.6706-1.439,1.1911-2.9477,1.7925-4.4195.1207-.2952.2298-.6491.4583-.8379,2.0848-1.722,4.1938-3.4147,6.298-5.1132.927-.7483,1.7998-1.5863,2.8058-2.2079,1.0153-.6274,2.165-1.0372,3.4698-1.3557-.075,1.6696-.3639,3.1525-.7127,4.8186-.7368,3.5893-1.4136,6.9954-2.2485,10.4374-2.2726,1.2925-4.3871,2.5491-6.6533,3.837-.6855.4392-1.2193.8471-1.9125,1.3411-.3831.7389-.6068,1.3919-1.0179,2.0457-.9864.3724-1.987.5549-2.5468,1.1511-1.6753,1.7844-3.5036,3.1008-5.923,3.818-2.0151.5974-4.0277,1.5634-5.7255,2.7997-4.186,3.0482-7.68,6.6149-5.774,12.4997.3823,1.1803,1.2427,2.2057,1.7343,3.3785-1.8201,1.2387-3.4919,2.4015-5.3217,3.5856-.3578.2631-.5575.5049-.9673.743-1.165.0616-2.1868-.0716-3.0639.2241-6.0896,2.0535-11.4676,5.3541-16.1188,9.7621-.5309.5032-.6928,2.398-.2792,2.7372,3.3685,2.7624,6.7507,5.578,10.4605,7.8313,2.7983,1.6996,6.0663,2.6435,9.1593,3.8353,3.5973,1.3862,7.1973,2.7849,10.8693,3.9472,1.2525.3965,2.7263.0934,4.2911.1105,1.1885.1612,2.1848.322,3.1822.6394.0056.3652.0102.5738.0147.7824Z" fill="#f1f2f3"/><path d="M51.6602,165.7108c5.131-3.0989,10.2289-6.2541,15.4003-9.2841,8.5733-5.0232,17.1861-9.9794,25.7962-14.9394,14.5851-8.402,29.1803-16.7862,43.7729-25.175,3.3355-1.9174,6.7312-3.7388,9.9783-5.7951.7783-.4929,1.0731-1.7494,1.6785-2.8406,1.1067.2918,2.1253.7695,3.1438,1.2472l-.0851.9921c-3.0011,1.5539-6.0418,3.0369-8.9912,4.6834-2.5388,1.4173-4.9457,3.0691-7.4616,4.5299-2.8783,1.6712-5.8362,3.2052-8.7171,4.872-4.8385,2.7993-9.6319,5.6764-14.4666,8.4823-3.4014,1.974-6.8382,3.8871-10.262,5.8224-5.789,3.272-11.6206,6.4711-17.3547,9.8363-3.2777,1.9236-6.3775,4.1483-9.5983,6.1722-1.6825,1.0572-3.4583,1.9654-5.1839,2.9549-3.9261,2.2513-7.83,4.542-11.78,6.7505-1.3191.7376-2.7505,1.2743-4.4537,1.9292-.6873-.0618-1.0514-.15-1.4156-.2381Z" fill="#b4bdc4"/><path d="M63.2452,93.6547c.2889-1.4829.5779-2.9658.8425-4.6359,1.6198-4.9272,1.0197-9.8016.8012-14.644-.211-4.6754-.521-9.3464-.7706-14.2448.1767-.1878.3078-.1048.4466.3187.3415,4.793,5.8928,9.3072,11.8248,9.8679-.1205,2.6725-.0863,5.1383-.3384,7.5746-.2771,2.678-.8176,5.3288-1.4171,7.9835-.3836-.218-.6066-.4165-.8007-.6401-.8916-1.0265-1.7752-2.06-2.6618-3.091-.7954.8222-1.5854,1.6497-2.3941,2.4585-.0855.0855-.2816.0604-.534.1062-.5127-1.8987-1.0291-3.8111-1.5455-5.7234l-.662.1065c.7436,4.0426-1.5723,8.4064,2.1551,12.759-1.7235.6288-3.3347,1.2166-4.9459,1.8044Z" fill="#343d43"/><path d="M58.1488,32.9198c.694.2606,1.2528.6079,1.9909,1.1459,1.1452,1.3876,2.1112,2.5844,3.0772,3.7812-.0151.0788-.0017.1945-.0493.2312-4.4229,3.414-4.6574,8.6505-5.8544,13.4634-.6372,2.5619-1.2251,5.1361-1.8477,7.7017-.4377,1.8033-1.4288,3.235-3.433,2.9104-2.01-.3255-3.1138-1.9284-2.7292-3.9012,1.2685-6.5075,2.4679-13.0514,4.2652-19.4201.6169-2.186,2.9151-3.8975,4.5803-5.9124Z" fill="#deb39a"/><path d="M139.8529,32.9021c.5104.0004,1.0208.0008,1.846.0907.4089.3753.5031.6611.5974.9469-1.9419,3.5453-3.8838,7.0905-5.9685,10.908-1.195,2.423-2.2473,4.5737-3.4551,6.7835-1.2274,1.5168-2.4546,2.8871-3.3363,4.4521-1.5013,2.6644-2.7853,5.4513-4.1606,8.1867,0,0-.0053.2171-.1215.3761-.2026.3011-.289.4433-.3754.5854-.2978.3769-.5955.7537-1.0731,1.3507-2.0427,3.5469-3.9057,6.8737-5.9315,10.225-.6834,1.2841-1.204,2.5436-1.8682,3.8336-.3263.3384-.5091.6463-.7226,1.1225-.0584.5091-.0861.85-.2824,1.2142-5.4442,3.0885-10.7291,6.138-15.9759,9.2515-.3779.2243-.4786.9155-.8426,1.413-.316.0311-.4975.0389-.8592.0388-.8228.0614-1.4654.1305-2.2346.2133.3371-1.0314.6023-1.8428.9349-2.7874.5169-.513.9662-.8927,1.5776-1.3014.6936-.4937,1.2253-.9584,1.7491-1.4346-.0078-.0115.0041.0091.1858.0241,4.0895-2.0506,8.0127-4.0884,11.8849-6.2189.4579-.2519.6362-1.0119.9396-1.5371-.0045-.0007.0005.0029.1152-.0371.1992-.1744.2836-.3088.364-.4437-.0039-.0005-.0002.0072.1471-.0652.8546-1.3198,1.562-2.5671,2.2704-3.9059.001-.0914-.0058-.2742.1332-.3692.2977-.274.4926-.4322.6097-.6353,5.5805-9.6739,11.1818-19.3359,16.7054-29.0422,1.089-1.9137,1.8763-3.9991,2.8029-6.0053,0,0-.0122-.0013.1012-.0423.2027-.174.2919-.3071.3812-.4401,0,0-.0125.0003.1357-.0699,1.341-2.2736,2.5336-4.4771,3.7263-6.6806Z" fill="#cf7088"/><path d="M73.2833,4.3937c1.2522-.1723,2.5087-.3182,3.7555-.5235,1.5322-.2523,3.1318-.351,4.565-.8847,1.8922-.7047,3.5208-.3058,4.2824,1.302.5967,1.2596.3503,2.9464.3481,4.4433-.0006.3993-.4805.7979-.9753,1.4061-1.4345,1.8305-2.6342,3.4517-3.7918,5.016-.6694,0-1.5031,0-2.4053-.1566-.6191-.6967-1.2187-1.1957-1.7118-1.784-2.0878-2.4909-4.1439-5.0084-6.2116-7.5162,0,0,.0736.1082.2242.1009.4101-.3165.6697-.6257.9293-.9349,0,0,.0107.042.145.0338.3716-.1729.6089-.3376.8462-.5023Z" fill="#715641"/><path d="M94.6215,40.0726c.8216.0869,1.6915.392,2.4565.2227,3.2727-.724,6.5022-1.6427,9.7728-2.3768,1.5676-.3519,3.2528-.624,4.1005,1.7802.3183,2.2388-.5199,3.2605-2.2954,3.8194-1.5517.4885-3.0218,1.2361-4.7029,1.8828-.8532.182-1.5314.3503-2.2892.4118-.3518.1032-.6241.3132-1.0575.5579-.4854.0781-.8095.1215-1.3344.132-1.1396.1171-2.119.1467-3.0079.4455-1.3175.4429-2.4665.5605-3.4308-.6582-.8684-1.0974-1.7624-2.1745-2.8643-3.53,1.7114-.9886,3.1819-1.838,4.6524-2.6874Z" fill="#deb39a"/><path d="M71.0001,5.7753c2.2061,2.4286,4.2623,4.946,6.3501,7.437.4931.5883,1.0927,1.0873,1.6717,1.955-.0159,1.0043.0046,1.6931-.1193,2.3549-.2123,1.134-.5151,2.251-.9664,3.4044-1.8421-.1423-3.4977-.3139-5.1533-.4854-4.8926-4.2842-5.6387-9.9493-1.7828-14.6658Z" fill="#604735"/><path d="M133.0282,51.5722c1.0522-2.1507,2.1045-4.3015,3.2846-6.554,3.9881,2.2119,7.8483,4.5256,11.7129,7.0076-.3698.3259-.744.4836-1.2974.5005-.5967-.1701-1.1027-.3678-1.4177-.2022-2.6295,1.3823-5.2237,2.8314-7.8568,4.0892-1.494-1.7278-2.9598-3.2844-4.4257-4.8409Z" fill="#838b94"/><path d="M150.3762,18.9053c.4058,6.3789.8116,12.7578,1.2658,19.8985-1.5607-.843-2.487-1.3433-3.5155-2.078-.1022-.2344-.109-.4084.0385-.5511.2183-1.0073.3667-1.8735.3474-2.7361-.1295-5.7996-.2946-11.5985-.2639-17.4017.7918.001,1.3993.006,2.0068.0111.0441.5154.0882,1.0308.0199,1.8142-.0413.5264.0298.7847.1009,1.043Z" fill="#de94a5"/><path d="M78.1227,20.8974c.2648-1.1242.5676-2.2412.7799-3.3752.124-.6618.1034-1.3506.1878-2.1983.8738-.1711,1.7075-.1711,2.3768-.1711,1.1575-1.5643,2.3572-3.1856,3.7086-4.8648.083,2.7469.0142,5.5517-.2888,8.5641-.2952.3702-.3561.5328-.417.6954,0,0,.0062.174-.1386.3216-.2135.311-.2822.4745-.351.6379-.7118.5637-1.4236,1.1274-2.4617,1.7643-1.774.4915-3.3499,1.1814-3.3961-1.3739Z" fill="#deb39a"/><path d="M148.0642,16.041c.1537,5.7991.3188,11.5979.4483,17.3976.0193.8626-.1291,1.7288-.3506,2.5375-.3203-1.2254-.4899-2.3949-.6595-3.5644-.2914-8.8746-.591-17.749-.8671-26.6241-.0549-1.7636-.019-3.53.0115-5.526.922.1811,1.8077.5931,2.6369,1.2605.1294.8115.315,1.3676.5007,1.9237.0486.6878.0971,1.3757-.0653,2.2689-1.685.3033-2.2891,1.084-2.1729,2.5537.2045,2.5884.3486,5.1816.518,7.7728Z" fill="#e6aebd"/><path d="M104.128,45.3873c1.5062-.6331,2.9763-1.3807,4.528-1.8692,1.7755-.559,2.6136-1.5806,2.3579-3.6457.811.2736,1.5991.7458,2.5585,1.2128-1.0707,2.1349-2.3128,4.2751-3.7673,6.6101-.7407.463-1.269.7312-1.7999.827-1.2942-1.1599-2.5857-2.1474-3.8772-3.135Z" fill="#f7f6f1"/><path d="M63.3653,37.7745c-1.1145-1.1244-2.0805-2.3212-3.0637-3.6814.8492-1.2937,1.7433-2.4041,2.5739-3.5601.8216-1.1434,1.579-2.333,2.2051-3.265,0,3.0905,0,6.314.0052,9.7648-.5206.3746-1.0463.522-1.7205.7418Z" fill="#a1a09b"/><path d="M94.5833,39.9268c-1.4323.9952-2.9029,1.8447-4.6142,2.8332,1.1018,1.3555,1.9959,2.4326,2.8643,3.53.9643,1.2187,2.1134,1.1011,3.4308.6582.8889-.2988,1.8683-.3284,2.888-.3222-1.5562.7746-3.1635,1.5031-4.8451,1.9555-.6421.1727-1.6905-.0494-2.1465-.502-1.5758-1.5643-2.9723-3.3092-4.4371-4.9854,1.8437-1.4566,3.6875-2.9133,5.697-4.399.4854.3426.805.7142,1.1628,1.2317Z" fill="#d5c6af"/><path d="M77.9362,20.9266c.2327,2.5261,1.8085,1.8362,3.4464,1.4149.0052.5211-.1796,1.0452-.3861,1.7365-2.0449.3044-4.1126.7354-6.0701.4389-.8199-.1242-1.4062-1.7912-2.0972-2.9324-.0081-.3907-.0175-.6058-.0367-.9821,1.646.0104,3.3015.1819,5.1437.3242Z" fill="#d5c6af"/><path d="M148.2486,16.037c-.3537-2.5871-.4978-5.1803-.7024-7.7687-.1161-1.4697.488-2.2504,2.1449-2.3476.3442,3.2324.5053,6.464.6154,9.9115-.6586.2108-1.2661.2058-2.0579.2048Z" fill="#e29eae"/><path d="M147.312,32.4153c.36,1.1658.5296,2.3353.7024,3.7034.0032.1986.01.3726.0207.4585-1.7956-.822-3.6021-1.7298-5.5737-2.6377-.2595-.2857-.3537-.5716-.5712-.9468,1.6616-.2509,3.4464-.4123,5.4218-.5775Z" fill="#db8296"/><path d="M45.3285,168.4049c-.9963-.1608-1.9927-.3216-3.2964-.6157-1.5192-.6836-2.7311-1.2339-3.8325-1.9108,1.9701.2717,3.8298.6702,5.8921,1.0698,1.8361.1673,3.4695.3333,5.1015.6592-.0002.3733.0011.5868.0023.8002-.8409.1585-1.6818.3171-2.7259.3326-.5159-.2071-.8285-.2712-1.1411-.3353Z" fill="#d4dce2"/><path d="M49.3705,168.3888c-.1762-.1946-.1775-.408-.0646-.8507.2453-.4543.3766-.6792.6268-.9162.1189-.0121.3463-.0857.4288-.1165.19-.0906.2666-.1776.3123-.2919.2364-.1519.4729-.3039.8479-.4793.5027.0647.8669.1529,1.3797.2497-1.0195.8011-2.1877,1.5936-3.5309,2.4049" fill="#e2e7ec"/><path d="M149.8237,3.2799c-.2248-.3903-.4105-.9464-.4762-1.6047.2519.4115.3836.9252.4762,1.6047Z" fill="#e29eae"/><path d="M45.3295,168.5615c.3115-.0925.6241-.0283.951.1768-.2085.2911-.4314.4412-.7953.5984-.1456-.2014-.1502-.41-.1557-.7752Z" fill="#e2e7ec"/><path d="M72.1494,4.8909c-.117.2805-.3765.5897-.8097.8449.1066-.308.3868-.5621.8097-.8449Z" fill="#604735"/><path d="M73.1324,4.4002c-.0865.1581-.3237.3228-.7164.4907.0849-.1592.3253-.3217.7164-.4907Z" fill="#604735"/><path d="M150.4004,18.7509c-.0954-.104-.1665-.3623-.1488-.695.1168.1307.1449.3356.1488.695Z" fill="#e29eae"/><path d="M84.5729,19.4689c-.042-.0839.019-.2465.1954-.4761.0462.0878-.0231.2426-.1954.4761Z" fill="#d5c6af"/><path d="M84.0876,20.4299c-.0384-.0863.0304-.2497.2202-.477.0431.0907-.035.2453-.2202.477Z" fill="#d5c6af"/><path d="M27.9546,138.7102c1.6717-1.1628,3.3435-2.3256,5.3204-3.5681.8431-.3994,1.3809-.719,2.0785-1.0802,3.3989-1.8155,6.638-3.5894,9.9189-5.1756.9692,3.0281,2.5898,5.0634,5.4759,6.3843,4.0424,1.8502,8.2013,1.8251,12.6594,1.7694,3.0215-.038,5.8181-.0784,8.7638-.0468.8008.1924,1.4524.3128,2.104.4333-.6548.5262-1.3096,1.0524-2.2953,1.5806-.5855.1638-.8401.3257-1.0946.4876,0,0,.0023-.0298-.169-.0277-.9144.272-1.7107.4465-2.3918.8272-4.4576,2.4918-8.9269,4.9669-13.3102,7.5852-1.4245.8509-2.6025,2.1143-3.8932,3.1891-.3911.1674-.7822.3348-1.4548.3966-4.4558-2.4855-8.6539-4.8252-12.7968-7.2588-3.0095-1.7678-5.9461-3.6596-8.9152-5.496Z" fill="#838b94"/><path d="M27.7964,138.7315c3.1273,1.8152,6.0639,3.707,9.0733,5.4747,4.143,2.4335,8.341,4.7733,12.629,7.2701.0417,4.6997-.0302,9.2825-.4128,13.9612-6.4942-3.4606-12.6349-7.0947-18.8839-10.5321-2.2304-1.2269-3.7276-2.5917-3.2074-5.5345.0136-1.1915-.0046-2.1744.0154-3.3479.0152-.7059-.0078-1.2211.018-1.9331.0317-.8681.0146-1.5395.0439-2.4079.0201-.8659-.0063-1.5349-.0327-2.2039.1997-.2418.3994-.4836.7572-.7467Z" fill="#343d43"/><path d="M26.9628,149.5797c-.4883,2.7341,1.0089,4.0989,3.2392,5.3258,6.249,3.4374,12.3897,7.0715,18.7333,10.6826.432.2022.7038.3497,1.1331.6345.1575.1372.2105.3136.2105.3136,0,0-.2274.0736-.5576.0336-2.2188-.5494-4.2235-.8095-5.9708-1.6226-3.1501-1.466-6.151-3.2541-9.2031-4.928-.7313-.4011-1.402-.9119-2.1293-1.3213-2.8358-1.5962-5.8222-2.9719-8.4805-4.8208-1.9902-1.3842-1.5836-2.9388.7017-3.8376.7229-.2843,1.546-.3137,2.3233-.4598Z" fill="#94a2b8"/><path d="M97.5035,93.6886c.1815-.0077.363-.0155.8285-.0013.4882.0325.6925.0431.9079.0888.0111.035.047.0991.047.0991.0154,4.1658.0583,8.3319.0198,12.4971-.0067.7214-.3585,1.4397-.8845,2.1144-1.9725-.9692-3.6112-1.8934-5.2687-2.994,1.4375-4.0523,2.8938-7.9282,4.3501-11.8041Z" fill="#343d43"/><path d="M132.8725,51.6312c1.6215,1.4976,3.0873,3.0541,4.4732,4.904-3.9217,2.7787-7.7636,5.2641-11.6054,7.7495,0,0-.1827-.001-.2737-.0079,1.2843-2.7423,2.5683-5.5291,4.0696-8.1935.8817-1.5649,2.1089-2.9352,3.3363-4.4521Z" fill="#747c84"/><path d="M74.3564,137.2535c-.7325.0525-1.3841-.0679-2.2429-.4107-.8574-1.0252-1.5076-1.8279-2.0068-2.7289,1.4292-.5824,1.8451-1.4741,1.7877-2.8519-.1085-2.6027-.0838-5.2159.0247-7.819.0266-.638.5904-1.2536.993-1.7453.4927.2304.8995.3267,1.3528.5469.173.2467.2996.3695.4261.4922-.0846,4.7813-.1691,9.5626-.3346,14.5169Z" fill="#343d43"/><path d="M118.0371,76.7826c1.8629-3.3268,3.7259-6.6535,5.7316-10.0604.1529,3.6496.1902,7.3795.1497,11.1087-.0078.7239-.3199,1.4445-.7821,2.0728-1.8933-1.103-3.4962-2.112-5.0991-3.121Z" fill="#343d43"/><path d="M74.8664,122.6732c-.3019-.0593-.4285-.1821-.4453-.4906,1.1078-.8438,2.0764-1.5528,3.109-2.1513,4.3567-2.5252,8.7325-5.0174,13.2775-7.5453,1.8408-.6672,3.5055-1.3109,5.1702-1.9546-2.993,1.9715-5.8957,4.1012-9.0018,5.8744-3.8907,2.221-7.9485,4.1493-12.1095,6.2673Z" fill="#ada8b2"/><path d="M117.8742,76.8071c1.7657.9845,3.3687,1.9935,5.0769,3.1272-.3645.6951-.7406,1.399-1.3235,1.8081-1.1735.8234-2.4596,1.4863-3.9525,2.0948-.9775-.0266-1.7021.0674-2.4295-.0127-.0273-.4062-.0516-.6383-.0759-.8703.0276-.3409.0552-.6817.2606-1.2123.3583-.5037.5388-.8176.7193-1.1315.5206-1.2595,1.0412-2.5191,1.7246-3.8032Z" fill="#6d777f"/><path d="M125.8556,64.4013c3.7265-2.602,7.5684-5.0874,11.5183-7.6949,2.713-1.5511,5.3072-3.0002,7.9367-4.3825.315-.1656.821.0321,1.2653.2155-6.4747,4.027-12.9734,7.9047-19.4862,11.7584-.3084.1825-.7429.1516-1.2341.1035Z" fill="#94a2b8"/><path d="M51.2926,151.0363c1.1195-1.0426,2.2975-2.3061,3.722-3.157,4.3833-2.6183,8.8526-5.0934,13.3102-7.5852.6811-.3807,1.4774-.5553,2.4051-.8205-1.7476,1.3712-3.5879,2.8977-5.6308,4.0717-4.4908,2.5808-9.0839,4.9834-13.8065,7.4909Z" fill="#94a2b8"/><path d="M95.9648,110.5312c-1.6517.644-3.3164,1.2877-5.136,1.7788-.0256-.7167.1037-1.2808.2593-2.0131.3613-1.0059.6963-1.8436,1.1693-2.6905.1937-.312.2493-.6147.3186-1.0771.208-.3931.4021-.6266.5962-.8601,1.6387.9242,3.2774,1.8483,5.056,2.8583,1.5184,1.8954-.4926,1.1268-1.2692,1.5481-.5436.1708-.7781.3257-1.0127.4807,0,0,.0055-.0253.0185-.025Z" fill="#747c84"/><path d="M115.2486,83.9986c.7245-.094,1.449-.1881,2.2558-.1484-5.8967,3.3825-11.8758,6.6313-18.0362,9.9525-.1813.0724-.2173.0083-.1386-.1815.772-.7004,1.425-1.2803,2.1652-1.7102,4.5737-2.6563,9.1671-5.2787,13.7538-7.9124Z" fill="#ada8b2"/><path d="M71.04,139.4767c.1002-.144.3547-.3059.7727-.4726-.0971.1483-.3577.3015-.7727.4726Z" fill="#94a2b8"/><path d="M96.0937,110.5442c.0872-.1429.3217-.2978.7026-.4727-.0876.1403-.3213.3005-.7026.4727Z" fill="#ada8b2"/><path d="M50.3615,166.5054c-.0825.0308-.1356-.1455-.1419-.2364.0723-.1102.1509-.1296.3417-.1023.0667.161-.0099.248-.1999.3386Z" fill="#b4bdc4"/><path d="M124.9958,65.18c-.0306-.0906.0558-.2328.2589-.4253.0304.091-.0557.2324-.2589.4253Z" fill="#747c84"/><path d="M108.9146,50.6303c3.1347,1.0292,6.3218,1.927,9.3789,3.15,1.2853.5142,2.2622,1.7635,3.4426,2.5879.7664.5351,1.6474.9061,2.5103,1.6402-2.4879,4.6913-5.0089,9.0931-7.6064,13.3453-.6942-.7544-1.5126-1.2532-1.8971-1.9813-2.5214-4.7759-7.2075-6.9335-11.3841-9.811.6701-1.6013,1.2809-3.0344,2.0477-4.4961,1.2734-1.4974,2.3907-2.9662,3.508-4.435Z" fill="#db8296"/><path d="M116.7165,71.5032c2.521-4.4017,5.0421-8.8034,7.6282-13.3577,2.7283-4.6779,5.3696-9.2165,8.0678-13.7211.8558-1.4287,1.863-2.7666,2.9485-4.2177-.7789,1.9346-1.5662,4.02-2.6552,5.9337-5.5236,9.7063-11.1249,19.3683-16.7054,29.0422-.1171.2031-.3121.3612-.6133.4438.3482-1.4387.8388-2.7809,1.3295-4.1231Z" fill="#e29eae"/><path d="M108.9214,50.4624c-1.1241,1.6367-2.2413,3.1055-3.6919,4.5824-1.5303-.6159-2.7273-1.24-3.9044-2.0292,2.2408-1.5504,4.4619-2.9357,6.6829-4.321.5283-.2682,1.0565-.5363,1.7244-.851-.175.786-.4896,1.6184-.811,2.6188Z" fill="#838b94"/><path d="M139.6858,32.9251c-1.0256,2.1805-2.2183,4.384-3.5572,6.6635,1.0326-2.1628,2.2114-4.4017,3.5572-6.6635Z" fill="#e29eae"/><path d="M135.8789,39.7007c.0227.0849-.0666.218-.2685.398-.0229-.0853.0668-.2176.2685-.398Z" fill="#e29eae"/><path d="M76.418,70.0968c-5.9604-.341-11.5116-4.8553-11.798-9.5437,5.2668,2.9461,10.8289,4.2252,17.1687,2.764,5.1484.6279,10.0726.7314,13.9272,4.5619,1.3653,1.3568,3.3458,2.0945,5.0688,3.3267.0766,1.1995.13,2.1871.1358,3.3936.0515,2.2789.0982,4.343.2606,6.3979.2917,3.6901-1.8708,5.8755-5.722,5.5084-.4695-5.5561-.993-10.9069-1.4046-16.2663-.1848-2.4058-.7732-2.7347-3.2866-1.5047-4.9035.4071-9.6267.8846-14.3499,1.3622Z" fill="#606c72"/><path d="M108.0053,48.5223c-2.2183,1.5576-4.4394,2.9429-6.7039,4.7158-.045,2.8117-.0465,5.2359-.2191,7.6261-1.6824-3.0745-4.2822-3.714-7.4116-3.5203-2.7652.1711-5.5474.0697-8.3221.0886.166-1.7686.332-3.5372.4975-5.7304.1835-3.1418.3674-5.859.5513-8.5763.332-.0252.664-.0504,1.1611-.0537,1.6298,1.6981,3.0263,3.4431,4.6021,5.0073.4559.4526,1.5043.6747,2.1465.502,1.6816-.4523,3.2889-1.1808,5.0458-1.9226.4441-.1667.7682-.2101,1.396-.2811.5339-.1711.7642-.3147.9946-.4582.6783-.1684,1.3565-.3367,2.2097-.5187,1.4664.974,2.7579,1.9615,4.0521,3.1214Z" fill="#fafbfa"/><path d="M85.3697,57.6313c2.7535-.2177,5.5357-.1163,8.3009-.2874,3.1294-.1937,5.7292.4458,7.3817,3.6643.0086.5426-.1241.9074-.2835,1.4447-.0202,2.962-.0139,5.7515-.0074,8.541-1.6996-1.0203-3.6802-1.758-5.0455-3.1148-3.8546-3.8305-8.7789-3.934-13.7293-4.5981,1.5846-1.572,3.8046-2.6468,3.3831-5.6496Z" fill="#5b666d"/><path d="M86.358,42.9485c-.1445,2.8946-.3284,5.6118-.5293,8.5383-.5875-.3106-1.4968-.736-1.6725-1.366-.985-3.5311-1.777-7.1155-2.668-10.6734-.4324-1.7265-.937-3.435-.947-5.3663,1.9258,2.8967,3.8516,5.7934,5.8167,8.8675Z" fill="#ada8b2"/><path d="M51.5406,111.4981c.2237-.6529.4474-1.3059.8542-1.8637.648.3665,1.113.6379,1.6607,1.0543,4.9924,2.9621,9.902,5.779,14.842,8.6904.0305.0945.0909.2835.0757.5072-.1626,5.0334-.31,9.8432-.588,14.6908-.2202.0526-.3097.0674-.492-.0523-.778-.5439-1.4593-.9601-2.149-1.3617-4.7385-2.7594-9.4787-5.5157-14.1911-8.4558.0071-.6771-.013-1.1714.0135-1.7837.0755-.1975.1042-.2771.2376-.4639.0404-.6632-.024-1.2192-.1171-1.9947-.0088-1.6954.0113-3.1713.1273-4.7432.0273-.5013-.0413-.9065-.1406-1.5182-.0649-1.0395-.0991-1.8725-.1332-2.7055Z" fill="#a9456a"/><path d="M63.1853,93.8379c1.6711-.771,3.2823-1.3588,5.0058-1.9876-3.7274-4.3526-1.4115-8.7164-2.1551-12.759l.662-.1065c.5164,1.9124,1.0328,3.8248,1.5455,5.7234.2525-.0458.4485-.0207.534-.1062.8087-.8088,1.5988-1.6363,2.3941-2.4585.8866,1.031,1.7702,2.0645,2.6618,3.091.1942.2236.4171.4221.7883.6472.1615.0152.1687-.0125.1695.2056.0091.3633.0172.5085.0653.8147.0222.601.0044,1.041-.1308,1.6163-.7243,2.9283-1.3312,5.7212-1.9851,8.6766-.2917,1.0186-.5364,1.8747-.8265,2.8961-.0894.5021-.1336.839-.2822,1.2853-.1314.4051-.1583.7008-.2507,1.1738-.2228.8719-.3365,1.58-.5451,2.2589-.7368,2.3983-.8114,5.214-3.9753,6.2102-.3583.0385-.5602.0881-.9648.1093-1.0152-.0966-1.8277-.1648-2.698-.3894-2.4907-1.7064-2.0077-4.1963-2.1031-6.4998.6768-3.4061,1.3536-6.8122,2.0904-10.4015Z" fill="#3d4549"/><path d="M51.3532,111.499c.2216.8322.2557,1.6652.269,2.8182-.049.3983-.0771.4765-.2462.6326-2.4375,1.4205-4.8126,2.6479-7.0071,4.1407-1.9081,1.298-4.2499,2.5527-5.2649,4.4377-1.7645,3.2768-2.6538,7.0248-3.9101,10.5753-.5379.3196-1.0758.6393-1.7705.9628-.7967-1.093-1.6571-2.1184-2.0395-3.2987-1.906-5.8848,1.588-9.4515,5.774-12.4997,1.6979-1.2364,3.7104-2.2024,5.7255-2.7997,2.4194-.7172,4.2476-2.0336,5.923-3.818.5598-.5962,1.5603-.7787,2.5468-1.1511Z" fill="#e2e7ec"/><path d="M26.8291,139.4745c.2366.6727.263,1.3417.0702,2.1908-1.1648.3509-2.1413.4234-3.051.7087-5.315,1.667-9.7153,4.6689-13.534,9.687,3.5906,2.5523,7.0239,5.2905,10.7477,7.5496,3.2435,1.9677,6.758,3.5306,10.2654,5.0042,1.8088.7599,3.8628.936,5.9654,1.3762.3717.0049.584.0095.7963.0141,1.2118.5503,2.4237,1.1006,3.7508,1.7837-1.2574.1163-2.7313.4193-3.9837.0229-3.672-1.1623-7.2719-2.561-10.8693-3.9472-3.093-1.1918-6.361-2.1358-9.1593-3.8353-3.7098-2.2532-7.092-5.0689-10.4605-7.8313-.4136-.3392-.2517-2.2341.2792-2.7372,4.6512-4.408,10.0292-7.7086,16.1188-9.7621.8771-.2958,1.8989-.1626,3.0639-.2241Z" fill="#e2e7ec"/><path d="M60.9369,104.2752c.2535,2.2676-.2295,4.7576,2.09,6.5091-.348.2111-.583.2207-.9441.0952-.9753-.355-1.8331-.7875-2.6714-.7527-2.019.0839-3.8217-.1274-4.9761-2.0459,2.1145-1.2566,4.229-2.5132,6.5016-3.8057Z" fill="#b35574"/><path d="M54.2836,108.1122c1.306,1.8873,3.1088,2.0986,5.1278,2.0147.8383-.0349,1.6962.3977,2.54.8899-2.6629.0238-5.3207-.2247-7.9785-.4731-.4649-.2714-.9299-.5427-1.4186-.9952.5101-.5891,1.0439-.9971,1.7294-1.4363Z" fill="#cf7088"/><path d="M74.8432,88.3831c.0178-.44.0356-.88.135-1.5711-.0081-.4816-.0979-.7122-.1878-.9427,0,0-.0072.0277.0052.0205.4381-2.6699.9786-5.3206,1.2557-7.9986.252-2.4362.2179-4.9021.3384-7.5746,4.7516-.6973,9.4748-1.1749,14.3813-1.3777.1959,1.6724.2085,3.07.0596,4.4866-4.1936,2.3718-8.2256,4.7246-12.4235,7.1324-2.3209.9354-.4289,2.0344-.4058,3.1941-.4722.8149-.9909,1.4307-1.2274,2.1404-.3145.9442-.4091,1.9617-.7034,3.0236-.4792-.127-.8532-.3299-1.2272-.5328Z" fill="#f7f6f1"/><path d="M100.7847,71.2058c-.0298-3.0015-.0361-5.791.1191-8.729.9064-1.0148,1.6511-1.881,2.3958-2.7473,4.2359,2.7094,8.922,4.867,11.4434,9.6429.3844.7281,1.2029,1.227,1.8971,1.9813-.4143,1.4917-.9049,2.8339-1.392,4.3676.0035.1915.0103.3743-.1629.4864-.864,1.394-1.5547,2.6758-2.2455,3.9575,0,0-.0037-.0077-.1136.0349-.1949.1756-.28.3086-.365.4416,0,0-.0049-.0036-.1607-.0141-.3698-.0159-.5837-.0214-.8296-.1915-1.0211-.774-1.9907-1.4185-3.0035-1.9859-2.4557-1.3757-4.9316-2.7156-7.3993-4.0699-.0533-.9876-.1066-1.9752-.1832-3.1747Z" fill="#d97c8d"/><path d="M68.5159,134.5394c.1474-4.8098.2948-9.6195.6277-14.6668,4.7201-2.5695,9.3212-4.7835,13.7585-7.2878,1.9456-1.0981,3.557-2.7883,5.3489-4.3666,2.3848-5.7591,4.7409-11.3613,7.2491-16.9678.2533-.0064.3547-.0085.456-.0105-.2652.8114-.5304,1.6228-.8675,2.6542.7692-.0828,1.4118-.1519,2.2346-.2133-1.2761,3.8837-2.7324,7.7596-4.1699,11.8119-.1753.4099-.3694.6435-.6908,1.1136-.1992.4942-.2713.7517-.3433,1.0092-.335.8377-.6699,1.6754-1.1879,2.7231-2.9013,1.8787-5.6204,3.5463-8.3378,5.2165-3.2565,2.0016-6.5116,4.0054-9.7674,6.0082-.3168.6259-.8806,1.2415-.9072,1.8795-.1085,2.6031-.1331,5.2163-.0247,7.819.0574,1.3779-.3585,2.2696-1.937,2.877-.6807.2157-1.0611.3081-1.4415.4006Z" fill="#d97c8d"/><path d="M96.0236,91.1067c-.1688.1353-.2702.1374-.5064.0002-.1537-.3302-.1725-.5212-.0966-.8645-.1025-1.2702-.2997-2.3882-.3655-3.5218.2194-.0148.3075-.0139.3957-.0131,3.8596.1653,6.0221-2.0202,5.7304-5.7103-.1624-2.055-.2091-4.1191-.2606-6.3979,2.5152,1.1354,4.991,2.4753,7.4467,3.851,1.0127.5674,1.9823,1.2119,2.9304,2.1385-1.3166,1.1306-2.5867,1.9525-3.8686,2.7554-2.6883,1.6838-5.3826,3.3576-8.0745,5.0355,0,0-.0119-.0205-.1644-.0057-.6852.4966-1.218.9784-1.7508,1.4602-.4494.3797-.8988.7595-1.4156,1.2724Z" fill="#e29eae"/><path d="M115.2456,83.8245c-4.5838,2.8078-9.1772,5.4303-13.7508,8.0866-.7402.4299-1.3932,1.0098-2.1762,1.6752-.294.1442-.4984.1336-.8522.0777.0802-.5194.1809-1.2107.5588-1.435,5.2468-3.1135,10.5317-6.163,15.9759-9.2515.1931.2087.2174.4408.2446.847Z" fill="#838b94"/><path d="M99.5361,88.3948c2.5103-1.693,5.2046-3.3668,7.8929-5.0506,1.2819-.8029,2.552-1.6248,3.9006-2.5907.287-.1472.501-.1418.8752-.1252-.1477.5356-.326,1.2956-.7838,1.5476-3.8721,2.1305-7.7954,4.1683-11.8849,6.2189Z" fill="#e6aebd"/><path d="M112.987,80.0929c.5434-1.2094,1.2341-2.4912,2.0971-3.7937-.5351,1.2266-1.2425,2.4739-2.0971,3.7937Z" fill="#e29eae"/><path d="M97.6012,89.8053c.3709-.4529.9036-.9347,1.5966-1.4198-.3713.4614-.903.9261-1.5966,1.4198Z" fill="#e6aebd"/><path d="M116.006,80.6408c-.0369.2835-.2174.5974-.5449.9328.0358-.2865.2185-.5944.5449-.9328Z" fill="#838b94"/><path d="M112.4759,80.6018c-.0298-.093.0553-.226.2542-.4011.0294.0923-.055.2267-.2542.4011Z" fill="#e29eae"/><path d="M101.664,45.8128c-.1509.2504-.3813.394-.754.5304.1299-.2172.4022-.4272.754-.5304Z" fill="#d5c6af"/><path d="M26.9946,149.371c-.8091.3547-1.6322.3842-2.3552.6685-2.2853.8988-2.6919,2.4535-.7017,3.8376,2.6583,1.8489,5.6447,3.2246,8.4805,4.8208.7273.4094,1.398.9202,2.1293,1.3213,3.0521,1.6739,6.053,3.4621,9.2031,4.928,1.7473.8132,3.7519,1.0733,5.8519,1.6347.08.277-.0513.5019-.2953.7963-1.7461-.0966-3.3795-.2626-5.2458-.6034-.802-.5318-1.3303-1.0018-1.9478-1.225-1.9625-.7093-3.9582-1.3267-5.9655-2.1434-2.2469-2.5599-5.0975-3.8139-8.1773-4.6512.0012-.0021-.002.0003-.0817-.154-.8291-.3735-1.5786-.5926-2.328-.8121,0-.0003,0-.0009-.0032-.1804-1.4093-1.3253-2.8357-2.4471-4.216-3.6231-1.5483-1.319-1.5278-2.8791-.0046-4.1754,1.4083-1.1985,2.812-2.4025,4.3374-3.5611.5122.0169.9047-.0092,1.2973-.0352.0182.9829.0365,1.9657.0229,3.1573Z" fill="#b4bdc4"/><path d="M36.1726,163.5701c1.9828.6529,3.9786,1.2703,5.941,1.9796.6175.2232,1.1458.6932,1.7452,1.2237-1.8294-.2249-3.6891-.6233-5.6592-.895-.3227.1221-.535.1175-.9248-.0341-.9706-.8509-1.7638-1.5547-2.3752-2.2623.5456-.0064.9092-.0092,1.2729-.0119Z" fill="#cad4de"/><path d="M35.3535,134.0619c1.0966-3.5089,1.9859-7.257,3.7504-10.5338,1.015-1.885,3.3568-3.1397,5.2649-4.4377,2.1945-1.4928,4.5696-2.7202,7.046-3.9839.2211.2898.2624.5006.3037.7114-.0201,1.4759-.0401,2.9518-.0758,4.8321.0085.9086.0326,1.4128.0567,1.917-.0287.0796-.0574.1592-.2505.2326-.5403-3.4408-2.4811-1.6469-4.0009-1.135-3.5597,1.1991-4.3792,3.7884-2.1583,6.7633-.0205.0901-.0592.2707-.0592.2707-3.2392,1.7739-6.4783,3.5479-9.8772,5.3633Z" fill="#d4dce2"/><path d="M68.3853,134.5772c.5111-.1303.8915-.2227,1.4211-.3402.7994.7777,1.4497,1.5805,2.1579,2.5337-2.7385.1908-5.5351.2312-8.5919.0988-2.3571-1.0141-4.4834-1.79-6.5427-2.7151-2.0636-.9271-4.1137-1.911-6.0694-3.0434-1.5621-.9045-2.9735-2.0692-4.3218-3.222.9819-.5972,1.8338-1.091,2.7585-1.426,1.8278,2.677,4.4162,4.1121,7.04,5.4919.8614.4529,1.742.8839,2.6498,1.2302,1.2978.495,2.6207.9289,3.9476,1.3417,1.6983.5283,3.3842,2.1223,5.1517.1325.0895-.0148.1789-.0296.3991-.0822Z" fill="#6d777f"/><path d="M46.3086,127.9926c1.4783,1.0492,2.8896,2.214,4.4518,3.1185,1.9556,1.1324,4.0057,2.1163,6.0694,3.0434,2.0592.9251,4.1855,1.701,6.3177,2.7127-4.1979.2285-8.3568.2536-12.3992-1.5966-2.886-1.3209-4.5067-3.3561-5.4759-6.3843-.0417-.1877-.0031-.3684.1489-.4833.3971-.2134.6422-.3119.8873-.4104Z" fill="#77818b"/><path d="M34.7178,163.5857c.7932.7039,1.5864,1.4078,2.3977,2.2584-1.9251-.2932-3.9792-.4693-5.788-1.2292-3.5074-1.4736-7.0219-3.0365-10.2654-5.0042-3.7239-2.2591-7.1571-4.9973-10.7477-7.5496,3.8187-5.0181,8.219-8.0199,13.534-9.687.9097-.2853,1.8862-.3578,3.0045-.5118.1898.6882.2069,1.3597-.0223,2.2271-.8019.2368-1.3693.2185-1.911.3276-3.9577.7975-6.5813,3.7234-9.5017,6.1322-.2755.2272-.0016,1.5758.4063,2.1026,2.6981,3.4853,6.5706,5.3918,10.3629,7.3561,2.475,1.282,5.0437,2.3834,7.7305,3.5665.3735.0043.5869.0077.8003.0112Z" fill="#d4dce2"/><path d="M33.7574,163.5737c-2.5267-1.1823-5.0953-2.2836-7.5704-3.5657-3.7924-1.9644-7.6649-3.8709-10.3629-7.3561-.4078-.5268-.6818-1.8754-.4063-2.1026,2.9204-2.4088,5.544-5.3347,9.5017-6.1322.5417-.1092,1.1092-.0909,1.8622-.1309.2205.5159.2436,1.0311.2283,1.737-.4308.2168-.8234.2428-1.4927.159-1.4947.2438-2.8243.4012-3.8964,1.0112-.9115.5186-1.3989,1.7607-2.2979,2.3276-2.0076,1.266-1.8055,2.7476-.4645,4.1412,1.8524,1.925,3.7956,3.8496,6.7024,4.126,0,0,0,.0006.0339.1788.8139.3816,1.5938.5851,2.3738.7885,0,0,.0032-.0024.0232.175.5467.5477,1.0921.8943,1.5966,1.2929,1.3988,1.1052,2.7805,2.2321,4.1689,3.3504Z" fill="#cad4de"/><path d="M72.9121,121.6975c3.1699-2.137,6.4251-4.1408,9.6815-6.1423,2.7174-1.6702,5.4364-3.3378,8.3114-5.0483.0274.5223-.1019,1.0864-.2525,1.8267-4.39,2.6804-8.7658,5.1727-13.1225,7.6979-1.0326.5985-2.0012,1.3074-3.1555,2.0273-.563-.0345-.9698-.1308-1.4625-.3612Z" fill="#838b94"/><path d="M92.2574,107.6063c-.0661-.2483.0059-.5059.1914-.8404.0579.2257.0024.5285-.1914.8404Z" fill="#838b94"/><path d="M103.3589,59.5614c-.804,1.0344-1.5487,1.9006-2.4285,2.743-.0022-.3887.1304-.7536.293-1.2623.0314-2.5681.0329-4.9922.0581-7.6388,1.2206.4016,2.4176,1.0256,3.7918,1.6702-.4336,1.4536-1.0444,2.8867-1.7144,4.488Z" fill="#343d43"/><path d="M95.4592,86.5057c-.0965.201-.1847.2002-.5246.1516-.6516-.2633-1.0515-.4789-1.4593-.8675-.6528-1.8293-1.2977-3.4855-1.92-5.3525-.1727-2.4841-.368-4.7574-.5633-7.0308-.0126-1.3977-.0252-2.7954-.0408-4.3972,2.3301-1.5046,2.9186-1.1757,3.1033,1.23.4116,5.3594.9351,10.7102,1.4046,16.2663Z" fill="#4d565e"/><path d="M54.0555,110.6888c2.5751.1033,5.233.3518,8.0222.4629.3662-.1468.6011-.1563,1.0072-.211.9836.0231,1.7961.0913,2.8926.271.536.0138.788-.0838,1.0399-.1814,3.0075-1.0073,3.082-3.823,3.8188-6.2212.2086-.6789.3223-1.387.6621-2.1402.6817.558,1.0829,1.3039,1.6969,1.7684,2.6605,2.0125,5.3953,3.927,8.0622,5.9313.2313.1739.1649.744.146,1.2647-4.2392,2.6403-8.3877,5.1459-12.5363,7.6515-4.9096-2.8169-9.8192-5.6339-14.8116-8.5959Z" fill="#db8296"/><path d="M67.8933,134.525c-1.6747,2.1243-3.3606.5303-5.0589.002-1.3269-.4128-2.6498-.8467-3.9476-1.3417-.9079-.3463-1.7885-.7772-2.6498-1.2302-2.6238-1.3798-5.2122-2.8149-6.9384-5.6072.7617-.6686,1.4945-1.0631,2.2273-1.4576,4.7397,2.7573,9.48,5.5136,14.2184,8.273.6898.4016,1.371.8178,2.149,1.3617Z" fill="#606c72"/><path d="M51.5532,124.7074c-.7601.5773-1.4929.9718-2.3272,1.4816-.9535.6091-1.8055,1.1028-2.7874,1.7001-.3751.202-.6202.3005-.9967.4239-2.3729-2.86-1.5535-5.4493,2.0062-6.6484,1.5198-.5119,3.4606-2.3058,3.9541,1.2529.1379.6184.158,1.1127.1509,1.7898Z" fill="#cad4de"/><path d="M68.8976,119.3792c4.1181-2.6001,8.2666-5.1057,12.6722-7.7662,1.285-.7416,2.3127-1.3283,3.5025-1.9496.6918-.3706,1.2218-.7066,1.9306-1.0482.5257-.0838.8726-.1619,1.2195-.24-1.7632,1.4214-3.3746,3.1116-5.3202,4.2097-4.4373,2.5043-9.0384,4.7183-13.7433,7.0641-.1704.0138-.2308-.1752-.2613-.2697Z" fill="#e6aebd"/><path d="M51.8043,122.4598c-.1288-.3969-.1529-.9011-.1326-1.5902.1087.371.173.927.1326,1.5902Z" fill="#b35574"/><path d="M51.8144,115.7218c-.1372-.1148-.1785-.3256-.2587-.6932-.0107-.235.0174-.3132.0972-.505.1202.2917.1888.6969.1615,1.1982Z" fill="#b35574"/><path d="M88.251,108.2182c-.3755.2351-.7223.3132-1.4131.3678-1.246-.7795-2.0655-1.6757-3.0657-2.2651-2.9272-1.725-5.9199-3.3399-8.9015-4.9711-.9467-.5179-1.9394-.9516-2.9111-1.4238.2447-.8561.4895-1.7123.919-2.8284,1.2222-2.9258,2.2596-5.5916,3.297-8.2574.1891-.986.2836-2.0035.5981-2.9477.2364-.7098.7552-1.3255,1.3225-2.2811,1.1186-.7319,2.0629-1.1658,3.1484-1.5976.3293.0043.5174.0065.7307.1866.6156.7747,1.1105,1.546,1.8161,1.933,1.578.8654,3.2611,1.5393,5.0018,2.4208,2.2446,1.3667,4.3886,2.6036,6.5327,3.8406.0188.191.0375.382.0393.7166-2.3732,5.7457-4.7294,11.3479-7.1142,17.107Z" fill="#af496d"/><path d="M84.9104,109.698c-1.0278.5867-2.0556,1.1733-3.2498,1.7803-.2383-.3658-.1718-.9359-.4031-1.1097-2.667-2.0043-5.4017-3.9187-8.0622-5.9313-.614-.4645-1.0153-1.2104-1.6314-1.9456-.0902-.4145-.0633-.7103.2261-1.0346,4.5485,2.7279,8.8344,5.4844,13.1204,8.2409Z" fill="#cf7088"/><path d="M85.0724,109.6634c-4.4479-2.7219-8.7339-5.4784-13.1778-8.3157-.1139-.4176-.0697-.7545.0197-1.2566,1.017.307,2.0098.7407,2.9565,1.2586,2.9817,1.6312,5.9743,3.2462,8.9015,4.9711,1.0002.5894,1.8197,1.4856,2.8868,2.2708-.3649.3651-.8948.7011-1.5866,1.0717Z" fill="#b95979"/><path d="M76.0704,88.916c-.9322,2.5899-1.9696,5.2557-3.1449,8.0191.469-2.6954,1.0759-5.4883,1.8002-8.4165.4914.0676.8655.2705,1.3447.3975Z" fill="#dcd2c3"/><path d="M66.8609,111.0193c-.0955.1087-.3475.2063-.6807.2208.1205-.1327.3224-.1822.6807-.2208Z" fill="#cf7088"/><path d="M74.7913,86.0874c.089.0124.1788.243.147.5636-.1298-.0551-.1379-.2003-.147-.5636Z" fill="#343d43"/><path d="M81.9503,82.0224c-.1882-.0023-.3764-.0045-.76-.1619-.6641-.2791-1.1639-.3387-1.592-.5463-.3829-.1857-.6867-.5345-1.0255-.8113,4.032-2.3529,8.0641-4.7057,12.2577-7.0775.3568,2.2545.5521,4.5278.5109,7.0043-1.2601.2085-2.3084.0736-3.3021.2486-2.0452.3603-4.0611.8863-6.089,1.344Z" fill="#db8296"/><path d="M78.407,80.5578c.5046.222.8084.5708,1.1913.7565.4281.2075.9279.2672,1.4508.5443-.8899.5869-1.8343,1.0208-2.8738,1.5953-.1972-.8617-2.0892-1.9607.2316-2.8961Z" fill="#b35574"/><path d="M95.4205,90.2424c-2.2387-1.0847-4.3827-2.3217-6.4854-3.8282,1.5435-.3301,3.0458-.3907,4.5481-.4513.3999.2156.7999.4312,1.3202.7101.3176,1.1813.5147,2.2993.6172,3.5695Z" fill="#d97c8d"/><path d="M25.5578,157.6086c-2.9036-.097-4.8467-2.0216-6.6992-3.9466-1.341-1.3935-1.5432-2.8751.4645-4.1412.899-.5669,1.3864-1.8089,2.2979-2.3276,1.0721-.61,2.4017-.7674,3.7768-1.0542-1.2486,1.2685-2.6523,2.4725-4.0606,3.6711-1.5232,1.2963-1.5437,2.8563.0046,4.1754,1.3804,1.1759,2.8067,2.2978,4.216,3.6231Z" fill="#bec8d3"/><path d="M33.9175,163.5745c-1.5486-1.1192-2.9303-2.246-4.3291-3.3512-.5045-.3986-1.0499-.7452-1.5977-1.2909,3.0598.66,5.9105,1.914,8.1574,4.4739-.3392.1666-.7028.1693-1.2484.1757-.3953.0002-.6086-.0033-.9821-.0075Z" fill="#bec8d3"/><path d="M27.889,158.601c-.7003-.0491-1.4802-.2525-2.2941-.6339.7155.0412,1.465.2604,2.2941.6339Z" fill="#bec8d3"/><path d="M93.4753,85.7898c-1.4943.2336-2.9966.2942-4.6407.4946-1.782-.6121-3.4652-1.2859-5.0431-2.1513-.7056-.3869-1.2005-1.1583-1.8161-1.9329,2.0029-.6356,4.0188-1.1616,6.0639-1.5219.9937-.1751,2.042-.0401,3.2795-.0379.8588,1.6639,1.5037,3.3201,2.1565,5.1494Z" fill="#b35574"/></g></svg>