<?xml version="1.0" encoding="UTF-8"?><svg id="_レイヤー_2" xmlns="http://www.w3.org/2000/svg" width="137.1535" height="168.5778" viewBox="0 0 137.1535 168.5778"><g id="Layer_1"><path d="M39.9094,41.2982s-.1994.1138-.5158.2067c-4.0561,2.4687-8.1256,4.916-12.1538,7.4295-.5992.3739-1.0037,1.0598-1.557,1.9212.0193.2146.0387.4292-.0467,1.0193-.1152,1.3307-.2305,2.6613-.443,4.3849-.2774,3.0876-.5547,6.1751-.923,9.6708-.143,3.7161-.286,7.4321-.5067,11.5919-.2865,9.7302.0161,19.4246,1.5695,29.3703-1.5081.9824-2.9253,2.5814-4.543,2.8197-3.4434.5073-6.8037.9826-9.3938,3.4804-2.7983,2.6986-6.0909,5.2034-7.9226,8.4873-1.5293,2.7417-3.7908,5.5896-3.2668,9.3388.6416,4.5907-1.6486,9.4559,1.522,13.8583,1.5645,2.1724,2.4298,4.8784,4.1202,6.9222,1.8752,2.2672,4.2085,4.2134,6.5582,6.0184,5.3071,4.0767,11.688,5.7633,18.0026,7.395,4.6812,1.2097,9.4726,2.1087,14.2692,2.7208,4.1962.5355,8.4767.7408,12.7039.6023,3.601-.118,7.1836-.9046,10.7634-1.4651.6691-.1048,1.2866-.5392,2.2875-.8176.3595,0,.7189,0,1.4756.0079,1.318-.481,2.6361-.962,4.3358-1.4481.509-.0055,1.0179-.0111,1.8599-.0043.3781-.1658.7561-.3315,1.447-.4992.2085-.0006.417-.0013.9385-.0204.2293-.3001.4586-.6002,1.0576-.9523,1.8008-.801,3.6015-1.602,5.7276-2.3985.3679-.1675.7358-.3351,1.4389-.5145.7075-.6094,1.415-1.2188,2.3747-2.0328.5501-.2682,1.1002-.5364,1.8319-.5653.5832-.3999,1.1664-.7997,1.9757-1.2147,0,0,.2262-.0141.5701-.0315.5079-.2238,1.076-.3648,1.5143-.6841,5.2922-3.855,8.7217-9.1299,10.9482-15.1487.3505-.9477,1.6904-2.7441-.2311-4.24-.015-.2229-.0301-.4458.0118-.8845,0,0,.0884-.205.4278-.2162,1.6038-.7951,2.573-1.9877,2.4415-3.8595,0,0-.019-.0119.3307-.038.5196-.9802,1.0391-1.9604,1.6248-3.2652,3.0645-5.623,6.129-11.246,9.4599-17.0775,2.7962-7.335,5.5924-14.67,8.6479-22.2608,1.5965-7.482,3.193-14.9641,4.914-22.597.0473-.131.0414-.2596.0802-.8002.0564-1.0175.1129-2.0351.1397-3.1419,0,0-.0931.0134.2119-.2584.1719-1.44.3439-2.88.6262-4.7367.0401-1.1458.0803-2.2916.3249-3.7297.0411-.7178.0822-1.4356.1957-2.5666-.0101-6.1263-.0203-12.2527.0184-18.7783-.1707-1.0798-.4029-2.1539-.5011-3.2402-.3837-4.2465-.725-8.4969-1.0447-13.0795-.0501-.2164-.1003-.4327-.0752-.9868-.1611-.6698-.3221-1.3395-.436-2.3764-.176-.8433-.352-1.6866-.4831-2.8831-.628-.8613-1.0741-2.0227-1.9152-2.5323-3.8155-2.3115-7.7158-4.489-11.6506-6.5931-.8398-.4491-2.1046-.7942-2.9071-.4883-2.1337.8134-4.122,2.0082-6.5255,3.112-4.8295,1.607-9.6589,3.214-14.9188,4.8146-6.8254,1.1-13.638.7347-20.8071-.2994-2.1837-1.1733-3.6888-.529-4.7321,1.6602-.4375.918-1.0928,1.7321-1.9254,2.7398-3.4393,4.0807-6.8786,8.1613-10.5934,12.4049-.8642.9251-1.7284,1.8503-2.867,2.9451-3.8233,3.484-7.6465,6.968-11.7555,10.5565-1.1346.9346-2.2693,1.8692-3.3812,2.8366,0,0,.0093-.0389-.2558.0199-.081.1505-.1619.301-.209.424,0,0-.0306-.0311-.2602-.0324" fill="#fdfefd"/><path d="M70.0738,166.2494c-.6413.2823-1.2588.7167-1.9279.8214-3.5798.5605-7.1624,1.3471-10.7634,1.4651-4.2272.1385-8.5077-.0668-12.7039-.6023-4.7966-.6121-9.588-1.5111-14.2692-2.7208-6.3146-1.6317-12.6955-3.3183-18.0026-7.395-2.3497-1.805-4.683-3.7512-6.5582-6.0184-1.6904-2.0438-2.5557-4.7497-4.1202-6.9222-3.1705-4.4024-.8804-9.2676-1.522-13.8583-.524-3.7492,1.7375-6.597,3.2668-9.3388,1.8318-3.2839,5.1243-5.7886,7.9226-8.4873,2.5901-2.4979,5.9505-2.9731,9.3938-3.4804,1.6177-.2383,3.0349-1.8373,4.6985-2.7943.5625,1.6558.9694,3.2863,1.4142,5.1048.1104.6904.1831,1.1928.1811,1.8602-.2499.9993-.4251,1.8336-.6009,2.6705-.3765-.9655-.7148-1.833-1.0664-2.7344-.696,1.0979-1.0929,2.4885-1.7387,2.6158-3.5815.7059-5.0705,3.8454-7.0667,6.1343-3.3346,3.8235-5.0838,8.6095-5.6892,13.6721-.5292,4.4253-.4306,8.9488,2.3475,12.6525,2.2099,2.9462,4.8402,5.6781,7.6876,8.0128,2.2197,1.82,4.9705,3.0938,7.6462,4.2324,3.983,1.6949,8.4088,2.0447,12.2977,4.2937,1.5559.8998,3.9931.2757,6.207.3489.8628.1607,1.5477.3178,2.4394.4774,1.0343.0022,1.8618.0019,2.8899.0036,2.6647.1603,5.1331.4862,7.5915.423,1.9095-.0491,3.8065-.5835,5.8696-.9025.3744-.0004.5883-.0004.9094.1205,1.1603.1959,2.2134.2708,3.2665.3458Z" fill="#eff2f4"/><path d="M121.7282,111.3741c-3.0645,5.623-6.129,11.246-9.3655,17.1163-.7155,1.1795-1.2589,2.1118-1.8024,3.044,0,0,.019.0119-.1306.0768-.9768,1.3118-1.8041,2.5588-2.6313,3.8058,0,0-.0884.205-.2576.3732-.411.6038-.6529,1.0393-.8843,1.498.0105.0232-.0033-.0205-.147.0525-1.6483,2.1153-3.1529,4.1577-4.801,6.2758-3.2607,3.8098-6.3063,7.6069-9.5279,11.2484-1.414,1.5983-2.4751,3.8814-5.4113,3.7151-2.3423-.2726-4.4729-.4902-6.5954-.77-5.731-.7556-11.0663-2.7943-16.4114-5.2236-1.1745-.674-2.2578-1.2124-3.4225-1.8791-.5155-.3937-.9495-.659-1.3751-1.0234.0083-.0991.0299-.2969.2127-.2946,1.8097.7626,2.7939-.1402,4.1396-1.0235,1.8276-1.1997,4.1166-1.7455,6.2602-2.3993,1.7599-.5367,4.2112.1341,4.5206-2.7684,4.1952,1.1499,8.2574,2.133,12.248,3.3509,2.2243.6788,3.3709-.435,4.5994-2.0628,1.9981-2.1579,4.0013-4.1293,5.6793-6.3468,6.3555-8.399,12.859-16.7121,17.3668-26.5165.3601-.6851.6473-1.228,1.0876-1.7034,2.3184.5299,4.4837.9922,6.6491,1.4546Z" fill="#4b70ab"/><path d="M135.4572,15.3272c.0501.2164.1003.4327-.0304.8521-.1518,1.8723-.3701,3.5911-.0469,5.2012.9165,4.5655,1.8014,9.0125-3.3566,11.8159-.5676.3085-1.0961.6888-1.4194.894-.7142-.9814-1.2155-1.6703-1.725-2.5599-.161-1.4403-.1786-2.7165-.5006-3.9105-.4185-1.5515-1.079-3.0377-1.8083-4.5534-4.2555,1.4056-8.352,2.7748-12.4067,4.2582-.6548.2396-1.124.9868-1.8046,1.4354-.4258-.2527-.7445-.6292-1.0231-.6016-3.3168.3286-6.6277.7174-10.0408.9693-.8785-.6344-1.6143-1.4892-2.4428-1.5914-1.8398-.2269-3.7387-.2096-5.5892-.035-1.3232.1248-1.7837-.3291-1.2365-1.3978,1.2465-2.4345-.1325-3.8771-1.7889-5.2006-1.0338-.826-2.2111-1.4723-3.2954-2.3822.6729-2.3488,2.1743-1.8613,3.6832-1.3673,5.8913,1.9288,12.0093,2.0652,18.0187,1.3903,7.8917-.8863,15.3674-3.5125,22.4651-7.1383,1.0931-.5584,2.3034-.8873,3.4596-1.3224.176.8433.3521,1.6866.3999,2.8336.0775,1.0059.2832,1.7082.489,2.4105Z" fill="#70a6d2"/><path d="M134.5909,9.9065c-1.1786.6117-2.389.9406-3.4821,1.499-7.0977,3.6258-14.5734,6.252-22.4651,7.1383-6.0094.6749-12.1274.5386-18.0187-1.3903-1.5088-.494-3.0102-.9815-3.8223,1.4463-1.9838,2.6295-3.8,4.9971-5.7411,7.442-.3784.4981-.6319.919-1.0277,1.4162-3.6465,3.8749-7.1284,7.6945-10.6677,11.46-1.1344,1.2069-2.4206,2.2711-3.7819,3.4745-3.086,2.4878-5.893,5.0952-9.0082,7.259-2.8759,1.9975-6.0823,3.5191-9.0828,5.0986,1.6251-1.4917,3.19-2.8316,4.9211-4.2029,1.8282-1.2847,3.4903-2.5379,5.2945-3.8764,4.2229-3.7297,8.3036-7.3742,12.5247-11.0999.9119-.9662,1.6833-1.8511,2.6089-2.7795,3.8639-4.4914,7.5736-8.9392,11.4066-13.5054,1.1687-1.3872,2.214-2.6559,3.4407-3.9006,5.5177,1.8764,11.0332,2.1375,16.8224,1.8752,6.2903-.4286,12.2049-1.4634,18.2128-4.4344-1.6056-.9969-2.7049-1.5689-3.6796-2.3059-2.7416-2.0729-5.7335-3.9245-7.0731-7.3527,2.0461-1.0431,4.0344-2.238,6.1682-3.0513.8026-.3059,2.0673.0392,2.9071.4883,3.9348,2.1041,7.8351,4.2816,11.6506,6.5931.8411.5095,1.2872,1.671,1.8927,2.7089Z" fill="#99c6e5"/><path d="M26.8647,111.8349c-.407-1.6304-.814-3.2609-1.279-5.0864-1.8063-9.8015-2.1088-19.4959-1.6569-29.307.2235,1.1055.2815,2.2919.3383,3.6958-.1347,3.0424-.0863,5.7309,2.7977,7.4675,1.7237,1.0379,3.4299,2.2229,4.8313,3.649,1.816,1.848,3.7317,2.8365,6.3437,2.3868.3578,3.9234.6903,7.6301.9954,11.5013-.0552.3851-.083.6057-.2732.8606-1.5154,1.4741-2.6314,3.5919-4.2854,4.17-1.7845.6237-4.0725-.1934-5.9816-.3674-.6022.3389-1.2162.6843-1.8302,1.0298Z" fill="#396096"/><path d="M84.1258,19.4044c-3.7097,4.4478-7.4194,8.8957-11.4747,13.3436-.7133-.1281-1.2296-.1434-1.4261-.4019-2.3989-3.1558-5.7027-4.9956-9.2499-6.5097-1.0378-.443-2.0419-.965-3.0615-1.4508,3.4393-4.0807,6.8786-8.1613,10.629-12.3261.9683.108,1.7299.1492,2.2639.5191,1.9277,1.3354,3.6596,2.9959,5.6922,4.1258,2.0697,1.1505,4.4069,1.8199,6.627,2.7Z" fill="#507bb3"/><path d="M52.2482,50.5786c-1.5649,1.3399-3.1298,2.6798-4.7608,4.1648-.0661.145-.0574.1471-.2263.1571-.8357.5367-2.5761.1687-1.8562,2.05-.6479.3692-1.2057.6148-1.859.7388-.3788-.21-.6623-.2985-1.0956-.3278-.7054.3441-1.261.629-1.9863.8911-4.3026-2.423-8.4223-4.8463-12.5826-7.1977-.6147-.3474-1.4217-.3546-2.1398-.5192.4946-.5415.899-1.2275,1.4982-1.6013,4.0282-2.5135,8.0977-4.9608,12.3636-7.4021.3184-.0593.427-.1461.5356-.2328,0,0,.0306.0311.1298-.0046.1911-.1728.283-.3099.3749-.447,0,0-.0093.0389.1648.041.4067.0514.7893.0304.8501.1601,1.8569,3.9639,5.0491,6.3301,9.0541,7.8358.6345.2385,1.0297,1.1134,1.5355,1.694Z" fill="#7dacd5"/><path d="M70.0931,35.6521c-4.0807,3.6445-8.1614,7.2889-12.4794,10.8691-1.0318-1.2007-1.6094-2.6337-2.6686-3.408-1.8679-1.3656-3.9902-2.4098-6.0818-3.4336-1.455-.7122-3.0368-1.1652-4.5619-1.734,3.8233-3.484,7.6465-6.968,11.7021-10.3967,1.166.9814,2.0426,1.9752,3.045,2.8198,2.2219,1.8722,4.2938,3.9872,7.6717,3.6022,1.2659-.1443,3.0091-.3794,3.373,1.6814Z" fill="#6596c7"/><path d="M111.7936,3.1979c1.5182,3.3979,4.5102,5.2494,7.2518,7.3224.9746.7369,2.074,1.3089,3.6796,2.3059-6.0078,2.9711-11.9225,4.0059-18.2333,4.2742-2.3686-2.1753-4.5006-4.1883-6.6366-6.197-.8504-.7998-2.4584-1.3985-.7286-2.854,4.8295-1.607,9.6589-3.214,14.6671-4.8514Z" fill="#8bbbe1"/><path d="M128.887,31.7313c.5014.6889,1.0027,1.3778,1.7169,2.3592.3232-.2052.8518-.5855,1.4194-.894,5.158-2.8034,4.2731-7.2504,3.3566-11.8159-.3232-1.6101-.1049-3.329.0283-5.0344.5192,4.2127.8605,8.4631,1.2442,12.7096.0981,1.0863.3304,2.1605.3326,3.5816-.2149,6.3144-.2651,12.2874-.2914,18.2605-.0009.196.2406.3931.3691.5897-.0411.7178-.0822,1.4356-.3888,2.3797-2.103.8603-3.9405,1.4942-5.194,1.9267-1.1595-.8651-1.8273-1.3634-2.5207-2.0863-.0411-7.4752-.0566-14.7258-.0721-21.9763Z" fill="#6ea1cc"/><path d="M121.8614,111.2699c-2.2985-.3581-4.4638-.8205-6.7189-1.5065,2.6129-7.1901,5.3156-14.1566,8.2207-21.1255,1.8772.0779,3.5518.1584,5.4048.2474.1183-.3018.4115-1.0498.7905-2.0164.3489.9695.5868,1.6307.8247,2.2919-2.7962,7.335-5.5924,14.67-8.5219,22.1093Z" fill="#5882b7"/><path d="M130.5129,89.0327c-.3676-.5333-.6055-1.1945-.9543-2.1639-.379.9666-.6722,1.7146-.7905,2.0164-1.853-.089-3.5276-.1694-5.3497-.417,1.0948-6.1533,2.3371-12.1394,3.6846-18.2215.1871-.3644.2689-.6328.5225-.8847,3.8897,1.6834,4.2674,1.5543,4.7837-1.1923,1.174-.6645,2.0984-1.1877,3.0228-1.7109-1.5965,7.482-3.193,14.964-4.9191,22.574Z" fill="#5a8abe"/><path d="M96.9114,8.0461c-1.5146,1.4586.0933,2.0574.9438,2.8572,2.136,2.0087,4.268,4.0218,6.422,6.1934-5.5542.4262-11.0696.1652-16.6945-1.8419-1.3055-.7698-2.3457-1.3499-3.335-2.0066-2.6773-1.7771-5.333-3.5868-7.9972-5.3835,6.8078.913,13.6204,1.2783,20.661.1815Z" fill="#7dacd5"/><path d="M24.2684,80.9199c-.058-1.1864-.1161-2.3728-.3007-3.7002.0164-3.857.1594-7.5731.47-11.3412.0037,4.0023.144,7.878,5.3535,8.7758,2.0894,3.1525,5.9438,3.087,8.8196,5.0278-.1334,2.7971-.2801,5.3964-.6039,7.9898-2.2751-.9462-4.3835-1.8645-6.4641-2.842-.5443-.2557-.9682-.7616-1.506-1.0387-1.9091-.9837-3.8436-1.9182-5.7684-2.8713Z" fill="#4b70ab"/><path d="M38.5976,79.4842c-2.8625-1.7429-6.7169-1.6774-8.8063-4.8299-5.2095-.8978-5.3498-4.7735-5.3081-8.9799.1552-3.2395.4325-6.3271.8942-9.4905.3574,1.962.5713,3.9976.6891,6.0387.077,1.3346.0145,2.6772.0145,4.4382,3.2529-2.2316,4.4923.513,6.205,1.5133,2.294,1.3399,4.3906,3.0175,6.5502,4.7738-.0941,2.3279-.1663,4.4321-.2385,6.5363Z" fill="#507bb3"/><path d="M38.858,72.7242c-2.1814-1.5326-4.2781-3.2102-6.572-4.5501-1.7127-1.0003-2.9521-3.745-6.205-1.5133,0-1.7609.0625-3.1036-.0145-4.4382-.1177-2.0411-.3317-4.0767-.6404-6.2352-.0204-1.4512.0949-2.7819.4098-4.3478.4084.4673.9586,1.289.7628,1.8503-.6264,1.7954.1222,2.6266,1.5058,3.6917,2.6544,2.0434,4.9724,4.5189,7.5759,6.6357,1.1578.9414,2.6695,1.4476,4.0201,2.3589-.2811,2.3211-.5618,4.4345-.8424,6.548Z" fill="#5a8abe"/><path d="M44.1584,37.9978c1.668.5166,3.2498.9696,4.7048,1.6818,2.0916,1.0238,4.2139,2.0681,6.0818,3.4336,1.0592.7743,1.6368,2.2074,2.5265,3.4933-1.5669,1.4028-3.229,2.6561-5.0572,3.9407-.672-.5492-1.0672-1.4241-1.7017-1.6626-4.005-1.5057-7.1971-3.8719-9.0541-7.8358-.0608-.1298-.4434-.1087-.8615-.1766.9492-.9531,2.0838-1.8877,3.3613-2.8745Z" fill="#6ea1cc"/><path d="M135.4943,66.3833c-.9867.5987-1.9111,1.1219-3.0851,1.7864-.5163,2.7466-.894,2.8757-4.8728,1.0677-.0965-2.1459.0679-4.1506.2414-6.1467.0091.0086.0005.0097.0547-.217.4202-3.1316.7863-6.0365,1.1523-8.9414.6678.4983,1.3356.9965,2.4951,1.8616,1.2536-.4325,3.0911-1.0664,5.0918-1.7805.1231,1.0656.0829,2.2114-.1915,3.6179-.3885,1.7564-.5427,3.2521-.6969,4.7478,0,0,.0931-.0134-.0445.1613-.1251,1.2437-.1126,2.3127-.1,3.3817.0592.1262.0651.2547-.0444.4612Z" fill="#6596c7"/><path d="M76.0697,7.8041c2.8449,1.8573,5.5006,3.667,8.1779,5.4441.9894.6567,2.0295,1.2368,3.1537,1.9825-.9382,1.3994-1.9835,2.6682-3.1522,4.0553-2.3434-.7617-4.6806-1.431-6.7503-2.5816-2.0326-1.1299-3.7644-2.7904-5.6922-4.1258-.534-.3699-1.2956-.4112-2.1257-.5923.3833-.8504,1.0386-1.6646,1.4761-2.5826,1.0433-2.1891,2.5485-2.8335,4.9128-1.5996Z" fill="#406aa0"/><path d="M39.7009,65.9687c-1.3511-.7037-2.8628-1.2099-4.0206-2.1513-2.6034-2.1168-4.9214-4.5923-7.5759-6.6357-1.3836-1.0651-2.1322-1.8963-1.5058-3.6917.1959-.5614-.3544-1.383-.7104-2.0381-.1667-.1672-.186-.3818-.176-.7563.7475.0047,1.5545.0118,2.1692.3593,4.1603,2.3514,8.28,4.7747,12.5853,7.3979-.1403,2.654-.4531,5.085-.7659,7.5159Z" fill="#6596c7"/><path d="M70.2336,35.5709c-.5043-1.9795-2.2476-1.7443-3.5135-1.6001-3.3779.385-5.4498-1.73-7.6717-3.6022-1.0023-.8446-1.879-1.8383-2.9078-2.9046.7691-1.0653,1.6333-1.9904,2.6352-2.997,1.1573.4044,2.1614.9264,3.1992,1.3694,3.5472,1.5142,6.851,3.354,9.2499,6.5097.1965.2584.7128.2738,1.2719.4454-.58.9283-1.3515,1.8132-2.2633,2.7793Z" fill="#5a8abe"/><path d="M86.9848,158.6068c2.7208.1396,3.7819-2.1435,5.1958-3.7418,3.2215-3.6415,6.2672-7.4386,9.5391-11.055-.568,4.5143-3.453,7.5501-6.3812,10.5737-.6373.658-1.1194,1.4663-1.7496,2.3217-.3343.3712-.5919.6261-.8495.881-.5501.2682-1.1002.5364-1.9431.9009-.9946.4055-1.6965.7147-2.5859,1.0242-.5601.0464-.9327.0923-1.4093.1192-.1041-.019-.3057-.083-.2648-.2105.1768-.3561.3126-.5848.4485-.8135Z" fill="#a7b5c5"/><path d="M107.7109,136.8415c1.9088,1.161.5689,2.9574.2184,3.9051-2.2265,6.0188-5.656,11.2937-10.9482,15.1487-.4383.3193-1.0065.4603-1.6616.5284.3198-.6765.7602-1.2247,1.2589-1.7132,1.8088-1.7719,4.2194-3.22,5.3305-5.3498,1.9914-3.8171,3.2054-8.0397,4.7443-12.0929,0,0,.0138.0437.1577.034.3959-.1599.648-.3101.9-.4603Z" fill="#eff2f4"/><path d="M106.5095,137.3408c-1.3952,3.9802-2.6092,8.2028-4.6006,12.0199-1.1111,2.1298-3.5218,3.5779-5.3305,5.3498-.4987.4885-.939,1.0367-1.4309,1.7219-.0247.1644-.2509.1786-.5314.1831-.5039-.0058-.7272-.0161-.9506-.0264.5536-.7391,1.0357-1.5473,1.673-2.2053,2.9282-3.0236,5.8132-6.0594,6.5248-10.6496,1.4934-2.2357,2.998-4.2781,4.6462-6.3934Z" fill="#d3dae4"/><path d="M86.4954,159.5478s.2017.0641.3186.2413c.1233.4998.1297.8223.1362,1.1448-1.8008.801-3.6015,1.602-5.7425,2.4406-.5703.3361-.8003.6346-1.0303.9331-.2085.0006-.417.0013-.8813-.1145-.6786.1235-1.1014.3634-1.5242.6032-.509.0055-1.0179.0111-1.9273.0167-1.7561.3575-3.7302-.9738-4.3326,1.4402-.3595,0-.7189,0-1.2582-.0021-1.2329-.0769-2.286-.1518-3.446-.5084-.1068-.4956-.1067-.7096.098-.9255,1.1919-.3253,2.1792-.6488,3.3569-.9759,1.189-.1536,2.1876-.3034,3.2091-.305,1.6224-.2643,3.2219-.6769,4.9828-1.095.3769-.0103.5923-.015,1.0054-.0215,2.1535-.7691,4.1094-1.5366,6.1908-2.3695.3653-.2112.6049-.3569.8446-.5026Z" fill="#dae1ec"/><path d="M137.0989,51.2809c-.1647.01-.4061-.187-.4053-.3831.0263-5.9731.0764-11.9461.267-18.0609.1542,5.9846.1644,12.111.1383,18.4439Z" fill="#6596c7"/><path d="M71.7105,166.2573c.4038-2.4179,2.3779-1.0866,3.9432-1.4416-1.1085.4835-2.4265.9645-3.9432,1.4416Z" fill="#eff2f4"/><path d="M107.9681,135.4115c.6576-1.2414,1.4848-2.4884,2.455-3.8093.2876,1.8161-.6815,3.0086-2.455,3.8093Z" fill="#eff2f4"/><path d="M135.8358,62.2432c.0016-1.3598.1558-2.8555.4892-4.4036.0072,1.3876-.1647,2.8277-.4892,4.4036Z" fill="#5a8abe"/><path d="M110.7351,131.5214c.3686-.9192.9121-1.8514,1.5945-2.8687-.3806.8952-.9001,1.8754-1.5945,2.8687Z" fill="#eff2f4"/><path d="M88.3979,159.5111c.7019-.3091,1.4038-.6182,2.2723-.9215-.5409.6153-1.2484,1.2247-2.1188,1.6865-.1598-.3534-.1567-.5592-.1535-.7651Z" fill="#dae1ec"/><path d="M88.2104,159.5116c.1844.2054.1813.4113.1734.7706-.3726.3211-.7405.4886-1.2711.6539-.1691-.3248-.1755-.6473-.1948-1.1281.3597-.2042.7323-.2501,1.2924-.2964Z" fill="#cad4de"/><path d="M135.4948,15.1583c-.2434-.5334-.4491-1.2357-.5502-2.0581.2657.5497.4268,1.2195.5502,2.0581Z" fill="#6ea1cc"/><path d="M93.5889,156.7055c.3-.106.5233-.0957.9142-.0824-.4157.4029-.9989.8027-1.6729,1.083.1669-.3745.4245-.6293.7588-1.0006Z" fill="#eff2f4"/><path d="M135.5877,65.7149c-.0615-.8618-.0741-1.9308.0658-3.1298.096.8875.0396,1.905-.0658,3.1298Z" fill="#5a8abe"/><path d="M77.9383,164.8026c.2563-.246.6791-.4859,1.2013-.6085-.2787.2831-.6568.4489-1.2013.6085Z" fill="#eff2f4"/><path d="M107.7046,136.674c-.2457.3176-.4977.4678-.9041.6046.0875-.449.3293-.8846.7119-1.3804.1557.1626.1708.3855.1922.7758Z" fill="#d3dae4"/><path d="M80.3337,164.2984c.0736-.2893.3036-.5877.689-.8979-.074.2885-.3032.5886-.689.8979Z" fill="#eff2f4"/><path d="M40.5112,40.8771c.0406.1077-.0513.2448-.2594.4314-.0351-.101.0458-.2515.2594-.4314Z" fill="#6ea1cc"/><path d="M40.0242,41.2988c.0062.0873-.1025.1741-.2626.187-.0515-.0738.1478-.1876.2626-.187Z" fill="#6ea1cc"/><path d="M46.9298,165.778c-2.036-.0695-4.4732.5546-6.0291-.3452-3.8889-2.249-8.3147-2.5988-12.2977-4.2937-2.6756-1.1386-5.4264-2.4124-7.6462-4.2324-2.8474-2.3346-5.4777-5.0666-7.6876-8.0128-2.7781-3.7037-2.8767-8.2272-2.3475-12.6525.6054-5.0626,2.3546-9.8485,5.6892-13.6721,1.9962-2.2888,3.4852-5.4284,7.0667-6.1343.6458-.1273,1.0427-1.5179,1.7387-2.6158.3515.9014.6898,1.7689,1.0664,2.7344.1758-.8368.351-1.6712.7368-2.5558.6542,1.6229,1.0979,3.2961,1.3464,4.9811-2.964.4263-6.7074,4.9554-7.2625,7.987-.2927,1.5988-1.3439,3.0708-2.1285,4.5602-.2443.4637-.8396.7385-1.0994,1.1985-1.8978,3.3606-1.4596,7.0686-1.3034,10.6586.1355,3.1116,1.2332,5.8241,3.463,8.3525,3.068,3.4789,6.2561,6.4686,10.9047,7.7771.1205.0004.3614.0014.3828.1579.6501.373,1.2787.5896,2.0678.8762,1.1784.3458,2.1964.6215,3.249,1.0734,1.7796.5404,3.5246.9044,5.4502,1.2686.5418.0022.903.0043,1.2827.1758,1.1315,1.0174,2.2444,1.8653,3.3574,2.7132Z" fill="#e2e7ec"/><path d="M28.7611,118.9672c-.4437-1.6732-.8873-3.3465-1.4669-5.1343-.2086-.617-.2813-1.1194-.3917-1.8099.5762-.5335,1.1902-.879,1.7925-1.2178,1.9092.174,4.1971.991,5.9816.3674,1.6541-.5781,2.77-2.6959,4.3183-3.9592,1.1431,5.1727,2.0908,10.1689,2.861,15.1673-1.4695.6787-2.7614,1.3554-4.2432,2.1314-2.1603-.9339-3.9303.3297-4.4183,3.3053-1.284-2.3674-2.4365-4.6223-3.5961-7.0371-.2838-.711-.5605-1.262-.8372-1.813Z" fill="#32548c"/><path d="M65.7374,165.7834c-1.9026.3187-3.7996.8531-5.7091.9022-2.4584.0632-4.9268-.2627-7.6498-.5514-.5427-.3667-.8266-.6029-1.0788-1.0102.4962-.296.955-.494,1.4267-.532,1.4411-.1163,2.8872-.1712,4.5092-.2485.8628.159,1.5477.3165,2.4134.4748.5423.0002.9039-.0002,1.4844-.0008,1.6802.0004,3.1414.0008,4.6027.162.0005.3752.0009.5895.0013.8039Z" fill="#dae1ec"/><path d="M47.1077,165.7816c-1.2909-.8516-2.4038-1.6995-3.3449-2.7157,1.9742.1524,3.7765.4731,5.5995.9474.3286.3701.6365.5866.9454.923.001.12.003.3599-.1514.3806-.375.327-.5955.6333-.8161.9395-.6849-.157-1.3697-.3141-2.2325-.4748Z" fill="#dde3eb"/><path d="M49.547,166.259c.0137-.3088.2343-.6151.7688-.9417.5268-.021.7396-.0216.9524-.0222.2838.2362.5676.4724.9098.837-.7692.1288-1.5966.1291-2.631.1269Z" fill="#e2e7ec"/><path d="M65.898,165.7831c-.1609-.214-.1613-.4284-.001-.8047.3751-.161.5896-.16.804-.1591,0,.214-.0002.4279-.0006.8026-.2142.1607-.428.1608-.8024.1612Z" fill="#dde3eb"/><path d="M73.9351,143.1295c-.1465,2.9712-2.5978,2.3004-4.3577,2.8371-2.1437.6537-4.4326,1.1996-6.2602,2.3993-1.3457.8833-2.3298,1.7861-4.2784,1.0246-.414.0005-.5065.0021-.6993-.0261-.2326-.1038-.3085-.216-.3471-.543-.4971-.4069-.9753-.6371-1.4367-.87.0167-.0026.0061.0295-.002-.1404-.6018-.9073-1.2228-1.6245-1.7847-2.3855-2.4611-3.3337-4.9051-6.68-7.2256-10.126-.0731-1.0387-.2758-1.973-.3715-2.4139,2.9751-2.1647,5.7441-4.1795,8.6546-6.123.8231,1.0017,1.5048,1.932,2.2609,3.0055,1.4576,1.7954,2.8408,3.4476,4.314,5.2268.3778.2138.6656.3006.9376.394-.0158.0066-.0013-.0244.0599.1296,1.9426,1.6544,3.8241,3.1549,5.7823,4.7849.3545.221.6322.3123.9009.4062-.009.0026-.011-.0161.067.1088.3532.2058.6284.2866.8967.3704-.0069.003-.0065-.012.0672.1157.3499.2058.626.284.8964.3655-.0057.0033-.0039-.0099.0681.1189.3494.2064.6268.2841.8983.363-.0059.0013-.0004-.0123.047.1222.3356.3748.6239.6151.9121.8554Z" fill="#4e76af"/><path d="M58.0114,148.9981c.0196.1503.0955.2624.3887.4652.2514.2782.3832.3419.5564.3198.434.2653.868.5306,1.2017.9244-2.4024,1.0108-3.9544,6.0522-2.4918,7.8966.8519,1.0742,7.4252,2.4532,9.2165,1.9114,2.1771.0245,4.1779-.0603,6.1632.0773,1.1208.0777,2.2163.5216,3.1927.9499-6.0587,1.242-11.98,1.0205-17.873-.0663-3.0244-.5577-6.0135-1.3075-9.0921-2.1168-1.9837-1.8258-3.1376-4.0375-2.6708-6.4587.5022-2.6049-.2317-4.6233-1.5685-6.6573-1.1037-1.6793-.6587-3.5239.9378-4.0935-.005.005.0013-.0072.0566.1019.1914.1943.3276.2795.4452.368-.0185.0034-.0034-.031.0436.0862.183.2108.3189.3044.4371.3997-.0178.0016-.005-.0317.0215.053.1571.0651.2877.0455.5886.0157,3.1125,1.5954,6.0547,3.2009,8.997,4.8065,0,0,.0106-.0322.0699.1046.4994.3953.9396.654,1.3797.9126Z" fill="#a7b5c5"/><path d="M76.3693,161.3933c-1.1069-.2789-2.2023-.7228-3.3231-.8005-1.9853-.1377-3.9861-.0528-6.2635-.2117-2.9963-1.4567-4.0855-4.5479-2.9288-7.6588,5.2538,2.2937,10.5891,4.3323,16.3201,5.0879,2.1224.2798,4.253.4974,6.5954.77.0796.2553-.0562.484-.233.8402-.2807.2732-.5203.4188-1.069.6008-1.1583.1731-2.0076.31-2.9828.3089-1.3227-.146-2.9314-1.299-3.2946,1.0242.0024.0213.0225.059-.1808.0462-1.0155-.0109-1.8276-.009-2.6397-.0071Z" fill="#8290a6"/><path d="M126.9977,70.3426c-1.2423,5.9862-2.4846,11.9723-3.7819,18.1281-2.7577,7.1361-5.4603,14.1025-8.2264,21.2252-.3506.6991-.6378,1.2419-1.1683,1.931-.5857.1461-.9282.1461-1.2501-.0243,4.3622-8.8401,8.1737-17.7321,10.365-27.203,1.1093-4.7947,1.6948-9.7106,2.5921-14.7107.2878-.3738.5008-.6085.7895-.719.2772.5404.4787.9565.6801,1.3727Z" fill="#7dacd5"/><path d="M112.5506,111.7729c.3424,0,.6849,0,1.1977-.0038-4.2646,9.6583-10.7681,17.9713-17.1235,26.3703-1.678,2.2175-3.6811,4.1889-5.7888,6.2884-.3473-.1195-.4408-.2541-.4999-.5474,1.7755-2.3448,3.6451-4.4419,5.2334-6.7339,4.4562-6.4304,8.7963-12.9411,13.2999-19.5402,1.3055-2.0245,2.4934-3.929,3.6813-5.8334Z" fill="#6ea1cc"/><path d="M63.7625,152.5865c-1.0654,3.2466.0239,6.3378,2.8374,7.7783-1.5082.6925-8.0815-.6865-8.9334-1.7607-1.4626-1.8444.0894-6.8858,2.5733-7.7682,1.265.5383,2.3483,1.0766,3.5228,1.7506Z" fill="#94a2b8"/><path d="M90.3017,144.0392c.0935.1346.1869.2692.3899.4622-.9747,1.6127-2.1213,2.7265-4.3456,2.0477-3.9906-1.2179-8.0528-2.201-12.248-3.3509-.4512-.309-.7394-.5493-.8901-.9233,4.3536.9881,8.5698,2.1098,12.9832,3.2464,1.5017-.4842,2.8062-.9831,4.1106-1.4821Z" fill="#6596c7"/><path d="M58.9649,149.684c-.1816.1212-.3134.0575-.4644-.1909.0318-.1005.1243-.1022.3555-.1049.1388-.0011.1172.1967.1089.2958Z" fill="#32548c"/><path d="M112.4844,28.8242c.555-.5126,1.0241-1.2598,1.679-1.4994,4.0547-1.4833,8.1511-2.8526,12.4458-4.0366.5765,9.5971.9567,18.9706,1.2807,28.3461.0316.9148-.2832,1.8415-.6245,2.7625-2.2917-.1945-3.6027-1.2029-4.2108-3.3401-.2616-.9195-1.2187-1.6411-1.8614-2.6778.0052-2.9962-.3453-5.8299.126-8.5195.4168-2.3788-.9212-3.6591-1.993-5.24-.0441.0213-.1415.032-.137-.0942-.133-.2146-.2706-.303-.4525-.5074-.1742-.2076-.3039-.2993-.4993-.5401-.7816-.6332-1.5364-1.0698-2.2054-1.6121-1.2095-.9805-2.3678-2.0241-3.5475-3.0414Z" fill="#365991"/><path d="M112.3587,28.7602c1.3054,1.0812,2.4636,2.1249,3.6731,3.1054.669.5423,1.4238.9789,2.1112,1.7555-5.3652,2.7341-10.8726,4.5979-16.7366,5.0545.102-1.8749,2.3191-3.2842.5368-5.2876-.7457-.8381-1.0422-2.0759-1.4689-3.235.3367-.3026.5994-.5021.8782-.7518.0162-.0502.0429-.1522.0429-.1522,3.3124-.373,6.6233-.7618,9.9402-1.0905.2787-.0276.5974.3489,1.0231.6016Z" fill="#b1bece"/><path d="M81.1866,25.9645c1.8162-2.3676,3.6323-4.7352,5.5876-7.1817,1.252.648,2.4293,1.2944,3.4631,2.1203,1.6564,1.3235,3.0354,2.7661,1.7889,5.2006-.5472,1.0687-.0867,1.5226,1.2365,1.3978,1.8506-.1746,3.7494-.1918,5.5892.035.8286.1022,1.5643.957,2.4428,1.5914.1006.1211.074.2231-.1572.2417-2.476-.0288-4.7208-.0762-7.0073-.2987-4.0278-.8367-8.0138-1.4982-12.1197-2.1608-.12-.001-.3599-.0022-.3696-.1424-.1579-.3612-.3061-.5822-.4543-.8033Z" fill="#7dacd5"/><path d="M127.4526,54.397c.154-.9212.4688-1.8479.4372-2.7627-.324-9.3754-.7041-18.7489-1.1077-28.3446.5172,1.2927,1.1778,2.7789,1.5963,4.3303.3221,1.194.3396,2.4702.5006,3.9105.0236,7.4513.0391,14.7018.0802,22.177-.3405,3.1296-.7065,6.0345-1.2551,9.0073-.2055-2.7273-.2284-5.5226-.2514-8.3179Z" fill="#99c6e5"/><path d="M43.6414,57.8109c.5579-.2455,1.1157-.4911,1.8717-.9807.7711-.8092,1.344-1.3744,1.9169-1.9395,0,0-.0087-.0021-.0029.0046,3.0667-1.7245,6.2731-3.2462,9.1489-5.2437,3.1152-2.1637,5.9222-4.7711,9.0915-7.0994,1.1554.4481,2.1069.7598,3.0046,1.185,1.2912.6116,2.5432,1.3058,3.7446,2.1121-4.3977,3.9331-8.7049,7.7458-13.0672,11.4945-2.6546,2.2812-5.3941,4.4636-8.2702,6.7097-2.3291.7599-1.5249,2.8981-2.3324,4.4114-.2016.3499-.2827.6202-.3645,1.0088-.0007.1183.0014.355-.0005.4779-.0057.2047-.0094.2865-.091.4079-.1076.0888-.174.1657-.1611.1827.0659.0872.1522.159.2364.4394-.0054.8806-.0159,1.5579-.1627,2.2473-.1958.3193-.2553.6266-.3112,1.1352,0,.8725-.0034,1.5436-.2072,2.2195-2.7807.9434-5.1793.5044-7.4554-1.1542.1346-1.5393.2399-2.8817.4349-4.211.6308-4.3,1.2946-8.5952,2.0911-12.9217.3922-.1816.6389-.3338.8857-.486Z" fill="#6596c7"/><path d="M72.4841,45.702c-1.2687-.659-2.5207-1.3532-3.8119-1.9648-.8977-.4252-1.8493-.7369-2.8601-1.2589,1.1334-1.2891,2.4196-2.3533,3.554-3.5602,3.5393-3.7655,7.0212-7.585,10.8342-11.4562.6893-.233,1.0698-.3934,1.4503-.5538,0,0,.2399.0012.4396.1553,1.6319.7168,3.0641,1.2793,4.4634,2.0096-.5342,1.1662-1.0354,2.1646-1.6655,3.2481-.6867.8603-1.2446,1.6355-1.9482,2.4659-2.9422,3.1909-5.7387,6.3265-8.6733,9.5268-.6862.5059-1.2344.9471-1.7826,1.3883Z" fill="#6ea1cc"/><path d="M81.6409,26.7678c-.3707.3006-.7512.461-1.2982.6177.087-.4246.3405-.8455.7189-1.3436.2731.1437.4213.3648.5793.726Z" fill="#70a6d2"/><path d="M24.2672,81.1374c1.9261.7357,3.8605,1.6701,5.7696,2.6538.5378.2771.9617.7829,1.506,1.0387,2.0806.9775,4.189,1.8958,6.4869,3.0643.1949,2.3287.1898,4.4292.1848,6.5297-2.5867.6664-4.5023-.3221-6.3184-2.1701-1.4014-1.4261-3.1076-2.6111-4.8313-3.649-2.884-1.7366-2.9324-4.4251-2.7977-7.4675Z" fill="#406aa0"/><path d="M38.2398,94.6407c-.0203-2.3173-.0152-4.4178-.033-6.7407.1239-2.8216.2706-5.4209.404-8.218.059-2.302.1312-4.4062.2253-6.7341.3025-2.3372.5832-4.4506.8643-6.7717.3132-2.6385.626-5.0695.9361-7.7006.5529-.4851,1.1085-.7701,1.8118-.944.1525.3389.1572.5668.1619.7947-.6511,4.297-1.3149,8.5922-1.9457,12.8922-.195,1.3293-.3002,2.6717-.4539,4.4324-.1561,8.4703-.3048,16.5162-.4686,24.7833.0151,2.0062.0453,3.7914-.0633,5.5692-.2312-.0136-.3236-.0197-.416-.0259-.3325-3.7067-.665-7.4133-1.0228-11.3367Z" fill="#8bbbe1"/><path d="M39.2353,106.142c.1199-.1584.2123-.1523.5578-.0055,1.8797,7.453,3.5108,14.7644,5.1221,22.0801.1017.4617.0492.9574-.0831,1.3545-1.0339-2.4527-1.9163-4.8227-2.7987-7.1926-.9477-4.9963-1.8954-9.9925-2.876-15.1995-.0051-.4314.0227-.6519.0778-1.037Z" fill="#70a6d2"/><path d="M47.2611,54.9005c-.404.5552-.977,1.1203-1.658,1.8059-.9181-1.6372.8223-1.2692,1.658-1.8059Z" fill="#99c6e5"/><path d="M42.7557,58.2968c-.1501-.1985-.1548-.4264-.1575-.8244.2855-.0816.5689.0068.9478.2169-.1514.2737-.3981.4259-.7903.6075Z" fill="#99c6e5"/><path d="M127.103,70.2467c-.3067-.3203-.5082-.7365-.8212-1.4742.0282-1.4691.1681-2.6166.3472-3.9108.0593-.3481.0793-.5495.1919-.8693.3777-.3824.6627-.6464.9477-.9103-.1644,2.0047-.3287,4.0094-.404,6.1387.0073.3931-.0745.6616-.2616,1.0259Z" fill="#99c6e5"/><path d="M126.5897,65.0084c-.1398,1.1476-.2797,2.2951-.3837,3.64-.1771.4321-.39.6668-.8604,1.0475-.5883.5032-1.1431.8228-1.2105,1.2242-.2634,1.5689-.3302,3.1696-.5507,4.7471-.2436,1.7434-.5754,3.4744-.8689,5.2108-.2824.0143-.5647.0286-.8471.0428-.1256-.9652-.2889-1.9274-.3647-2.8964-.058-.7414.0783-1.5026-.0194-2.2352-.2072-1.5536-.7391-3.0958-.7296-4.6401.0235-3.8185.2768-7.6357.6331-11.4514.9519-.0398,1.7085-.0815,2.5706-.1291q-1.0129-2.1101-2.7668-2.0161c-.0003-3.1336.0014-6.041.0031-8.9484.6411.8115,1.5982,1.5331,1.8598,2.4526.6081,2.1373,1.9191,3.1456,4.2108,3.3401.2102,2.7955.2332,5.5907.3845,8.5448.1284.1587.137.1576.1279.1491-.2941.2554-.5792.5194-1.1248.8938-.4718.2896-.683.4687-.8942.6478.277.1254.554.2507.8309.3761Z" fill="#32548c"/><path d="M66.9057,164.8174c-.4191.001-.6335,0-1.0088.0003-1.622.0006-3.0832.0002-4.7877-.1609-.7092-.0535-1.175.0537-1.6409.1608-.6849-.1576-1.3698-.3151-2.3654-.6142-4.6202-1.1601-9.0647-1.8054-13.2018-3.3011-4.2186-1.5252-8.2152-3.7417-12.1569-5.9295-2.8864-1.6021-4.3253-6.2128-3.3829-9.4384.5592-1.914,1.2621-3.8133,1.5531-5.7708.2854-1.9197.7089-3.3077,2.9512-3.6943.8913-.1537,1.6352-1.1619,2.4554-1.7882.6407.0308,1.3784.0663,2.234.1409.3132.1925.5086.3458.7339.6205.1641.2123.2982.3033.4376.3792.0052-.0152-.0252-.005.018.1151.1806.2126.318.3051.4563.3782.001-.0194-.0315.0019.026.1488.3069.4856.5564.8242.6032,1.189-.8985.3618-1.6297.6398-2.2841,1.0427-3.3566,2.0666-3.2057,5.6123-3.6569,8.8781-.7029,5.0876,1.6345,8.5175,6.2166,9.9396,1.1716.3636,2.2422,1.0535,3.3574,1.5973,1.8192.8872,3.5832,1.922,5.4709,2.6247,1.7778.6618,3.664,1.1165,5.5421,1.3987,1.6369.2459,3.329.1241,5.1964.1894,2.3131.1658,4.4286.2818,6.5391.4575,1.2908.1075,2.574.3066,3.8605.4646-.9873.3234-1.9745.6468-3.1665.9722Z" fill="#cad4de"/><path d="M70.2625,163.8414c-1.477-.1542-2.7601-.3534-4.0509-.4608-2.1105-.1757-4.2261-.2917-6.7027-.532-1.9052-.4231-3.4947-.6063-4.9768-1.1073-1.7781-.601-3.4646-1.4731-5.1899-2.2286.0009-.0008.0052-.0068.0052-.0068,3.005.663,5.9941,1.4127,9.0185,1.9704,5.8931,1.0868,11.8144,1.3083,17.873.0663.9426-.1513,1.7547-.1532,2.7805.0259.2235.405.2332.6291.2429.8531-.2154.0047-.4308.0094-1.0114.0061-1.8442.3148-3.3232.6376-4.8021.9604-.9986.1498-1.9972.2996-3.1862.4532Z" fill="#b1bece"/><path d="M79.4599,162.4199c-.2073-.2223-.217-.4463-.2371-.8385-.0104-.1682-.0306-.2059.1569-.1865,1.2019-.296,2.2163-.6115,3.2308-.9269.8493-.1368,1.6986-.2737,2.7312-.3813-1.7725.7967-3.7284,1.5641-5.8818,2.3332Z" fill="#cad4de"/><path d="M73.4717,163.5364c1.456-.4711,2.935-.7939,4.6176-1.1031-1.3958.4262-2.9952.8387-4.6176,1.1031Z" fill="#cad4de"/><path d="M37.4372,134.3829c-.7378-.0355-1.4755-.071-2.1162-.1018-.8203.6263-1.5642,1.6345-2.4554,1.7882-2.2422.3866-2.6657,1.7746-2.9512,3.6943-.2911,1.9575-.9939,3.8567-1.5531,5.7708-.9424,3.2255.4965,7.8362,3.3829,9.4384,3.9417,2.1878,7.9383,4.4044,12.1569,5.9295,4.137,1.4957,8.5816,2.141,13.0239,3.2997-1.3114.2189-2.7574.2737-4.1986.3901-.4717.0381-.9305.236-1.4267.532-.2444.1717-.4572.1723-.8295.1726-.1595-.0004-.1615-.2403-.1829-.5144-.3295-.4903-.6376-.7064-.9457-.9225-1.8023-.3207-3.6046-.6414-5.5973-.9632-.5516-.0033-.9128-.0054-1.5357-.1625-1.6541-.5344-3.0463-.9137-4.4653-1.4607-2.6095-1.8109-5.0648-3.7185-7.8031-5.0393-4.8608-2.3447-7.6572-7.3719-6.7441-12.6661.2629-1.5239-.0567-3.1589.2758-4.6576.3932-1.7726.9131-3.65,1.9115-5.1197,1.0781-1.5871,2.6769-2.8841,4.2413-4.0486.7058-.5254,1.8733-.5056,2.8423-.5713.4992-.0339,1.0224.2869,1.6573.5483,1.186,1.6219,2.2495,3.1429,3.3129,4.6639Z" fill="#d4dce2"/><path d="M34.0018,129.618c-.5124-.1605-1.0356-.4813-1.5348-.4474-.969.0657-2.1364.046-2.8423.5713-1.5645,1.1645-3.1632,2.4615-4.2413,4.0486-.9983,1.4697-1.5182,3.3471-1.9115,5.1197-.3325,1.4987-.0129,3.1336-.2758,4.6576-.9132,5.2942,1.8833,10.3214,6.7441,12.6661,2.7383,1.3209,5.1936,3.2284,7.6422,5.0399-.3486.1689-.5631.1696-.7776.1703-1.018-.2757-2.036-.5514-3.3058-1.026-.8339-.4339-1.4158-.6689-1.9978-.9039,0,0-.2409-.0009-.3866-.167-.3489-.3982-.5064-.7354-.7622-.8468-4.2311-1.8414-6.7065-5.6436-9.7768-8.7714-.3947-.4021-.5568-1.1257-.6365-1.7256-.2137-1.6071-.4025-3.2255-.4549-4.8441-.06-1.8532-.481-3.9251.1767-5.5223,1.2981-3.1522,3.2041-6.0586,4.921-9.0307.4582-.7932,1.2398-1.3996,1.697-2.1932.5375-.9329,1.3817-2.0724,1.2117-2.952-.3874-2.005.4972-2.4489,2.1147-2.5209,1.1525,2.2548,2.305,4.5097,3.6176,7.0253.3663.7247.5725,1.1886.7787,1.6525Z" fill="#d8dfe6"/><path d="M29.5983,120.7802c-1.6104.232-2.495.6759-2.1076,2.6809.17.8797-.6742,2.0192-1.2117,2.952-.4572.7935-1.2388,1.4-1.697,2.1932-1.7169,2.9721-3.6229,5.8785-4.921,9.0307-.6577,1.5972-.2367,3.6691-.1767,5.5223.0524,1.6186.2412,3.2369.4549,4.8441.0798.5999.2419,1.3235.6365,1.7256,3.0703,3.1278,5.5457,6.93,9.7768,8.7714.2558.1113.4133.4486.6417.8463-4.5029-1.1425-7.691-4.1322-10.759-7.611-2.2298-2.5284-3.3276-5.2409-3.463-8.3525-.1563-3.5899-.5944-7.2979,1.3034-10.6586.2598-.46.8552-.7348,1.0994-1.1985.7845-1.4893,1.8357-2.9614,2.1285-4.5602.5551-3.0315,4.2985-7.5606,7.2625-7.987.4719.5393.7486,1.0903,1.0324,1.8013Z" fill="#dde3eb"/><path d="M36.8395,161.6203c.1798-.1769.3943-.1777.7696-.1789,1.5531.3788,2.9454.7581,4.4188,1.2925-1.6638-.2091-3.4088-.5732-5.1884-1.1136Z" fill="#dde3eb"/><path d="M31.5227,159.6706c.5605.0785,1.1425.3135,1.8159.6773-.5372-.0877-1.1658-.3043-1.8159-.6773Z" fill="#dde3eb"/><path d="M34.1243,129.7189c-.3287-.5648-.5349-1.0287-.7697-1.6408.3278-3.2363,2.0978-4.5,4.2581-3.5661,1.4818-.776,2.7737-1.4526,4.2432-2.1314,1.0599,2.3678,1.9423,4.7378,2.984,7.179.1593.0713.135.0589.1289.2155.0152.3638.0366.5712.1053.9422.3428,1.023.6383,1.8823.7424,2.7475-.9074.2493-1.6322.4696-2.3373.7413-1.4423.5557-2.8739,1.1389-4.3099,1.7108,0,0,.0325-.0212-.0169-.118-.1833-.1919-.3173-.2871-.4512-.3823,0,0,.0304-.0101-.0205-.106-.141-.2361-.2646-.3339-.4217-.3894-.1954-.1534-.3908-.3067-.704-.4992-1.1813-1.5601-2.2447-3.0811-3.4307-4.703Z" fill="#365991"/><path d="M59.649,164.8183c.2851-.1079.7509-.215,1.2411-.1615-.3372.1612-.6988.1617-1.2411.1615Z" fill="#d4dce2"/><path d="M49.3623,164.0133c.2874.0624.5955.2785.924.6488-.2875-.0622-.5954-.2787-.924-.6488Z" fill="#dae1ec"/><path d="M46.008,133.4589c-.2955-.8593-.5911-1.7186-.8259-2.8084-.0286-.4977-.1178-.7648-.2071-1.032,0,0,.0243.0123.0164.0239-.0271-.4684.0255-.9641-.0762-1.4258-1.6113-7.3157-3.2424-14.6271-4.9834-22.0726-.1445-1.9184-.1747-3.7036.0061-5.7114,5.9818.6375,6.2788.4894,8.0953-3.9509.3684,2.0946.4766,4.0767.854,6.0062.7366,3.766,1.6237,7.5026,2.4251,11.4428,1.3968,3.9251,2.817,7.6588,4.2282,11.5122-.0091.1197-.0412.3577-.1015.4032-.1236.2068-.0643.3173.1516.4935.0542.1949.0744.2733.0945.3517-2.769,2.0148-5.5381,4.0296-8.5132,6.1944.0957.4409.2984,1.3752.2994,2.2791-.6223-.5889-1.0429-1.1473-1.4634-1.7058Z" fill="#5882b7"/><path d="M62.3114,134.8679c-1.3832-1.6522-2.7663-3.3044-4.0527-5.1213.4705-.2684.8436-.4602,1.2178-.4623,3.8043-.0217,4.2192-.3581,5.0191-4.0277,1.0282.1685,1.871.3305,2.7052.4983-.0086.0059-.014-.0132.0271.1051.1794.2051.3176.2919.446.3819-.0098.0033-.0072-.0173.0617.1166.2529.2106.437.2873.7784.381,3.5511,1.9602,6.9448,3.9033,10.2631,5.9906-1.2079,1.5878-2.3402,3.0314-3.6806,4.5261-1.229.0423-2.2802.188-3.2653-.0045-2.8454-.5561-5.6641-1.2484-8.4933-1.8872,0,0-.0145.031-.0872-.099-.3615-.2192-.6504-.3084-.9392-.3975Z" fill="#a7b5c5"/><path d="M45.8165,133.4648c.612.5526,1.0325,1.111,1.5251,1.8043,2.5223,3.4765,4.9663,6.8228,7.4274,10.1565.5618.761,1.1828,1.4783,1.7847,2.3855-2.9342-1.4357-5.8764-3.0413-9.0995-4.6668-.2809-.0199-.5045-.0702-.5045-.0702,0,0-.0128.0333-.0396-.0903-.1644-.2141-.302-.3045-.4396-.3949,0,0-.015.0344-.0367-.0893-.1679-.2014-.3142-.2791-.4604-.3568,0,0-.0063.0123-.0989-.1226-1.3139-1.0149-2.5352-1.895-3.8273-2.9096-.7187-.7177-1.3666-1.3008-2.0145-1.884-.2495-.3387-.499-.6773-.8059-1.1629,1.3785-.7188,2.8102-1.3021,4.2524-1.8577.7051-.2716,1.43-.4919,2.3373-.7413Z" fill="#32548c"/><path d="M63.399,135.5184c2.768.4848,5.5868,1.1771,8.4321,1.7332.9851.1925,2.0363.0468,3.3051.1806,2.6154,1.8018,5.0061,3.4473,7.3413,5.1681,1.2223.9006,2.3473,1.9331,3.5162,2.9061-4.2161-1.1217-8.4323-2.2435-12.8333-3.366-.1849-.0008-.1905.0128-.2646-.1101-.3462-.2053-.6182-.2878-.8902-.3702,0,0-.0018.0132-.0751-.1124-.3459-.2073-.6185-.2891-.8911-.3709,0,0-.0003.015-.0723-.1113-.3466-.2082-.6213-.2901-.896-.372,0,0,.002.0187-.0714-.1056-.3473-.2209-.6213-.3175-.8953-.4141-1.8814-1.5004-3.7629-3.0009-5.7055-4.6553Z" fill="#406aa0"/><path d="M64.3102,125.25c-.6144,3.6762-1.0293,4.0126-4.8336,4.0343-.3742.0021-.7473.1939-1.2923.3192-.853-.9089-1.5347-1.8392-2.3578-2.8409-.1616-.1497-.1817-.2281-.2286-.5315-.0267-.225-.0986-.4304-.0986-.4304,0,0,.0322-.238.1836-.4576.9272-1.4752,1.703-2.7307,2.6428-3.9587,2.1042,1.3069,4.0444,2.5863,5.9845,3.8656Z" fill="#bec8d3"/><path d="M57.9924,148.8214c-.4212-.0819-.8614-.3405-1.3775-.7333.4022.0961.8804.3263,1.3775.7333Z" fill="#32548c"/><path d="M72.0776,141.7889c.2-.0463.472.0361.8241.2401-.1973.0439-.4747-.0337-.8241-.2401Z" fill="#6596c7"/><path d="M69.1813,140.3034c.1972-.033.4712.0636.8275.2819-.1953.0304-.473-.0609-.8275-.2819Z" fill="#6596c7"/><path d="M70.1492,140.8183c.1967-.043.4713.0389.8248.2441-.1964.0425-.4716-.0383-.8248-.2441Z" fill="#6596c7"/><path d="M71.1131,141.3045c.1988-.0459.4714.0359.8231.24-.1971.0441-.4732-.0341-.8231-.24Z" fill="#6596c7"/><path d="M62.4015,134.9949c.1987-.0378.4876.0513.8649.264-.1993.0366-.487-.0502-.8649-.264Z" fill="#406aa0"/><path d="M42.118,139.2451c1.2213.8801,2.4426,1.7602,3.7615,2.7701-1.5038.7045-1.9489,2.5491-.8452,4.2284,1.3368,2.034,2.0708,4.0524,1.5685,6.6573-.4668,2.4212.6871,4.6329,2.6708,6.4587.0736.1464.0693.1523-.1198.1528-4.4716-.7472-8.1233-4.1736-8.4578-8.213-.2589-3.1259-.1444-6.2974.0338-9.4355.0509-.8963.9033-1.7471,1.3882-2.6188Z" fill="#b1bece"/><path d="M46.9762,143.1588c-.0265-.0847.1972-.0344.3077-.0043-.02.0498-.1506.0694-.3077.0043Z" fill="#b1bece"/><path d="M46.0288,142.2518c.0909-.0314.2372.0463.4236.2443-.096.0352-.2321-.05-.4236-.2443Z" fill="#b1bece"/><path d="M46.5176,142.706c.0906-.0268.2281.0636.4103.2761-.0914.0284-.2273-.0653-.4103-.2761Z" fill="#b1bece"/><path d="M82.4845,160.33c-.8884.4534-1.9028.7688-3.1071,1.0436.1758-2.3426,1.7844-1.1896,3.1071-1.0436Z" fill="#94a2b8"/><path d="M121.1931,48.3789c0,3.1326-.0017,6.04-.0027,9.3652.0012.9291.0017,1.4403.0022,1.9516-.161,3.8177-.4143,7.6348-.4378,11.4534-.0095,1.5443.5224,3.0865.7296,4.6401.0977.7327-.0386,1.4939.0194,2.2352.0758.9691.2391,1.9313.3647,2.8964.2824-.0143.5647-.0286.8471-.0428.2934-1.7364.6253-3.4674.8689-5.2108.2204-1.5776.2872-3.1783.5507-4.7471.0674-.4014.6222-.721,1.1356-1.0851-.6398,4.8541-1.2253,9.77-2.3346,14.5647-2.1912,9.4709-6.0028,18.3629-10.365,27.203-1.2084,2.0748-2.3963,3.9793-3.802,5.847-2.1297-1.1162-4.0416-2.1957-5.9185-3.4425,1.3727-2.9211,2.7105-5.675,4.1595-8.5493,4.7882-7.9892,7.3231-16.6516,9.5937-25.6044,1.0681-6.3957,2.234-12.6132,2.9549-18.8819.9906-8.6147.8837-17.2573-.2857-25.9922.0555-.2114.0764-.2964.0972-.3813,1.0277,1.6022,2.3657,2.8825,1.9489,5.2613-.4713,2.6897-.1208,5.5233-.126,8.5195Z" fill="#335488"/><path d="M102.8156,114.1744c1.9119,1.0795,3.8237,2.1591,5.8359,3.3953-4.2857,6.6357-8.6259,13.1465-13.082,19.5768-1.5884,2.292-3.4579,4.3892-5.2334,6.7339-1.3388.6576-2.6432,1.1566-4.1449,1.6407-1.3662-.9878-2.4913-2.0203-3.7135-2.9209-2.3352-1.7207-4.7259-3.3663-7.1333-5.2192,1.0925-1.6197,2.2249-3.0633,3.6112-4.642,1.6487.226,3.0357.6209,4.4395.9422,5.1241,1.1727,4.3615,1.9474,8.0461-3.1687,2.2263-3.1101,4.3139-6.1375,6.5204-9.2371,1.5547-2.2438,2.9907-4.4154,4.4625-6.6995.1075-.2666.2261-.3631.3916-.4017Z" fill="#39588d"/><path d="M119.326,34.6194c.0233.0637.0024.1486-.2403.3649-2.0456.7108-3.9206,1.1656-5.6842,1.8912-7.4315,3.0577-15.0194,4.0993-22.9445,2.2675-.8218-.1899-2.1288.2338-2.7319.8451-2.358,2.3902-4.103,5.1939-4.8014,8.6739-.6856.1932-1.2204.3143-1.9195.449-.5445.4796-.9247.9457-1.5092,1.4123-.7561.0045-1.308.0085-1.8072-.1394.2589-.5266.465-.9013.8072-1.351,3.236-3.7037,6.3358-7.3323,9.6343-10.9778,2.9509.2832,5.7032.5834,8.674.9056,1.6778-.0214,3.1371-.0648,4.5964-.1082,5.8709-.6335,11.3782-2.4973,16.809-5.0824.224-.0517.3538.0401.565.3548.1597.3583.2695.4595.4108.5264,0,0,.0974-.0107.1415-.032Z" fill="#eff2f4"/><path d="M119.189,34.5252c-.1459.0592-.2556-.0419-.371-.2844.1004-.0187.238.0698.371.2844Z" fill="#dae1ec"/><path d="M101.4065,38.6756c-1.4661.2203-2.9254.2637-4.6275.119-1.8323-2.3106-3.4219-4.4331-4.8235-6.6019,2.9402-.6764,5.6926-1.3065,8.4449-1.9366.5007,1.056.7972,2.2938,1.5429,3.1319,1.7823,2.0034-.4347,3.4126-.5368,5.2876Z" fill="#a7b5c5"/><path d="M100.4744,30.153c-2.8264.7332-5.5787,1.3633-8.7423,2.0314-2.5125.0425-4.6137.047-6.715.0515.5012-.9985,1.0024-1.9969,1.7198-3.1949,2.6225-.0647,5.0289.0702,7.4352.205,2.2448.0474,4.4896.0948,6.9493.1737-.0477.2311-.3104.4306-.6471.7332Z" fill="#eff2f4"/><path d="M94.1303,29.071c-2.3646.0402-4.7709-.0946-7.3605-.1976-1.6154-.5307-3.0477-1.0933-4.5596-1.809,3.9063.5084,7.8923,1.17,11.9201,2.0066Z" fill="#70a6d2"/><path d="M64.4957,125.2566c-2.1256-1.2859-4.0658-2.5653-6.2738-4.0044-2.474-2.6108-4.68-5.0619-6.8861-7.5129-.8248-3.7488-1.7119-7.4853-2.4485-11.2514-.3774-1.9294-.4856-3.9115-.8512-6.2319-.1407-6.8004-.1457-13.2386-.1507-19.6769.0035-.6711.007-1.3423.1238-2.293.1857-.5427.2582-.8059.3307-1.0691.0105-.6774.0209-1.3547.0312-2.3498-.0002-.3177-.0022-.5472-.0022-.5472.0038-.0818.0076-.1636.093-.4104.0283-.2947-.0252-.4244-.0786-.5541.0811-.2703.1623-.5406.5331-.8635.535.682.9177,1.403.992,2.1545.1008,1.0191-.2199,2.0954-.0384,3.0884,1.0527,5.7593,2.221,11.4973,3.3019,17.2516.3191,1.699,1.1785,2.7372,2.9662,3.1436.7775,4.6097,1.5224,9.0215,2.2763,13.5794.0521.3362.0951.5263.1277.8805.11.5648.2304.9655.3673,1.5162.1812.4961.3459.8422.5341,1.3565.1793.4628.3351.7573.4592,1.228,1.0303,5.2588,4.0917,9.2023,7.3068,13.0582-.8428-.1619-1.6855-.3238-2.7137-.4924Z" fill="#8290a6"/><path d="M78.3588,49.1079c-.2061.3747-.4122.7494-.7443,1.3122-.2202.2561-.2862.345-.4401.5653-.2003.4056-.2845.7007-.3576.999.0111.003.0044-.0189-.153-.0259-.4171.1599-.6769.3268-1.0169.5321-.1804.1104-.2486.2054-.4231.4201-1.4932,1.2083-2.8509,2.3162-4.202,3.4322-3.8648,3.1921-7.727,6.3874-11.7515,9.6048-.8454.3443-1.5295.6653-2.3925.9888-1.9938-.9658-3.8086-1.934-5.6235-2.9022,2.7013-2.2268,5.4408-4.4092,8.0954-6.6904,4.3623-3.7487,8.6695-7.5614,13.0672-11.4945.6155-.5885,1.1637-1.0298,1.878-1.3684.9315,1.2287,1.6423,2.3982,2.4864,3.4619.3923.4944,1.0437.7832,1.5776,1.1652Z" fill="#b1bece"/><path d="M47.6851,76.5837c.2053,6.4336.2103,12.8718.2124,19.5358-1.6808,4.8024-1.9778,4.9505-7.9445,4.0919-.0472-8.0444.1015-16.0904.2693-24.3577,2.2835,1.2344,4.682,1.6734,7.4627.7299Z" fill="#5a8abe"/><path d="M51.0794,64.0535c1.9897.9489,3.8046,1.9172,5.7757,3.0845-.162,4.66-.6088,9.1165-.762,13.5831-.1508,4.3984-.0041,8.807.0121,13.2111-1.755-.2085-2.6144-1.2467-2.9335-2.9456-1.0809-5.7543-2.2492-11.4924-3.3019-17.2516-.1815-.993.1391-2.0693.0384-3.0884-.0743-.7515-.457-1.4725-.8716-2.234.5178-1.4607-.2864-3.5989,2.0427-4.3589Z" fill="#94a2b8"/><path d="M48.2035,73.229c.0638.2511-.0086.5143-.1979.8557-.0574-.2291.0021-.5364.1979-.8557Z" fill="#5a8abe"/><path d="M48.2909,70.3596c.0778-.0396.0798.1899.075.3044-.084.0373-.1703-.0345-.2362-.1217-.0129-.017.0535-.0939.1611-.1827Z" fill="#5a8abe"/><path d="M48.3825,69.4738c.0541.0114.1075.1411.0812.3129-.0798.0421-.0818-.1946-.0812-.3129Z" fill="#5a8abe"/><path d="M78.495,49.0329c-.6701-.3069-1.3214-.5957-1.7137-1.0901-.8441-1.0637-1.5549-2.2332-2.3483-3.5266,2.7684-3.3028,5.5649-6.4384,8.6126-9.516,1.7958,1.096,3.3405,2.1339,4.8852,3.1718-3.0999,3.6286-6.1997,7.2572-9.4357,10.9609Z" fill="#bec8d3"/><path d="M88.1292,38.0551c-1.7432-1.0209-3.2879-2.0588-4.938-3.21.4524-.8885,1.0103-1.6637,1.697-2.524,2.2301-.0896,4.3314-.0941,6.656-.0903,1.8129,2.1308,3.4024,4.2534,5.0162,6.5419-2.7281-.1341-5.4804-.4343-8.4312-.7175Z" fill="#94a2b8"/><path d="M126.6289,64.8617c-.3163.0213-.5932-.1041-.8702-.2295.2112-.1791.4224-.3582.8016-.5294.1479.2094.1279.4108.0686.7588Z" fill="#335488"/><path d="M121.3879,59.6977c-.1958-.5132-.1963-1.0245-.1956-1.7274q1.7533-.5117,2.7662,1.5983c-.8621.0476-1.6187.0893-2.5706.1291Z" fill="#365991"/><path d="M42.0472,139.1105c-.414,1.0062-1.2664,1.857-1.3173,2.7533-.1782,3.1382-.2926,6.3096-.0338,9.4355.3345,4.0395,3.9862,7.4658,8.4569,8.2139,1.9144.7551,3.6009,1.6271,5.379,2.2281,1.4821.501,3.0716.6842,4.7771,1.0827-1.5041.0338-3.1963.1556-4.8332-.0903-1.8781-.2822-3.7644-.7369-5.5421-1.3987-1.8877-.7027-3.6517-1.7375-5.4709-2.6247-1.1152-.5438-2.1858-1.2337-3.3574-1.5973-4.5821-1.4221-6.9195-4.8519-6.2166-9.9396.4512-3.2658.3003-6.8114,3.6569-8.8781.6543-.4029,1.3856-.6809,2.2841-1.0427.8506.557,1.4985,1.1402,2.2173,1.8578Z" fill="#bec8d3"/><path d="M38.7445,135.5368c.0907-.025.2247.0702.407.2815-.089.0236-.2264-.0689-.407-.2815Z" fill="#32548c"/><path d="M38.2889,135.0425c.1272-.0658.2508.032.3866.2833-.0884.0201-.2226-.071-.3866-.2833Z" fill="#32548c"/><path d="M44.9688,129.7751c.0954.1106.1847.3778.166.7117-.1293-.1405-.1507-.3479-.166-.7117Z" fill="#70a6d2"/><path d="M51.3123,113.9307c2.2295,2.2596,4.4356,4.7106,6.7455,7.2939-.672,1.3877-1.4478,2.6433-2.3659,3.9987-1.5626-3.6338-2.9828-7.3675-4.3796-11.2926Z" fill="#cad4de"/><path d="M55.439,125.8461c.0603-.0455.1322.16.1249.2684-.1892.0489-.2485-.0616-.1249-.2684Z" fill="#4e76af"/><path d="M58.5525,108.4258c-.0431-.1901-.0861-.3801.0062-.8432.1484-.7238.2122-1.1799.1663-1.6246-.3804-3.6858-.781-7.3694-.9814-11.0551,1.1317-.3363,2.1139-.5828,2.9953-1.0286,1.1026-.5577,1.8691-.6303,2.556.64.5621,1.0396,1.409,1.9253,2.1891,2.9577q2.4497-3.1823,1.7881-6.1188c-.0667-.2992-.0411-.6461.0365-.9463,1.0945-4.2303,2.1926-8.46,3.3413-12.6757.077-.2825.5671-.4525.8678-.4602-.1739,1.7954-.2919,3.3852-.5375,4.9552-.8935,5.7129-2.0187,11.3986-2.6403,17.1396-.1991,1.8392-.0733,4.3841,2.4798,5.1608,1.4849.4517,3.092.5019,4.9482.7781,0,2.6327.0494,5.7755-.013,8.916-.0714,3.5914-.4112,7.1874-.2726,10.7673.0447,1.1549,1.0138,2.9831,1.9395,3.2674,3.32,1.0195,6.5194,3.0062,10.3296,1.7568,1.0112-.3316,2.3581.3607,3.5509.5829-3.5461,5.0335-2.7835,4.2588-7.9075,3.0861-1.4038-.3213-2.7908-.7162-4.364-1.0864-3.5722-1.9521-6.966-3.8952-10.6101-5.9707-.4183-.2214-.5862-.3105-.7542-.3996,0,0-.0027.0205-.0261-.1064-.1669-.2101-.3104-.2933-.4539-.3765,0,0,.0054.0192.014.0132-3.2066-3.8619-6.2679-7.8054-7.3065-13.2435-.1425-.6428-.3084-.9299-.4744-1.217-.1647-.3461-.3295-.6921-.3763-1.2858-.0851-.6927-.2882-1.1377-.4912-1.5828Z" fill="#cad4de"/><path d="M67.7356,126.3585c.0991-.0448.267.0442.528.2486-.091.0387-.2751-.038-.528-.2486Z" fill="#8290a6"/><path d="M67.2279,125.86c.1024-.0352.2459.048.4226.2549-.105.0369-.2432-.0498-.4226-.2549Z" fill="#8290a6"/><path d="M83.0744,48.59c.5476-3.408,2.2926-6.2117,4.6506-8.6019.6031-.6113,1.9101-1.0351,2.7319-.8451,7.9252,1.8318,15.513.7902,22.9445-2.2675,1.7636-.7256,3.6386-1.1804,5.6496-1.7647,1.3912,8.6034,1.4981,17.246.5075,25.8607-.7208,6.2687-1.8868,12.4862-3.1399,18.853-1.9964-.7916-3.0187-.015-3.6314,1.5569-.345.8851-.4439,1.876-.8542,2.722-.2288.4719-.8685.7445-1.323,1.1069-.3305-.4398-.6943-.859-.9825-1.325-.3004-.4859-.5278-1.0168-.8375-1.7029-.1067-.5331-.1631-.8914-.1923-1.3938-.0961-.5067-.2194-.8693-.3348-1.4324-.0499-.7242-.1077-1.248-.1426-1.9746-.4958-3.6579-.8716-7.1431-1.5897-10.5563-.3986-1.8946-.343-4.3212-3.1028-5.0324-.7067-.6931-1.364-1.2281-1.9972-1.7903-.8296-.7365-1.6402-1.4944-2.429-2.4426.2035-1.143.4658-2.0802.5331-3.0311.1703-2.4091.1644-4.7787-2.9138-5.7207-1.1375-.9439-2.156-1.8461-3.3087-2.5183-2.4462-1.4265-6.311-.2618-7.9973,2.3001-.5239.468-.8986.9005-1.3259,1.2464-.1521-.1838-.2679-.2542-.4141-.4403-.1761-.3639-.3383-.585-.5005-.8062Z" fill="#dae1ec"/><path d="M108.8404,82.3573c.2593.5113.4868,1.0422.7872,1.5281.2881.466.6519.8852.9825,1.325.4545-.3624,1.0942-.635,1.323-1.1069.4103-.846.5092-1.8369.8542-2.722.6127-1.5719,1.635-2.3485,3.5308-1.4015-1.985,8.8263-4.5198,17.4887-9.4972,25.4573-1.6085-.3075-2.9165-.7146-4.441-1.1892,0-1.7205.0643-3.7121-.0187-5.6976-.078-1.8657-.3115-3.7249-.4648-5.796-.0062-1.1832-.0242-2.1574-.0045-3.2936.0753-.3804.1128-.5988.2975-.8225.3443-.0155.5415-.0257.8927-.0269.3599.0179.5657.0267.9107.1476,2.2232.8773,3.4469-.3218,4.081-1.9757.5259-1.3717.5308-2.9431.7665-4.4261Z" fill="#d3dae4"/><path d="M101.8845,92.9634c.1651,1.8621.3987,3.7213.4766,5.587.083,1.9855.0187,3.9771.0187,5.6976,1.5245.4745,2.8325.8817,4.3297,1.3095-1.1486,2.7745-2.4864,5.5284-3.8591,8.4495-.2005.2059-.319.3023-.6093.4653-.2603-3.705-.2645-7.4198-.3614-11.1322-.0402-1.5388-.2785-3.0725-.4347-4.8276.0042-1.9795.0163-3.7398.1304-5.5192.1019-.0192.309-.03.309-.03Z" fill="#cad4de"/><path d="M91.441,130.5127c-1.3313-.1396-2.6783-.8319-3.6895-.5003-3.8101,1.2494-7.0096-.7373-10.3296-1.7568-.9258-.2843-1.8948-2.1125-1.9395-3.2674-.1387-3.58.2012-7.1759.2726-10.7673.0625-3.1406.013-6.2833.013-8.916-1.8562-.2761-3.4633-.3264-4.9482-.7781-2.5532-.7767-2.6789-3.3216-2.4798-5.1608.6216-5.741,1.7467-11.4268,2.6403-17.1396.2455-1.5699.3636-3.1598.5395-5.1615-.0893-2.8931.3121-5.1232,2.8766-6.1008-.645,2.2897-1.3613,4.3815-1.8772,6.5216-.3874,1.6068-.6233,3.2683-.7372,4.9186-.1762,2.5524-.1906,5.1159-.2734,7.8328-.0013.3687-.0028.5793-.1893.8361-.5063,3.3937-.9918,6.7406-1.005,10.0894-.0025.6402,1.7935,1.6355,2.8749,1.8312,1.0187.1844,2.1892-.47,4.035-.9473,0,2.6688.0438,4.9929-.0095,7.3148-.0973,4.2314-.4541,8.4687-.3014,12.689.0816,2.2547.7732,4.9151,3.4892,5.3611,2.3303.3826,5.0499,1.3425,7.2144-1.1709,3.8423-.525,4.9406-3.4419,6.2328-6.2184.5173.2938.8975.5008,1.4108.818.9495.2427,1.7659.3752,2.5823.5077-2.0877,3.0274-4.1754,6.0549-6.4016,9.1649Z" fill="#bec8d3"/><path d="M97.9614,121.2756c-.9351-.0603-1.7515-.1928-2.6863-.6827-.2397-7.3689-.3609-14.3804-.2843-21.381,1.2853.1919,2.4543.1805,3.4409.5992,1.4681.6229,2.3959.3552,3.0213-1.0792.1482,1.536.3866,3.0696.4267,4.6085.0969,3.7124.1012,7.4272.3255,11.2447-1.2532,2.2753-2.6892,4.4469-4.2439,6.6907Z" fill="#4e76af"/><path d="M75.3623,52.814c.0361-.118.1043-.213.4489-.3217.4996-.2001.7548-.3634,1.0101-.5268,0,0,.0067.0219.1291-.0708.195-.4017.2676-.7106.3403-1.0196.0378-.1099.1038-.1988.2712-.303.6251-.0403,1.177-.0443,2.1175-.0424.7564.0085,1.1243.0111,1.4208.1595-.6652,1.1743-1.2591,2.2027-1.9715,3.3112-.196.3479-.2736.6159-.4808.9811-.3654.6739-.6011,1.2504-.9708,1.7362-.8547-.9944-1.5754-1.8981-2.2942-2.9848-.0055-.4283-.013-.6736-.0205-.9189Z" fill="#d3dae4"/><path d="M82.9236,48.662c.313.1491.4751.3703.4819.75-.6864.321-1.2175.4836-1.8678.5667-.2026-.3467-.286-.6139-.3694-.8812.5348-.1211,1.0697-.2423,1.7553-.4355Z" fill="#d3dae4"/><path d="M81.0041,49.111c.2476.2538.331.521.4799.9733-.031.3171-.157.4085-.3127.4591-.3678-.0026-.7357-.0052-1.2879-.0142.1959-.4724.5761-.9386,1.1206-1.4182Z" fill="#dae1ec"/><path d="M57.5494,94.9043c.3945,3.6843.7952,7.368,1.1756,11.0538.0459.4447-.018.9008-.1753,1.4785-.8893-4.2849-1.6341-8.6967-2.4116-13.3064-.0489-4.6021-.1956-9.0106-.0448-13.409.1532-4.4666.6-8.9231.9408-13.5855.7067-.5226,1.3908-.8436,2.2454-1.1763.1704-.0117.1883.0101.1725.1883-.4739,1.1007-1.2295,1.9897-1.3381,2.9517-.4557,4.0373-.9256,8.0929-.9956,12.1487-.0784,4.5483.2691,9.1039.4312,13.6564Z" fill="#eff2f4"/><path d="M58.542,108.59c.2135.2809.4166.7259.4852,1.2686-.2548-.3031-.3752-.7037-.4852-1.2686Z" fill="#eff2f4"/><path d="M59.4434,111.4627c.1425.1188.3085.406.4827.8724-.1476-.1151-.3034-.4096-.4827-.8724Z" fill="#eff2f4"/><path d="M75.2238,52.9107c.1459.1486.1534.3939.0149.8924-3.2661,3.0929-6.3862,5.9326-9.6745,8.7947-2.1443,1.1388-4.1204,2.2551-6.0965,3.3715,0,0-.0179-.0217-.027-.0333,3.8541-3.2057,7.7163-6.401,11.5811-9.5931,1.3511-1.1159,2.7089-2.2239,4.202-3.4322Z" fill="#eff2f4"/><path d="M77.1745,50.9855c.0435.1986-.0292.5075-.2352.9062-.0493-.2054.0349-.5006.2352-.9062Z" fill="#eff2f4"/><path d="M76.6638,51.9585c-.0978.1704-.353.3337-.7724.4954.0956-.1686.3553-.3355.7724-.4954Z" fill="#eff2f4"/><path d="M59.4518,66.1476c1.9919-1.2945,3.968-2.4109,6.1828-3.4004,1.9365,1.6265,3.5658,3.2173,5.3718,4.5729.5758.4322,1.631.3657,2.4474.2969.7711-.065,1.5091-.4615,2.2747-.6623,2.4913-.6534,3.4752-2.3011,2.8086-4.7709-.2265-.8393-.4849-1.6699-.5606-2.4705,1.8864,1.9787,2.5564,4.1687,1.5972,6.7721-.5143.3707-.8955.6781-1.4282,1.0343-1.3457,1.1216-2.54,2.1945-3.7343,3.2674-2.5793,1.1547-2.9808,3.3848-2.8941,6.0633-.2999.4286-.79.5986-.867.8811-1.1487,4.2158-2.2468,8.4454-3.3413,12.6757-.0777.3002-.1032.6471-.0365.9463q.6545,2.938-1.7881,6.1188c-.78-1.0325-1.6269-1.9181-2.1891-2.9577-.6869-1.2704-1.4534-1.1978-2.556-.64-.8814.4458-1.8637.6923-2.9953,1.0286-.3563-4.5511-.7038-9.1068-.6254-13.6551.0699-4.0557.5398-8.1113.9956-12.1487.1086-.962.8642-1.8509,1.3381-2.9517Z" fill="#d3dae4"/><path d="M108.2551,79.5567c.1233.3626.2465.7252.177,1.2661-.9007,1.1611-1.6119,1.9284-3.0298,1.222-.5771-.2875-1.3855-.1107-2.1153-.3445-.3548-2.9392-.6831-5.6792-1.0113-8.4192-.1421.0093-.2842.0186-.4263.0279,0,2.0498,0,4.0996-.184,6.1533-1.0334.0455-1.9376.2963-2.7222.0906-2.6773-.702-5.2824-2.0762-7.9716-2.2346-3.2492-.1914-4.8871-2.303-6.8992-4.2719.3273-.6771.6389-1.1998,1.092-1.8037,5.4712-4.5963,10.9365-8.8443,18.3234-9.3037,2.6998.5652,2.6441,2.9918,3.0428,4.8864.7181,3.4131,1.0938,6.8983,1.4746,10.6666-.0087.897.1206,1.4809.2498,2.0647Z" fill="#6596c7"/><path d="M96.6791,48.9542c3.02.7961,3.0258,3.1657,2.8555,5.5748-.0672.951-.3296,1.8882-.6373,3.0449-.1342.2133-.344.2329-.3811.0567-.3321-.4089-.5952-.7733-.9271-.8535-2.7313-.6598-5.4753-1.2668-8.217-2.0092-.0015-.1194-.0043-.3581.1203-.4577,1.9966-2.4992,3.9143-4.8374,7.1865-5.356Z" fill="#6ea1cc"/><path d="M96.6209,48.8083c-3.2139.6644-5.1316,3.0027-7.2514,5.4028.3898-3.0125-.6875-4.6788-3.9054-5.6567,1.5371-2.5263,5.4019-3.6911,7.8481-2.2645,1.1526.6722,2.1711,1.5744,3.3087,2.5183Z" fill="#99c6e5"/><path d="M98.5534,57.8069s.2098-.0196.314-.0334c.923.7349,1.7336,1.4928,2.5632,2.2293.6332.5622,1.2906,1.0972,1.9972,1.7903-7.3269.6054-12.7921,4.8534-18.2635,9.2673,1.3067-2.5591,2.755-5.0171,4.3949-7.4532,4.2274,1.1647,7.2212-.8153,8.9943-5.8002Z" fill="#8bbbe1"/><path d="M103.3136,81.8997c.7032.0345,1.5116-.1423,2.0887.1452,1.4179.7064,2.1291-.0609,3.0027-1.0779.2219.324.2783.6823.385,1.2154-.1853,1.6578-.1902,3.2293-.7161,4.6009-.6342,1.6539-1.8579,2.853-4.078,1.7609-.3183-2.4327-.5003-4.5387-.6822-6.6446Z" fill="#5882b7"/><path d="M85.3149,48.59c3.3671.9423,4.4444,2.6086,3.93,5.7207.1231.0991.1259.3378.0583.6025-.4166.8461-.7656,1.4274-1.284,2.2909v-3.0818c-1.3069-1.1744-2.3964-2.1534-3.5441-3.2329-.1605-.2259-.2902-.3075-.4403-.5006.007-.2587.0069-.3622.0068-.4658.3747-.4325.7493-.865,1.2732-1.333Z" fill="#7dacd5"/><path d="M83.9889,49.8365c.0528.1901.053.2936.0365.6498-.0165.2526-.0327.4479-.1079.5637-.3151.2428-.5549.3697-.9577.4855-.5382.145-.9135.3011-1.4328.5211-.3728.5059-.6015.9479-.8337,1.3876-.0036-.0024.0056.0031-.1391.0573-.5322.1758-.9197.2973-1.3072.4189.5939-1.0285,1.1878-2.0569,1.853-3.2312.227-.1964.353-.2878.5032-.5255.5848-.2681,1.1158-.4306,1.8162-.609.3015.0276.4173.0979.5694.2817Z" fill="#bec8d3"/><path d="M108.2629,79.3563c-.1372-.3834-.2664-.9672-.2806-1.6614.1729.4134.2307.9372.2806,1.6614Z" fill="#5882b7"/><path d="M84.0567,73.2008c2.0278,1.8145,3.6657,3.9262,6.9149,4.1176,2.6892.1584,5.2942,1.5326,7.9716,2.2346.7846.2057,1.6888-.0451,2.7431.1352.3848,2.9079.5647,5.5939.637,8.3676-.1654.2544-.2233.4212-.2811.588-.0375.2184-.075.4368-.3024.9025-.2153,1.3203-.2408,2.3934-.2663,3.4664-.0122,1.7603-.0243,3.5206-.0285,5.5-.6174,1.6536-1.5452,1.9213-3.0133,1.2984-.9866-.4186-2.1556-.4073-3.4673-.805-.3052-1.2881-.386-2.3595-.4669-3.431-.2268.0071-.4535.0142-.6803.0214-.0628.7214-.1256,1.4427-.3674,2.1746-2.134-.8746-4.089-1.7596-6.1262-2.682-.247.3679-.5366.7992-.8343,1.0332-.0082-4.8694-.0082-9.5413-.0082-14.2133l-.6747-.0698c-.4245,3.7096-.8489,7.4192-1.453,11.1098-.69-.4358-1.231-.8209-1.7036-1.2769-.6972-.6726-1.3457-1.3958-2.0003-2.2995.3547-3.7559.6949-7.3096,1.1649-10.9809.834-1.8086,1.5381-3.4997,2.2422-5.1907Z" fill="#5a8abe"/><path d="M102.4309,87.9681c-.1799-2.686-.3598-5.3721-.5607-8.2839-.0209-2.2755-.0209-4.3253-.0209-6.3751.1421-.0093.2842-.0186.4263-.0279.3282,2.74.6565,5.48,1.0113,8.4192.2086,2.3052.3906,4.4112.5695,6.7319-.2088.2059-.4146.197-.8288.0531-.3379-.2625-.4673-.3899-.5968-.5173Z" fill="#32548c"/><path d="M101.5755,92.9934c-.0764-1.0538-.0509-2.1269.1266-3.2852.1701.8889.1881,1.8631.1943,3.0463-.0119.209-.219.2197-.3209.2389Z" fill="#4e76af"/><path d="M102.3234,88.0557c.2371.0398.3665.1672.5503.4207-.1428.1363-.34.1464-.6843.1619-.0893-.1615-.0315-.3282.134-.5826Z" fill="#cad4de"/><path d="M87.4415,126.2731c-1.9892,2.4807-4.7088,1.5209-7.0391,1.1383-2.716-.446-3.4076-3.1063-3.4892-5.3611-.1527-4.2203.2042-8.4576.3014-12.689.0534-2.3219.0095-4.646.0095-7.3148-1.8457.4773-3.0163,1.1317-4.035.9473-1.0813-.1958-2.8774-1.191-2.8749-1.8312.0132-3.3488.4986-6.6956,1.0138-9.8618.1935,1.6837.1937,3.186.1928,4.6884q-.0027,4.5837,4.567,4.1984c.8062.3782,1.4597.7181,2.1841,1.1697.2245.3254.378.5391.3815.8929-.2188,6.3395-.5191,12.5479-.2782,18.7352.1714,4.4042,4.8473,6.8655,8.2935,4.7634.335.2188.5539.3716.7727.5243Z" fill="#a7b5c5"/><path d="M75.9351,100.1491q-4.4172.4236-4.4143-4.1601c.0009-1.5024.0008-3.0047-.0077-4.7346-.0073-.4381-.0058-.6487.1347-1.1382.8587-5.1458,1.5247-10.0215,2.3232-14.8755.3443-2.0933,1.1985-3.9823,3.4389-4.8527.0432.8358-.0356,1.5703-.2949,2.3535-.3828,1.1422-.585,2.2358-.816,3.5202-.3113,1.8494-.5938,3.5079-.8974,5.3666-.5197,4.2205-.8817,8.2643-1.5657,12.253-.4433,2.5851-.7613,4.8944,2.0993,6.2677Z" fill="#94a2b8"/><path d="M87.6168,126.2404c-.3942-.1201-.613-.2728-.9663-.5938-.1345-.1682-.158-.3752-.0627-.511.0337-3.7414-.0278-7.347.1074-10.951,1.2049.2684,2.5064.2348,3.1561.869,1.1143,1.0876,2.1315,1.0119,3.362.786.1708,1.5033.335,2.7994.4993,4.0956-1.1552,2.8632-2.2534,5.7801-6.0958,6.3052Z" fill="#4b70ab"/><path d="M93.8496,120.022c-.3013-1.383-.4656-2.6791-.6301-4.4081.1363-6.2397.2729-12.0465.4094-17.8533.0628-.7214.1256-1.4427.1884-2.1641.2268-.0071.4535-.0142.6803-.0214.0809,1.0715.1618,2.1429.269,3.4201.1476,7.2172.2689,14.2287.3754,21.4873-.3949.0402-.7751-.1668-1.2923-.4606Z" fill="#32548c"/><path d="M77.288,70.2868c-2.1185.9718-2.9727,2.8608-3.317,4.954-.7985,4.854-1.4645,9.7297-2.3234,14.7174-.0562-2.438-.0417-5.0016.1344-7.5539.1139-1.6503.3498-3.3118.7372-4.9186.5159-2.1401,1.2322-4.2319,1.8772-6.5216,1.2091-1.25,2.4034-2.323,3.7442-3.2927.147.3073.1475.5114.0768.8554-.3572.6799-.6433,1.22-.9293,1.76Z" fill="#a7b5c5"/><path d="M77.8084,59.6791c.2438.8346.5021,1.6653.7286,2.5045.6666,2.4698-.3173,4.1175-2.8086,4.7709-.7656.2008-1.5036.5973-2.2747.6623-.8164.0688-1.8716.1353-2.4474-.2969-1.8059-1.3556-3.4353-2.9464-5.2035-4.5953,3.0496-2.9889,6.1697-5.8286,9.4339-8.7385.8648.8335,1.5856,1.7372,2.4371,2.9372.1321,1.1161.1333,1.9359.1346,2.7558Z" fill="#dae1ec"/><path d="M79.1286,54.0004c.506-.2016.8934-.3232,1.4245-.2789.3059,2.2772.2747,4.4284.6992,6.4856.2794,1.3536,1.2158,2.5717,1.7715,3.9695-.5165.3568-.9465.5945-1.3767.6432-.2434-1.0092-.4828-1.8306-.7307-2.6493-.5575-1.8414-1.1246-3.68-1.6759-5.5233-.174-.5818-.3098-1.175-.4631-1.763.0775-.2679.1551-.5359.3511-.8838Z" fill="#b1bece"/><path d="M78.6478,54.9815c.283.4906.4188,1.0839.5928,1.6657.5512,1.8433,1.1184,3.6818,1.6759,5.5233.2479.8188.4873,1.6401.5969,2.7151-.527.6969-.9204,1.139-1.4374,1.5754-.2056-.0168-.2874-.0279-.3692-.039.8262-2.5401.1562-4.7301-1.7302-6.7088-.1693-.8539-.1706-1.6737-.1687-2.6991.2388-.7821.4746-1.3586.8399-2.0325Z" fill="#bec8d3"/><path d="M79.5737,66.4852c.2148-.0522.2967-.0411.4856.1391-.5189.7003-1.1448,1.2314-1.7707,1.7626-.0005-.2041-.0009-.4082.0035-.7643.3861-.4593.7674-.7667,1.2816-1.1374Z" fill="#94a2b8"/><path d="M78.2174,68.5268c.6971-.671,1.323-1.2022,1.9656-1.8967.41-.6055.8033-1.0476,1.3304-1.5555.5638-.3034.9939-.5412,1.6904-.9048,1.2722-.7678,2.2778-1.4096,3.4621-2.0486.5346.0407.8905.0785,1.2748.2657.4946.4991.9607.8488,1.4268,1.1985-1.4483,2.4579-2.8966,4.9158-4.3448,7.5561-.3114.7051-.623,1.2279-.9503,1.905-.7198,1.8454-1.4239,3.5365-2.373,5.3536-.2449.126-.4741.1443-.4771-.0499.8598-3.479.7179-3.7324-2.4792-4.9059-.5062-.1858-.9662-.4977-1.4475-.7514.0787-.7345.1574-1.4689.1143-2.3047.1642-.6414.4502-1.1815.8075-1.8614Z" fill="#7dacd5"/><path d="M89.5591,63.6071c-.6577-.3714-1.1239-.7211-1.6177-1.4306-.1937-1.7036-.3597-3.0473-.5188-4.5862.3191-1.761-.6968-2.4349-1.8379-3.1323-.8835-.54-1.6375-1.2919-2.4549-2.1101-.0062-.3741-.0066-.5876-.007-.8012.2398-.127.4796-.2539.9292-.4725.3003-.0892.3908-.0867.4814-.0842,1.0894.979,2.1789,1.958,3.4858,3.1324v3.0818c.5183-.8635.8674-1.4449,1.2855-2.1715,2.8093.4778,5.5533,1.0848,8.2846,1.7446.3318.0802.595.4446.9271.8535-1.736,5.1611-4.7298,7.1412-8.9572,5.9765Z" fill="#6596c7"/><path d="M84.4752,50.8894c-.0323.098-.1228.0955-.3478.0689-.1345-.0242-.1184-.2194-.109-.3169.1667-.0595.2964.0221.4569.248Z" fill="#94a2b8"/><path d="M82.9599,51.5354c.1634.2248.1638.4384.1348.9729-.1742.8489-.319,1.3769-.4763,2.1175-.5043,3.0908.4728,5.2535,3.0758,6.662.3203.1733.5314.5487.7931.8304-1.0056.6418-2.0113,1.2837-3.197,1.9324-.8222-1.2719-1.7586-2.4899-2.038-3.8435-.4245-2.0572-.3933-4.2084-.5544-6.5398.0012-.22-.008-.2255.1611-.2501.3835-.4912.5979-.9578.8123-1.4244.3752-.1562.7504-.3124,1.2887-.4573Z" fill="#94a2b8"/><path d="M81.527,52.0566c-.0702.4028-.2846.8694-.6646,1.363.0631-.4151.2918-.8571.6646-1.363Z" fill="#b1bece"/><path d="M86.4985,114.1831c.0615,3.6056.123,7.2112-.0666,10.8908-1.0078-.3764-1.7223-.9318-2.5295-1.257-2.2424-.9036-2.928-2.4482-2.8907-4.8729.0861-5.5995-.1748-11.2044-.1228-16.8209,1.1554-1.0335,2.6268-1.8989,3.0093-3.1087.5986-1.8931.4608-4.0192.6349-6.0465l1.2734-11.1287.6747.0698c0,4.672,0,9.344-.0041,14.4422.0044,6.2281.0129,12.03.0214,17.832Z" fill="#32548c"/><path d="M86.6952,114.1846c-.2051-5.8035-.2136-11.6054-.2099-17.6361.3018-.6602.5914-1.0915.8384-1.4594,2.0372.9223,3.9922,1.8074,6.1262,2.682.0426,5.7963-.094,11.6031-.2368,17.6357-1.2303.6587-2.2475.7344-3.3618-.3532-.6497-.6341-1.9512-.6006-3.1561-.869Z" fill="#4e76af"/><path d="M84.3535,92.9489c.0054,2.0463.1433,4.1724-.4553,6.0655-.3825,1.2097-1.854,2.0751-3.2018,3.1143-.874.0067-1.3835-.006-1.8929-.0187-.1535-.2137-.307-.4274-.4068-.8272.1655-.3403.2773-.4945.5224-.7743.5014-2.7701.8695-5.4145,1.2489-8.2507.1632-1.0222.3151-1.8527.4671-2.6832.6692.7016,1.3177,1.4247,2.0149,2.0974.4726.456,1.0136.8411,1.7036,1.2769Z" fill="#507bb3"/><path d="M80.6496,89.3725c-.1665,1.0326-.3184,1.8631-.6309,2.9025-.2599.2228-.3592.2367-.4321.0283.1847-2.3289.3428-4.4354.5443-6.7475.2796-2.3185.5158-4.4315.8304-6.6034.1587-.1655.2206-.2818.2641-.408,0,0,.2292-.0183.3443-.0268-.2251,3.5452-.5653,7.099-.92,10.8549Z" fill="#99c6e5"/><path d="M80.0875,85.7613c-.1581,2.1066-.3162,4.2131-.6079,6.6849-.3203,2.9728-.5071,5.5804-.6938,8.188-.1118.1542-.2236.3084-.4601.537-.7782-.2655-1.4317-.6054-2.2379-.9836-3.0133-1.4116-2.6952-3.721-2.252-6.3061.684-3.9886,1.046-8.0324,1.6953-12.1196.7188,4.6136.7321,4.6259,4.5564,3.9994Z" fill="#406aa0"/><path d="M78.6534,102.2501c.6595-.1275,1.1689-.1148,1.8708-.1077.3127,5.5971.5736,11.202.4874,16.8015-.0373,2.4247.6484,3.9693,2.8907,4.8729.8072.3253,1.5216.8807,2.4342,1.3928.1558.0618.1793.2688.1976.3709-3.3117,2.2703-7.9876-.191-8.1591-4.5952-.2408-6.1873.0594-12.3957.2782-18.7352Z" fill="#94a2b8"/><path d="M80.1309,85.5557c-3.8677.832-3.881.8197-4.5787-3.994.1529-1.7919.4354-3.4504.8792-5.2014,1.1618,1.4938,2.3987,2.7102,4.4515,2.651-.2362,2.113-.4724,4.2259-.752,6.5444Z" fill="#4e76af"/><path d="M80.9613,78.9524c-2.1312.1182-3.3681-1.0983-4.5011-2.783.0697-1.192.2719-2.2855.6548-3.4277.662.2049,1.1219.5168,1.6282.7026,3.1971,1.1734,3.339,1.4269,2.4792,4.9059-.0404.3204-.1023.4367-.2611.6022Z" fill="#5a8abe"/><path d="M86.6659,62.1212c-.4404-.2847-.6514-.66-.9718-.8333-2.6029-1.4084-3.58-3.5712-2.9457-6.568,1.6508.9427,3.159,2.0041,4.6672,3.0656.166,1.3438.332,2.6876.4973,4.2417-.3566.1726-.7125.1348-1.2471.0941Z" fill="#4b70ab"/><path d="M87.4226,57.5903c-1.5152-.8663-3.0234-1.9277-4.6617-3.0831.0147-.6219.1595-1.1499.3395-1.8383.8468.4972,1.6008,1.2491,2.4843,1.7891,1.1411.6974,2.157,1.3714,1.8379,3.1323Z" fill="#5882b7"/><path d="M78.919,100.5085c.0535-2.482.2403-5.0896.534-7.8401.2064-.1567.3058-.1707.5544-.2017-.2189,2.6273-.587,5.2717-1.0884,8.0418Z" fill="#6ea1cc"/></g></svg>