<?xml version="1.0" encoding="UTF-8"?><svg id="_レイヤー_2" xmlns="http://www.w3.org/2000/svg" width="152.6152" height="160.5796" viewBox="0 0 152.6152 160.5796"><g id="Layer_1"><path d="M13.7232,106.2158c-.0773.1414-.1545.2828-.5283.5515-.7095.9238-1.419,1.8477-2.4761,2.8451-.1702.5195-.3403,1.039-.5211,1.7293,0,0-.1096.1313-.4501.1723-1.4336,1.3024-2.865,2.6072-4.3014,3.9064-1.482,1.3405-3.0902,2.5658-4.4241,4.0397-1.8052,1.9947-1.0535,9.7751.9622,11.491.0604.0514.1333.0906.2052.1256,4.2488,2.0681,7.7477,5.3663,12.9191,5.9336,6.1962.6798,11.8294.0418,17.3358-2.8736,3.9709-2.1024,5.9494-5.6191,8.022-9.3661,2.253.7595,4.506,1.5191,6.9864,2.5155.8339.2631,1.6678.5262,2.8004.9305.0965-.053.1931-.1059.3303-.1885,0,0-.0413-.0288-.0078.302,6.7729,2.5635,13.5459,5.127,20.3112,8.0526-1.1766,1.2079-2.1964,2.6434-3.5585,3.5822-4.5552,3.1396-5.6761,10.5923-1.1219,14.7112,1.9698,1.7815,4.3399,3.2163,6.7288,4.4056,1.6569.8249,3.6363,1.1674,5.5084,1.3508,2.0867.2045,4.2513.2179,6.317-.1033,3.3801-.5255,6.8086-1.0997,10.0193-2.2194,1.8922-.6599,3.3961-2.4216,5.0888-3.6685,2.2013-1.6216,3.5158-3.7886,3.2759-6.516-.3124-3.5511-.9235-7.077-1.4607-10.6054-.0446-.2929-.5057-.5223-.8682-1.0868-.1644-.38-.3288-.7601-.5017-1.5186-.2304-.8555-.4608-1.711-.4538-2.8068,2.1718-1.9496,4.3437-3.8992,6.8643-5.8967.127-.1792.254-.3583.3384-.4818,0,0,.0561.0422.3744-.0473,2.2152-1.8453,4.4304-3.6906,6.9319-5.6835,1.1241-.8416,2.2482-1.6833,3.7451-2.5184,4.2194.9584,8.3986,2.4245,12.667,2.7614,7.1642.5655,13.7117-1.7257,19.1322-6.5105,2.7727-2.4475,4.3089-7.1233.091-10.1584,1.0167-3.8445,1.2385-7.6139-1.1057-11.4676-.7652-.8737-1.5304-1.7475-2.3777-2.848-.1326-.0842-.2653-.1684-.5251-.5148-.2677-.0868-.5354-.1735-.9427-.5593-1.0921-.6922-2.1843-1.3845-3.5245-2.1064-.0824.0119-.1648.0237-.4153-.009,0,0-.173.0175-.3235-.197-.1575-.0538-.3151-.1076-.8325-.2329-1.0109-.317-2.0217-.6341-3.0602-1.38-.6635-5.0342-1.3269-10.0684-1.9678-15.5426-.6224-5.768-1.2449-11.5359-1.5235-17.3872,3.6424-1.149,6.5763-3.1932,8.6552-6.8556.2115-.7402.4231-1.4804.6897-2.4217,0,0,.0069-.2084.3065-.4165.0272-.5896.0543-1.1792.1522-2.1328-.0124-.3694-.0248-.7389.0285-1.522-.0258-.8351-.0515-1.6702-.0012-2.8492-.157-.4088-.3141-.8175-.4547-1.4029,0,0-.0591-.1672-.028-.4821-.0151-.2096-.0302-.4193-.0329-.9513-.3042-.5491-.6084-1.0982-.9699-1.9711-.9432-1.0279-1.8864-2.0558-2.8549-3.0673,0,0,.011.028-.0771-.2163-.1361-.105-.2721-.21-.5629-.5385-.2553-.0795-.5107-.1589-.9405-.5126-.9276-.5197-1.8552-1.0395-3.1062-1.5971-.6955-.1592-1.3911-.3185-2.5093-.4925-.9863.0238-1.9727.0476-3.3798.0153-2.5891-.1909-4.9617.2763-7.1647,2.3414-.2377.3209-.4754.6418-.7378.9363,0,0-.0331-.0146-.3514.0374-.8164.9902-1.6328,1.9803-2.806,2.963-1.2816-.4494-2.5801-.856-3.8421-1.3549-9.8257-3.8846-19.6444-7.7869-29.5081-11.9279-.026-.0784-.0519-.1569-.0366-.4592,0,0-.0469-.2228.0235-.5521-.0176-.223-.0352-.4459.0139-1.095-.3166-2.1049-.6332-4.2099-.9269-6.6672-1.2959-3.2496-3.5778-5.5233-7.0507-7.105-1.0372-.2483-2.0743-.4966-3.5183-.7662-.6778.0295-1.3555.0589-2.4612.0234-2.8993-.3187-5.5612.1855-8.0867,2.3286-.3832.3419-.7663.6838-1.1345.9967,0,0-.0244-.0217-.314.1348-2.9868,3.2879-4.5271,7.1266-3.9812,11.5739.2376,1.9358.9864,3.8088,1.2044,5.8588-8.2972,6.6746-16.5943,13.3493-25.193,20.1516-1.4751,1.1321-2.9502,2.2643-4.746,3.2731-1.6828-.7786-3.3657-1.5572-5.4137-2.391-1.8789-.1767-3.7579-.3534-5.7181-.6002,0,0-.0962.0477-.5144.02-1.9484.8156-3.8967,1.6312-6.136,2.5284-.1052.1594-.2103.3188-.2789.466,0,0-.0176-.0343-.2889.0257-.0645.0663-.1291.1326-.454.259-.2344.243-.4688.486-.8011.7953,0,0,.011.1179-.2626.3254-4.1201,4.8909-4.7186,11.4319-1.5067,16.7193,2.5579,4.2108,6.4831,6.2398,11.2359,7.3668.5809,6.4588,1.1619,12.9176,1.6646,19.8101.3475,4.3326.695,8.6653.7257,12.9836-.3813.137-.7626.2741-1.4848.4566-.8548.4733-1.7096.9465-2.8758,1.4943-.2531.1745-.5061.349-.9589.5681-.1348.0743-.1976.1882-.41.4825-.0866.1455-.1732.291-.5019.5011" fill="#fdfefd"/><path d="M141.8016,44.4822c-1.8193,3.4523-4.7532,5.4964-8.765,6.6896-.8917.0988-1.4141.1534-2.1509.1667-.6566-.0484-1.0987-.0554-1.7291-.0169-1.3703-.0001-2.5522-.0459-3.8262-.2393-1.1895-.5541-2.287-.9606-3.4593-1.5005-.9496-.812-1.8242-1.4906-2.713-2.3402-.6826-1.1847-1.3511-2.1986-2.0695-3.4114-.4832-3.4504-.9164-6.7018-1.2119-10.0457.3697-.6799.6016-1.2671.8482-2.0024.0079-.3459.0011-.5438.0903-.8032.2272-.1603.2903-.2917.3996-.5128.2104-.1938.3065-.3306.4027-.4674.8164-.9902,1.6328-1.9803,2.6598-2.7986.2511,1.2484.2849,2.3251.3335,3.4012.0748,1.6541-.3845,3.619.348,4.9003,1.8185,3.1808,3.656,6.4445,7.4594,7.9835,4.2228,1.7087,8.2791,3.9392,12.7713.832.1123-.0777.4041.1041.6121.1649Z" fill="#b95979"/><path d="M40.0995,124.6846c-1.7056,3.8332-3.6841,7.3499-7.655,9.4522-5.5065,2.9154-11.1397,3.5534-17.3358,2.8736-5.1714-.5673-8.6703-3.8655-12.9191-5.9336-.0719-.035-.1448-.0742-.2052-.1256-2.0158-1.7159-2.7674-9.4964-.9622-11.491,1.3339-1.4739,2.9421-2.6993,4.4241-4.0397,1.4364-1.2992,2.8678-2.604,4.483-3.7408.001,1.0154-.1796,1.8651-.4739,2.8352-.6513.9331-1.1563,1.7696-1.7335,2.553-.9359,1.2702-2.2891,2.3666-2.8198,3.7792-2.6648,7.0931,2.6744,12.6965,9.3149,13.6756,3.8172.5628,7.6712.4812,11.649-.5179,3.9312-.9873,6.8962-2.5412,9.31-5.7374,1.1252-1.4899,1.1433-2.4889.0409-3.9162.0048-.3825-.003-.601.0696-.9122.3134-.1595.5463-.2262.9298-.2118,1.3948.5399,2.6391.9987,3.8832,1.4574Z" fill="#f1f2f3"/><path d="M57.9408,20.8317c-.5166-1.9015-1.2654-3.7746-1.5031-5.7104-.5459-4.4472.9944-8.2859,4.1498-11.4619.1699.4938.1713.8757.0153,1.3428-.3251.8918-.8329,1.8153-.6026,2.4851,1.11,3.2277,2.4051,6.3925,3.6616,9.5689.97,2.4523,5.679,5.703,8.3146,5.6899,3.0988-.0154,6.1972-.1165,9.2421-.0225-.1517.5872-.2499,1.0165-.4102,1.4652-.0622.0194-.1919.0301-.3543.0372-.42.308-.6775.609-1.1089.9147-.6865.3144-1.1992.6242-1.8871.9519-1.3493.5184-2.5235,1.0187-3.8268,1.5279-.2144.0224-.2997.0358-.5603.0213-.8507.0865-1.5261.201-2.3658.3279-.3823.0398-.6003.0672-1.0016.0593-1.4138-.1627-2.6443-.2902-4.029-.4653-.3153-.1867-.4766-.3257-.7163-.5962-.9097-.5289-1.7411-.9263-2.6445-1.4797-.722-.5955-1.3719-1.0349-2.0497-1.6278-.7931-1.1117-1.5581-2.07-2.3233-3.0282Z" fill="#b35574"/><path d="M9.5691,114.3945c.1806-.8497.3611-1.6994.5303-2.7353-.0113-.1861.0983-.3175.2328-.4978.3344-.6611.5343-1.1418.7343-1.6225.7095-.9238,1.419-1.8477,2.2862-2.8265.1577-.055.1786-.0399.1708.1811.3197,2.6986.5549,5.1926.9942,7.6502.8698,4.8659,6.8455,9.9581,11.2624,11.0637,2.8831.7217,5.4331-.5196,8.0939.0356-.077.3429-.1187.5393-.3214.7687-.4784.2719-.8139.4904-1.1102.7531-4.5157,4.0023-11.0785,4.3879-16.1981,1.2442-3.2228-1.979-4.833-4.9996-6.3369-8.4423-.1346-2.0054-.2364-3.7888-.3382-5.5723Z" fill="#b35574"/><path d="M100.9105,136.5388c.2676.2589.7287.4883.7733.7812.5372,3.5284,1.1483,7.0543,1.4607,10.6054.2399,2.7274-1.0746,4.8944-3.2759,6.516-1.6927,1.2469-3.1965,3.0086-5.0888,3.6685-3.2107,1.1197-6.6392,1.6939-10.0193,2.2194-2.0657.3212-4.2303.3078-6.317.1033-1.872-.1834-3.8515-.5259-5.5084-1.3508-2.3889-1.1893-4.759-2.6241-6.7288-4.4056-4.5542-4.1189-3.4334-11.5716,1.1219-14.7112,1.3621-.9388,2.3819-2.3743,3.737-3.7593.8456.0121,1.5127.2013,2.1782.5828-.1637,1.4892-.3259,2.7862-.6064,3.991-1.3813-1.7461-1.4052.3324-1.8531.6082-5.3271,3.2805-5.7191,9.599-.7436,13.4659,3.5068,2.7255,7.7035,3.9037,12.0943,4.3593,4.6452.482,8.7604-1.3154,12.7896-3.1939,3.2901-1.5339,5.0135-5.6023,3.9149-8.5453.2231-.6346.4178-1.1143.7367-1.7259.4624-2.9799.8006-5.8279,1.1845-8.8104.0805-.2226.1152-.3106.15-.3987Z" fill="#f1f2f3"/><path d="M17.5444,69.5078c-4.7328-.7152-8.658-2.7442-11.2159-6.955-3.2119-5.2874-2.6134-11.8284,1.6754-16.6364.1846.2077.2004.3326.2198.603.1585.3737.3135.6018.4679.9905.0003.3746.0011.5887-.141.9405-.6653,3.9072-.1402,7.2744,2.5259,10.3437,2.5054,2.8843,5.8482,3.9966,9.0783,5.5056.6499.3036,1.0604,1.2994,1.3785,2.0608.1692.4049-.0961.9914-.1527,1.4035,1.7387-.3759,3.3032-.7142,4.7601-.9172-1.6877.8527-3.2677,1.5701-5.0018,2.2742-.5368.13-.9195.2732-1.4316.3647-.3891-.1217-.6489-.1917-1.0396-.2887-.4617.0855-.7925.1981-1.1233.3107Z" fill="#b35574"/><path d="M16.4751,41.4614s.0962-.0477.3276.0088c1.8447.1051,1.2756.9609.9216,1.8173-.8193,1.982-2.7263,3.6649-1.7956,6.1434.4151,1.1055.9176,2.1783,1.3848,3.2641,1.9689,4.5757,8.0546,5.3312,11.1493,1.3742.9826-1.2564,1.9186-2.5494,2.9237-3.8435.0478-.0179.1475-.0389.1019.148.2884,2.1771.6224,4.1673.9113,6.3488-.0898.7133-.1345,1.2351-.289,1.8651-.3385.795-.5671,1.4819-.9099,2.1895-.1141.0207-.3408.0698-.5234.0908-.872.0847-1.5886.302-2.2461.1855-2.7997-.4958-5.567-1.185-8.374-1.6263-3.9727-.6245-6.453-2.7264-7.258-6.7215-.2977-1.4776-.6074-2.9563-1.0005-4.4104-.8782-3.2488.1685-5.1704,3.4431-6.2389.4301-.1403.8231-.3939,1.2333-.595Z" fill="#d97c8d"/><path d="M100.8631,136.386c.0127.2409-.0221.329-.2226.6756-.5203,1.9396-1.0924,3.3682-2.3933,4.7242-2.8459,2.9663-6.0987,3.8712-9.7788,1.9392-1.2892-.6768-2.6226-1.5503-3.4923-2.6765-1.177-1.5242-2.0126-3.338-2.8385-5.1007-1.1099-2.3686-2.3489-4.8148-.8933-7.4598.5303-.9636,1.4314-1.7231,2.2938-2.6217.3628-.1834.595-.3208,1.048-.4377.8168.0019,1.4128-.0168,2.1732-.0607.6038.0206,1.0434.0666,1.5562.2716,1.0702,2.1943-.8177,3.1062-1.5548,4.4939-.5561,1.047-1.4435,2.5125-1.0959,3.3285.8848,2.0774,2.1776,4.0832,3.7178,5.7346.7294.782,2.4644,1.099,3.6288.9116,3.1959-.5142,5.4621-2.274,5.662-5.9594.6998.4009,1.1743.6727,1.6489.9445.1644.38.3288.7601.5406,1.2929Z" fill="#db8296"/><path d="M148.9499,92.2274c2.2931,3.5314,2.0713,7.3007.9456,11.351-.109.2058-.2956.2176-.5184.2064-3.2155-.0566-6.3603.4742-9.1694-.267-5.8611-1.5465-9.3055-5.6383-9.8622-11.8795,1.9275-1.3997,3.6215-2.8729,5.5186-4.0063,1.3452-.8037,2.9647-1.1486,4.4366-1.5327-.7818.7075-1.5309,1.2602-2.2964,1.7893-1.8201,1.258-3.9002,2.2787-3.9593,4.9676-.062,2.8236,4.0102,6.7752,7.1227,6.8519,4.1279.1018,5.3612-.5866,6.6715-3.8886.4609-1.1614.7456-2.3927,1.1107-3.5921Z" fill="#db8296"/><path d="M83.8446,15.0285c.0176.223.0352.4459-.0484.8763-.1904.3659-.1445.4863.0364.5686.0259.0784.0519.1569.082.5281-.1982.8211-.4005,1.3494-.81,1.8829-1.2322.1157-2.2556.2468-3.2827.3331-4.0047.3365-7.7087-.5002-10.7105-3.2714-1.6523-1.5254-3.0574-3.3296-4.4946-5.0734-1.0938-1.3272-.9426-5.239-.1828-6.818,1.2338-2.564,3.5661-3.2165,5.948-3.9023.6778-.0295,1.3555-.0589,2.1318.0522-.6433.8043-1.3727,1.4825-2.1289,2.1293-3.4541,2.9542-2.7424,6.0435-1.2717,9.0539.2776.5682,1.1596.841,1.7682,1.2477.0055-.0023.0013.009.0215.1807,1.6975,2.6571,6.3532,3.5523,9.5765,1.6886,1.5141-.8755,2.4158-.7869,3.3652.5237Z" fill="#d97c8d"/><path d="M141.9314,44.3771c-.3379.0443-.6296-.1375-.7419-.0598-4.4922,3.1072-8.5485.8767-12.7713-.832-3.8034-1.539-5.6409-4.8026-7.4594-7.9835-.7325-1.2813-.2732-3.2461-.348-4.9003-.0487-1.0761-.0825-2.1528-.1744-3.4272-.0515-.1979-.0184-.1833.1743-.1629.4189-.3358.645-.692.8712-1.0482,1.8769-1.9737,4.2495-2.4409,7.0501-2.115.2115.135.2105.3489.022.3537-3.361.8435-5.1687,3.9775-5.1081,8.5335.0424,3.1846,1.4816,4.8539,4.5214,5.482.889.1837,1.8986.5475,2.5137,1.166,3.5267,3.5462,7.7416,3.6286,12.2148,2.668-.2115.7402-.4231,1.4804-.7644,2.3257Z" fill="#cf7088"/><path d="M100.3183,134.9038c-.4703-.0826-.9448-.3544-1.6446-.7552-.2,3.6854-2.4662,5.4452-5.662,5.9594-1.1644.1874-2.8995-.1296-3.6288-.9116-1.5402-1.6514-2.8331-3.6572-3.7178-5.7346-.3475-.8161.5398-2.2816,1.0959-3.3285.737-1.3876,2.6249-2.2996,1.7487-4.5128.7688-.176,1.417-.174,2.1025-.0033.5113.3294.9853.4902,1.6127.7452.7216.259,1.2898.4238,1.9427.7207.9862.6993,1.8876,1.2666,2.7967,1.9988.8913,1.1321,1.775,2.0992,2.6587,3.0662.2304.8555.4608,1.711.6954,2.7558M90.9043,130.2849c-3.2604,1.538-3.9553,3.0636-1.9839,5.3012.9845,1.1175,2.7215,2.1774,4.0915,2.1447.9706-.0232,2.396-1.7823,2.7377-3.0113.6987-2.5135-1.6323-4.6759-4.8452-4.4345Z" fill="#de94a5"/><path d="M49.9545,128.0755c-.8339-.2631-1.6678-.5262-2.5964-1.0975-.2333-.6577-.2822-1.2238-.524-1.3239-3.3873-1.4024-6.801-2.7413-10.2079-4.265-.0058-.395-.0119-.6205.0927-.8289.1107.0172.3277.0674.4962.0631.5621-.1444.9557-.2844,1.5318-.43,11.9584,4.2503,23.7342,8.5062,35.5105,12.8391.0004.0769.0569.2201.026.3685-.2033.5141-.3757.8798-.7314,1.2383-2.0756-.6077-3.9801-1.1727-5.857-1.8181-2.0814-.7157-4.1226-1.5495-6.2082-2.2521-3.5644-1.2008-6.9304-3.2772-10.9447-2.5695,0,0,.0413.0288.0118-.093-.2195-.0249-.4095.0721-.5995.1691Z" fill="#6d777f"/><path d="M149.5999,103.796s.1866-.0118.2795-.0231c4.3431,2.6349,2.8069,7.3106.0342,9.7581-5.4205,4.7848-11.9679,7.076-19.1322,6.5105-4.2684-.3369-8.4477-1.803-12.8391-2.9217.5611-.7096,1.2943-1.259,2.2213-1.7974,3.1148.9739,5.9828,2.5078,8.9675,2.785,6.9597.6464,13.3523-1.2542,18.7869-5.8742,1.3733-1.1674,2.1497-5.4309,1.1985-7.186.1417-.5196.3126-.8854.4834-1.2512Z" fill="#f1f2f3"/><path d="M36.6081,120.5429c.0061.2256.0122.4511-.1087.9684-.2293.7394-.3316,1.187-.4339,1.6347-.2329.0668-.4658.1336-.9022.3773-.2736.4594-.3436.7419-.4264,1.0134-.0129-.011.02-.019-.1077-.0313-.2127-.0168-.2978-.0212-.4693-.181-.8859-.2674-1.7625-.6487-2.4718-.4456-3.3965.9726-6.7685-.0224-9.3657-1.563-2.1416-1.2703-4.867-2.5991-5.614-6.1166-.5424-2.5535-1.8681-4.8862-1.3515-7.6947.1289-.701-.5588-1.5522-.8812-2.4833-.0162-.2483-.0225-.3476-.0288-.447-.0093-.1537.0535-.2676.4571-.3672.513-.2227.7573-.42,1.0015-.6173.8548-.4733,1.7096-.9465,2.7373-1.28.1758.2478.1786.3557.0169.5337-.5366.6152-1.2376,1.1686-1.224,1.7038.0596,2.338.2131,4.6867.5409,7.0021.7926,5.598,7.0673,8.8521,12.2669,8.6608,2.1269-.0783,4.2434-.4362,6.3646-.667Z" fill="#cf7088"/><path d="M16.266,41.4476c-.2011.2149-.5942.4685-1.0242.6088-3.2746,1.0685-4.3213,2.9901-3.4431,6.2389.3931,1.4542.7027,2.9328,1.0005,4.4104.805,3.9951,3.2853,6.097,7.258,6.7215,2.807.4413,5.5743,1.1305,8.374,1.6263.6575.1164,1.3741-.1008,2.2491-.0405.2145.4108.2435.6976.1677,1.0933-.4591.4626-.8134.8162-1.3295,1.2224-.2955.3443-.4293.636-.5698.9122-.0068-.0156.0211.0039-.1644-.0058-.5567-.0114-.9279-.0131-1.493-.0162-1.2343-.3186-2.2547-.7749-3.3187-.9282-4.1721-.6009-7.8678-2.2806-11.0018-5.0277-1.0572-.9267-1.8395-2.3248-2.3704-3.6576-.8081-2.0289-1.2877-4.1886-1.9068-6.2928-.0009-.2141-.0017-.4282.1073-.8855-.1203-.5133-.3505-.7833-.5807-1.0534-.0159-.1248-.0318-.2497-.0795-.5612-.0319-.1867-.0429-.3046.1549-.3538.4232-.2197.6486-.3902.9844-.6076.2403-.1541.3183-.291.3443-.4575,0,0,.0176.0343.127-.0189.2264-.2003.3434-.3473.4604-.4943,1.9484-.8156,3.8967-1.6312,6.0542-2.433Z" fill="#cf7088"/><path d="M70.1681.1199c-2.168.7183-4.5003,1.3708-5.734,3.9348-.7598,1.579-.911,5.4908.1828,6.818,1.4372,1.7438,2.8423,3.548,4.4946,5.0734,3.0018,2.7712,6.7058,3.6079,10.7105,3.2714,1.0271-.0863,2.0504-.2173,3.318-.2213.2425.1065.2836.3365.1618.4122-.3426.4584-.5635.841-.7697,1.2788.0147.0551-.0524.1434-.1641.1974-.1997.1906-.2876.3273-.3561.4534.0194-.0105.0402.0284-.1311.0047-.4012-.024-.6311-.0244-1.0235-.095-2.0357-.1451-3.9084-.259-5.7823-.2861-3.0131-.0436-5.8056-.8351-7.9345-2.9826-3.5743-3.6058-4.9759-8.3528-6.3804-13.0619-.0014-.3819-.0027-.7638-.0279-1.3359-.0238-.1902.0007-.1685.1791-.1421.5415-.352.9046-.7305,1.2676-1.109,2.2139-2.0573,4.8759-2.5615,7.9891-2.2103Z" fill="#cf7088"/><path d="M83.4236,19.3326s-.041-.2299-.0764-.3417c.167-.64.3693-1.1683.5889-1.8674,9.8381,3.726,19.6568,7.6284,29.4825,11.5129,1.262.4989,2.5605.9055,4.0205,1.3587.0823.1406-.0138.2774-.3187.5294-.3213.2255-.3855.359-.4012.5159.0069.1979.0137.3959-.18.7399-3.5364-1.138-6.8704-2.4272-10.2088-3.705-5.1122-1.9567-10.3752-3.6013-15.2798-5.9843-2.5008-1.215-4.8213-2.5412-7.627-2.7585Z" fill="#747c84"/><path d="M18.8243,103.7732c-.0028-.1079-.0057-.2158-.011-.4863.3789-.2996.7601-.4366,1.4476-.5958.684-.1597,1.0619-.2974,1.6437-.4086.8924.024,1.581.0217,2.3704.0774.3285.0981.5562.1382.7965.3645,1.1834,1.4989.6183,2.5323-.3978,3.651-1.7867,1.9672-.0132,8.3476,2.4991,9.2083.146.05.3196.0995.4622.0679,2.5064-.5552,5.357-.34,6.7311-3.3248.2759-.5993,1.2042-.8984,1.916-1.1743,1.217,2.8186,1.735,5.5451.8377,8.3283-.3629-1.7377-.5459-3.3923-.7761-5.4746-1.212.974-1.991,1.6218-2.7925,2.2403-3.3264,2.5668-9.2828,1.3969-10.9283-2.3222-.5432-1.2278-.358-2.796-.4267-4.2123-.1808-3.7286-1.194-5.5495-3.3719-5.9389Z" fill="#de94a5"/><path d="M142.7234,41.9508c-4.5007,1.0611-8.7157.9787-12.2423-2.5675-.6151-.6185-1.6248-.9823-2.5137-1.166-3.0398-.6281-4.479-2.2974-4.5214-5.482-.0606-4.556,1.7471-7.6899,5.0935-8.3604-.2657.913-.6557,1.6928-1.153,2.3968-3.1538,4.4645-2.5252,7.5631,2.009,9.0146.6926.3281,1.2284.6422,1.7692,1.141.6465.5421,1.288.8995,2.0487,1.2576.1192.0007.3575.0038.3788.1802,1.7682.8621,3.4901,1.6238,5.2695,2.211,1.5945.5262,2.3874-.5404,3.0934-1.7759.1871-.3275.8002-.4117,1.2176-.6076.0124.3694.0247.7389-.1166,1.4146-.2019.8824-.25,1.4585-.2981,2.0346,0,0-.0069.2084-.0345.3089Z" fill="#d97c8d"/><path d="M148.9244,92.0662c-.3395,1.3606-.6242,2.5919-1.0851,3.7533-1.3103,3.3019-2.5436,3.9904-6.6715,3.8886-3.1126-.0768-7.1848-4.0284-7.1227-6.8519.0591-2.6888,2.1392-3.7096,3.9593-4.9676.7655-.5291,1.5146-1.0818,2.2958-1.7937.0246-.1698.0309-.1682.1835-.1758.254-.0164.3555-.0253.457-.0342,0,0,.173-.0175.3018.0872.264.0478.3992-.0091.5344-.066,1.0921.6922,2.1843,1.3845,3.3343,2.2394.0578.1627.0331.1884-.1736.1902-1.3852.161-2.5595.3674-3.7429.4695-2.4967.2155-4.3785,1.623-4.6864,3.6485-.2731,1.797.4917,3.1055,2.092,3.9029,3.3745,1.6813,4.9543,1.5645,6.7069-.2128,1.9969-2.0251,1.04-4.5294,1.2837-6.8459.0043-.0039.0125-.0142.0125-.0142.7652.8737,1.5304,1.7475,2.3211,2.7824Z" fill="#de94a5"/><path d="M31.3387,50.2436c-.9573,1.2763-1.8933,2.5692-2.8759,3.8256-3.0946,3.957-9.1804,3.2014-11.1493-1.3742-.4672-1.0857-.9697-2.1586-1.3848-3.2641-.9307-2.4785.9763-4.1615,1.7956-6.1434.354-.8564.923-1.7123-.881-1.7823,1.6882.1552,3.5671.3319,5.5648.6846-.4671.8008-.9952,1.4955-1.6497,2.0375-2.0119,1.6663-3.2553,4.9103-2.5202,6.765.8245,2.0805,3.4783,3.7556,5.5207,3.4848,2.6502-.3514,4.5046-2.2117,4.6662-4.9392.071-1.1975.4112-1.8161,1.7123-1.781.0633-.0124.1928.0132.2161.1748.3413.5671.6592.9726.9881,1.534.0063.3632.0016.5705-.003.7777" fill="#db8296"/><path d="M30.0742,47.7694c-1.2378-.0475-1.578.5711-1.6489,1.7685-.1617,2.7275-2.016,4.5879-4.6662,4.9392-2.0424.2708-4.6962-1.4043-5.5207-3.4848-.735-1.8547.5083-5.0987,2.5202-6.765.6545-.5421,1.1825-1.2367,1.8323-2.01,1.7467.6302,3.4295,1.4089,5.2913,2.4068.85,1.1946,1.521,2.1699,2.192,3.1452M24.8114,52.166c3.0337-2.2686,2.8947-3.1526-1.6114-7.5526-1.1357,1.3943-2.5095,2.5944-3.2477,4.105-1.0214,2.0904,1.2347,2.8062,2.3388,3.855.3321.3155,1.4356-.181,2.5203-.4074Z" fill="#e29eae"/><path d="M76.1868,1.0663c3.2199,1.3455,5.5018,3.6193,6.6156,7.0659-1.0037,1.1254-1.8784,2.0125-2.6369,2.9899-2.0995,2.7053-4.1458,3.2524-7.4602,1.9619-.5771-.2247-1.2135-.2969-1.8225-.4396,0,0,.0042-.0113-.0187-.1955-1.472-3.1748-1.5586-6.0666.9077-8.565.9674-.9799,2.2378-1.6607,3.3932-2.429.023.0487-.0756.0053.0811.018.4181-.127.6795-.2668.9409-.4066M77.4943,11.2586c2.2308-1.3474,2.7172-3.8669,1.1827-6.1259-.7548-1.1112-4.0116-1.6388-5.3518-.8671-1.5453.8899-2.5458,4.8104-1.6016,6.2767,1.4023,2.1779,3.0805,2.4582,5.7707.7162Z" fill="#de94a5"/><path d="M57.7915,20.9059c.9145.884,1.6795,1.8423,2.3373,3.0578-.9195.8333-1.7316,1.4093-2.495,1.7837.1695-.5462.2902-.8909.5887-1.743-2.4625,1.4078-4.492,2.5785-6.5322,3.7301-1.0124.5714-2.1531.9718-3.0475,1.6855-2.8309,2.2591-5.5875,4.6125-8.3436,6.9637-1.4097,1.2027-2.757,2.4785-4.286,3.7904-1.1898.3227-2.2262.5763-3.2626.8299,8.2972-6.6746,16.5943-13.3493,25.0408-20.0981Z" fill="#5b666d"/><path d="M134.5331,24.2284c.9276.5197,1.8552,1.0395,2.7489,1.8403-1.3882.7027-2.8728.9065-4.0561,1.6141-.9676.5786-2.1262,1.7013-2.2278,2.6834-.2066,1.997,2.3549,4.0736,4.2896,3.9274,2.7924-.2111,3.5734-1.0639,3.5895-3.9029.0063-1.1174.0292-2.2347.0445-3.352.9432,1.0279,1.8864,2.0558,2.7191,3.3564-.5516,1.4464-.8254,2.7215-1.4641,3.7755-2.2536,3.7192-8.6669,2.4705-10.9766-1.866-.8868-1.6651-.2758-3.1433.9203-4.3004.8301-.803,2.0185-1.2229,2.9345-1.9545.5968-.4767.9924-1.2055,1.4781-1.8214Z" fill="#e29eae"/><path d="M134.3714,24.2094c-.3241.6348-.7196,1.3636-1.3164,1.8403-.916.7316-2.1044,1.1515-2.9345,1.9545-1.1961,1.157-1.8072,2.6353-.9203,4.3004,2.3096,4.3365,8.7229,5.5851,10.9766,1.866.6387-1.054.9125-2.3291,1.4928-3.6136.4433.4383.7475.9874.9411,1.7675-.0363.4991.0381.7672.1125,1.0353,0,0,.0591.1672.042.4137-.0219.3516-.0268.4566-.2039.5792-2.1179,3.5853-5.294,4.3116-8.9905,3.8362,0,0-.2383-.0031-.3818-.1642-.7721-.5347-1.4007-.9083-2.0293-1.2819-.5358-.3141-1.0716-.6281-1.7842-1.1286-3.1735-4.6619-2.5986-7.2407,1.5461-10.2291.5279-.3807.8071-1.1063,1.2015-1.6721.6955.1592,1.3911.3185,2.2483.4967Z" fill="#de94a5"/><path d="M138.9091,27.0468c-.0027,1.1091-.0255,2.2264-.0319,3.3438-.016,2.839-.7971,3.6918-3.5895,3.9029-1.9346.1462-4.4962-1.9304-4.2896-3.9274.1016-.9821,1.2602-2.1047,2.2278-2.6834,1.1832-.7076,2.6679-.9113,4.1433-1.477.3765-.0645.6318.0149,1.0075.331.2571.3398.3939.443.5307.5462,0,0-.011-.028.0016-.0362Z" fill="#e6aebd"/><path d="M50.5589,128.1649c3.9975-.8731,7.3636,1.2033,10.9279,2.4041,2.0856.7026,4.1267,1.5364,6.2082,2.2521,1.8769.6454,3.7814,1.2104,5.8646,1.9883.0225.7139-.146,1.2505-.3145,1.787-.6671-.1892-1.3342-.3784-2.176-.5716-6.9476-2.5675-13.7206-5.131-20.5103-7.8599Z" fill="#4d565e"/><path d="M32.5999,41.0679c1.1871-.3174,2.2236-.571,3.5838-.9068,1.21-.5078,2.0962-.9334,3.194-1.4606-.1015.8194-.1745,1.4079-.2625,1.9717-.0151-.0248.0393-.0047-.0834-.0212-.2148.1406-.3068.2978-.477.5977-2.4619,2.1122-4.8456,4.0818-7.3624,6.0898-.376.1696-.619.3007-.8619.4318,0,0-.1295-.0256-.1928-.0132-.7343-.9629-1.4053-1.9381-2.095-3.0711,1.4564-1.2898,2.9315-2.422,4.5574-3.618Z" fill="#6d777f"/><path d="M99.7415,132.0279c-1.0023-.847-1.886-1.8141-2.6496-3.0348.884-.7264,1.6479-1.1991,2.612-1.653.7903-.6495,1.3804-1.3179,1.9881-1.9661.0176.0202-.0359.0169.1543.0416,2.3426-.9332,4.4949-1.8912,6.7704-2.8478.2052.0017.2872.002.2943.1488-.6474,1.0493-1.2197,1.9521-1.7921,2.8548,0,0-.0561-.0422-.1747.0003-.2686.1908-.4185.339-.5685.4872-2.1718,1.9496-4.3437,3.8992-6.6342,5.9689Z" fill="#747c84"/><path d="M134.9069,68.9549c.6635,5.0342,1.327,10.0684,1.8551,15.3923-.6722.3695-1.2091.4493-1.7596.3987-.1563-.3389-.2991-.5474-.4437-.9561-.0123-.8674-.0228-1.5347-.0265-2.3935-.443-1.0606-.8928-1.9296-1.3541-3.0023-.0153-1.1577-.0189-2.1118.0857-3.1551.1678-.3581.2274-.6271.2905-1.1001-.0184-1.0199-.0404-1.8356-.039-2.86.0223-1.0447.0212-1.8807.1875-2.6512.513.1528.8585.24,1.204.3273Z" fill="#747c84"/><path d="M119.9698,115.3114c-.7332.5494-1.4664,1.0988-2.214,1.8052-1.1384.9987-2.2625,1.8403-3.5972,2.6867-.2106.0048-.3532-.1237-.3364-.2909.3858-.6724.6732-1.2746,1.1377-1.6669,2.4228-2.046,4.9155-4.0096,7.3231-6.0728.521-.4464.7922-1.1844,1.2849-1.9545-1.8384.4735-3.1802.8191-4.4325,1.0344.4712-.4876.8528-.8449,1.3708-1.2597,1.3911-1.1751,2.6457-2.2927,4.0492-3.3432.8974,1.1574,1.646,2.2477,2.2837,3.4541-.755.6331-1.3991,1.1502-2.1824,1.7401-.8702.6652-1.6011,1.2576-2.4679,1.9248-.8302.6974-1.5246,1.3201-2.2189,1.9428Z" fill="#5b666d"/><path d="M70.9029,12.8162c.5889-.0291,1.2253.0431,1.8024.2678,3.3145,1.2905,5.3607.7434,7.4602-1.9619.7585-.9774,1.6332-1.8645,2.6254-2.8137.4871,2.0841.8037,4.1891,1.087,6.5071-.9828-1.0976-1.8844-1.1861-3.3985-.3107-3.2233,1.8638-7.8791.9685-9.5765-1.6886Z" fill="#db8296"/><path d="M134.9182,68.7349c-.3568.1328-.7023.0456-1.3396-.2245-.6648-.9176-1.0379-1.6524-1.4165-2.6007.1399-2.3087.2853-4.404.4363-6.6804-.3069-.7118-.6193-1.2423-.9355-1.9884-.1901-2.0973-.3764-3.9792-.5628-5.8611.5224-.0546,1.0447-.1093,1.7645-.1664.8199,5.7655,1.4424,11.5334,2.0535,17.5214Z" fill="#68737a"/><path d="M135.016,84.8763c.5369-.0798,1.0737-.1596,1.7598-.3147,1.1601.2418,2.1709.5588,3.3644,1.016.1827.1401.1908.349.1908.349,0,0-.0063-.0016-.0057.0027-1.4965.554-3.1159.8988-4.4612,1.7026-1.8971,1.1334-3.5911,2.6066-5.6615,3.934-.3377-.4542-.411-.9068-.4288-1.3617-.0306-.7838-.0267-1.5689-.0435-2.5253-.0209-.401-.0355-.6303-.0378-.846.0123.0135-.0198.031.1151.042.2252.0114.3154.0118.5119-.0493.1793-.2052.2524-.3488.3401-.4748.0146.0177-.0308.0107.1644.0264.7157-.233,1.2363-.4818,1.8324-.8118.1994-.1732.3384-.2176.6262-.2237.3544-.1301.5751-.2509.9536-.3688.3651-.0303.5724-.0635.7798-.0968Z" fill="#d97c8d"/><path d="M76.0602.9482c-.1348.2579-.3962.3976-.8252.505-.1676-.0324-.0932-.0472-.0932-.0471-1.1324.817-2.4028,1.4978-3.3702,2.4778-2.4663,2.4984-2.3797,5.3901-.9132,8.5673-.5857-.2225-1.4677-.4953-1.7453-1.0635-1.4706-3.0104-2.1824-6.0997,1.2717-9.0539.7562-.6468,1.4857-1.325,2.3323-2.1186,1.1421.1183,2.1792.3667,3.343.733Z" fill="#db8296"/><path d="M21.7007,102.2561c-.3779.1376-.7558.2752-1.2814.4422-.4952-4.3033-.8428-8.636-.9881-13.2113.5613-.8692.9205-1.4958,1.4289-1.9873.3797,5.0088.6102,9.8826.8407,14.7565Z" fill="#535c64"/><path d="M133.5921,38.3652c3.6752.299,6.8513-.4273,8.9781-3.876.3177.3409.4543.5628.5907.7846.0258.8351.0515,1.6702.0444,2.7121-.4503.4028-1.0633.4869-1.2504.8144-.706,1.2355-1.4989,2.3021-3.0934,1.7759-1.7794-.5872-3.5013-1.3489-5.2695-2.211Z" fill="#db8296"/><path d="M20.7108,87.3646c-.3592.6266-.7183,1.2531-1.2405,1.9055-.744-6.433-1.3249-12.8917-1.9159-19.5564.3208-.3185.6516-.4311,1.1193-.3101.3027,4.1678.4342,8.1042.6741,12.0339.0333.545.6022,1.0574.9944,1.7653.1704,1.5076.2695,2.8347.3686,4.1618Z" fill="#444c50"/><path d="M131.9118,23.7053c-.1831.5732-.4622,1.2989-.9901,1.6795-4.1447,2.9884-4.7196,5.5672-1.7029,10.2151-4.3574-1.2651-4.986-4.3637-1.8322-8.8283.4973-.704.8872-1.4837,1.3414-2.4015.0147-.173.0157-.387.0146-.4939.9853-.1307,1.9716-.1545,3.1693-.1709Z" fill="#db8296"/><path d="M36.2162,123.2272c-.0484-.5289.0539-.9765.2829-1.5465,3.534,1.232,6.9476,2.5709,10.3349,3.9733.2418.1001.2907.6662.4103,1.2055-2.272-.5697-4.525-1.3292-6.9615-2.1318-1.4277-.5018-2.6719-.9605-4.0667-1.5005Z" fill="#535c64"/><path d="M107.2781,125.5268c.4132-.858.9855-1.7608,1.7829-2.875,1.7315-1.1317,3.238-2.0519,4.7444-2.9722,0,0,.1426.1286.2101.1975-2.1477,1.9143-4.363,3.7596-6.7374,5.6497Z" fill="#5b666d"/><path d="M10.8927,109.5757c-.0261.4439-.2261.9246-.5552,1.5003.041-.4245.2112-.944.5552-1.5003Z" fill="#f1f2f3"/><path d="M62.0232,2.3731c-.2073.3355-.5704.714-1.1194,1.0806.1973-.3538.5804-.6957,1.1194-1.0806Z" fill="#b35574"/><path d="M121.319,26.009c-.0632.3105-.2893.6667-.6958,1.0157.0574-.3282.2951-.649.6958-1.0157Z" fill="#b95979"/><path d="M142.9076,41.5378c-.1017-.472-.0536-1.0481.1129-1.7485.0912.4653.0641,1.0549-.1129,1.7485Z" fill="#cf7088"/><path d="M143.1989,35.1018c-.1745-.0499-.311-.2717-.4565-.6301-.0041-.2416.0007-.3467.0145-.61.1659.2506.3229.6594.442,1.2401Z" fill="#d97c8d"/><path d="M9.1697,44.8981c-.2254.1705-.4508.341-.8251.5275.0856-.2269.32-.4699.6817-.6815.1274.0314.1434.1539.1434.1539Z" fill="#b35574"/><path d="M142.7386,33.2022c-.0899-.1106-.1643-.3787-.1343-.7166.1196.1399.1347.3495.1343.7166Z" fill="#db8296"/><path d="M15.7498,104.6268c-.0886.1601-.3329.3574-.746.5578.0842-.1715.3372-.346.746-.5578Z" fill="#b35574"/><path d="M145.1809,88.2951c.2797.0735.5474.1603.8736.3823.0585.1352.0509.1435-.0931.1342-.3684-.1654-.5928-.3215-.8172-.4776,0,0,.0247-.0256.0367-.0388Z" fill="#de94a5"/><path d="M140.4836,85.9191c-.1526.0076-.1607-.2014-.1634-.3057.1548-.0505.3124.0033.5451.1643-.0263.1161-.1277.125-.3818.1414Z" fill="#db8296"/><path d="M138.8634,26.9608c-.0927.0189-.2295-.0842-.4093-.3123.0931-.0199.2291.0852.4093.3123Z" fill="#e29eae"/><path d="M9.2801,44.8512c-.1104.0468-.1264-.0756-.1235-.1371.0674-.1278.1319-.1941.3321-.2903.1097.1365.0317.2734-.2086.4275Z" fill="#c1627d"/><path d="M10.0663,43.9213c.0285.1062-.0885.2532-.3332.4596-.0225-.1.0826-.2594.3332-.4596Z" fill="#c1627d"/><path d="M146.1181,88.8085c.1377.0801.2704.1643.4441.3619.0411.1134.0329.1238-.0769.0758-.2414-.144-.3314-.2698-.3798-.4253,0,0,.0076-.0083.0127-.0124Z" fill="#de94a5"/><path d="M141.6528,85.8913c-.0112.0718-.1464.1287-.3264.1031.0376-.0943.12-.1061.3264-.1031Z" fill="#db8296"/><path d="M14.336,105.6444c.1172.029.1235.1283.0195.3814-.1103.1537-.3501.1708-.3595.1589-.0093-.0119-.0306-.0334-.0306-.0334.0866-.1455.1732-.291.3706-.5069Z" fill="#b35574"/><path d="M13.5009,106.6487c.0678-.1501.1451-.2915.3434-.4651.1211-.0323.1424-.0108.0947.1005-.1432.2355-.2632.3279-.4077.3884,0,0-.0208-.0151-.0303-.0238Z" fill="#b35574"/><path d="M83.8533,16.3614c-.2016.0297-.2475-.0907-.0923-.2919.066-.0428.1129.18.0923.2919Z" fill="#cf7088"/><path d="M50.1038,128.1461c.0407-.1676.2307-.2645.4298-.2249-.0874.1896-.184.2425-.4298.2249Z" fill="#4d565e"/><path d="M106.5501,126.035c-.0245-.1242.1255-.2725.4154-.4911.013.1088-.114.2879-.4154.4911Z" fill="#5b666d"/><path d="M115.7389,33.8772c.4333,3.2514.8666,6.5027,1.2095,10.0686-3.8306,3.183-7.5443,6.0876-11.3384,8.883-.6005.4424-1.5637.3924-2.406.4237-2.373-3.2016-4.7075-6.2506-7.0239-9.3133-4.8269-6.3821-9.6443-12.7714-14.2503-19.1832,1.797-.8132,3.3785-1.6008,5.1498-2.3657,9.6795,3.8442,19.1694,7.6655,28.6592,11.4869Z" fill="#fcfcfb"/><path d="M133.149,85.3512c-.1542-.0032-.2932.0412-.6759.2325-.7873.3256-1.3158.5518-1.8443.778,0,0,.0453.0069-.0877.0041-.133-.0028-.3517.0928-.4778.0922-.2143.1349-.3025.2705-.3907.4061,0,0,.0321-.0175-.1125-.0299-.3192-.0423-.4937-.0722-.7188-.257-2.7657-3.5481-5.4807-6.9413-8.2678-10.4907-2.9681-2.2944-3.3881-4.2112-2.0215-7.6298,1.3847-3.4638,2.5818-7.0026,3.943-10.6603.8646-1.9702,1.6473-3.7887,2.525-5.7068.1975-.353.3-.6063.4025-.8595,1.1819.0458,2.3638.0915,3.7005.3095.3932,2.6368.5882,5.1065.8781,7.565,1.0318,8.751,2.096,17.4981,3.148,26.2467Z" fill="#fafbfa"/><path d="M115.8768,33.7846c-9.6277-3.7288-19.1176-7.5501-28.9212-11.4881-1.6885-.6326-3.0633-1.1485-4.4381-1.6645.2209-.3827.4417-.7653.7843-1.2237,2.9274.1415,5.2479,1.4677,7.7487,2.6828,4.9046,2.383,10.1676,4.0276,15.2798,5.9843,3.3384,1.2778,6.6724,2.567,10.1941,3.853-.0461.5891-.278,1.1764-.6477,1.8562Z" fill="#535c64"/><path d="M133.2827,85.3419c-1.1856-8.7393-2.2498-17.4864-3.2816-26.2374-.2899-2.4585-.4848-4.9282-.6897-7.6106.4757-.2108.9178-.2037,1.5744-.1553.4008,1.9233.5871,3.8051.7696,6.085.31.9277.6237,1.4573.9375,1.987-.1454,2.0952-.2908,4.1904-.4444,6.7227-.009,1.6021-.1501,2.7921.0505,3.9213.0954.5372.8416.9589,1.293,1.4329.022.8157.044,1.6315-.0781,2.67-.1821.5387-.2202.8547-.2583,1.1706.0036.9541.0073,1.9082.008,3.2539.4521,1.263.907,2.1344,1.362,3.0058.0104.6672.0209,1.3345-.0901,2.2818-.1999.5535-.2784.827-.3569,1.1004-.2207.1208-.4415.2416-.7958.3717Z" fill="#4d565e"/><path d="M103.2508,53.3989c.7955-.1777,1.7587-.1277,2.3592-.5701,3.7941-2.7954,7.5078-5.7,11.3883-8.6839.8087.8983,1.4772,1.9122,2.1194,3.1781-.0263.2522-.0459.4321-.206.4797-1.9262,1.3131-3.6924,2.5787-5.49,3.6119-.0524-.5439-.0735-.8555-.0274-1.1944.0183-.013-.0305.0012-.2716.0164-1.9257.7363-3.8011,1.2528-5.3568,2.2622-1.9839,1.2873-3.7093,2.9729-5.6125,4.3308-.6679-1.4838-1.2694-2.8115-1.7216-4.079.6096.478,1.0119,1.0503,1.5528,1.2531.3038.1139.8365-.383,1.2661-.6047Z" fill="#5b666d"/><path d="M125.3304,51.0823c-.0104.4009-.1129.6542-.4589.9477-2.2245-.2935-2.7845,1.1349-3.5095,2.5711-.3709.3298-.5876.6384-.9212,1.0284-.1972.349-.2776.6164-.508.8827-.3495-.004-.549-.0068-.7307-.1786.4545-1.3417.8912-2.5144,1.4475-3.7971.5119-1.0138.9041-1.9175,1.2963-2.8213,1.0974.4065,2.1949.813,3.3844,1.3671Z" fill="#4d565e"/><path d="M121.8711,49.5819c-.3173,1.0371-.7095,1.9409-1.3983,2.9543-1.5041.0166-1.8965-.4149-1.4674-1.726.3032-.9264.0637-2.0305.0665-3.0552,0,0,.0196-.1799.06-.2612.915.5974,1.7896,1.2761,2.7392,2.088Z" fill="#f1f2f3"/><path d="M116.8152,30.979c-.0803-.0954-.0162-.229.1909-.3975.0994.1058.0363.2373-.1909.3975Z" fill="#535c64"/><path d="M9.4553,114.5149c.2156,1.663.3173,3.4464.2433,5.4404-2.8062,1.0033-3.7546,3.8229-2.5085,6.8482,1.9303,4.6862,6.0688,6.4887,10.4531,6.6619,3.8489.1521,7.8343-.9638,11.6126-2.0367,2.2475-.6382,4.078-2.39,4.4577-5.0498.0417-.1964.0834-.3929.253-.7794.2374-.2874.2934-.4093.4179-.6026.2057-.1909.2891-.335.3725-.4791,0,0-.0328.008.0935.0095s.3537-.012.3537-.012c1.115,1.2634,1.0969,2.2623-.0283,3.7522-2.4138,3.1962-5.3788,4.7501-9.31,5.7374-3.9778.999-7.8318,1.0807-11.649.5179-6.6405-.9791-11.9797-6.5825-9.3149-13.6756.5307-1.4126,1.8839-2.509,2.8198-3.7792.5772-.7834,1.0823-1.6199,1.7335-2.553Z" fill="#d8dfe6"/><path d="M35.2168,124.3513c-.0127.164-.24.1774-.3535.1869-.0435-.273.0265-.5555.2196-.9222.1309.1343.1387.3529.1339.7353Z" fill="#b35574"/><path d="M73.7604,27.6115c1.1742-.5003,2.3484-1.0006,3.7801-1.377,1.1441,1.1973,2.0306,2.2706,2.9632,3.5011,1.0597,1.4335,2.0734,2.7097,3.1706,4.1311,1.0748,1.2885,2.066,2.4317,3.0704,3.5862-.0052.0885-.0054.1684-.0164.3805.4769.6992.9828,1.2689,1.4726,1.8306-.0161-.0081-.032.0243.0092.1761.6543.863,1.2673,1.5741,1.9249,2.4442,1.3246,1.7992,2.6046,3.4395,3.923,5.2326.6482.8627,1.258,1.5726,1.901,2.4262.3434.5201.6534.8964.9786,1.3876.0854.2693.2044.3592.4326.5405.9041,1.2842,1.8649,2.3482,2.5365,3.5711.2874.5234-.0275,1.3775-.2218,2.1329-3.1407,2.3901-6.1282,4.7288-9.0929,7.0658.0229-.0017-.0008-.0411-.1448-.0206-.3571.1855-.5701.3504-.9203.5886-.798.5648-1.4588,1.0564-2.2645,1.4475-1.8518-1.0475-3.5587-1.9944-5.4575-2.9669-1.661-.3446-3.1303-.6636-4.6055-1.2025-.1124-2.2189-.1314-4.2272-.3404-6.2155-1.0047-9.5563-2.0607-19.1072-3.0985-28.66Z" fill="#fafbfa"/><path d="M65.8287,27.6113c1.2306.1275,2.4611.255,3.8903.6291.6994,4.4431,1.2001,8.6394,1.6725,13.0502-.0288.9315-.1047,1.6578-.0177,2.364.7868,6.3909,1.602,12.7783,2.3068,19.288-.8728.472-1.6435.8226-2.5453,1.1916-.3359.1659-.5407.3135-.8891.4956-.3717.204-.5996.3735-.817.552.0106.0089.0018-.0173-.1231.0179-.2134.176-.3019.3168-.3728.4521.0175-.0054-.0056-.034-.1665-.0038-1.1487,1.1575-2.1364,2.2847-3.2318,3.5229-.3796.4135-.6516.7161-1.0943.9471-2.9497-1.039-5.7287-2.0064-8.6722-3.0202-1.1745-.5345-2.1845-1.0226-3.1722-1.686.6189-1.9446,1.2977-3.6917,1.7856-5.4905.3716-1.3703.1832-2.6814-1.2974-3.5814.7906-1.9936,1.564-3.8123,2.3944-5.7934.5232-1.0712,1.0334-1.9604,1.4489-2.8918,2.9779-6.6763,5.9365-13.3612,8.9012-20.0433Z" fill="#fafbfa"/><path d="M31.3253,47.3c2.3837-1.9695,4.7675-3.9391,7.3427-6.0898.3449-.2567.4432-.3772.4864-.5426,0,0-.0544-.0201.1169-.0458,6.2188-4.908,12.2663-9.7904,18.3137-14.6727.8122-.576,1.6243-1.152,2.5717-1.8318.7851.3357,1.435.7751,2.0776,1.5376-.2069.8423-.3818,1.3727-.6099,1.8792-5.2822,11.7252-10.5702,23.4477-16.0441,35.2273-4.578-1.3895-8.9689-2.8356-13.3599-4.2816.0447-.5219.0895-1.0438.3592-1.7716,1.7893-1.6643,1.084-5.1699-1.0457-6.5212,0,0-.0997.021-.1475.0389-.0431-.1894-.0385-.3966-.0361-.9611-.0099-.8931-.0175-1.4289-.025-1.9647Z" fill="#fafbfa"/><path d="M103.2041,53.2525c-.3829.3681-.9156.865-1.2194.7511-.5409-.2028-.9432-.7751-1.6638-1.3398-.5086-.4182-.7568-.6895-1.0616-1.113-.6543-.6987-1.2521-1.2451-1.8505-1.7912-.0006.0003.0002-.0005-.0147-.1644-.4858-.5388-.9568-.9138-1.5414-1.3726-.1994-.3476-.2851-.6113-.3854-1.0456-.8045-1.1877-1.5946-2.2049-2.3968-3.3333-.0122-.1113-.0422-.3331-.0491-.4901-.3122-.3767-.6174-.5965-1.0255-.8735-.2309-.1561-.3213-.2821-.3877-.5991-.482-.5434-.9501-.9228-1.5619-1.3802-.7216-.3229-1.2996-.5677-1.8776-.8126,0,0,.0159-.0323.0621-.1962-.121-.708-.2882-1.2522-.4561-1.9832-.4764-.7118-.9522-1.2368-1.5536-1.8636-.5291-.8316-.9326-1.5614-1.3497-2.4455-.3288-.5315-.644-.9086-1.1003-1.3629-.6869-.8318-1.2326-1.5863-1.7943-2.5043-.4893-.857-.9626-1.5507-1.4557-2.4054-.3473-.7045-.6747-1.2479-1.0022-1.7913.2576-.301.5151-.6019,1.0029-.7862.4073.1856.5844.2546.8379.3178.1607.0542.2534.0941.3547.114,4.8213,6.3863,9.6387,12.7756,14.4657,19.1577,2.3164,3.0627,4.6509,6.1117,7.0239,9.3133Z" fill="#77818b"/><path d="M45.7674,62.7047c5.2869-11.7231,10.5749-23.4456,15.8571-35.1708.2281-.5064.403-1.0369.682-1.7231.9107.2304,1.7421.6278,2.4738,1.1569-1.01,1.4023-2.0739,2.5916-2.7994,3.9603-1.5919,3.0033-3.0598,6.0756-4.4871,9.1619-1.0503,2.2713-1.9412,4.6158-2.9328,6.915-.4713,1.0928-1.0116,2.1558-1.6372,3.3147-.1993.3503-.2821.6181-.4996.9838-.7512,1.4465-1.4258,2.772-1.9719,4.1484-1.1002,2.7734-2.1305,5.5746-3.3685,8.3521-.5581-.3745-.9373-.7369-1.3165-1.0992Z" fill="#4d565e"/><path d="M73.6312,27.6204c1.167,9.5439,2.223,19.0948,3.2277,28.6511.209,1.9883.228,3.9965.1507,6.2408-.5655.22-.9471.1949-1.3518-.0149-.3291-2.6048-.6352-5.0251-.959-7.6369-.3092-2.1486-.6007-4.1056-.7877-6.147-.1132-.3683-.3309-.6522-.5556-1.1195-.0085-.6728-.01-1.1622.1497-1.6954,1.0504-.8654,1.1197-1.5308-.2198-2.1138-.1598-1.0212-.2986-1.8603-.3059-2.8366.0956-1.0652.0153-1.994.0317-2.9211.0611-3.4528.154-6.905.235-10.3575.0852-.0134.1705-.0269.3849-.0492Z" fill="#6d777f"/><path d="M53.0405,50.2371c.509-1.0765,1.0493-2.1395,1.5206-3.2323.9916-2.2991,1.8824-4.6437,2.9328-6.915,1.4273-3.0863,2.8952-6.1585,4.4871-9.1619.7254-1.3687,1.7894-2.558,2.8778-3.8288.3393.1388.5005.2779.8158.4645-2.8107,6.7298-5.7693,13.4147-8.7472,20.091-.4155.9314-.9257,1.8206-1.5628,2.806-.3242-.2517-.4776-.5801-.6101-.8637-.6159.23-1.1649.435-1.714.6401Z" fill="#606c72"/><path d="M60.6028,5.0022c1.5619,4.6239,2.9635,9.371,6.5378,12.9767,2.1289,2.1476,4.9214,2.939,7.9345,2.9826,1.8739.0271,3.7466.141,5.7868.4712.2163.4979.2656.7404.3507,1.0129.0357.0299.0596.1199.0596.1199-3.0986.0639-6.1969.1651-9.2957.1805-2.6356.0131-7.3446-3.2376-8.3146-5.6899-1.2564-3.1764-2.5516-6.3412-3.6616-9.5689-.2303-.6697.2775-1.5933.6026-2.4851Z" fill="#c1627d"/><path d="M73.071,27.6417c.0944,3.4804.0015,6.9326-.0596,10.3854-.0164.9271.0639,1.856-.191,2.9177-.5017.1312-.7127.1286-.9296-.0953-.3444-4.445-.6828-8.6687-1.0212-12.8924.6754-.1145,1.3508-.2289,2.2015-.3154Z" fill="#5b6367"/><path d="M81.9299,24.756c-.3167.0056-.4095-.0344-.6613-.2247-.2445-.2076-.3213-.2848-.3982-.362.0981-.4293.1963-.8586.348-1.4458.0536-.1579.0297-.2479.1448-.2889.3063-.3834.4976-.7259.6889-1.0683,0,0-.0208-.0388.0953-.0448.1882-.1676.2602-.3293.3323-.491,0,0,.067-.0883.0523-.1434,1.3601.4609,2.735.9768,4.2338,1.5865-1.4575.8815-3.0391,1.6692-4.836,2.4823Z" fill="#f1f2f3"/><path d="M70.7051,27.9696c.5028,4.2112.8412,8.4349,1.0661,12.8838-.1135.2252-.3515.2228-.3515.2228-.5008-4.1964-1.0015-8.3927-1.5176-12.8006.2026-.2388.4206-.2662.803-.306Z" fill="#444c50"/><path d="M79.3451,25.1406c.5012.5387.8287,1.0821,1.1726,1.9875.0201,1.0303.0237,1.6985.0056,2.3877-.0218.0209-.0657.0625-.0657.0625-.8866-1.0733-1.7731-2.1466-2.742-3.3619.4304-.4517.943-.7614,1.6295-1.0759Z" fill="#535c64"/><path d="M80.8083,24.1887c.139.0578.2158.135.3838.3483-.0859.0672-.263-.0018-.5078-.1945-.0679-.1238.0619-.1344.124-.1538Z" fill="#535c64"/><path d="M33.5525,126.4117c-.2188,2.627-2.0493,4.3787-4.2967,5.0169-3.7783,1.0729-7.7637,2.1888-11.6126,2.0367-4.3843-.1732-8.5228-1.9757-10.4531-6.6619-1.2462-3.0253-.2978-5.8449,2.5414-6.6262,1.6797,3.2321,3.2899,6.2528,6.5127,8.2317,5.1195,3.1437,11.6823,2.7581,16.1981-1.2442.2964-.2627.6319-.4812,1.1102-.7531Z" fill="#bac1ca"/><path d="M34.2622,125.0436c-.0023.1465-.0582.2684-.2604.4094-2.7886-.3652-5.3387.8762-8.2218.1545-4.4168-1.1056-10.3925-6.1978-11.2624-11.0637-.4393-2.4576-.6745-4.9516-.9942-7.6502.1523-.2816.2723-.3739.4248-.5975.057-.0994.2968-.1165.4171-.1212.4327.7774,1.1204,1.6286.9915,2.3296-.5165,2.8086.8092,5.1413,1.3515,7.6947.7471,3.5175,3.4724,4.8463,5.614,6.1166,2.5972,1.5406,5.9692,2.5356,9.3657,1.563.7093-.2031,1.5859.1781,2.4709.587.0914.3906.0973.4842.1032.5779Z" fill="#c1627d"/><path d="M73.2436,136.7886c.17-.7288.3385-1.2653.4994-1.972.1648-.5359.3372-.9016.6904-1.3509,2.6904,3.8554,5.179,7.808,7.733,11.7179.3686.5644.982,1.0856,1.6005,1.3513,4.2249,1.8147,8.5707,3.1016,13.25,2.7588-.0222.2139-.0383.2987-.2042.4266-1.0354.7816-1.921,1.5201-2.919,2.287-.2584.1039-.3549.2202-.5047.4052-.1026.0277-.3005.1051-.4917.1061-2.9985.2169-5.8493.8465-8.6031.5559-4.6065-.4861-7.5365-3.7339-10.092-7.4988-.3188-.6943-.5799-1.2412-.8543-1.9529-.2284-.5425-.4437-.9201-.6164-1.4776.0364-.5444.0303-.9088.0242-1.2733.1621-1.297.3243-2.594.488-4.0832Z" fill="#b35574"/><path d="M83.4076,125.9122c-.7319.8526-1.633,1.6121-2.1633,2.5757-1.4556,2.645-.2165,5.0912.8933,7.4598.8259,1.7627,1.6615,3.5766,2.8385,5.1007.8697,1.1262,2.2031,1.9997,3.4923,2.6765,3.6801,1.932,6.9329,1.0271,9.7788-1.9392,1.3009-1.3559,1.873-2.7846,2.3476-4.5897-.2182,2.724-.5564,5.572-1.0631,8.3983-.3908-.1732-.7551-.5-.8153-.4512-3.2046,2.5943-6.6736.75-10.0496.6938-2.1805-.0363-3.9939-.8134-5.1843-2.4228-1.6717-2.2602-2.8928-4.8478-4.4536-7.1978-1.5739-2.3699-2.0037-4.6146-.0771-6.9969.2458-.304.0936-.9299.2211-1.5383,1.3083-.6841,2.5213-1.2365,3.8598-1.7959.2086.0043.2917.0156.3747.0269Z" fill="#cf7088"/><path d="M72.6372,140.7796c.1245.4567.1307.8212-.07,1.3938-3.0536,1.0356-4.0468,3.9308-3.6907,5.8167.4569,2.4199,2.3368,4.9287,4.2772,6.6317,3.3875,2.973,7.8368,3.1685,12.1684,3.0092.6782-.0249,1.3277-.8278,2.1462-1.2777.3638-.0094.572-.0122.8994.1156,4.6778.3206,8.5002-2.8014,8.5946-6.7919.0161-.0847.0323-.1694.0398-.4021-.0086-.1479-.0541-.1354.0817-.1583.2156-.1785.2955-.3341.358-.4958-.0174-.006-.016.0307.1121-.0009.211-.1824.2938-.3332.3596-.4866-.017-.0026-.0114.0313.106-.0148.1986-.1887.2798-.3313.4685-.4795.1075-.0056.3227-.0102.3227-.0102,1.1271,2.788-.5963,6.8564-3.8864,8.3903-4.0292,1.8785-8.1444,3.6759-12.7896,3.1939-4.3908-.4556-8.5875-1.6338-12.0943-4.3593-4.9755-3.8669-4.5835-10.1854.7436-13.4659.4479-.2758.4718-2.3544,1.8531-.6082Z" fill="#e2e7ec"/><path d="M98.8393,147.4738c-.0285.155-.2437.1596-.4592.2227-.303.1981-.3904.3331-.4779.4682,0,0-.0056-.0339-.103.0212-.1894.192-.2814.3288-.3733.4656,0,0-.0013-.0367-.1017.0178-.1923.193-.2842.3316-.3761.4701,0,0,.0455-.0125.0601.0062-4.6707.4907-9.0164-.7961-13.2414-2.6108-.6185-.2657-1.2318-.7869-1.6005-1.3513-2.554-3.9099-5.0426-7.8625-7.7022-11.8663-.1499-.0649-.2064-.208-.0773-.4025,1.6496-1.8303,3.1702-3.4661,4.6909-5.102-.0322.4768.1201,1.1027-.1257,1.4066-1.9266,2.3824-1.4969,4.6271.0771,6.9969,1.5608,2.35,2.7818,4.9376,4.4536,7.1978,1.1904,1.6094,3.0038,2.3864,5.1843,2.4228,3.376.0562,6.845,1.9005,10.0496-.6938.0602-.0487.4244.278.691.5831-.1504.6332-.345,1.1129-.5682,1.7475Z" fill="#c1627d"/><path d="M25.0588,102.5381c-.2276-.0401-.4553-.0802-.8061-.3961-.3052-2.5067-.4764-4.7386-.6713-6.9684-.7587-8.6801-1.5249-17.3595-2.2884-26.0392,1.58-.7174,3.16-1.4348,4.9293-2.2962.1893-.144.3038-.2623.4376-.2981.3799-.3038.6259-.5717.8529-.852-.0192-.0123.0087.0237.1538-.0213.5311-.504.9171-.9629,1.3032-1.4218,0,0-.0279-.0195.1147-.0822.2937-.3373.4447-.6119.5958-.8864.3543-.3536.7087-.7073,1.3374-1.0926,4.3877,1.4612,8.501,2.9541,12.7579,4.4991-5.3447,11.8269-10.5973,23.4501-15.9627,35.1311-.1904.2043-.2679.3507-.5233.527-.8622.0856-1.5465.1415-2.2307.1974Z" fill="#fafbfa"/><path d="M21.139,69.121c.9175,8.693,1.6838,17.3725,2.4424,26.0526.1949,2.2298.3661,4.4617.5704,6.9104-.6662.2201-1.3548.2224-2.2472.1984-.4344-4.9002-.6649-9.774-1.0446-14.7828-.2483-1.4621-.3474-2.7892-.5154-4.5217-.2153-4.7503-.3615-9.0954-.5078-13.4404.3827-.1433.7655-.2866,1.3023-.4165Z" fill="#6d777f"/><path d="M26.5262,66.5758s-.1145.1183-.1961.127c-1.6461.347-3.2107.6853-4.9494,1.0612.0565-.4121.3219-.9986.1527-1.4035-.3181-.7614-.7286-1.7571-1.3785-2.0608-3.2302-1.509-6.5729-2.6214-9.0783-5.5056-2.6661-3.0693-3.1911-6.4365-2.5259-10.3437.7621,1.9665,1.2418,4.1262,2.0499,6.1551.5309,1.3328,1.3131,2.7309,2.3704,3.6576,3.134,2.7471,6.8297,4.4268,11.0018,5.0277,1.064.1533,2.0844.6096,3.3209,1.1147.2067.5607.2174.9335.2281,1.3063,0,0-.0279-.036-.1627-.0154-.3674.3069-.6.5932-.8326.8796Z" fill="#c1627d"/><path d="M19.7074,69.4858c.2756,4.3968.4219,8.7418.5659,13.3117-.3233-.3026-.8921-.815-.9255-1.36-.2399-3.9298-.3713-7.8661-.5432-12.0069.2538-.1365.5136-.0666.9027.0551Z" fill="#535c64"/><path d="M8.2237,46.5194c.2267.1245.4569.3945.5778.7472-.2643-.1454-.4193-.3735-.5778-.7472Z" fill="#c1627d"/><path d="M27.9258,101.7559c5.2525-11.6231,10.5051-23.2463,15.8498-35.0732-4.2569-1.545-8.3702-3.0379-12.6532-4.608-.1986-.364-.2276-.6508-.2595-1.0826-.003-.145.2237-.1942.5014-.1158,2.4119.8402,4.5454,1.6037,6.6802,2.3636,5.5818,1.987,11.1623,3.9776,16.7494,5.9497.5156.182,1.0743.2416,1.6148.352.0018-.0061-.0031.0017.0157.1519.3323.5257.6458.9013.8054,1.3564-.6396.0433-1.1603.1077-1.6054-.0461-2.6879-.9289-5.3586-1.9077-8.0163-2.8631-.5689,1.1033-1.0076,1.9542-1.6331,2.8078-2.2926-.2996-2.9046,1.244-3.5132,2.7396-.3573.878-.5101,1.8488-.9309,2.6898-1.9075,3.8123-3.99,7.5405-5.7975,11.3983-2.3765,5.0721-4.5545,10.2373-6.9685,15.3793-.3515,0-.5524-.0167-.7654-.2034-.0327-.5121-.0533-.8541-.0739-1.1961Z" fill="#4d565e"/><path d="M56.407,69.5476c-.5387-.1164-1.0974-.1761-1.613-.3581-5.5871-1.9721-11.1676-3.9627-16.7494-5.9497-2.1348-.7599-4.2683-1.5234-6.566-2.3843.065-.7859.2937-1.4728.6322-2.2678,4.5007,1.3379,8.8917,2.7839,13.4697,4.1735.5663.3059.9455.6682,1.5886,1.1833.9874.3613,1.7109.5698,2.6099.7737,1.0486.2866,1.9218.5778,2.7949.869,1.01.4881,2.0199.9762,3.1209,1.6237.065.4068-.046.6849.0301.8953.1801.4976.4491.963.6822,1.4414Z" fill="#747c84"/><path d="M31.4884,50.3737c2.1752,1.1644,2.8806,4.6701,1.1363,6.143-.5139-1.9757-.8479-3.9659-1.1363-6.143Z" fill="#f1eee6"/><path d="M90.5747,125.4485c-.6482-.002-1.2964-.004-2.1385.0129-.6335-.027-1.0731-.073-1.7247-.2995-.6603-3.0851-1.1085-5.9896-1.5769-9.1091-.1839-1.3186-.3534-2.4215-.5106-3.526-1.0321-7.2552-2.0615-14.5107-2.9476-21.8499,2.2508-1.6391,4.3573-3.1944,6.5288-4.8056.0649-.0559.0848-.226.212-.3021.2226-.2457.318-.4153.5385-.6533.3396-.3831.5541-.6978.9449-.9714,5.228,1.924,10.2797,3.807,15.3958,5.7139-5.0067,12.1718-9.8642,23.9809-14.7217,35.7901Z" fill="#fafbfa"/><path d="M83.5381,125.8662c-.2136.0346-.2966.0233-.6065-.1454-1.931-11.5945-3.6351-23.0318-5.1298-34.4915,1.0517-.0288,1.8939-.035,2.6565.1373-.2424,1.7417-.7249,3.3499-.5122,4.8601.9004,6.3908,2.0076,12.7524,3.0316,19.3305.4575,3.4208.9226,6.6358,1.3877,9.8509-.2323.1374-.4646.2748-.8273.4582Z" fill="#4d565e"/><path d="M84.5861,125.4285c-.6858-3.2355-1.1509-6.4505-1.4339-9.8718.7889.0995,1.3957.4053,2.0026.711.4482,2.9045.8964,5.809,1.3924,8.9194-.5483.2246-1.1443.2432-1.9611.2413Z" fill="#77818b"/><path d="M129.7365,87.8508c.0106.7846.0067,1.5697.0373,2.3535.0178.4548.0911.9074.2822,1.4334.8461,6.2418,4.2906,10.3335,10.1517,11.8801,2.8092.7412,5.9539.2105,9.1694.267.0519.3771-.119.7429-.3409,1.3955-.2354.5356-.4197.7845-.6925,1.0915-.1919.1608-.262.2826-.2974.4064.0016-.0171.033-.0033-.1295.01-.3781.3357-.5937.6582-.8244.9718-.0151-.0088.0177-.021-.0971.027-.2053.1832-.2957.3184-.3693.4442.0168-.0095.0351.0246-.1828.0058-4.028-.9819-7.9483-1.6458-11.6159-2.9962-3.3591-1.2369-4.9956-4.4885-6.7405-7.453-1.7751-3.0159-1.061-7.5288,1.6498-9.8369Z" fill="#cf7088"/><path d="M99.5038,127.3213c-.764.4727-1.5279.9455-2.4196,1.5069-1.0291-.4786-1.9305-1.0459-2.859-1.9053.2204-.7006.5274-1.0847.7067-1.5212,4.6871-11.4106,9.361-22.8266,14.2242-34.2563,4.6168,1.602,9.0464,3.2184,13.5063,5.0412-.0576.8931-.1453,1.58-.4273,2.2687-3.7911-.0083-5.862,2.462-7.9167,4.8678-.4026.4714-.603,1.4105-.4441,2.0149.6639,2.5252.3912,5.4202,2.6613,7.3688-.0373.0266-.1176.0706-.2899-.0235-.5898.4106-1.0074.9152-1.5304,1.4467-.1054.0268-.2199-.1582-.2879-.2308-.1532-.0683-.2383-.0639-.3234-.0596.1042.0732.2083.1464.3348.3874-.6266.7471-1.2652,1.3387-1.9263,1.9037-3.6157,3.0903-7.2369,6.1741-10.8562,9.2601,0,0,.0535.0034-.12.0358-.7931.6531-1.4127,1.2739-2.0324,1.8946Z" fill="#fafbfa"/><path d="M108.969,91.1599c-4.6761,11.4151-9.35,22.8312-14.0371,34.2418-.1793.4365-.4863.8206-.7915,1.3891-.6259-.0047-1.1941-.1695-1.8821-.5894,2.3063-6.0718,4.8071-11.8588,7.1357-17.7142,1.9962-5.0196,4.351-9.8673,5.8934-15.1129,1.3995-4.7595,4.0071-9.1638,6.1642-13.8941.2065-1.1685.331-2.1676.6341-3.182,1.814-1.0621,2.2301-2.5484,1.7549-4.5117.1659-.5239.322-.8957.6526-1.2955.529-.4979,1.0028-.919,1.2187-1.4458,1.642-4.0062,3.2335-8.033,4.9955-12.0328.6717.3257,1.1887.6307,1.7056.9358-1.2793,3.5059-2.4765,7.0447-3.8611,10.5085-1.3666,3.4186-.9466,5.3354,1.8807,7.6906-.3314.5185-.5941.8202-1.0231,1.0863-1.3218-.9982-2.4773-1.9609-3.751-3.0222-.0951.4038-.2435,1.0335-.3865,1.8389-1.5375,3.8846-3.0804,7.5937-4.7372,11.5765,4.5205,1.5771,8.7117,3.0392,13.0141,4.5882.1978.1232.2845.1596.3447.3497-.3327.7873-.639,1.4209-1.1176,2.0355-4.5602-1.7055-8.948-3.392-13.5022-5.1424-.1409.7865-.2229,1.2443-.3049,1.7021Z" fill="#6d777f"/><path d="M111.3695,79.6495c-2.075,4.5609-4.6825,8.9652-6.082,13.7248-1.5424,5.2456-3.8972,10.0933-5.8934,15.1129-2.3286,5.8554-4.8294,11.6425-7.2891,17.6201-.5076.0001-.9816-.1607-1.4929-.4901,4.8202-11.9778,9.6777-23.787,14.6844-35.9588-5.1161-1.9069-10.1678-3.7898-15.371-5.8586.0126-.5394.1766-.8929.4492-1.2982.4925-.0246.8765.0025,1.4479.0384,1.0808.4005,1.9703.801,2.8685,1.1813,1.0453.4425,2.0981.8672,3.1885,1.4539.8345.3527,1.6281.5511,2.5977.7678.8621.1654,1.5482.3125,2.3381.5913,1.3585.1065,3.1585,3.248,3.9234-.5895,1.0725-2.1854,1.994-4.2811,3.1294-6.3539.643.0348,1.0722.0466,1.5014.0585Z" fill="#535c64"/><path d="M91.0493,130.1782c3.0679-.1347,5.3989,2.0277,4.7002,4.5412-.3417,1.229-1.767,2.9881-2.7377,3.0113-1.3699.0328-3.1069-1.0272-4.0915-2.1447-1.9714-2.2376-1.2765-3.7631,2.1289-5.4079Z" fill="#e6aebd"/><path d="M77.5924,91.2519c1.7041,11.4372,3.4082,22.8744,5.2137,34.476-1.1116.7168-2.3246,1.2692-3.6329,1.9532-1.616,1.7676-3.1367,3.4034-4.7867,5.1567-11.9053-4.1384-23.6812-8.3943-35.7585-12.7076-.3833-.094-.4651-.1307-.6142-.261-.2827-.1642-.4983-.2349-.7139-.3055.7173-2.8663.1993-5.5928-1.0146-8.5972-.1142-.7177-.1474-1.0879-.0555-1.5663,10.336-7.6589,20.5471-15.2097,30.9129-22.6783,2.9658,3.0012,6.491,4.2672,10.4497,4.5298Z" fill="#fcfcfb"/><path d="M37.1199,119.4807c.3956.1538.6112.2244.7482.4501-.3262.3356-.5738.5161-.8214.6967,0,0-.217-.0502-.3277-.0674-2.232.2135-4.3485.5715-6.4754.6498-5.1996.1914-11.4742-3.0627-12.2669-8.6608-.3278-2.3153-.4813-4.6641-.5409-7.0021-.0136-.5352.6874-1.0886,1.224-1.7038,2.3424.3192,3.3557,2.1401,3.5364,5.8687.0687,1.4164-.1165,2.9845.4267,4.2123,1.6455,3.7191,7.6019,4.889,10.9283,2.3222.8016-.6185,1.5805-1.2663,2.7925-2.2403.2302,2.0822.4132,3.7368.7761,5.4746Z" fill="#db8296"/><path d="M37.2151,120.6232c.0792-.1762.3268-.3568.7201-.5988.2276-.0248.3095.0118.5103.1114-.2747.2029-.6683.343-1.2304.4873Z" fill="#535c64"/><path d="M148.4322,106.2136c.1843-.2489.3686-.4978.6331-.8796,1.0023,1.4684.226,5.7319-1.1473,6.8993-5.4346,4.62-11.8272,6.5206-18.7869,5.8742-2.9847-.2772-5.8527-1.8111-8.9675-2.785.5006-.6337,1.1949-1.2564,2.2113-1.909,7.1258,3.2571,13.9641,3.9332,20.7614.0341,1.6657-.9555,3.5207-1.955,3.4912-4.5239.0386-.3586.0361-.5633.0336-.7679,0,0-.0182-.034.1173-.0117.2009-.1535.2663-.3293.3318-.505,0,0-.0328.0123.1394.0272.3914-.3205.6106-.6559.8299-.9913,0,0-.0315-.0138.068-.0431.2214-.1303.2832-.2599.2848-.4182Z" fill="#dde3eb"/><path d="M34.3844,124.9968c-.1281-.0468-.134-.1405-.1389-.3756.086-.137.171-.1326.3837-.1159.0443.1565-.0391.3005-.2448.4915Z" fill="#b35574"/><path d="M27.6666,65.6667c-.1557-.3278-.1664-.7005-.1793-1.2598.3691-.1848.7403-.1832,1.297-.1717-.2006.4687-.5866.9276-1.1177,1.4315Z" fill="#b35574"/><path d="M29.5185,63.3287c.0107.2221-.1403.4966-.4272.8495-.0021-.2134.1317-.5052.4272-.8495Z" fill="#b35574"/><path d="M81.8809,21.3426c-.02.3661-.2113.7085-.5533,1.0621-.2001-.2315-.2494-.474-.3032-.9017.2254-.1847.4553-.1843.8566-.1603Z" fill="#b35574"/><path d="M82.368,20.8845c.0397.1077-.0324.2694-.2399.4475-.0476-.1202.0403-.2569.2399-.4475Z" fill="#b35574"/><path d="M36.1048,109.5085c.0331.3702.0662.7405.0962,1.2966-.6306.6233-1.5589.9224-1.8349,1.5217-1.3741,2.9848-4.2247,2.7696-6.7311,3.3248-.1427.0316-.3162-.0179-.4622-.0679-2.5124-.8607-4.2858-7.2411-2.4991-9.2083,1.0161-1.1187,1.5812-2.1522.3978-3.651.6716-.2421,1.3559-.2979,2.2508-.2453.3702.2867.5299.4648.6895.643.2009.0167.4017.0334.8884.1326.9848.3673,1.6839.6521,2.4545,1.0623.2211.3707.3707.6161.3287.875-1.3317.3487-2.5092.5919-3.6038,1.0385-2.1961.8962-3.0643,2.7565-2.2234,4.7928.639,1.5474,1.3269,3.2627,3.5684,2.5983,2.8527-.8455,4.0588-2.6109,3.6843-4.9485-.1051-.656.2288-1.3824.4732-1.9775.9155,1.0036,1.7192,1.9082,2.5228,2.8128Z" fill="#e29eae"/><path d="M131.1646,36.9273c.6237.1889,1.2523.5625,1.9052,1.0965-.6172-.197-1.2588-.5544-1.9052-1.0965Z" fill="#db8296"/><path d="M145.9614,88.8115c.1924.1649.2824.2907.5196.4385-.1339,2.3645.823,4.8688-1.1739,6.8939-1.7526,1.7773-3.3324,1.8941-6.7069.2128-1.6003-.7974-2.3651-2.1058-2.092-3.9029.3079-2.0256,2.1897-3.4331,4.6864-3.6485,1.1834-.1021,2.3578-.3085,3.7429-.4695.4311.1542.6555.3103,1.0239.4758Z" fill="#e6aebd"/><path d="M31.1923,47.3384c.1406.4973.1481,1.0331.1471,1.7702-.3265-.2042-.6445-.6097-.9857-1.1768.2197-.2928.4626-.4239.8386-.5934Z" fill="#f1eee6"/><path d="M24.6441,52.2169c-.9174.1755-2.0209.672-2.353.3565-1.1041-1.0488-3.3602-1.7646-2.3388-3.855.7381-1.5107,2.112-2.7107,3.2477-4.105,4.5061,4.4,4.6451,5.284,1.4441,7.6035Z" fill="#e6aebd"/><path d="M77.3388,11.3565c-2.5347,1.6442-4.2129,1.3639-5.6152-.8141-.9441-1.4663.0563-5.3869,1.6016-6.2767,1.3402-.7717,4.597-.2441,5.3518.8671,1.5345,2.259,1.0481,4.7785-1.3382,6.2237Z" fill="#e6aebd"/><path d="M57.6338,25.7474c-6.0962,5.0839-12.1437,9.9663-18.3474,14.8991-.0833-.5381-.0103-1.1266.0912-1.946-1.0977.5272-1.984.9528-3.0406,1.3915,1.2051-1.2297,2.5524-2.5055,3.9622-3.7082,2.7561-2.3512,5.5127-4.7047,8.3436-6.9637.8944-.7137,2.0351-1.114,3.0475-1.6855,2.0402-1.1516,4.0697-2.3223,6.5322-3.7301-.2985.8521-.4193,1.1968-.5887,1.743Z" fill="#606c72"/><path d="M39.0317,40.651c.0795.182-.0188.3025-.2855.4165-.0213-.1187.0707-.2759.2855-.4165Z" fill="#606c72"/><path d="M101.8464,125.4156c3.4291-3.1108,7.0503-6.1945,10.666-9.2848.6611-.5651,1.2997-1.1566,1.9316-1.9387-.0171-.2027.0514-.2202.0514-.2202,0,0,.1145.185.3673.1039.687-.4869,1.1212-.8926,1.5554-1.2983,0,0,.0803-.044.2384-.1155.5478-.2997.9375-.5278,1.488-.7371.2686.0259.3764.0329.4638.2099-1.769,1.8194-3.5675,3.4197-5.2521,5.1321-1.6803,1.708-3.2464,3.5285-4.8625,5.2996-2.1523.958-4.3047,1.916-6.6473,2.8492Z" fill="#606c72"/><path d="M108.6167,122.5679c1.493-1.7726,3.0591-3.593,4.7394-5.301,1.6846-1.7124,3.4832-3.3127,5.2475-5.283.0062-.421-.0032-.5211.0278-.7206.1345-.2228.2591-.2831.4143-.2802,1.3419-.3456,2.6837-.6912,4.5221-1.1647-.4927.7702-.7639,1.5081-1.2849,1.9545-2.4076,2.0632-4.9003,4.0268-7.3231,6.0728-.4646.3923-.7519.9945-1.1377,1.6669-1.5231,1.0874-3.0296,2.0076-4.686,2.9927-.2321.0646-.3142.0643-.5194.0627Z" fill="#6d777f"/><path d="M99.7039,127.3401c.4195-.6396,1.0391-1.2603,1.8147-1.9336-.4342.6157-1.0244,1.2841-1.8147,1.9336Z" fill="#606c72"/><path d="M133.5154,71.2788c-.4748-.2653-1.221-.687-1.3164-1.2242-.2006-1.1293-.0595-2.3192-.045-3.7078.3867.5112.7599,1.246,1.2573,2.098.1254.9533.1265,1.7893.1042,2.834Z" fill="#5b6367"/><path d="M134.5322,81.3963c-.4616-.6798-.9166-1.5512-1.357-2.6106.4642.681.914,1.55,1.357,2.6106Z" fill="#5b6367"/><path d="M133.2638,75.2389c-.0702-.2268-.0321-.5427.1465-.8773.0809.2503.0213.5192-.1465.8773Z" fill="#5b6367"/><path d="M134.2363,84.9731c-.0793-.2764-.0008-.5498.201-.9032.266.1286.4088.337.5651.676-.1937.1637-.4011.197-.7662.2272Z" fill="#5b6367"/><path d="M126.95,109.5877c-.7486-1.0903-1.4972-2.1806-2.4228-3.5114-.7569-1.7483-1.3368-3.2561-1.9442-4.7707-.0275-.0068-.0504.045-.0085-.0762.0758-.1998.1098-.2782.22-.5229.1637-1.0963.2512-2.0265.3574-3.1552,1.2889.3234,2.6823.2838,3.4607.9562,1.2889,1.1134,2.1133,2.7449,3.2544,4.0526,3.1195,3.575,6.7993,6.0876,11.7894,6.2066,1.3338.0318,2.6565.526,3.8823.9339-1.7958,1.0322-3.4897,1.9385-5.386,2.8222-3.2207.7029-6.1745.6133-9.0062-.7759-1.4121-.6927-2.7985-1.4378-4.1965-2.1591Z" fill="#b35574"/><path d="M140.3552,112.5454c1.6939-.9062,3.3878-1.8125,5.3081-2.8967.4587-.309.6908-.44.923-.5711.0707,2.415-1.7843,3.4145-3.45,4.37-6.7973,3.8991-13.6356,3.223-20.6256-.1089.5448-.6372,1.2758-1.2296,2.2901-1.7867,4.5385,3.2727,9.2797,3.4673,14.217,2.1793.514-.1341.8948-.7784,1.3374-1.1859Z" fill="#bec8d3"/><path d="M140.1527,112.5228c-.2401.4301-.621,1.0744-1.135,1.2085-4.9373,1.288-9.6785,1.0933-14.0777-2.2521.5-.6252,1.1441-1.1423,1.8991-1.7754,1.5089.6053,2.8954,1.3504,4.3074,2.0431,2.8318,1.3892,5.7855,1.4788,9.0062.7759Z" fill="#ada8b2"/><path d="M119.1354,110.8527c-.2448.1275-.3694.1877-.6153.4467-.1518.1356-.3843.1624-.4147-.0096-1.9197-2.8818-1.8707-6.3779.0934-9.0033,1.2143-1.6232,2.9387-1.9955,4.3339-.9358,0,0,.0229-.0518-.0125.1178-.6304.8841-1.218,1.605-1.8219,2.312-1.4183,1.6604-1.5544,4.0217-.3285,5.87-.3816.3573-.7631.7146-1.2344,1.2022Z" fill="#d8dfe6"/><path d="M120.5062,109.5929c-1.3623-1.7908-1.2262-4.1521.1921-5.8125.6039-.707,1.1915-1.4279,1.8494-2.3053.6428,1.345,1.2227,2.8528,1.8308,4.5341-1.2265,1.291-2.4811,2.4086-3.8722,3.5837Z" fill="#bac1ca"/><path d="M132.5984,59.2293c-.3194-.3485-.6331-.8781-.9393-1.5904.32.348.6325.8786.9393,1.5904Z" fill="#5b6367"/><path d="M146.6275,108.9237c-.2733.285-.5055.416-.8622.599-1.4523-.23-2.775-.7242-4.1088-.756-4.9902-.119-8.67-2.6316-11.7894-6.2066-1.1411-1.3077-1.9655-2.9392-3.2544-4.0526-.7784-.6724-2.1718-.6328-3.4607-.9562-.1061,1.1287-.1936,2.0589-.4275,2.9632-.1959-.7043-.2455-1.3827-.2951-2.0612.0878-.6868.1755-1.3736.3282-2.3775.1069-.6969.1489-1.0767.1909-1.4566.3062-.6336.6124-1.2673,1.078-2.1655.743-1.2209,1.3266-2.1772,2.0675-3.1529.8393-.6542,1.5214-1.289,2.3325-2,.2412-.2405.3534-.4046.4656-.5688.1745.0299.349.0598.6558.0886.147.2281.1616.4574.1825.8584-2.7046,2.4799-3.4187,6.9928-1.6436,10.0087,1.7449,2.9645,3.3815,6.2161,6.7405,7.453,3.6675,1.3504,7.5879,2.0143,11.6159,2.9962.2204.2234.2229.4281.1843.7867Z" fill="#b95979"/><path d="M130.824,86.3774c.3333-.2419.8618-.4681,1.5736-.7124-.3373.2307-.8579.4794-1.5736.7124Z" fill="#cf7088"/><path d="M129.8076,86.8751c-.0468-.1466.0413-.2822.2589-.3098.1294.1079.1468.322.1468.322-.0903-.0004-.1805-.0008-.4057-.0122Z" fill="#b95979"/><path d="M130.3195,86.8258c-.1062.0615-.1236-.1526-.1268-.2599-.0032-.1073.2154-.2029.3339-.2178.0454.1288-.0278.2725-.207.4777Z" fill="#cf7088"/><path d="M75.1649,1.4548c-.023-.0487-.0974-.034-.0865-.0143.0109.0196.1095.0631.0865.0143Z" fill="#fdfefd"/><path d="M128.8413,86.5772c-.0616.319-.1738.4832-.6013.7232-.7745-.0203-1.4516.0446-1.6597-.237-2.3847-3.2281-5.9697-5.6062-7.0044-9.7943.2627-.3016.5254-.6032.9289-.9656,2.8558,3.3324,5.5708,6.7257,8.3365,10.2738Z" fill="#747c84"/><path d="M122.495,57.7964c-.5988-.1533-1.1158-.4583-1.8386-.8879-.2987-.2552-.4213-.3454-.5736-.395.0804-.2674.1608-.5349.5121-.9049.4877-.4112.7044-.72.9212-1.0287.5709-1.4149,1.1309-2.8433,3.2604-2.4501-.6342,1.8779-1.4169,3.6964-2.2815,5.6666Z" fill="#606c72"/><path d="M118.9118,47.8026c.1573.9772.3968,2.0812.0936,3.0076-.4291,1.311-.0367,1.7425,1.3477,1.8359-.2597,1.173-.6964,2.3458-1.2377,3.8411-1.3915,3.4671-2.6484,6.6246-3.9965,9.7427-.2109.4877-.8365.7961-1.3,1.0341-1.7615-2.4111-3.4933-4.669-5.2828-7.0824-.6914-1.0611-1.3253-1.9666-2.0321-2.9762,2.3665-1.893,4.6578-3.7258,6.9491-5.5586,1.7662-1.2656,3.5324-2.5311,5.4586-3.8442Z" fill="#fafbfa"/><path d="M113.4218,51.4145c-2.2599,2.0652-4.5512,3.898-6.9177,5.791.7068,1.0096,1.3407,1.9151,1.8794,3.0437-.1843.8301-.5619,1.6212-.3124,2.0121,1.0586,1.6588,2.222,3.2703,3.5205,4.7466.5091.5788,1.4732.7573,2.2282,1.3045-.0117.6831-.0214,1.1799-.2003,1.6668-3.3585-1.8822-4.9704-5.043-6.7753-8.0556-.6353-1.0604-1.2327-2.2134-2.1154-3.0371-.9808-.9153-1.5507-.3224-1.6714.9689-4.5322,3.3102-8.9099,6.5542-13.4418,9.7339-.8389-.987-1.5237-1.9097-2.2085-2.8324.6608-.4916,1.3217-.9832,2.2053-1.4282.4748-.2119.7268-.4704.9788-.7289,0,0,.0237.0394.1894.06,3.7183-1.2025,6.7402-3.1824,9.196-6.2288.8545-.5022,1.5488-.9738,2.2432-1.4456,1.8368-1.5139,3.5623-3.1995,5.5462-4.4868,1.5556-1.0094,3.4311-1.5259,5.3594-2.2589.1949.0024.2019.0076.2019.0076.021.3116.0421.6232.0946,1.1671Z" fill="#68737a"/><path d="M102.1535,56.8295c-.6281.6277-1.3224,1.0994-2.1736,1.4449-.1519-.3343-.1469-.5425-.142-.7507.0412-.7039.3561-1.558.0687-2.0814-.6716-1.2228-1.6324-2.2868-2.3358-3.583.6752-.164,1.2101-.1602,1.745-.1563.2483.2712.4965.5425.8557.9004.7126,1.4145,1.3141,2.7423,1.982,4.2261Z" fill="#4d565e"/><path d="M113.3176,50.2389c.0462-.0175.0951-.0318.0768-.0188-.0672.0273-.0741.0221-.0768.0188Z" fill="#68737a"/><path d="M113.7886,69.9891c.0097-.4968.0195-.9936.042-1.854.0145-.4816.0162-.5997.0178-.7177.4339-.3913,1.0596-.6997,1.2704-1.1874,1.3481-3.1181,2.605-6.2756,3.9786-9.5738.2863-.1508.4859-.148.8353-.144.3023.0508.4249.141.5688.3756-1.5562,4.1243-3.1477,8.1511-4.7897,12.1573-.2159.5268-.6897.9478-1.2814,1.3335-.3722-.1861-.5071-.2878-.642-.3895Z" fill="#5b666d"/><path d="M121.362,54.6011c-.0627.2874-.2795.5962-.6503.9259.0627-.2875.2795-.5961.6503-.9259Z" fill="#5b666d"/><path d="M75.6809,62.6819c.3816.0252.7633.0503,1.3346.0502,1.659.2937,3.1283.6127,4.6922,1.0959-.9502.8125-2.0246,1.418-3.0328,2.119-1.5099,1.0498-2.5209,2.1453-2.6095,4.3653-.1248,3.1241,1.5204,4.4989,3.7152,6.0341,2.8139,1.9684,5.1924,2.0588,7.5136-.3518,1.0893-1.1312,2.0149-2.4199,3.147-3.5069.34,2.7644.5478,5.3985.6136,8.0544-.2365.0387-.331.0555-.5939.1042-3.1603,2.3342-6.4189.6532-9.5554.5985-.7916-.0138-1.6931-.4748-2.3365-.9896-1.9451-1.5565-3.8768-3.1515-5.6404-4.9056-1.207-1.2004-2.2077-2.492-1.8094-4.6002.4051-2.1439.1264-4.417.1471-6.6335.7707-.3506,1.5414-.7012,2.5374-1.1555.307-.1189.3886-.1342.6477-.1407.5282-.0401.8788-.0889,1.2295-.1377Z" fill="#db8296"/><path d="M90.3089,72.3574c-.9998,1.2173-1.9255,2.5061-3.0148,3.6373-2.3212,2.4107-4.6997,2.3202-7.5136.3518-2.1947-1.5352-3.8399-2.91-3.7152-6.0341.0886-2.22,1.0996-3.3155,2.6095-4.3653,1.0082-.7009,2.0826-1.3065,3.2245-2.0934,1.8041.8083,3.5111,1.7552,5.3629,2.8027.8296,1.0233,1.5143,1.946,2.3622,3.1043.3369,1.0226.5107,1.8096.6844,2.5967M84.5035,67.1173c-.7223-.0004-1.4477.042-2.1663-.0096-1.7541-.1261-3.3765.2134-3.7556,2.1463-.2174,1.1086-.1811,2.7292.4756,3.45,1.3325,1.4625,2.8992,3.2171,5.3255,2.3144.69-.2567,1.3712-.8746,1.7645-1.5081.5311-.8554.8029-1.8779,1.1454-2.843.706-1.9891-.1416-3.2478-2.7892-3.5501Z" fill="#de94a5"/><path d="M99.6848,57.5752c.1482.1567.1432.3649.1349.7297-2.2989,3.1725-5.3208,5.1523-9.062,6.3566,2.7989-2.3575,5.7864-4.6962,8.9271-7.0863Z" fill="#5b666d"/><path d="M91.622,42.045c.0527.153.1431.279.3927.587.4189.4322.7163.6554,1.0137.8786,0,0,.0301.2218.0537.5105.3403,1.294.6569,2.2994.9645,3.3143-.009.0095-.0269.0287-.0269.0287-1.2801-1.6403-2.5601-3.2805-3.8605-5.1027-.0203-.1819.028-.2281.2073-.2287.5381.0037.8968.008,1.2555.0124Z" fill="#4d565e"/><path d="M81.9928,29.496c.5457.7546,1.0914,1.5091,1.7761,2.5198.1466.6129.1541.9697.0727,1.4177-.1429.1568-.1969.2224-.2509.288-1.0137-1.2762-2.0274-2.5524-3.0871-3.9859-.046-.1573-.0021-.1989.2004-.22.5646-.0206.9267-.0201,1.2887-.0196Z" fill="#535c64"/><path d="M84.885,33.3542c.4035.7298.807,1.4595,1.3555,2.5794.2603.7628.3756,1.1355.491,1.5082-.9913-1.1433-1.9825-2.2865-3.0573-3.575-.0295-.2108.0244-.2764.326-.4267.46-.085.6724-.0854.8848-.0858Z" fill="#535c64"/><path d="M99.2592,51.5508c-.4784.1484-1.0133.1446-1.7489.1527-.3684-.0135-.4874-.1034-.5126-.516.1673-.6482.2894-1.0382.4116-1.4281.5978.5464,1.1956,1.0928,1.8499,1.7915Z" fill="#5b666d"/><path d="M95.4818,47.3475c.0858.2638.1715.5275.3688,1.0544.118.6213.1245.9795.117,1.3526-.0141.0149-.0419.0448-.0419.0448-.6098-.7099-1.2196-1.4198-1.8677-2.2824-.0383-.1528-.0205-.1721.1668-.1768.5439-.0007.9005.0034,1.2571.0075Z" fill="#4d565e"/><path d="M88.21,39.8401c.5368.093,1.1148.3379,1.8334.8429.1416.6235.1426.9869.1437,1.3503,0,0-.0483.0462-.0725.0691-.6372-.6882-1.2503-1.3993-1.9046-2.2623Z" fill="#4d565e"/><path d="M86.7446,37.453c-.1285-.3839-.2438-.7566-.3785-1.4176.4564.2368.9322.7618,1.1539,1.4548-.4237.1833-.5933.1985-.7628.2138-.0179-.0826-.0177-.1625-.0125-.251Z" fill="#606c72"/><path d="M86.7282,37.8334c.1985-.1447.3681-.16.7924-.1564.422.5629.5892,1.1071.7263,1.8232-.5359-.3978-1.0418-.9676-1.5187-1.6668Z" fill="#4d565e"/><path d="M97.4087,49.7596c-.1216.3896-.2437.7796-.4261,1.3129-.3703-.233-.6804-.6093-1.0237-1.1294-.0333-.1438-.0054-.1737.187-.1846.5493-.0071.9062-.0033,1.263.0006,0,0-.0008.0009-.0002.0006Z" fill="#4d565e"/><path d="M90.4471,64.6203c-.1079.238-.36.4965-.6976.6352.1274-.2848.3405-.4498.6976-.6352Z" fill="#5b666d"/><path d="M71.1351,64.1343c.1105,2.1981.3892,4.4712-.0159,6.6151-.3984,2.1083.6024,3.3998,1.8094,4.6002,1.7637,1.7541,3.6953,3.3491,5.6404,4.9056.6434.5149,1.5448.9758,2.3365.9896,3.1365.0546,6.395,1.7357,9.5548-.4428.0069.503-.1542.8822-.447,1.3286-4.7756,2.3752-11.9247,2.904-16.5974-2.7135-1.2964-1.5585-3.0873-2.8443-3.9417-4.6004-1.3975-2.8726-1.2101-6.0776-.5468-9.1989,0,0,.0232.0286.1194-.0156.1921-.1754.288-.3065.3839-.4377,0,0,.0088.0262.1522.0066.3645-.205.5856-.3904.8067-.5757.2047-.1476.4095-.2951.7454-.4611Z" fill="#cf7088"/><path d="M68.7666,65.648c-.5024,3.0911-.6898,6.2961.7077,9.1687.8544,1.7562,2.6453,3.0419,3.9417,4.6004,4.6727,5.6176,11.8218,5.0887,16.6248,2.8368.1813.1371.2034.2183.2254.2994-.1641.3535-.3282.7071-.5171,1.2053-.2393.4594-.4538.774-.9317,1.2203-.3514.3098-.4393.488-.5272.6663,0,0-.02.1701-.2786.2262-2.1413.0549-4.0239.0578-5.9066.0517-4.2051-.0136-7.4463-1.7539-9.9495-5.1717-.6996-.9552-2.108-1.3914-3.195-2.2471-.0759-.4861-.0465-.9511-.2357-1.0709-2.2325-1.4136-2.1745-3.6156-2.2225-5.8673-.018-.8411-.5579-1.6711-.8598-2.5062.9878-1.1273,1.9755-2.2545,3.1242-3.412Z" fill="#c1627d"/><path d="M74.2739,62.811c-.0816.0153-.1633.0305-.3681.0281-.9301-6.4061-1.7453-12.7935-2.5321-19.1844-.0869-.7063-.011-1.4326.0177-2.364.0284-.2144.2663-.212.3858-.2159.3304-.0013.5414.0013.9117.0072.298.8425.4368,1.6816.5933,2.9.0324.9063.0471,1.4333.0619,1.9603.0015.4894.003.9788.0009,1.8037.1514.5742.3065.813.4616,1.0518.2915,1.957.583,3.914.7129,6.1077-.3378.9394-.6787,1.647-.6582,2.3441.0544,1.8562.2644,3.7079.4126,5.5614Z" fill="#4d565e"/><path d="M65.5348,69.1709c.4095.7242.9495,1.5542.9674,2.3953.048,2.2518-.01,4.4537,2.2225,5.8673.1892.1198.1599.5848.2336,1.0732.0015.1838-.0012.1869-.1735.1678-2.6442-1.3656-4.09-1.1557-5.4128.5473.0059-1.862.1082-3.5432.2482-5.4264.0503-.7516.0627-1.3013.1925-1.9375.3444-.6138.5714-1.141.7985-1.6683.272-.3026.544-.6052.9236-1.0187Z" fill="#b95979"/><path d="M52.5961,65.4119c-.8954-.1159-1.7685-.4071-2.8511-.8825.7986-2.6348,1.8065-5.0854,2.8878-7.6281.1651-.2253.2855-.3234.4344-.3864,1.4977.7252,1.6861,2.0363,1.3145,3.4066-.4879,1.7988-1.1666,3.5459-1.7856,5.4905Z" fill="#f1f2f3"/><path d="M64.4405,70.1181c-.0564.5988-.2835,1.126-.7987,1.6722-1.795-.4255-3.3018-.8699-4.8923-1.466-.837-.3615-1.5904-.5713-2.3438-.7812,0,0,.0049-.0077.0031-.0016-.2349-.4723-.5039-.9377-.684-1.4353-.0761-.2104.0349-.4885.1344-.8489,2.8525.8544,5.6316,1.8218,8.5812,2.8608Z" fill="#77818b"/><path d="M53.0842,56.3399c-.166.2379-.2863.336-.6318.5553-1.8585-.063-1.1389-1.0214-.9228-1.8164.3504-1.2891.687-2.5821,1.0295-3.8734.0828-.2678.1655-.5357.3648-.886.6657-.2875,1.2148-.4926,1.8306-.7226.1325.2836.2859.6119.5533,1.0261-.6596,1.9046-1.4331,3.7232-2.2236,5.7168Z" fill="#6d777f"/><path d="M70.246,64.6298c-.0774.1509-.2985.3362-.6736.5323.074-.1588.302-.3283.6736-.5323Z" fill="#c1627d"/><path d="M69.3059,65.1998c.029.0959-.0669.2271-.2766.4079-.0253-.0911.0632-.2319.2766-.4079Z" fill="#c1627d"/><path d="M95.4673,47.177c-.3421.1664-.6988.1624-1.2336.1536-.4949-1.0101-.8115-2.0154-1.1396-3.1982.7786.8398,1.5687,1.8569,2.3732,3.0446Z" fill="#5b666d"/><path d="M81.9767,29.3326c-.346.1629-.7081.1624-1.2509.1621-.1844-.6681-.188-1.3363-.1883-2.2055.4766.4927.9499,1.1863,1.4392,2.0434Z" fill="#606c72"/><path d="M97.3941,49.5952c-.342.16-.6989.1562-1.2341.1484-.1849-.3621-.1913-.7203-.1957-1.2579.473.1956.944.5706,1.4299,1.1095Z" fill="#5b666d"/><path d="M90.3664,42.0327c-.1804-.3627-.1814-.7261-.1795-1.2716.4712.1972.9393.5767,1.4213,1.12-.3449.1596-.7037.1553-1.2418.1516Z" fill="#5b666d"/><path d="M84.8714,33.1998c-.1988.1548-.4112.1551-.7822.149-.1662-.3633-.1738-.7201-.1792-1.2558.3174.1982.6326.5753.9614,1.1068Z" fill="#606c72"/><path d="M93.0214,43.3536c-.2905-.0662-.5879-.2894-.904-.6644.2865.0679.5918.2877.904.6644Z" fill="#5b666d"/><path d="M52.4243,51.3034c-.2077,1.1934-.5443,2.4863-.8947,3.7755-.2161.7949-.9358,1.7533.8494,1.9085-.8276,2.4566-1.8355,4.9072-2.8096,7.5466-.6896-.0197-1.4131-.2281-2.2217-.5772.9741-2.9303,2.0044-5.7315,3.1046-8.5049.5461-1.3765,1.2207-2.702,1.9719-4.1484Z" fill="#606c72"/><path d="M74.4514,62.8197c-.3256-1.8622-.5356-3.7139-.5901-5.5701-.0205-.697.3204-1.4046.6759-2.1525.4855,2.3752.7916,4.7954,1.1207,7.4002-.3277.2334-.6784.2822-1.2065.3223Z" fill="#5b6367"/><path d="M73.5053,45.8986c-.1759-.4833-.1906-1.0103-.202-1.7345,1.3217.2037,1.2523.8691.202,1.7345Z" fill="#5b6367"/><path d="M73.9112,48.7135c-.2597-.1544-.4148-.3932-.5592-.784.2283.1318.446.4158.5592.784Z" fill="#5b6367"/><path d="M74.2597,145.723c2.4978,3.6175,5.4278,6.8653,10.0343,7.3514,2.7538.2906,5.6046-.3389,8.5767-.3883-1.4314,1.0036-3.0277,1.8407-4.8497,2.6723-4.248-.0847-8.3444.5858-12.0012-2.0221-2.5695-1.8325-3.6423-5.7796-1.7602-7.6133Z" fill="#ada8b2"/><path d="M87.3126,156.36c-.6628.4432-1.3123,1.246-1.9905,1.271-4.3316.1593-8.7808-.0362-12.1684-3.0092-1.9404-1.703-3.8203-4.2118-4.2772-6.6317-.3561-1.8859.637-4.7811,3.6481-5.6368.3795.3494.5948.727.6752,1.226-.4002.2015-.8039.1982-.9101.3744-1.5085,2.5017-1.398,6.674.8535,8.4222,2.215,1.7198,4.9226,3.0243,7.6175,3.8348,2.0166.6064,4.3562.1388,6.552.1494Z" fill="#cad4de"/><path d="M87.4683,156.3533c-2.3515-.0039-4.6912.4638-6.7078-.1427-2.6949-.8105-5.4025-2.115-7.6175-3.8348-2.2515-1.7482-2.3619-5.9205-.8535-8.4222.1062-.1762.51-.1729.9233-.2096.4091.5904.6703,1.1373.9891,1.8316-1.8244,1.9811-.7517,5.9282,1.8178,7.7607,3.6568,2.6079,7.7532,1.9374,12.002,2.1843.2265.3844.2265.6011.2265.8178-.2081.0027-.4162.0054-.7801.0149Z" fill="#bec8d3"/><path d="M88.3677,156.4689c-.1193-.3472-.1193-.5639-.1202-.9428,1.5955-.9993,3.1918-1.8364,4.8145-2.841.0263-.1675.2242-.245.445-.2905.3726-.1246.4653-.2481.499-.4159.8856-.7384,1.7712-1.4769,2.8066-2.2585.0554,3.9473-3.767,7.0693-8.4448,6.7487Z" fill="#cad4de"/><path d="M93.8935,152.0072c.0788.1393-.0139.2628-.2839.3597-.071-.1395.0256-.2559.2839-.3597Z" fill="#ada8b2"/><path d="M97.0838,149.1167c-.0439-.1157.048-.2542.2576-.4412.0379.1071-.042.2627-.2576.4412Z" fill="#b35574"/><path d="M97.554,148.62c-.0362-.1052.0557-.242.2621-.4314.0316.0982-.0512.249-.2621.4314Z" fill="#b35574"/><path d="M98.0196,148.1186c-.03-.089.0575-.224.253-.4165.0268.0852-.0544.2278-.253.4165Z" fill="#b35574"/><path d="M27.9997,102.952c-.1475-.0081-.3072-.1862-.4995-.5027.0448-.2847.1223-.4312.3128-.6355.1335.2841.1541.6261.1868,1.1382Z" fill="#68737a"/><path d="M26.66,66.54c.0988-.2505.3314-.5368.718-.8314-.0921.2597-.3382.5276-.718.8314Z" fill="#b35574"/><path d="M63.5824,73.9974c-.1022,1.6813-.2045,3.3625-.193,5.398.4656,1.5863.8175,2.8185,1.0195,4.1135-7.5063,5.5863-14.8464,11.1319-22.2275,16.6224-2.8824,2.1441-5.8569,4.1641-8.841,6.0899-.2145-.2786-.3775-.4064-.6559-.5616-.1154-.0274-.3519-.0076-.3627.0051s.0225.0117-.016-.1086c-.1804-.2058-.3223-.2914-.456-.3663.0082.0107.0252-.0113.0252-.0113-.1496-.2454-.2992-.4908-.4742-1.0279,4.9034-11.2627,9.8323-22.2337,14.7611-33.2048.4387-.8509.8775-1.7019,1.4464-2.8051,2.6577.9554,5.3283,1.9342,8.0163,2.8631.4451.1538.9657.0893,1.6853.0857.2339-.04.4087-.0756.5004.0766,1.9852,1.0453,3.8786,1.9383,5.7721,2.8314Z" fill="#fafbfa"/><path d="M45.9752,70.9484c-4.7422,10.9684-9.671,21.9394-14.646,33.0769-.7452-.1184-1.4443-.4033-2.2784-.7873,2.1283-5.2244,4.3062-10.3896,6.6827-15.4618,1.8076-3.8578,3.89-7.5861,5.7975-11.3983.4208-.841.5737-1.8117.9309-2.6898.6086-1.4956,1.2206-3.0392,3.5132-2.7396Z" fill="#68737a"/><path d="M57.7185,71.0138s-.1748.0355-.2548-.0041c-.3935-.4151-.707-.7906-1.0393-1.3164.7346.0596,1.4879.2694,2.2271.7603-.3205.3741-.6268.4672-.9331.5602Z" fill="#747c84"/><path d="M68.9619,78.6882c1.0854.6719,2.4939,1.108,3.1935,2.0632,2.5032,3.4178,5.7444,5.1581,9.9495,5.1717,1.8827.0061,3.7653.0032,5.8418.0042-1.9129,1.5551-4.0194,3.1104-6.4157,4.7486-.5241.226-.7586.369-.993.5121-.8422.0062-1.6845.0125-2.7361.0412-4.1681-.24-7.6933-1.5061-10.6569-4.6688-.1909-.673-.2291-1.1023-.0351-1.5552,1.1911-.0315,2.1605.0437,3.1051-.076.6566-.0832,1.2792-.4343,1.917-.6656-.2729-.5954-.4976-1.2193-.8285-1.7805-.7545-1.2795-1.561-2.5283-2.3463-3.7896,0,0,.0027-.0031.0049-.0055Z" fill="#b95979"/><path d="M80.4583,91.3666c.3141-.3216.5485-.4646.9285-.6069,1.1758,7.2563,2.2052,14.5118,3.2373,21.767.1571,1.1046.3266,2.2074.5106,3.526-.5867-.0907-1.1935-.3965-1.9748-.7018-1.2061-6.3718-2.3133-12.7334-3.2137-19.1242-.2127-1.5102.2698-3.1185.5122-4.8601Z" fill="#6d777f"/><path d="M88.4172,85.5691c-.0392-.1021.0487-.2804.2751-.5217.0429.1065-.0525.276-.2751.5217Z" fill="#b95979"/><path d="M147.9168,106.6882c-.0567.3221-.2759.6575-.6522.9868.0585-.3286.2741-.651.6522-.9868Z" fill="#b95979"/><path d="M148.3437,106.2717c.0869.1001.0251.2297-.1978.3771-.0642-.0945.006-.2163.1978-.3771Z" fill="#b95979"/><path d="M146.9953,107.687c.0494.1278-.016.3036-.2338.4665-.062-.1481.0285-.2833.2338-.4665Z" fill="#b95979"/><path d="M122.2351,98.4553c.2438.6766.2933,1.355.413,2.2254.0362.2704.0022.3489-.0736.5487-1.437-.9384-3.1614-.5661-4.3757,1.0571-1.9641,2.6254-2.0131,6.1216-.1298,9.115-.0059.2836-.0854.5045-.0854.5045-.3897.2281-.7794.4563-1.2899.7294-2.4282-1.8771-2.1555-4.7721-2.8194-7.2973-.1589-.6044.0415-1.5436.4441-2.0149,2.0547-2.4058,4.1257-4.8761,7.9167-4.8678Z" fill="#f1f2f3"/><path d="M122.776,94.6002c.1304.399.0884.7788-.0487,1.2694-4.5248-1.5058-8.9544-3.1222-13.5712-4.7242-.1051-.4432-.0231-.901.1178-1.6875,4.5541,1.7504,8.9419,3.4368,13.5022,5.1424Z" fill="#4d565e"/><path d="M116.2457,112.6834c-.2619.4998-.6961.9055-1.2776,1.3656.2702-.4503.6878-.955,1.2776-1.3656Z" fill="#f1f2f3"/><path d="M114.4216,114.0244c-.1094-.0383-.2135-.1115-.3177-.1847.0851-.0043.1703-.0087.3234.0596.068.0726-.0005.0902-.0057.1251Z" fill="#f1f2f3"/><path d="M123.4377,92.1283c-4.1912-1.4622-8.3824-2.9243-12.9029-4.5014,1.6568-3.9828,3.1998-7.6919,4.8998-11.5711,3.3183,3.9651,6.4795,8.1004,9.4333,12.2513-2.5653.6576-.9235,2.5845-1.4302,3.8212Z" fill="#fafbfa"/><path d="M113.6194,69.9792c.3041.1117.4389.2134.6366.4274-.0933.4841-.2494.856-.5503,1.4834-.6961,1.6449-1.2474,3.0341-1.7986,4.4234-.1244.9991-.2489,1.9983-.4554,3.1667-.5113.1575-.9405.1457-1.5256-.0676.5259-1.964,1.3934-3.6832,1.819-5.5055.2493-1.0672.1794-2.5699-.4111-3.4098-2.5746-3.6627-5.3926-7.1542-8.1221-10.7079-.0338-1.2251.5361-1.818,1.5169-.9027.8826.8237,1.4801,1.9767,2.1154,3.0371,1.8049,3.0126,3.4167,6.1733,6.7753,8.0556Z" fill="#4d565e"/><path d="M125.0754,88.2914c-3.1612-4.1353-6.3224-8.2706-9.6462-12.4113-.0141-.6352.1343-1.2649.2294-1.6687,1.2737,1.0612,2.4292,2.024,3.751,3.0222,1.201,4.2236,4.7859,6.6017,7.1707,9.8298.208.2816.8851.2167,1.5307.3133-.4957.6352-1.1779,1.27-2.0779,1.8002-.4645-.3649-.7111-.6251-.9577-.8854Z" fill="#535c64"/><path d="M124.8679,88.3071c.4541.2446.7007.5048,1.0081.8892-.5229,1.0804-1.1066,2.0367-1.823,3.1039-.2195.0745-.3062.0381-.504-.0851.3955-1.3234-1.2463-3.2504,1.319-3.908Z" fill="#f1eee6"/><path d="M112.0857,76.2981c.3725-1.374.9238-2.7632,1.6101-4.2561.62,1.7077.204,3.194-1.6101,4.2561Z" fill="#5b666d"/><path d="M103.0573,59.8554c2.8841,3.4875,5.7021,6.9791,8.2766,10.6417.5905.8399.6604,2.3426.4111,3.4098-.4256,1.8224-1.2931,3.5415-2.0329,5.4825-.9794,2.2743-1.9009,4.37-3.1357,6.4714-1.4796-.397-2.6459-.7996-3.9399-1.3041-3.5701-1.2304-7.0125-2.359-10.5248-3.6223-.3516-.2279-.6332-.3211-.9149-.4142-.2078-2.634-.4156-5.2681-.7556-8.0325-.306-.9174-.4798-1.7044-.6625-2.6628,4.3687-3.4154,8.7464-6.6594,13.2786-9.9696Z" fill="#fafbfa"/><path d="M92.1817,81.0692c3.4423,1.1285,6.8847,2.2571,10.4425,3.7065.1061.7562.0967,1.1916.0874,1.627-.6861-.1471-1.3722-.2942-2.3379-.5889-1.0313-.3627-1.7832-.5777-2.535-.7928-1.0495-.4324-2.1023-.8572-3.1476-1.2997-.8982-.3803-1.7877-.7808-2.8697-1.3493-.0056-.5522.1774-.9275.3604-1.3028Z" fill="#77818b"/><path d="M102.8153,86.5344c-.0944-.5671-.0851-1.0025-.0634-1.6568,1.1786.1837,2.3449.5863,3.6735,1.0729-.4516,3.8319-2.2516.6903-3.6101.5839Z" fill="#68737a"/><path d="M92.1117,80.9344c-.113.5101-.296.8854-.4778,1.4287-.3828.141-.7668.1139-1.2593.1385-.1306-.0294-.1527-.1106-.2022-.3149.1336-.5024.2947-.8816.4563-1.4165.095-.1725.1895-.1894.426-.2281.4237.0712.7054.1643,1.057.3923Z" fill="#68737a"/><path d="M97.8795,85.1753c.7109.0608,1.4628.2759,2.3182.6202-.6901-.0691-1.4837-.2675-2.3182-.6202Z" fill="#68737a"/><path d="M66.8776,85.0289c.0383.4293.0765.8587.1125,1.4495-10.2133,7.7122-20.4243,15.263-30.7604,22.9219-.9286-.7964-1.7323-1.701-2.6414-2.7689-.1054-.1632-.1964-.2595-.1964-.2595,2.9326-2.0766,5.9071-4.0966,8.7895-6.2407,7.3811-5.4905,14.7211-11.0361,22.364-16.526.9683.497,1.6503.9603,2.3322,1.4237Z" fill="#5b6367"/><path d="M33.3404,106.2211c.0516.1508.1425.2471.1362.3113-.1389.7583-.4728,1.4847-.3677,2.1407.3745,2.3375-.8316,4.1029-3.6843,4.9485-2.2415.6644-2.9294-1.051-3.5684-2.5983-.8409-2.0363.0273-3.8967,2.2234-4.7928,1.0946-.4466,2.2721-.6898,3.6038-1.0385.1916-.0135.1746.0085.2173.1103.1763.1926.31.2833.4436.3741,0,0-.0333.0009.011.0754.1777.0281.3112-.0183.4447-.0648.163.1278.3259.2556.5405.5341Z" fill="#e6aebd"/><path d="M118.1445,111.9249c-.1608-.0189-.0813-.2398-.045-.3514.0363-.1117.2688-.1385.3802-.1746.1208.064.1302.1641.1443.4151-.1031.1438-.2109.1368-.4795.111Z" fill="#5b666d"/><path d="M113.8189,67.2641c.0279.2713.0263.3894.0137.6847-.7678-.1836-1.732-.3621-2.2411-.9409-1.2985-1.4763-2.4619-3.0878-3.5205-4.7466-.2494-.3909.1282-1.182.37-1.8565,1.8846,2.1904,3.6164,4.4482,5.3779,6.8593Z" fill="#77818b"/><path d="M84.7169,67.1177c2.4343.3019,3.2819,1.5607,2.5759,3.5497-.3426.9651-.6143,1.9876-1.1454,2.843-.3933.6335-1.0745,1.2514-1.7645,1.5081-2.4264.9027-3.993-.8519-5.3255-2.3144-.6567-.7208-.693-2.3414-.4756-3.45.3791-1.933,2.0014-2.2725,3.7556-2.1463.7186.0517,1.444.0093,2.3796.01M84.6202,68.9673c-1.4756-1.5022-3.1277-1.2866-4.4072.0188-1.3738,1.4017-.2902,2.8028.8863,3.6439.6892.4927,2.5115.6871,2.6932.3692.6234-1.0906.7476-2.4666.8277-4.0319Z" fill="#e29eae"/><path d="M67.1099,85.0054c-.9142-.4399-1.5961-.9032-2.4146-1.463-.4884-1.3286-.8403-2.5608-1.2096-3.9664,1.2091-2.0571,2.6549-2.2671,5.2991-.9014.9577,1.2804,1.7642,2.5292,2.5187,3.8087.3309.5612.5556,1.1851.8285,1.7805-.6378.2314-1.2604.5825-1.917.6656-.9447.1197-1.9141.0445-3.1051.076Z" fill="#af496d"/><path d="M57.8103,71.166c.2146-.2452.5209-.3383.925-.5607,1.6047.3151,3.1115.7595,4.7892,1.2716.1584.6173.1459,1.1669.0956,1.9186-1.9312-.6911-3.8247-1.5842-5.8099-2.6294Z" fill="#5b6367"/><path d="M32.3058,105.5561c-.0952.0295-.2288-.0612-.4133-.2645.091-.0269.233.0586.4133.2645Z" fill="#e29eae"/><path d="M32.6845,105.6596c-.018.0739-.1516.1203-.3185.0795-.0334-.0871.2031-.107.3185-.0795Z" fill="#e29eae"/><path d="M84.7374,69.1163c-.1973,1.4163-.3214,2.7923-.9449,3.8829-.1817.3179-2.004.1235-2.6932-.3692-1.1765-.8411-2.26-2.2422-.8863-3.6439,1.2795-1.3055,2.9316-1.521,4.5243.1302Z" fill="#e6aebd"/></g></svg>