<?xml version="1.0" encoding="UTF-8"?>
<svg id="_レイヤー_1" xmlns="http://www.w3.org/2000/svg" version="1.1" viewBox="0 0 1500 700">
  <!-- Generator: Adobe Illustrator 29.6.1, SVG Export Plug-In . SVG Version: 2.1.1 Build 9)  -->
  <defs>
    <style>
      .st0, .st1, .st2, .st3, .st4, .st5, .st6, .st7, .st8, .st9, .st10, .st11, .st12, .st13, .st14, .st15, .st16, .st17, .st18, .st19, .st20, .st21, .st22, .st23 {
        isolation: isolate;
      }

      .st0, .st1, .st11, .st15, .st16 {
        font-size: 10px;
      }

      .st0, .st9, .st24, .st18, .st20, .st21 {
        fill: #0068b7;
      }

      .st0, .st11, .st15, .st16 {
        font-family: HiraKakuProN-W6-83pv-RKSJ-H, 'Hiragino Kaku Gothic ProN';
      }

      .st1 {
        fill: #ccc;
      }

      .st1, .st2, .st6, .st12, .st13, .st14, .st19 {
        font-family: Helvetica, Helvetica;
      }

      .st2, .st6, .st22 {
        font-size: 9px;
      }

      .st2, .st14 {
        fill: #999;
      }

      .st3 {
        stroke: #1a1a1a;
      }

      .st3, .st5 {
        opacity: 0;
      }

      .st3, .st16 {
        fill: #1a1a1a;
      }

      .st25 {
        fill: #f0f7ff;
      }

      .st25, .st26 {
        stroke: #b0d4ee;
      }

      .st4 {
        font-size: 7px;
      }

      .st4, .st9, .st10, .st17, .st18, .st22, .st23 {
        font-family: KozGoPr6N-Regular-83pv-RKSJ-H, 'Kozuka Gothic Pr6N';
      }

      .st4, .st12, .st17, .st19 {
        fill: #aaa;
      }

      .st27 {
        stroke: #0068b7;
      }

      .st27, .st6, .st7, .st28, .st23 {
        fill: #fff;
      }

      .st27, .st26 {
        stroke-width: 1.5px;
      }

      .st5 {
        stroke: #005f73;
      }

      .st5, .st15 {
        fill: #005f73;
      }

      .st7 {
        font-size: 16px;
        letter-spacing: .1em;
      }

      .st7, .st20, .st21 {
        font-family: HelveticaNeue-Bold, 'Helvetica Neue';
        font-weight: 700;
      }

      .st9, .st21, .st23 {
        font-size: 12px;
      }

      .st10, .st11, .st13, .st22 {
        fill: #666;
      }

      .st10, .st12, .st13, .st17, .st18 {
        font-size: 11px;
      }

      .st29 {
        fill: #f8f8f8;
        stroke: #d0d0d0;
      }

      .st30 {
        stroke: #e0e0e0;
      }

      .st30, .st26 {
        fill: none;
      }

      .st14 {
        font-size: 13px;
      }

      .st19 {
        font-size: 8px;
      }

      .st20 {
        font-size: 24px;
      }
    </style>
  </defs>
  <rect class="st28" y="0" width="1500" height="700"/>
  <g class="st8">
    <g class="st8">
      <text class="st20" transform="translate(60 52)"><tspan x="0" y="0">SITEMAP — YUMEHO</tspan></text>
    </g>
  </g>
  <g class="st8">
    <g class="st8">
      <text class="st14" transform="translate(60 76)"><tspan x="0" y="0">Product Site Structure — Gait Rehabilitation System</tspan></text>
    </g>
  </g>
  <line class="st30" x1="60" y1="92" x2="1440" y2="92"/>
  <rect class="st24" x="590" y="120" width="320" height="56" rx="8" ry="8"/>
  <g class="st8">
    <g class="st8">
      <text class="st7" transform="translate(709.3 154)"><tspan x="0" y="0">YUMEHO</tspan></text>
    </g>
  </g>
  <g>
    <line class="st26" x1="750" y1="176" x2="750" y2="210"/>
    <line class="st26" x1="90" y1="210" x2="1422" y2="210"/>
    <line class="st26" x1="90" y1="210" x2="90" y2="240"/>
    <line class="st26" x1="238" y1="210" x2="238" y2="240"/>
    <line class="st26" x1="386" y1="210" x2="386" y2="240"/>
    <line class="st26" x1="534" y1="210" x2="534" y2="240"/>
    <line class="st26" x1="682" y1="210" x2="682" y2="240"/>
    <line class="st26" x1="830" y1="210" x2="830" y2="240"/>
    <line class="st26" x1="978" y1="210" x2="978" y2="240"/>
    <line class="st26" x1="1126" y1="210" x2="1126" y2="240"/>
    <line class="st26" x1="1274" y1="210" x2="1274" y2="240"/>
    <line class="st26" x1="1422" y1="210" x2="1422" y2="240"/>
  </g>
  <rect class="st27" x="18" y="240" width="144" height="50" rx="6" ry="6"/>
  <g class="st8">
    <g class="st8">
      <text class="st9" transform="translate(73.3 262)"><tspan x="0" y="0">トップ</tspan></text>
    </g>
  </g>
  <g class="st8">
    <g class="st8">
      <text class="st2" transform="translate(69.5 278)"><tspan x="0" y="0">index.html</tspan></text>
    </g>
  </g>
  <rect class="st27" x="166" y="240" width="144" height="50" rx="6" ry="6"/>
  <g class="st8">
    <g class="st8">
      <text class="st9" transform="translate(214 262)"><tspan x="0" y="0">製品紹介</tspan></text>
    </g>
  </g>
  <g class="st8">
    <g class="st8">
      <text class="st2" transform="translate(213.3 278)"><tspan x="0" y="0">product.html</tspan></text>
    </g>
  </g>
  <rect class="st27" x="314" y="240" width="144" height="50" rx="6" ry="6"/>
  <g class="st8">
    <g class="st8">
      <text class="st18" transform="translate(335.9 262)"><tspan x="0" y="0">導入シミュレーション</tspan></text>
    </g>
  </g>
  <g class="st8">
    <g class="st8">
      <text class="st2" transform="translate(356.1 278)"><tspan x="0" y="0">simulation.html</tspan></text>
    </g>
  </g>
  <rect class="st27" x="462" y="240" width="144" height="50" rx="6" ry="6"/>
  <g class="st8">
    <g class="st8">
      <text class="st9" transform="translate(510.1 262)"><tspan x="0" y="0">導入事例</tspan></text>
    </g>
  </g>
  <g class="st8">
    <g class="st8">
      <text class="st2" transform="translate(512.7 278)"><tspan x="0" y="0">cases.html</tspan></text>
    </g>
  </g>
  <rect class="st27" x="610" y="240" width="144" height="50" rx="6" ry="6"/>
  <g class="st8">
    <g class="st8">
      <text class="st9" transform="translate(653.1 262)"><tspan x="0" y="0">導入フロー</tspan></text>
    </g>
  </g>
  <g class="st8">
    <g class="st8">
      <text class="st2" transform="translate(664.7 278)"><tspan x="0" y="0">flow.html</tspan></text>
    </g>
  </g>
  <rect class="st27" x="758" y="240" width="144" height="50" rx="6" ry="6"/>
  <g class="st8">
    <g class="st8">
      <text class="st9" transform="translate(803.1 262)"><tspan x="0" y="0">価格・見積</tspan></text>
    </g>
  </g>
  <g class="st8">
    <g class="st8">
      <text class="st2" transform="translate(810.5 278)"><tspan x="0" y="0">price.html</tspan></text>
    </g>
  </g>
  <rect class="st27" x="906" y="240" width="144" height="50" rx="6" ry="6"/>
  <g class="st8">
    <g class="st8">
      <text class="st9" transform="translate(943.5 262)"><tspan x="0" y="0">補助金ガイド</tspan></text>
    </g>
  </g>
  <g class="st8">
    <g class="st8">
      <text class="st2" transform="translate(953.5 278)"><tspan x="0" y="0">subsidy.html</tspan></text>
    </g>
  </g>
  <rect class="st27" x="1054" y="240" width="144" height="50" rx="6" ry="6"/>
  <g class="st8">
    <g class="st8">
      <text class="st21" transform="translate(1113.8 262)"><tspan x="0" y="0">FAQ</tspan></text>
    </g>
  </g>
  <g class="st8">
    <g class="st8">
      <text class="st2" transform="translate(1110.2 278)"><tspan x="0" y="0">faq.html</tspan></text>
    </g>
  </g>
  <rect class="st27" x="1202" y="240" width="144" height="50" rx="6" ry="6"/>
  <g class="st8">
    <g class="st8">
      <text class="st9" transform="translate(1250 262)"><tspan x="0" y="0">会社概要</tspan></text>
    </g>
  </g>
  <g class="st8">
    <g class="st8">
      <text class="st2" transform="translate(1246.5 278)"><tspan x="0" y="0">company.html</tspan></text>
    </g>
  </g>
  <rect class="st24" x="1350" y="240" width="144" height="50" rx="6" ry="6"/>
  <g class="st8">
    <g class="st8">
      <text class="st23" transform="translate(1404 262)"><tspan x="0" y="0">お問い合わせ</tspan></text>
    </g>
  </g>
  <g class="st8">
    <g class="st8">
      <text class="st6" transform="translate(1397.7 278)"><tspan x="0" y="0">contact.html</tspan></text>
    </g>
  </g>
  <g>
    <line class="st26" x1="386" y1="290" x2="386" y2="388"/>
    <line class="st26" x1="310" y1="388" x2="462" y2="388"/>
    <line class="st26" x1="310" y1="388" x2="310" y2="406"/>
    <line class="st26" x1="462" y1="388" x2="462" y2="406"/>
  </g>
  <rect class="st29" x="234" y="406" width="152" height="44" rx="6" ry="6"/>
  <g class="st8">
    <g class="st8">
      <text class="st11" transform="translate(290 426)"><tspan x="0" y="0">決済完了</tspan></text>
    </g>
  </g>
  <g class="st8">
    <g class="st8">
      <text class="st19" transform="translate(270.2 440)"><tspan x="0" y="0">payment-success.html</tspan></text>
    </g>
  </g>
  <rect class="st29" x="386" y="406" width="152" height="44" rx="6" ry="6"/>
  <g class="st8">
    <g class="st8">
      <text class="st11" transform="translate(427.1 426)"><tspan x="0" y="0">決済キャンセル</tspan></text>
    </g>
  </g>
  <g class="st8">
    <g class="st8">
      <text class="st19" transform="translate(425.1 440)"><tspan x="0" y="0">payment-cancel.html</tspan></text>
    </g>
  </g>
  <g>
    <line class="st26" x1="534" y1="290" x2="534" y2="470"/>
    <line class="st26" x1="534" y1="470" x2="920" y2="470"/>
    <line class="st26" x1="620" y1="470" x2="620" y2="488"/>
    <line class="st26" x1="770" y1="470" x2="770" y2="488"/>
    <line class="st26" x1="920" y1="470" x2="920" y2="488"/>
  </g>
  <rect class="st25" x="540" y="488" width="160" height="52" rx="6" ry="6"/>
  <g class="st8">
    <text class="st0" transform="translate(599.3 508)"><tspan x="0" y="0">CASE A</tspan></text>
  </g>
  <g class="st8">
    <text class="st22" transform="translate(599 523)"><tspan x="0" y="0">A総合病院</tspan></text>
  </g>
  <g class="st8">
    <text class="st4" transform="translate(600 534)"><tspan x="0" y="0">ページ内セクション</tspan></text>
  </g>
  <rect class="st25" x="690" y="488" width="160" height="52" rx="6" ry="6"/>
  <g class="st8">
    <text class="st0" transform="translate(749.6 508)"><tspan x="0" y="0">CASE B</tspan></text>
  </g>
  <g class="st8">
    <text class="st22" transform="translate(726.9 523)"><tspan x="0" y="0">B整形外科クリニック</tspan></text>
  </g>
  <g class="st8">
    <text class="st4" transform="translate(750 534)"><tspan x="0" y="0">ページ内セクション</tspan></text>
  </g>
  <rect class="st25" x="840" y="488" width="160" height="52" rx="6" ry="6"/>
  <g class="st8">
    <text class="st0" transform="translate(899.4 508)"><tspan x="0" y="0">CASE C</tspan></text>
  </g>
  <g class="st8">
    <text class="st22" transform="translate(890.3 523)"><tspan x="0" y="0">Cデイサービス</tspan></text>
  </g>
  <g class="st8">
    <text class="st4" transform="translate(900 534)"><tspan x="0" y="0">ページ内セクション</tspan></text>
  </g>
  <line class="st30" x1="60" y1="560" x2="1440" y2="560"/>
  <g class="st8">
    <g class="st8">
      <text class="st21" transform="translate(60 590)"><tspan x="0" y="0">LEGEND</tspan></text>
    </g>
  </g>
  <rect class="st27" x="60" y="606" width="24" height="16" rx="3" ry="3"/>
  <g class="st8">
    <g class="st8">
      <text class="st10" transform="translate(94 619)"><tspan x="0" y="0">ナビゲーション掲載ページ</tspan></text>
    </g>
  </g>
  <rect class="st24" x="290" y="606" width="24" height="16" rx="3" ry="3"/>
  <g class="st8">
    <g class="st8">
      <text class="st13" transform="translate(324 619)"><tspan x="0" y="0">CTA</tspan></text>
    </g>
    <g class="st8">
      <text class="st10" transform="translate(346 619.2)"><tspan x="0" y="0">ページ（お問い合わせ）</tspan></text>
    </g>
  </g>
  <rect class="st29" x="520" y="606" width="24" height="16" rx="3" ry="3"/>
  <g class="st8">
    <g class="st8">
      <text class="st10" transform="translate(554 619)"><tspan x="0" y="0">サブページ（決済関連）</tspan></text>
    </g>
  </g>
  <rect class="st25" x="730" y="606" width="24" height="16" rx="3" ry="3"/>
  <g class="st8">
    <g class="st8">
      <text class="st10" transform="translate(764 619)"><tspan x="0" y="0">ページ内コンテンツ（事例）</tspan></text>
    </g>
  </g>
  <g class="st8">
    <g class="st8">
      <text class="st17" transform="translate(60 648.2)"><tspan x="0" y="0">総ページ数</tspan></text>
    </g>
    <g class="st8">
      <text class="st12" transform="translate(115 648)"><tspan x="0" y="0">: 12</tspan></text>
    </g>
    <g class="st8">
      <text class="st17" transform="translate(136.4 648.2)"><tspan x="0" y="0">｜</tspan></text>
    </g>
    <g class="st8">
      <text class="st17" transform="translate(150.5 648.2)"><tspan x="0" y="0">ナビ掲載</tspan></text>
    </g>
    <g class="st8">
      <text class="st12" transform="translate(194.5 648)"><tspan x="0" y="0">: 10</tspan></text>
    </g>
    <g class="st8">
      <text class="st17" transform="translate(215.9 648.2)"><tspan x="0" y="0">｜</tspan></text>
    </g>
    <g class="st8">
      <text class="st17" transform="translate(229.9 648.2)"><tspan x="0" y="0">決済</tspan></text>
    </g>
    <g class="st8">
      <text class="st12" transform="translate(251.9 648)"><tspan x="0" y="0">: 2</tspan></text>
    </g>
    <g class="st8">
      <text class="st17" transform="translate(267.2 648.2)"><tspan x="0" y="0">｜</tspan></text>
    </g>
    <g class="st8">
      <text class="st17" transform="translate(281.3 648.2)"><tspan x="0" y="0">認証ページは</tspan></text>
    </g>
    <g class="st8">
      <text class="st12" transform="translate(347.3 648)"><tspan x="0" y="0">Rinascentes</tspan></text>
    </g>
    <g class="st8">
      <text class="st17" transform="translate(407.8 648.2)"><tspan x="0" y="0">管理下</tspan></text>
    </g>
  </g>
  <g class="st8">
    <g class="st8">
      <text class="st21" transform="translate(960 590)"><tspan x="0" y="0">LINKED SITES</tspan></text>
    </g>
  </g>
  <rect class="st3" x="960" y="606" width="140" height="36" rx="6" ry="6"/>
  <g class="st8">
    <g class="st8">
      <text class="st16" transform="translate(990.6 629)"><tspan x="0" y="0">→ Rinascentes</tspan></text>
    </g>
  </g>
  <rect class="st5" x="1116" y="606" width="140" height="36" rx="6" ry="6"/>
  <g class="st8">
    <g class="st8">
      <text class="st15" transform="translate(1157.8 629)"><tspan x="0" y="0">→ MICA30</tspan></text>
    </g>
  </g>
  <line class="st30" x1="60" y1="670" x2="1440" y2="670"/>
  <g class="st8">
    <g class="st8">
      <text class="st1" transform="translate(60 690)"><tspan x="0" y="0">YUMEHO Site Map — Updated 2026-04-03</tspan></text>
    </g>
  </g>
</svg>