<svg font-family="'Yu Gothic','Hiragino Sans',sans-serif" viewBox="0 0 1920 5400" xmlns="http://www.w3.org/2000/svg" xmlns:xlink="http://www.w3.org/1999/xlink"><linearGradient id="a" x1="0" x2="1" y1="0" y2="1"><stop offset="0" stop-color="#0068b7"/><stop offset="1" stop-color="#003d6b"/></linearGradient><path d="m0 0h1920v1080h-1920z" fill="url(#a)"/><path d="m160 0v1080" stroke="#fff" stroke-opacity=".06"/><path d="m1760 0v1080" stroke="#fff" stroke-opacity=".06"/><path d="m0 520h1920v2h-1920z" fill="#fff" opacity=".08"/><rect fill="#00a0e9" height="4" rx="2" width="80" x="160" y="340"/><text fill="#fff" font-size="58" font-weight="700" letter-spacing=".04em" x="160" y="420">YUMEHO マーケティング戦略</text><text fill="#fff" font-size="32" font-weight="400" opacity=".85" x="160" y="490">求人市場からの新規顧客獲得アプローチ</text><path d="m160 530h600v1h-600z" fill="#fff" opacity=".2"/><text fill="#fff" font-size="22" opacity=".7" x="160" y="600">「求人を出している施設」= YUMEHO を最も必要としている施設</text><text fill="#fff" font-size="22" opacity=".7" x="160" y="640">人手不足の課題を設備投資で解決する提案</text><path d="m0 980h1920v100h-1920z" fill="#002a4a"/><text fill="#fff" font-size="18" opacity=".6" x="160" y="1040">CONFIDENTIAL</text><text fill="#fff" font-size="18" opacity=".6" text-anchor="middle" x="960" y="1040">2026年4月</text><text fill="#fff" font-size="18" opacity=".6" text-anchor="end" x="1760" y="1040">Rinascente / YUMEHO</text><text style="fill:#fff;font-size:120;font-weight:700;text-anchor:end;opacity:.08;letter-spacing:.08em" x="1760" y="420">YUMEHO</text><path d="m0 1080h1920v1080h-1920z" fill="#f7fafc"/><path d="m0 1080h1920v6h-1920z" fill="#0068b7"/><text fill="#0068b7" font-size="16" font-weight="600" letter-spacing=".15em" x="160" y="1170">MARKET BACKGROUND</text><text fill="#1a202c" font-size="42" font-weight="700" x="160" y="1220">介護業界の採用難 — 数字で見る現実</text><rect fill="#0068b7" height="3" rx="1.5" width="60" x="160" y="1245"/><rect fill="#fff" height="260" rx="16" stroke="#e2e8f0" width="360" x="160" y="1300"/><rect fill="#e53e3e" height="6" rx="3" width="360" x="160" y="1300"/><text fill="#e53e3e" font-size="68" font-weight="700" text-anchor="middle" x="340" y="1385">3.5倍</text><text fill="#1a202c" font-size="20" font-weight="600" text-anchor="middle" x="340" y="1430">有効求人倍率</text><text fill="#718096" font-size="15" text-anchor="middle" x="340" y="1465">全業種平均1.2倍の約3倍</text><rect fill="#fff5f5" height="28" rx="6" width="260" x="210" y="1490"/><text fill="#e53e3e" font-size="12" font-weight="600" text-anchor="middle" x="340" y="1510">求人を出しても人が集まらない</text><rect fill="#fff" height="260" rx="16" stroke="#e2e8f0" width="360" x="560" y="1300"/><rect fill="#dd6b20" height="6" rx="3" width="360" x="560" y="1300"/><text fill="#dd6b20" font-size="68" font-weight="700" text-anchor="middle" x="740" y="1385">15%</text><text fill="#1a202c" font-size="20" font-weight="600" text-anchor="middle" x="740" y="1430">年間離職率</text><text fill="#718096" font-size="15" text-anchor="middle" x="740" y="1465">身体的負担が離職の主因</text><rect fill="#fffaf0" height="28" rx="6" width="260" x="610" y="1490"/><text fill="#dd6b20" font-size="12" font-weight="600" text-anchor="middle" x="740" y="1510">採用してもすぐ辞めてしまう</text><rect fill="#fff" height="260" rx="16" stroke="#e2e8f0" width="360" x="960" y="1300"/><rect fill="#d69e2e" height="6" rx="3" width="360" x="960" y="1300"/><text fill="#d69e2e" font-size="56" font-weight="700" text-anchor="middle" x="1140" y="1385">30-50万円</text><text fill="#1a202c" font-size="20" font-weight="600" text-anchor="middle" x="1140" y="1430">1人あたり採用コスト</text><text fill="#718096" font-size="15" text-anchor="middle" x="1140" y="1465">求人広告費 + 紹介手数料</text><rect fill="#fffff0" height="28" rx="6" width="260" x="1010" y="1490"/><text fill="#d69e2e" font-size="12" font-weight="600" text-anchor="middle" x="1140" y="1510">採用コストが経営を圧迫</text><rect fill="#fff" height="260" rx="16" stroke="#e2e8f0" width="360" x="1360" y="1300"/><rect fill="#0068b7" height="6" rx="3" width="360" x="1360" y="1300"/><text fill="#0068b7" font-size="68" font-weight="700" text-anchor="middle" x="1540" y="1385">常時</text><text fill="#1a202c" font-size="20" font-weight="600" text-anchor="middle" x="1540" y="1430">求人掲載</text><text fill="#718096" font-size="15" text-anchor="middle" x="1540" y="1465">大半の施設が常時求人を掲出</text><rect fill="#ebf8ff" height="28" rx="6" width="260" x="1410" y="1490"/><text fill="#0068b7" font-size="12" font-weight="600" text-anchor="middle" x="1540" y="1510">ターゲットが明確に見える</text><rect fill="#0068b7" height="120" rx="16" width="1600" x="160" y="1610"/><text fill="#fff" font-size="28" font-weight="700" text-anchor="middle" x="960" y="1660">発想の転換</text><text fill="#fff" font-size="22" opacity=".9" text-anchor="middle" x="960" y="1700">「求人を出している施設」＝「YUMEHO を最も必要としている施設」</text><rect fill="#fff" height="180" rx="12" stroke="#e2e8f0" width="760" x="160" y="1780"/><rect fill="#fff5f5" height="44" rx="12" width="760" x="160" y="1780"/><text fill="#e53e3e" font-size="17" font-weight="700" text-anchor="middle" x="540" y="1810">従来の発想</text><text fill="#1a202c" font-size="20" text-anchor="middle" x="540" y="1860">求職者（介護士・PT）に広告を出す</text><text fill="#718096" font-size="15" text-anchor="middle" x="540" y="1895">購買決定者ではない → CV が遠い → 効率が悪い</text><text fill="#e53e3e" font-size="15" font-weight="600" text-anchor="middle" x="540" y="1930">広告費が分散するだけ</text><text fill="#0068b7" font-size="36" font-weight="700" text-anchor="middle" x="960" y="1880">→</text><rect fill="#fff" height="180" rx="12" stroke="#0068b7" stroke-width="2" width="760" x="1000" y="1780"/><rect fill="#ebf8ff" height="44" rx="12" width="760" x="1000" y="1780"/><text fill="#0068b7" font-size="17" font-weight="700" text-anchor="middle" x="1380" y="1810">新しい発想</text><text fill="#1a202c" font-size="20" text-anchor="middle" x="1380" y="1860">求人を「出している施設」にアプローチ</text><text fill="#718096" font-size="15" text-anchor="middle" x="1380" y="1895">人手不足の当事者 → 投資意欲あり → 購買決定者</text><text fill="#0068b7" font-size="15" font-weight="600" text-anchor="middle" x="1380" y="1930">コスト0円で見込み客リストが作れる</text><text fill="#a0aec0" font-size="14" text-anchor="end" x="1760" y="2130">02</text><path d="m0 2160h1920v1080h-1920z" fill="#f7fafc"/><path d="m0 2160h1920v6h-1920z" fill="#0068b7"/><text fill="#0068b7" font-size="16" font-weight="600" letter-spacing=".15em" x="160" y="2250">STRATEGY OVERVIEW</text><text fill="#1a202c" font-size="42" font-weight="700" x="160" y="2300">2つの戦略と統合フロー</text><rect fill="#0068b7" height="3" rx="1.5" width="60" x="160" y="2325"/><rect fill="#fff" height="340" rx="16" stroke="#0068b7" stroke-width="2" width="760" x="160" y="2380"/><rect fill="#0068b7" height="54" rx="16" width="760" x="160" y="2380"/><path d="m160 2420h760v14h-760z" fill="#0068b7"/><text fill="#fff" font-size="13" font-weight="600" letter-spacing=".1em" x="200" y="2416">STRATEGY A</text><text fill="#fff" font-size="20" font-weight="700" text-anchor="middle" x="540" y="2416">求人データからの見込み施設特定</text><rect fill="#c6f6d5" height="26" rx="6" width="90" x="200" y="2460"/><text fill="#276749" font-size="12" font-weight="700" text-anchor="middle" x="245" y="2479">即効性 高</text><rect fill="#c6f6d5" height="26" rx="6" width="90" x="305" y="2460"/><text fill="#276749" font-size="12" font-weight="700" text-anchor="middle" x="350" y="2479">コスト 0円</text><circle cx="215" cy="2530" fill="#ebf8ff" r="11" stroke="#0068b7"/><text fill="#0068b7" font-size="11" font-weight="700" text-anchor="middle" x="215" y="2535">1</text><text fill="#1a202c" font-size="15" x="240" y="2535">ハローワーク等から求人データを収集</text><circle cx="215" cy="2565" fill="#ebf8ff" r="11" stroke="#0068b7"/><text fill="#0068b7" font-size="11" font-weight="700" text-anchor="middle" x="215" y="2570">2</text><text fill="#1a202c" font-size="15" x="240" y="2570">リハビリ施設をスコアリング・優先順位付け</text><circle cx="215" cy="2600" fill="#ebf8ff" r="11" stroke="#0068b7"/><text fill="#0068b7" font-size="11" font-weight="700" text-anchor="middle" x="215" y="2605">3</text><text fill="#1a202c" font-size="15" x="240" y="2605">A/Bランク施設へ DM → 電話フォロー</text><circle cx="215" cy="2635" fill="#ebf8ff" r="11" stroke="#0068b7"/><text fill="#0068b7" font-size="11" font-weight="700" text-anchor="middle" x="215" y="2640">4</text><text fill="#1a202c" font-size="15" x="240" y="2640">訪問デモ → 稟議サポート → 成約</text><text fill="#718096" font-size="13" x="200" y="2695">月100施設リスト → 50通DM → 5件問合せ → 月1件成約</text><rect fill="#fff" height="340" rx="16" stroke="#dd6b20" stroke-width="2" width="760" x="1000" y="2380"/><rect fill="#dd6b20" height="54" rx="16" width="760" x="1000" y="2380"/><path d="m1000 2420h760v14h-760z" fill="#dd6b20"/><text fill="#fff" font-size="13" font-weight="600" letter-spacing=".1em" x="1040" y="2416">STRATEGY B</text><text fill="#fff" font-size="20" font-weight="700" text-anchor="middle" x="1380" y="2416">「採用に効く YUMEHO」訴求</text><rect fill="#fefcbf" height="26" rx="6" width="100" x="1040" y="2460"/><text fill="#744210" font-size="12" font-weight="700" text-anchor="middle" x="1090" y="2479">中長期施策</text><rect fill="#fefcbf" height="26" rx="6" width="110" x="1155" y="2460"/><text fill="#744210" font-size="12" font-weight="700" text-anchor="middle" x="1210" y="2479">月5-15万円</text><rect fill="#fff5f5" height="44" rx="8" width="680" x="1040" y="2510"/><text fill="#1a202c" font-size="15" x="1060" y="2538"><tspan fill="#e53e3e" font-weight="600">人を減らせる</tspan>  人件費削減 年間254万円</text><rect fill="#ebf8ff" height="44" rx="8" width="680" x="1040" y="2564"/><text fill="#1a202c" font-size="15" x="1060" y="2592"><tspan fill="#0068b7" font-weight="600">人が集まる</tspan>  先端設備で求人の訴求力アップ</text><rect fill="#f0fff4" height="44" rx="8" width="680" x="1040" y="2618"/><text fill="#1a202c" font-size="15" x="1060" y="2646"><tspan fill="#276749" font-weight="600">人が辞めない</tspan>  身体負担軽減で離職率低下</text><text fill="#718096" font-size="13" x="1040" y="2700">コラム記事 + リスティング広告 + 求人サイト事業者向け広告</text><text fill="#1a202c" font-size="22" font-weight="700" text-anchor="middle" x="960" y="2790">統合ファネル</text><rect fill="#0068b7" height="65" rx="10" width="340" x="200" y="2820"/><text fill="#fff" font-size="14" font-weight="600" text-anchor="middle" x="370" y="2848">認知</text><text fill="#fff" font-size="11" opacity=".8" text-anchor="middle" x="370" y="2868">リスト営業 / SEO / 広告</text><path d="m540 2852 25-12v25z" fill="#0068b7" opacity=".4"/><rect fill="#2b6cb0" height="65" rx="10" width="340" x="575" y="2820"/><text fill="#fff" font-size="14" font-weight="600" text-anchor="middle" x="745" y="2848">関心</text><text fill="#fff" font-size="11" opacity=".8" text-anchor="middle" x="745" y="2868">サイト訪問 / シミュレーション</text><path d="m915 2852 25-12v25z" fill="#2b6cb0" opacity=".4"/><rect fill="#2c5282" height="65" rx="10" width="340" x="950" y="2820"/><text fill="#fff" font-size="14" font-weight="600" text-anchor="middle" x="1120" y="2848">検討</text><text fill="#fff" font-size="11" opacity=".8" text-anchor="middle" x="1120" y="2868">資料請求 / 稟議サポート</text><path d="m1290 2852 25-12v25z" fill="#2c5282" opacity=".4"/><rect fill="#1a365d" height="65" rx="10" width="340" x="1325" y="2820"/><text fill="#fff" font-size="14" font-weight="600" text-anchor="middle" x="1495" y="2848">商談・成約</text><text fill="#fff" font-size="11" opacity=".8" text-anchor="middle" x="1495" y="2868">訪問デモ / 導入決定</text><rect fill="#fff" height="110" rx="12" stroke="#e2e8f0" width="1600" x="160" y="2930"/><text fill="#1a202c" font-size="17" font-weight="700" text-anchor="middle" x="960" y="2965">コンバージョン試算（月次）</text><text fill="#0068b7" font-size="34" font-weight="700" text-anchor="middle" x="300" y="3010">100</text><text fill="#718096" font-size="12" text-anchor="middle" x="300" y="3030">施設リスト</text><text fill="#a0aec0" font-size="18" x="440" y="3015">→</text><text fill="#0068b7" font-size="34" font-weight="700" text-anchor="middle" x="560" y="3010">50</text><text fill="#718096" font-size="12" text-anchor="middle" x="560" y="3030">DM 送付</text><text fill="#a0aec0" font-size="18" x="700" y="3015">→</text><text fill="#0068b7" font-size="34" font-weight="700" text-anchor="middle" x="840" y="3010">5</text><text fill="#718096" font-size="12" text-anchor="middle" x="840" y="3030">問い合わせ</text><text fill="#a0aec0" font-size="18" x="980" y="3015">→</text><text fill="#0068b7" font-size="34" font-weight="700" text-anchor="middle" x="1120" y="3010">2-3</text><text fill="#718096" font-size="12" text-anchor="middle" x="1120" y="3030">デモ実施</text><text fill="#a0aec0" font-size="18" x="1260" y="3015">→</text><text fill="#dd6b20" font-size="40" font-weight="700" text-anchor="middle" x="1420" y="3010">1件</text><text fill="#718096" font-size="12" text-anchor="middle" x="1420" y="3030">成約 / 月</text><rect fill="#f0fff4" height="45" rx="8" stroke="#276749" width="160" x="1560" y="2990"/><text fill="#276749" font-size="13" font-weight="700" text-anchor="middle" x="1640" y="3012">3ヶ月累計</text><text fill="#276749" font-size="13" font-weight="700" text-anchor="middle" x="1640" y="3030">1-2件成約</text><text fill="#a0aec0" font-size="14" text-anchor="end" x="1760" y="3210">03</text><path d="m0 3240h1920v1080h-1920z" fill="#f7fafc"/><path d="m0 3240h1920v6h-1920z" fill="#0068b7"/><text fill="#0068b7" font-size="16" font-weight="600" letter-spacing=".15em" x="160" y="3330">ROI ANALYSIS</text><text fill="#1a202c" font-size="42" font-weight="700" x="160" y="3380">YUMEHO 導入の総合効果 — 年間293万円</text><rect fill="#0068b7" height="3" rx="1.5" width="60" x="160" y="3405"/><text fill="#e53e3e" font-size="18" font-weight="700" text-anchor="middle" x="540" y="3465">BEFORE（YUMEHO なし）</text><rect fill="#fff" height="300" rx="16" stroke="#e53e3e" stroke-width="2" width="760" x="160" y="3485"/><rect fill="#fff5f5" height="40" rx="8" width="680" x="200" y="3510"/><text fill="#1a202c" font-size="15" x="220" y="3536">介助スタッフ <tspan fill="#e53e3e" font-weight="700">2〜3名</tspan> が常時必要</text><text fill="#1a202c" font-size="16" font-weight="600" x="200" y="3590">年間コスト</text><text fill="#718096" font-size="14" x="220" y="3625">人件費（3名分）</text><text fill="#1a202c" font-size="14" font-weight="600" text-anchor="end" x="840" y="3625">約762万円</text><path d="m220 3640h620" stroke="#e2e8f0"/><text fill="#718096" font-size="14" x="220" y="3665">採用関連コスト（広告費+採用費）</text><text fill="#1a202c" font-size="14" font-weight="600" text-anchor="end" x="840" y="3665">約78万円</text><path d="m220 3680h620" stroke="#e2e8f0"/><text fill="#1a202c" font-size="17" font-weight="700" x="220" y="3710">合計</text><text fill="#e53e3e" font-size="22" font-weight="700" text-anchor="end" x="840" y="3710">約840万円 / 年</text><text fill="#718096" font-size="12" x="220" y="3745">離職率15% → 補充採用の繰り返し / 身体的負担 → さらなる離職リスク</text><text fill="#0068b7" font-size="48" font-weight="700" text-anchor="middle" x="960" y="3640">→</text><text fill="#276749" font-size="18" font-weight="700" text-anchor="middle" x="1380" y="3465">AFTER（YUMEHO あり）</text><rect fill="#fff" height="300" rx="16" stroke="#276749" stroke-width="2" width="760" x="1000" y="3485"/><rect fill="#f0fff4" height="40" rx="8" width="680" x="1040" y="3510"/><text fill="#1a202c" font-size="15" x="1060" y="3536">見守りスタッフ <tspan fill="#276749" font-weight="700">1名</tspan> で安全に運用</text><text fill="#1a202c" font-size="16" font-weight="600" x="1040" y="3590">年間コスト削減</text><text fill="#718096" font-size="14" x="1060" y="3625">人件費削減（2名分）</text><text fill="#276749" font-size="14" font-weight="700" text-anchor="end" x="1680" y="3625">-254万円</text><path d="m1060 3640h620" stroke="#e2e8f0"/><text fill="#718096" font-size="14" x="1060" y="3665">採用コスト削減（50%減）</text><text fill="#276749" font-size="14" font-weight="700" text-anchor="end" x="1680" y="3665">-39万円</text><path d="m1060 3680h620" stroke="#e2e8f0"/><text fill="#1a202c" font-size="17" font-weight="700" x="1060" y="3710">年間総合効果</text><text fill="#276749" font-size="24" font-weight="700" text-anchor="end" x="1680" y="3710">約293万円 / 年</text><text fill="#718096" font-size="12" x="1060" y="3745">身体負担軽減 → 離職率低下 / 先端設備 → 求人の訴求力向上</text><rect fill="#0068b7" height="160" rx="12" width="500" x="160" y="3840"/><text fill="#fff" font-size="20" font-weight="700" x="200" y="3905">人件費削減</text><text fill="#fff" font-size="38" font-weight="700" x="200" y="3945">254万円<tspan font-size="16" opacity=".7"> / 年</tspan></text><text fill="#fff" font-size="13" opacity=".7" x="200" y="3978">見守り1名で運用（従来2-3名→1名）</text><rect fill="#2b6cb0" height="160" rx="12" width="500" x="710" y="3840"/><text fill="#fff" font-size="20" font-weight="700" x="750" y="3905">採用コスト削減</text><text fill="#fff" font-size="38" font-weight="700" x="750" y="3945">39万円<tspan font-size="16" opacity=".7"> / 年</tspan></text><text fill="#fff" font-size="13" opacity=".7" x="750" y="3978">離職率低下 + 求人効率向上</text><rect fill="#2c5282" height="160" rx="12" width="500" x="1260" y="3840"/><text fill="#fff" font-size="20" font-weight="700" x="1300" y="3905">訓練機会増加</text><text fill="#fff" font-size="38" font-weight="700" x="1300" y="3945">1.5倍</text><text fill="#fff" font-size="13" opacity=".7" x="1300" y="3978">同スタッフ数で訓練提供1.5倍に</text><rect fill="#fff2cc" height="70" rx="12" stroke="#d69e2e" width="1600" x="160" y="4050"/><text fill="#744210" font-size="20" font-weight="700" text-anchor="middle" x="960" y="4092">稟議のポイント: 人件費254万円 + 採用コスト39万円 = 年間293万円の総合効果で投資回収を訴求</text><text fill="#a0aec0" font-size="14" text-anchor="end" x="1760" y="4290">04</text><path d="m0 4320h1920v1080h-1920z" fill="#f7fafc"/><path d="m0 4320h1920v6h-1920z" fill="#0068b7"/><text fill="#0068b7" font-size="16" font-weight="600" letter-spacing=".15em" x="160" y="4410">EXECUTION TIMELINE</text><text fill="#1a202c" font-size="42" font-weight="700" x="160" y="4460">実行タイムラインと Next Actions</text><rect fill="#0068b7" height="3" rx="1.5" width="60" x="160" y="4485"/><rect fill="#e2e8f0" height="8" rx="4" width="1600" x="160" y="4530"/><rect fill="#276749" height="8" rx="4" width="533" x="160" y="4530"/><rect fill="#0068b7" height="8" rx="4" width="534" x="693" y="4530"/><rect fill="#dd6b20" height="8" rx="4" width="533" x="1227" y="4530"/><text fill="#276749" font-size="15" font-weight="700" text-anchor="middle" x="427" y="4565">第1四半期（即実行）</text><text fill="#0068b7" font-size="15" font-weight="700" text-anchor="middle" x="960" y="4565">第2四半期（コンテンツ整備）</text><text fill="#dd6b20" font-size="15" font-weight="700" text-anchor="middle" x="1493" y="4565">第3四半期（拡大）</text><rect fill="#fff" height="290" rx="12" stroke="#276749" stroke-width="2" width="500" x="160" y="4590"/><rect fill="#276749" height="46" rx="12" width="500" x="160" y="4590"/><path d="m160 4624h500v12h-500z" fill="#276749"/><text fill="#fff" font-size="17" font-weight="700" text-anchor="middle" x="410" y="4621">第1四半期</text><rect fill="#c6f6d5" height="24" rx="6" width="90" x="530" y="4599"/><text fill="#276749" font-size="11" font-weight="700" text-anchor="middle" x="575" y="4617">コスト 0円</text><text fill="#1a202c" font-size="14" x="190" y="4675"><tspan font-weight="600">Week 1-2</tspan>  見込み施設100件リスト作成</text><path d="m190 4693h440" stroke="#e2e8f0"/><text fill="#1a202c" font-size="14" x="190" y="4715"><tspan font-weight="600">Week 2-3</tspan>  DM 50通送付開始</text><path d="m190 4733h440" stroke="#e2e8f0"/><text fill="#1a202c" font-size="14" x="190" y="4755"><tspan font-weight="600">Week 3-4</tspan>  電話フォロー開始</text><path d="m190 4773h440" stroke="#e2e8f0"/><text fill="#1a202c" font-size="14" x="190" y="4795"><tspan font-weight="600">Week 4</tspan>     結果分析・リスト精査</text><rect fill="#f0fff4" height="35" rx="6" width="280" x="190" y="4825"/><text fill="#276749" font-size="13" font-weight="600" text-anchor="middle" x="330" y="4849">初月投資: ほぼ0円</text><rect fill="#fff" height="290" rx="12" stroke="#0068b7" stroke-width="2" width="500" x="710" y="4590"/><rect fill="#0068b7" height="46" rx="12" width="500" x="710" y="4590"/><path d="m710 4624h500v12h-500z" fill="#0068b7"/><text fill="#fff" font-size="17" font-weight="700" text-anchor="middle" x="960" y="4621">第2四半期</text><rect fill="#ebf8ff" height="24" rx="6" width="100" x="1070" y="4599"/><text fill="#0068b7" font-size="11" font-weight="700" text-anchor="middle" x="1120" y="4617">月5万円</text><text fill="#1a202c" font-size="14" x="740" y="4675"><tspan font-weight="600">Month 2</tspan>  コラム記事 #1 #2 公開</text><path d="m740 4693h440" stroke="#e2e8f0"/><text fill="#1a202c" font-size="14" x="740" y="4715"><tspan font-weight="600">Month 2</tspan>  Google 広告テスト開始</text><path d="m740 4733h440" stroke="#e2e8f0"/><text fill="#1a202c" font-size="14" x="740" y="4755"><tspan font-weight="600">Month 3</tspan>  コラム記事 #3 #4 公開</text><path d="m740 4773h440" stroke="#e2e8f0"/><text fill="#1a202c" font-size="14" x="740" y="4795"><tspan font-weight="600">Month 3</tspan>  「採用力」特設ページ作成</text><rect fill="#ebf8ff" height="35" rx="6" width="280" x="740" y="4825"/><text fill="#0068b7" font-size="13" font-weight="600" text-anchor="middle" x="880" y="4849">月次投資: 約5万円</text><rect fill="#fff" height="290" rx="12" stroke="#dd6b20" stroke-width="2" width="500" x="1260" y="4590"/><rect fill="#dd6b20" height="46" rx="12" width="500" x="1260" y="4590"/><path d="m1260 4624h500v12h-500z" fill="#dd6b20"/><text fill="#fff" font-size="17" font-weight="700" text-anchor="middle" x="1510" y="4621">第3四半期</text><rect fill="#fffaf0" height="24" rx="6" width="110" x="1610" y="4599"/><text fill="#dd6b20" font-size="11" font-weight="700" text-anchor="middle" x="1665" y="4617">月10-20万円</text><text fill="#1a202c" font-size="14" x="1290" y="4675"><tspan font-weight="600">Month 4-6</tspan>  広告予算拡大</text><path d="m1290 4693h440" stroke="#e2e8f0"/><text fill="#1a202c" font-size="14" x="1290" y="4715"><tspan font-weight="600">Month 4-6</tspan>  求人サイト事業者向け広告</text><path d="m1290 4733h440" stroke="#e2e8f0"/><text fill="#1a202c" font-size="14" x="1290" y="4755"><tspan font-weight="600">Month 4-6</tspan>  月100通DM定常化</text><path d="m1290 4773h440" stroke="#e2e8f0"/><text fill="#1a202c" font-size="14" x="1290" y="4795"><tspan font-weight="600">Month 5</tspan>    採用改善事例の取材・掲載</text><rect fill="#fffaf0" height="35" rx="6" width="280" x="1290" y="4825"/><text fill="#dd6b20" font-size="13" font-weight="600" text-anchor="middle" x="1430" y="4849">効果検証済みチャネルのみ拡大</text><rect fill="#0068b7" height="250" rx="16" width="1600" x="160" y="4930"/><g fill="#fff"><text font-size="22" font-weight="700" text-anchor="middle" x="960" y="4980">NEXT ACTIONS — 今すぐ始められること</text><rect fill-opacity=".1" height="145" rx="12" width="480" x="200" y="5010"/><rect fill-opacity=".2" height="32" rx="16" width="32" x="225" y="5030"/><text font-size="16" font-weight="700" text-anchor="middle" x="241" y="5052">1</text><text font-size="17" font-weight="700" x="275" y="5048">今すぐ</text><text font-size="15" opacity=".9" x="275" y="5080">求人サイトから</text><text font-size="15" opacity=".9" x="275" y="5105">見込み施設100件のリストを作る</text></g><rect fill="#c6f6d5" height="22" rx="6" width="80" x="275" y="5120"/><text fill="#276749" font-size="11" font-weight="700" text-anchor="middle" x="315" y="5136">コスト 0円</text><rect fill="#fff" fill-opacity=".1" height="145" rx="12" width="480" x="720" y="5010"/><rect fill="#fff" fill-opacity=".2" height="32" rx="16" width="32" x="745" y="5030"/><text fill="#fff" font-size="16" font-weight="700" text-anchor="middle" x="761" y="5052">2</text><text fill="#fff" font-size="17" font-weight="700" x="795" y="5048">今週中</text><text fill="#fff" font-size="15" opacity=".9" x="795" y="5080">DM テンプレートを作成し</text><text fill="#fff" font-size="15" opacity=".9" x="795" y="5105">上位50施設へ送付する</text><rect fill="#fff2cc" height="22" rx="6" width="80" x="795" y="5120"/><text fill="#744210" font-size="11" font-weight="700" text-anchor="middle" x="835" y="5136">切手代のみ</text><rect fill="#fff" fill-opacity=".1" height="145" rx="12" width="480" x="1240" y="5010"/><rect fill="#fff" fill-opacity=".2" height="32" rx="16" width="32" x="1265" y="5030"/><text fill="#fff" font-size="16" font-weight="700" text-anchor="middle" x="1281" y="5052">3</text><text fill="#fff" font-size="17" font-weight="700" x="1315" y="5048">来週</text><text fill="#fff" font-size="15" opacity=".9" x="1315" y="5080">DM送付済み施設へ</text><text fill="#fff" font-size="15" opacity=".9" x="1315" y="5105">電話フォローを開始する</text><rect fill="#c6f6d5" height="22" rx="6" width="80" x="1315" y="5120"/><text fill="#276749" font-size="11" font-weight="700" text-anchor="middle" x="1355" y="5136">コスト 0円</text><text fill="#a0aec0" font-size="14" text-anchor="end" x="1760" y="5370">05</text></svg>