<svg xmlns="http://www.w3.org/2000/svg" xmlns:xlink="http://www.w3.org/1999/xlink" viewBox="0 0 1400 52000" font-family="'Yu Gothic','Hiragino Sans','Helvetica Neue',sans-serif">
<defs>
  <style>
    text { fill: #1a202c; }
    .h1 { font-size: 36px; font-weight: 700; fill: #0068B7; }
    .h2 { font-size: 28px; font-weight: 700; fill: #1a202c; }
    .h3 { font-size: 22px; font-weight: 700; fill: #0068B7; }
    .h4 { font-size: 18px; font-weight: 600; fill: #1a202c; }
    .body { font-size: 15px; fill: #2d3748; line-height: 1.7; }
    .caption { font-size: 13px; fill: #718096; }
    .label { font-size: 13px; font-weight: 600; fill: #0068B7; letter-spacing: .12em; }
    .warn { font-size: 14px; fill: #C53030; font-weight: 600; }
    .th { font-size: 13px; font-weight: 600; fill: #fff; }
    .td { font-size: 13px; fill: #2d3748; }
    .badge { font-size: 12px; font-weight: 600; }
  </style>
</defs>

<!-- ═══════════════════════════════════════════════
     COVER
     ═══════════════════════════════════════════════ -->
<rect width="1400" height="700" fill="#0068B7"/>
<rect y="340" width="1400" height="2" fill="#fff" opacity=".1"/>
<rect x="80" y="220" width="60" height="3" fill="#00a0e9"/>
<text x="80" y="280" fill="#fff" font-size="44" font-weight="700">WordPress 更新マニュアル</text>
<text x="80" y="330" fill="#fff" font-size="24" opacity=".8">Rinascente / YUMEHO</text>
<text x="80" y="400" fill="#fff" font-size="16" opacity=".6">対象: サイト運用担当者 / 更新担当者</text>
<text x="80" y="430" fill="#fff" font-size="16" opacity=".6">対象サイト: Rinascente コーポレートサイト / YUMEHO 製品サイト</text>
<rect y="620" width="1400" height="80" fill="#002a4a"/>
<text x="80" y="668" fill="#fff" font-size="14" opacity=".5">CONFIDENTIAL — 2026年4月</text>
<text x="1320" y="668" fill="#fff" font-size="14" opacity=".5" text-anchor="end">Rinascente / YUMEHO</text>

<!-- ═══════════════════════════════════════════════
     IMPORTANT NOTICE
     ═══════════════════════════════════════════════ -->
<rect y="700" width="1400" height="600" fill="#f7fafc"/>
<rect x="80" y="750" width="1240" height="500" rx="12" fill="#FFF5F5" stroke="#FC8181"/>
<text x="120" y="800" class="h3" fill="#C53030">最初に確認してください（3つの重要ルール）</text>
<rect x="120" y="820" width="1160" height="1" fill="#FC8181" opacity=".3"/>

<rect x="120" y="850" width="40" height="40" rx="20" fill="#C53030"/>
<text x="140" y="878" fill="#fff" font-size="18" font-weight="700" text-anchor="middle">1</text>
<text x="180" y="878" class="body" font-weight="600">YUMEHO の会社概要は、YUMEHO 側ではなく Rinascente の「会社概要」で更新します。</text>

<rect x="120" y="920" width="40" height="40" rx="20" fill="#C53030"/>
<text x="140" y="948" fill="#fff" font-size="18" font-weight="700" text-anchor="middle">2</text>
<text x="180" y="948" class="body" font-weight="600">YUMEHO の価格・見積の元データは、Rinascente の「製品マスター」で更新します。</text>

<rect x="120" y="990" width="40" height="40" rx="20" fill="#C53030"/>
<text x="140" y="1018" fill="#fff" font-size="18" font-weight="700" text-anchor="middle">3</text>
<text x="180" y="1018" class="body" font-weight="600">YUMEHO の会員向けコンテンツは、Rinascente の「会員サイト運用」で一元管理します。</text>

<text x="120" y="1090" class="body">固定ページを開いて本文を編集しても、公開画面に反映されないページがあります。</text>
<text x="120" y="1115" class="body">更新先を間違えないよう、このマニュアルの早見表を必ず先に確認してください。</text>

<rect x="120" y="1150" width="1160" height="70" rx="8" fill="#fff" stroke="#FC8181"/>
<text x="700" y="1192" class="body" font-weight="600" text-anchor="middle" fill="#C53030">迷ったら → 「セクション1. 更新場所の早見表」に戻ってください</text>

<!-- ═══════════════════════════════════════════════
     SECTION 1: 更新場所の早見表
     ═══════════════════════════════════════════════ -->
<rect y="1300" width="1400" height="50" fill="#0068B7"/>
<text x="80" y="1333" fill="#fff" font-size="14" font-weight="600" letter-spacing=".12em">SECTION 1</text>
<text x="250" y="1333" fill="#fff" font-size="18" font-weight="700">更新場所の早見表</text>

<!-- YUMEHO Table -->
<text x="80" y="1400" class="h3">1.1 YUMEHO の主な更新箇所</text>

<!-- Table header -->
<rect x="80" y="1420" width="1240" height="36" rx="4" fill="#0068B7"/>
<text x="100" y="1444" class="th">更新したい内容</text>
<text x="330" y="1444" class="th">管理画面の場所</text>
<text x="620" y="1444" class="th">反映先</text>
<text x="920" y="1444" class="th">反映</text>
<text x="1040" y="1444" class="th">補足</text>

<!-- Table rows -->
<rect x="80" y="1456" width="1240" height="32" fill="#f7fafc"/>
<text x="100" y="1478" class="td">導入事例</text>
<text x="330" y="1478" class="td">導入事例</text>
<text x="620" y="1478" class="td">事例一覧 / 詳細 / トップ</text>
<text x="920" y="1478" class="td">即時</text>
<text x="1040" y="1478" class="td">一番よく使う画面</text>

<rect x="80" y="1488" width="1240" height="32" fill="#fff"/>
<text x="100" y="1510" class="td">FAQ本文</text>
<text x="330" y="1510" class="td">FAQ</text>
<text x="620" y="1510" class="td">FAQページ / トップFAQ</text>
<text x="920" y="1510" class="td">即時</text>
<text x="1040" y="1510" class="td">質問1件 = 1投稿</text>

<rect x="80" y="1520" width="1240" height="32" fill="#f7fafc"/>
<text x="100" y="1542" class="td">導入拠点</text>
<text x="330" y="1542" class="td">導入拠点</text>
<text x="620" y="1542" class="td">全国マップ / 導入件数</text>
<text x="920" y="1542" class="td">即時</text>
<text x="1040" y="1542" class="td">住所から座標を自動生成</text>

<rect x="80" y="1552" width="1240" height="32" fill="#FFF5F5"/>
<text x="100" y="1574" class="td" fill="#C53030" font-weight="600">価格・見積の元データ</text>
<text x="330" y="1574" class="td" fill="#C53030" font-weight="600">Rinascente > 製品マスター</text>
<text x="620" y="1574" class="td">価格 / 見積 / シミュレーション</text>
<text x="920" y="1574" class="td">最大15分</text>
<text x="1040" y="1574" class="td" fill="#C53030">YUMEHO側では編集しない</text>

<rect x="80" y="1584" width="1240" height="32" fill="#FFF5F5"/>
<text x="100" y="1606" class="td" fill="#C53030" font-weight="600">会社概要の会社情報</text>
<text x="330" y="1606" class="td" fill="#C53030" font-weight="600">Rinascente > 会社概要</text>
<text x="620" y="1606" class="td">YUMEHO 会社概要ページ</text>
<text x="920" y="1606" class="td">即時</text>
<text x="1040" y="1606" class="td" fill="#C53030">固定ページ本文ではない</text>

<rect x="80" y="1616" width="1240" height="32" fill="#fff"/>
<text x="100" y="1638" class="td">プライバシーポリシー / 利用規約</text>
<text x="330" y="1638" class="td">固定ページ</text>
<text x="620" y="1638" class="td">該当ページ</text>
<text x="920" y="1638" class="td">即時</text>
<text x="1040" y="1638" class="td">本文編集がそのまま反映</text>

<!-- Rinascente Table -->
<text x="80" y="1720" class="h3">1.2 Rinascente の主な更新箇所</text>

<rect x="80" y="1740" width="1240" height="36" rx="4" fill="#0068B7"/>
<text x="100" y="1764" class="th">更新したい内容</text>
<text x="330" y="1764" class="th">管理画面の場所</text>
<text x="620" y="1764" class="th">反映先</text>
<text x="920" y="1764" class="th">反映</text>
<text x="1040" y="1764" class="th">補足</text>

<rect x="80" y="1776" width="1240" height="32" fill="#f7fafc"/>
<text x="100" y="1798" class="td">ニュース</text>
<text x="330" y="1798" class="td">ニュース</text>
<text x="620" y="1798" class="td">Press / ニュース詳細 / トップ</text>
<text x="920" y="1798" class="td">即時</text>
<text x="1040" y="1798" class="td">Featured は1件のみ強調</text>

<rect x="80" y="1808" width="1240" height="32" fill="#fff"/>
<text x="100" y="1830" class="td">コラム</text>
<text x="330" y="1830" class="td">コラム</text>
<text x="620" y="1830" class="td">コラム一覧 / 詳細</text>
<text x="920" y="1830" class="td">即時</text>
<text x="1040" y="1830" class="td">YUMEHO連携設定あり</text>

<rect x="80" y="1840" width="1240" height="32" fill="#EBF8FF"/>
<text x="100" y="1862" class="td" fill="#0068B7" font-weight="600">YUMEHOにも出すコラム</text>
<text x="330" y="1862" class="td">コラム の連携設定</text>
<text x="620" y="1862" class="td">YUMEHO コラム一覧 / 詳細</text>
<text x="920" y="1862" class="td" fill="#0068B7">最大15分</text>
<text x="1040" y="1862" class="td">REST連携 + キャッシュ</text>

<rect x="80" y="1872" width="1240" height="32" fill="#f7fafc"/>
<text x="100" y="1894" class="td">会社情報 / サポート窓口</text>
<text x="330" y="1894" class="td">会社概要</text>
<text x="620" y="1894" class="td">Rinascente + YUMEHO 会社概要</text>
<text x="920" y="1894" class="td">即時</text>
<text x="1040" y="1894" class="td">両サイト共通の元データ</text>

<rect x="80" y="1904" width="1240" height="32" fill="#fff"/>
<text x="100" y="1926" class="td">製品マスター</text>
<text x="330" y="1926" class="td">会員サイト運用 > 製品マスター</text>
<text x="620" y="1926" class="td">YUMEHO 価格 / 見積 / 契約</text>
<text x="920" y="1926" class="td">最大15分</text>
<text x="1040" y="1926" class="td">価格の元管理画面</text>

<rect x="80" y="1936" width="1240" height="32" fill="#f7fafc"/>
<text x="100" y="1958" class="td">会員限定動画 / 資料 / サポート</text>
<text x="330" y="1958" class="td">会員サイト運用</text>
<text x="620" y="1958" class="td">会員ページ</text>
<text x="920" y="1958" class="td">即時</text>
<text x="1040" y="1958" class="td">YouTube / PDF 等</text>

<!-- ═══════════════════════════════════════════════
     SECTION 2: ログイン
     ═══════════════════════════════════════════════ -->
<rect y="2050" width="1400" height="50" fill="#0068B7"/>
<text x="80" y="2083" fill="#fff" font-size="14" font-weight="600" letter-spacing=".12em">SECTION 2</text>
<text x="250" y="2083" fill="#fff" font-size="18" font-weight="700">ログイン方法</text>

<text x="80" y="2150" class="body">ブラウザで各サイトの /wp-admin/ を開き、ユーザー名とパスワードを入力してログインします。</text>
<text x="80" y="2180" class="body">本番環境では2段階認証（Wordfence）が有効です。初回ログイン時に認証アプリの設定が必要です。</text>

<rect x="80" y="2210" width="600" height="773" rx="8" fill="#fff" stroke="#e2e8f0"/>
<image x="82" y="212" width="596" height="769" xlink:href="wp-operation-manual-assets/01-login.png" preserveAspectRatio="xMidYMin meet" clip-path="inset(0 round 8px)"/>
<text x="380" y="3010" class="caption" text-anchor="middle">ログイン画面</text>

<rect x="720" y="2210" width="600" height="220" rx="8" fill="#f7fafc" stroke="#e2e8f0"/>
<text x="750" y="2250" class="h4">URL の考え方</text>
<rect x="750" y="2270" width="540" height="30" rx="4" fill="#0068B7"/>
<text x="770" y="2291" class="th">サイト</text>
<text x="950" y="2291" class="th">管理画面URL</text>
<rect x="750" y="2300" width="540" height="28" fill="#f7fafc"/>
<text x="770" y="2320" class="td">Rinascente</text>
<text x="950" y="2320" class="td">https://onerinascente.co.jp/wp-admin/</text>
<rect x="750" y="2328" width="540" height="28" fill="#fff"/>
<text x="770" y="2348" class="td">YUMEHO</text>
<text x="950" y="2348" class="td">https://rinascenteyumeho.jp/wp-admin/</text>
<rect x="750" y="2356" width="540" height="28" fill="#f7fafc"/>

<!-- ═══════════════════════════════════════════════
     SECTION 3: YUMEHO ダッシュボード
     ═══════════════════════════════════════════════ -->
<rect y="3080" width="1400" height="50" fill="#0068B7"/>
<text x="80" y="3113" fill="#fff" font-size="14" font-weight="600" letter-spacing=".12em">SECTION 3</text>
<text x="250" y="3113" fill="#fff" font-size="18" font-weight="700">YUMEHO — サイト更新ダッシュボード</text>

<text x="80" y="3180" class="body">この画面は YUMEHO の更新導線をまとめた入口です。迷ったらまずここを開いてください。</text>

<rect x="80" y="3210" width="600" height="773" rx="8" fill="#fff" stroke="#e2e8f0"/>
<image x="82" y="3212" width="596" height="769" xlink:href="wp-operation-manual-assets/02-yumeho-dashboard.png" preserveAspectRatio="xMidYMin meet"/>
<text x="380" y="4010" class="caption" text-anchor="middle">YUMEHO サイト更新ダッシュボード</text>

<rect x="720" y="3210" width="600" height="300" rx="8" fill="#f7fafc" stroke="#e2e8f0"/>
<text x="750" y="3250" class="h4">ダッシュボードの使い分け</text>
<rect x="750" y="3270" width="540" height="28" rx="4" fill="#0068B7"/>
<text x="770" y="3290" class="th">導線</text>
<text x="1000" y="3290" class="th">使うとき</text>
<rect x="750" y="3298" width="540" height="28" fill="#f7fafc"/>
<text x="770" y="3318" class="td">導入事例</text>
<text x="1000" y="3318" class="td">施設の事例を追加・修正</text>
<rect x="750" y="3326" width="540" height="28" fill="#fff"/>
<text x="770" y="3346" class="td">FAQ</text>
<text x="1000" y="3346" class="td">よくある質問を追加・修正</text>
<rect x="750" y="3354" width="540" height="28" fill="#f7fafc"/>
<text x="770" y="3374" class="td">導入拠点</text>
<text x="1000" y="3374" class="td">地図や導入件数の元データを更新</text>
<rect x="750" y="3382" width="540" height="28" fill="#fff"/>
<text x="770" y="3402" class="td">固定ページ</text>
<text x="1000" y="3402" class="td">法務ページ・FAQ導入文を変更</text>
<rect x="750" y="3410" width="540" height="28" fill="#f7fafc"/>
<text x="770" y="3430" class="td">テーマ設定</text>
<text x="1000" y="3430" class="td">GA4・Slack等のサイト全体設定</text>
<rect x="750" y="3438" width="540" height="28" fill="#FFF5F5"/>
<text x="770" y="3458" class="td" fill="#C53030" font-weight="600">価格参照</text>
<text x="1000" y="3458" class="td" fill="#C53030">確認のみ。編集はRinascente側</text>

<!-- ═══════════════════════════════════════════════
     SECTION 4: YUMEHO 導入事例
     ═══════════════════════════════════════════════ -->
<rect y="4100" width="1400" height="50" fill="#0068B7"/>
<text x="80" y="4133" fill="#fff" font-size="14" font-weight="600" letter-spacing=".12em">SECTION 4</text>
<text x="250" y="4133" fill="#fff" font-size="18" font-weight="700">YUMEHO — 導入事例の更新</text>

<!-- Case list -->
<text x="80" y="4210" class="h3">4.1 一覧画面</text>

<rect x="80" y="4240" width="1240" height="773" rx="8" fill="#fff" stroke="#e2e8f0"/>
<image x="82" y="4242" width="1236" height="769" xlink:href="wp-operation-manual-assets/03-yumeho-case-list.png" preserveAspectRatio="xMidYMin meet"/>
<text x="700" y="5040" class="caption" text-anchor="middle">YUMEHO 導入事例 一覧画面</text>

<text x="80" y="5100" class="body">1. 左メニューの「導入事例」を開きます。</text>
<text x="80" y="5130" class="body">2. 既存記事を修正する場合はタイトルをクリックします。新規追加は「新規追加」ボタンを押します。</text>
<text x="80" y="5160" class="body">3. 一覧では サムネイル・タイトル・概要・フラグ（おすすめ/非表示）を確認します。</text>

<!-- Case edit -->
<text x="80" y="5240" class="h3">4.2 編集画面</text>

<rect x="80" y="5270" width="1240" height="773" rx="8" fill="#fff" stroke="#e2e8f0"/>
<image x="82" y="5272" width="1236" height="769" xlink:href="wp-operation-manual-assets/04-yumeho-case-edit.png" preserveAspectRatio="xMidYMin meet"/>
<text x="700" y="6070" class="caption" text-anchor="middle">YUMEHO 導入事例 編集画面</text>

<!-- Fields table -->
<text x="80" y="6140" class="h4">入力項目の意味</text>

<rect x="80" y="6160" width="1240" height="30" rx="4" fill="#0068B7"/>
<text x="100" y="6181" class="th">セクション</text>
<text x="320" y="6181" class="th">項目</text>
<text x="620" y="6181" class="th">使い方</text>

<rect x="80" y="6190" width="1240" height="28" fill="#f7fafc"/>
<text x="100" y="6210" class="td">① 基本情報</text>
<text x="320" y="6210" class="td">施設名 / 導入年月 / 所在地 / 対象製品 / 施設種別</text>
<text x="620" y="6210" class="td">一覧・詳細の主表示に使う基本情報</text>

<rect x="80" y="6218" width="1240" height="28" fill="#fff"/>
<text x="100" y="6238" class="td">② メイン画像</text>
<text x="320" y="6238" class="td">画像を選択 / 画像の表示方法</text>
<text x="620" y="6238" class="td">一覧サムネイルと詳細の代表画像</text>

<rect x="80" y="6246" width="1240" height="28" fill="#f7fafc"/>
<text x="100" y="6266" class="td">③ 課題・決め手・変化</text>
<text x="320" y="6266" class="td">課題 / 決め手 / 変化</text>
<text x="620" y="6266" class="td">公開ページの本文にそのまま反映</text>

<rect x="80" y="6274" width="1240" height="28" fill="#fff"/>
<text x="100" y="6294" class="td">④ 数値で見る変化</text>
<text x="320" y="6294" class="td">ラベル / 値（3件まで）</text>
<text x="620" y="6294" class="td">成果を数字で訴求</text>

<rect x="80" y="6302" width="1240" height="28" fill="#f7fafc"/>
<text x="100" y="6322" class="td">⑤ 経緯・お客様の声</text>
<text x="320" y="6322" class="td">経緯 / お客様の声 / 発言者</text>
<text x="620" y="6322" class="td">詳細ページの補足情報</text>

<rect x="80" y="6330" width="1240" height="28" fill="#fff"/>
<text x="100" y="6350" class="td">⑥ 表示設定</text>
<text x="320" y="6350" class="td">おすすめ事例 / 一覧非表示</text>
<text x="620" y="6350" class="td">トップ優先表示 or 一覧から除外</text>

<!-- ═══════════════════════════════════════════════
     SECTION 5: YUMEHO FAQ
     ═══════════════════════════════════════════════ -->
<rect y="6450" width="1400" height="50" fill="#0068B7"/>
<text x="80" y="6483" fill="#fff" font-size="14" font-weight="600" letter-spacing=".12em">SECTION 5</text>
<text x="250" y="6483" fill="#fff" font-size="18" font-weight="700">YUMEHO — FAQ の更新</text>

<rect x="80" y="6540" width="600" height="773" rx="8" fill="#fff" stroke="#e2e8f0"/>
<image x="82" y="6542" width="596" height="769" xlink:href="wp-operation-manual-assets/05-yumeho-faq-list.png" preserveAspectRatio="xMidYMin meet"/>
<text x="380" y="7340" class="caption" text-anchor="middle">FAQ 一覧画面</text>

<rect x="720" y="6540" width="600" height="773" rx="8" fill="#fff" stroke="#e2e8f0"/>
<image x="722" y="6542" width="596" height="769" xlink:href="wp-operation-manual-assets/06-yumeho-faq-edit.png" preserveAspectRatio="xMidYMin meet"/>
<text x="1020" y="7340" class="caption" text-anchor="middle">FAQ 編集画面</text>

<text x="80" y="7420" class="body">1. タイトル欄に質問を入力（1投稿 = 1質問）。本文エリアに回答を入力します。</text>
<text x="80" y="7450" class="body">2. FAQカテゴリを選択し、並び順（小さい数字ほど上に表示）を設定して公開します。</text>

<!-- ═══════════════════════════════════════════════
     SECTION 6: YUMEHO 導入拠点
     ═══════════════════════════════════════════════ -->
<rect y="7530" width="1400" height="50" fill="#0068B7"/>
<text x="80" y="7563" fill="#fff" font-size="14" font-weight="600" letter-spacing=".12em">SECTION 6</text>
<text x="250" y="7563" fill="#fff" font-size="18" font-weight="700">YUMEHO — 導入拠点の更新</text>

<rect x="80" y="7620" width="600" height="773" rx="8" fill="#fff" stroke="#e2e8f0"/>
<image x="82" y="7622" width="596" height="769" xlink:href="wp-operation-manual-assets/07-yumeho-installation-list.png" preserveAspectRatio="xMidYMin meet"/>
<text x="380" y="8420" class="caption" text-anchor="middle">導入拠点 一覧画面</text>

<rect x="720" y="7620" width="600" height="773" rx="8" fill="#fff" stroke="#e2e8f0"/>
<image x="722" y="7622" width="596" height="769" xlink:href="wp-operation-manual-assets/08-yumeho-installation-edit.png" preserveAspectRatio="xMidYMin meet"/>
<text x="1020" y="8420" class="caption" text-anchor="middle">導入拠点 編集画面</text>

<text x="80" y="8500" class="body">施設名・対象製品・都道府県・住所（必須）を入力し、「地図に表示する」「件数に含める」を設定して公開します。</text>

<!-- ═══════════════════════════════════════════════
     SECTION 7: YUMEHO 価格参照 / メディア / 固定ページ
     ═══════════════════════════════════════════════ -->
<rect y="8580" width="1400" height="50" fill="#0068B7"/>
<text x="80" y="8613" fill="#fff" font-size="14" font-weight="600" letter-spacing=".12em">SECTION 7</text>
<text x="250" y="8613" fill="#fff" font-size="18" font-weight="700">YUMEHO — 価格参照 / メディア / 固定ページ</text>

<!-- Price reference -->
<text x="80" y="8690" class="h3">7.1 価格参照画面（確認のみ）</text>
<rect x="80" y="8720" width="600" height="773" rx="8" fill="#fff" stroke="#e2e8f0"/>
<image x="82" y="8722" width="596" height="769" xlink:href="wp-operation-manual-assets/09-yumeho-pricing-reference.png" preserveAspectRatio="xMidYMin meet"/>
<text x="380" y="9520" class="caption" text-anchor="middle">価格参照画面（確認専用）</text>

<rect x="720" y="8720" width="600" height="120" rx="8" fill="#FFF5F5" stroke="#FC8181"/>
<text x="750" y="8760" class="warn">この画面は確認用です。</text>
<text x="750" y="8790" class="body">YUMEHO 側で価格を直接編集する画面ではありません。</text>
<text x="750" y="8810" class="body" font-weight="600">実際の編集先: Rinascente > 製品マスター</text>

<!-- Media -->
<text x="80" y="9610" class="h3">7.2 メディアライブラリ</text>
<rect x="80" y="9640" width="600" height="773" rx="8" fill="#fff" stroke="#e2e8f0"/>
<image x="82" y="9642" width="596" height="769" xlink:href="wp-operation-manual-assets/10-yumeho-media-library.png" preserveAspectRatio="xMidYMin meet"/>
<text x="380" y="10440" class="caption" text-anchor="middle">メディアライブラリ</text>

<rect x="720" y="9640" width="600" height="150" rx="8" fill="#f7fafc" stroke="#e2e8f0"/>
<text x="750" y="9680" class="h4">推奨画像サイズ</text>
<text x="750" y="9710" class="body">事例・ニュース代表画像: 横長・明るめ</text>
<text x="750" y="9735" class="body">PDF資料: ファイル名を分かりやすく</text>
<text x="750" y="9760" class="body">画像は EWWW Image Optimizer で自動圧縮</text>

<!-- Fixed pages -->
<text x="80" y="10530" class="h3">7.3 固定ページ</text>

<rect x="80" y="10560" width="600" height="773" rx="8" fill="#fff" stroke="#e2e8f0"/>
<image x="82" y="10562" width="596" height="769" xlink:href="wp-operation-manual-assets/11-yumeho-fixed-pages.png" preserveAspectRatio="xMidYMin meet"/>
<text x="380" y="11360" class="caption" text-anchor="middle">固定ページ一覧</text>

<rect x="720" y="10560" width="600" height="773" rx="8" fill="#fff" stroke="#e2e8f0"/>
<image x="722" y="10562" width="596" height="769" xlink:href="wp-operation-manual-assets/12-yumeho-legal-page-edit.png" preserveAspectRatio="xMidYMin meet"/>
<text x="1020" y="11360" class="caption" text-anchor="middle">法務ページ編集画面</text>

<rect x="80" y="11400" width="1240" height="60" rx="8" fill="#FFF5F5" stroke="#FC8181"/>
<text x="100" y="11436" class="body" fill="#C53030" font-weight="600">固定ページ本文を編集しても反映されないページがあります。法務ページ以外は早見表を確認してください。</text>

<!-- ═══════════════════════════════════════════════
     SECTION 8: Rinascente
     ═══════════════════════════════════════════════ -->
<rect y="11540" width="1400" height="50" fill="#0068B7"/>
<text x="80" y="11573" fill="#fff" font-size="14" font-weight="600" letter-spacing=".12em">SECTION 8</text>
<text x="250" y="11573" fill="#fff" font-size="18" font-weight="700">Rinascente — ダッシュボード / ニュース / コラム / 会社概要</text>

<!-- Dashboard -->
<text x="80" y="11650" class="h3">8.1 サイト更新ダッシュボード</text>
<rect x="80" y="11680" width="1240" height="773" rx="8" fill="#fff" stroke="#e2e8f0"/>
<image x="82" y="11682" width="1236" height="769" xlink:href="wp-operation-manual-assets/13-rinascente-dashboard.png" preserveAspectRatio="xMidYMin meet"/>
<text x="700" y="12480" class="caption" text-anchor="middle">Rinascente サイト更新ダッシュボード</text>

<!-- News -->
<text x="80" y="12560" class="h3">8.2 ニュースの更新</text>

<rect x="80" y="12590" width="600" height="773" rx="8" fill="#fff" stroke="#e2e8f0"/>
<image x="82" y="12592" width="596" height="769" xlink:href="wp-operation-manual-assets/14-rinascente-news-list.png" preserveAspectRatio="xMidYMin meet"/>
<text x="380" y="13390" class="caption" text-anchor="middle">ニュース一覧</text>

<rect x="720" y="12590" width="600" height="773" rx="8" fill="#fff" stroke="#e2e8f0"/>
<image x="722" y="12592" width="596" height="769" xlink:href="wp-operation-manual-assets/15-rinascente-news-edit.png" preserveAspectRatio="xMidYMin meet"/>
<text x="1020" y="13390" class="caption" text-anchor="middle">ニュース編集画面</text>

<text x="80" y="13470" class="body">1. タイトル・本文・一覧説明文・代表画像・カテゴリーを入力して公開します。</text>
<text x="80" y="13500" class="body">2. 「Press の Featured に表示する」をONにすると、Press ページの先頭に大きく表示されます（1件のみ）。</text>

<!-- Column -->
<text x="80" y="13580" class="h3">8.3 コラムの更新</text>

<rect x="80" y="13610" width="600" height="773" rx="8" fill="#fff" stroke="#e2e8f0"/>
<image x="82" y="13612" width="596" height="769" xlink:href="wp-operation-manual-assets/16-rinascente-column-list.png" preserveAspectRatio="xMidYMin meet"/>
<text x="380" y="14410" class="caption" text-anchor="middle">コラム一覧（YUMEHO連動ステータス表示）</text>

<rect x="720" y="13610" width="600" height="773" rx="8" fill="#fff" stroke="#e2e8f0"/>
<image x="722" y="13612" width="596" height="769" xlink:href="wp-operation-manual-assets/17-rinascente-column-edit.png" preserveAspectRatio="xMidYMin meet"/>
<text x="1020" y="14410" class="caption" text-anchor="middle">コラム編集画面（YUMEHO連携設定）</text>

<rect x="80" y="14450" width="1240" height="100" rx="8" fill="#EBF8FF" stroke="#0068B7"/>
<text x="120" y="14490" class="body" fill="#0068B7" font-weight="600">YUMEHO 連携のポイント</text>
<text x="120" y="14520" class="body">「YUMEHO サイトでも公開する」をONにすると、同じ本文が YUMEHO サイトにも表示されます（最大15分で反映）。</text>

<!-- Company Profile -->
<text x="80" y="14630" class="h3">8.4 会社概要の更新</text>

<rect x="80" y="14660" width="1240" height="773" rx="8" fill="#fff" stroke="#e2e8f0"/>
<image x="82" y="14662" width="1236" height="769" xlink:href="wp-operation-manual-assets/18-rinascente-company-profile.png" preserveAspectRatio="xMidYMin meet"/>
<text x="700" y="15460" class="caption" text-anchor="middle">会社概要 編集画面（Rinascente + YUMEHO 共通の元データ）</text>

<rect x="80" y="15500" width="1240" height="80" rx="8" fill="#FFF5F5" stroke="#FC8181"/>
<text x="120" y="15535" class="body" fill="#C53030" font-weight="600">ここで更新した会社情報は、Rinascente と YUMEHO の両サイトに反映されます。</text>
<text x="120" y="15560" class="body" fill="#C53030">YUMEHO 側の固定ページ本文を編集しても会社情報は変わりません。</text>

<!-- ═══════════════════════════════════════════════
     SECTION 9: 会員サイト運用
     ═══════════════════════════════════════════════ -->
<rect y="15650" width="1400" height="50" fill="#0068B7"/>
<text x="80" y="15683" fill="#fff" font-size="14" font-weight="600" letter-spacing=".12em">SECTION 9</text>
<text x="250" y="15683" fill="#fff" font-size="18" font-weight="700">Rinascente — 会員サイト運用</text>

<!-- Member Dashboard -->
<text x="80" y="15760" class="h3">9.1 会員サイト運用ダッシュボード</text>
<rect x="80" y="15790" width="1240" height="773" rx="8" fill="#fff" stroke="#e2e8f0"/>
<image x="82" y="15792" width="1236" height="769" xlink:href="wp-operation-manual-assets/19-rinascente-member-dashboard.png" preserveAspectRatio="xMidYMin meet"/>
<text x="700" y="16590" class="caption" text-anchor="middle">会員サイト運用ダッシュボード</text>

<!-- Product Master -->
<text x="80" y="16670" class="h3">9.2 製品マスター（価格の元データ）</text>
<rect x="80" y="16700" width="1240" height="773" rx="8" fill="#fff" stroke="#e2e8f0"/>
<image x="82" y="16702" width="1236" height="769" xlink:href="wp-operation-manual-assets/20-rinascente-product-master-edit.png" preserveAspectRatio="xMidYMin meet"/>
<text x="700" y="17500" class="caption" text-anchor="middle">製品マスター編集画面（YUMEHO 価格・見積・シミュレーションの元データ）</text>

<text x="80" y="17570" class="body">最低限「どのサイトの商品か」「区分」「お客様向け商品名」「短い呼び名」「価格（税別）」を入力します。</text>
<text x="80" y="17600" class="body">ここの変更は YUMEHO の価格表・見積・シミュレーションに自動反映されます（最大15分）。</text>

<!-- Contract -->
<text x="80" y="17680" class="h3">9.3 契約・購入履歴</text>
<rect x="80" y="17710" width="1240" height="773" rx="8" fill="#fff" stroke="#e2e8f0"/>
<image x="82" y="17712" width="1236" height="769" xlink:href="wp-operation-manual-assets/21-rinascente-contract-edit.png" preserveAspectRatio="xMidYMin meet"/>
<text x="700" y="18510" class="caption" text-anchor="middle">契約・購入履歴 編集画面</text>

<!-- Member Video -->
<text x="80" y="18590" class="h3">9.4 会員限定動画</text>
<rect x="80" y="18620" width="600" height="773" rx="8" fill="#fff" stroke="#e2e8f0"/>
<image x="82" y="18622" width="596" height="769" xlink:href="wp-operation-manual-assets/22-rinascente-member-video-edit.png" preserveAspectRatio="xMidYMin meet"/>
<text x="380" y="19420" class="caption" text-anchor="middle">会員限定動画 編集画面</text>

<rect x="720" y="18620" width="600" height="200" rx="8" fill="#f7fafc" stroke="#e2e8f0"/>
<text x="750" y="18660" class="h4">動画登録のルール</text>
<text x="750" y="18695" class="body">YouTube の共有URLを貼ると動画IDに自動整形</text>
<text x="750" y="18725" class="body">公開期間（開始日/終了日）で期間限定公開が可能</text>
<text x="750" y="18755" class="body">表示順は小さい数字ほど上に表示</text>
<text x="750" y="18785" class="body">対象製品が空欄なら全会員に共通表示</text>

<!-- Member Document -->
<text x="80" y="19510" class="h3">9.5 会員限定資料</text>
<rect x="80" y="19540" width="600" height="773" rx="8" fill="#fff" stroke="#e2e8f0"/>
<image x="82" y="19542" width="596" height="769" xlink:href="wp-operation-manual-assets/23-rinascente-member-document-edit.png" preserveAspectRatio="xMidYMin meet"/>
<text x="380" y="20340" class="caption" text-anchor="middle">会員限定資料 編集画面</text>

<rect x="720" y="19540" width="600" height="150" rx="8" fill="#f7fafc" stroke="#e2e8f0"/>
<text x="750" y="19580" class="h4">資料登録のルール</text>
<text x="750" y="19615" class="body">「ファイルを選ぶ」からPDF/Wordを登録</text>
<text x="750" y="19645" class="body">更新日は差し替え日や版の基準日を入力</text>
<text x="750" y="19675" class="body">補助金関連の場合は制度名・認定ステータスも入力</text>

<!-- Member Notice -->
<text x="80" y="20430" class="h3">9.6 サポート情報</text>
<rect x="80" y="20460" width="600" height="773" rx="8" fill="#fff" stroke="#e2e8f0"/>
<image x="82" y="20462" width="596" height="769" xlink:href="wp-operation-manual-assets/24-rinascente-member-notice-edit.png" preserveAspectRatio="xMidYMin meet"/>
<text x="380" y="21260" class="caption" text-anchor="middle">サポート情報 編集画面</text>

<rect x="720" y="20460" width="600" height="120" rx="8" fill="#f7fafc" stroke="#e2e8f0"/>
<text x="750" y="20500" class="h4">表示タイプの選び方</text>
<text x="750" y="20535" class="body">重要 / 保守・運用 / お知らせ / 一般から選択</text>
<text x="750" y="20560" class="body">表示タイプにより見え方が変わります</text>

<!-- ═══════════════════════════════════════════════
     SECTION 10: Rinascente 固定ページ / カスタマイザー
     ═══════════════════════════════════════════════ -->
<rect y="21350" width="1400" height="50" fill="#0068B7"/>
<text x="80" y="21383" fill="#fff" font-size="14" font-weight="600" letter-spacing=".12em">SECTION 10</text>
<text x="280" y="21383" fill="#fff" font-size="18" font-weight="700">Rinascente — 固定ページ / テーマ設定</text>

<text x="80" y="21460" class="h3">10.1 固定ページ</text>

<rect x="80" y="21490" width="600" height="773" rx="8" fill="#fff" stroke="#e2e8f0"/>
<image x="82" y="21492" width="596" height="769" xlink:href="wp-operation-manual-assets/25-rinascente-fixed-pages.png" preserveAspectRatio="xMidYMin meet"/>
<text x="380" y="22290" class="caption" text-anchor="middle">Rinascente 固定ページ一覧</text>

<rect x="720" y="21490" width="600" height="773" rx="8" fill="#fff" stroke="#e2e8f0"/>
<image x="722" y="21492" width="596" height="769" xlink:href="wp-operation-manual-assets/26-rinascente-legal-page-edit.png" preserveAspectRatio="xMidYMin meet"/>
<text x="1020" y="22290" class="caption" text-anchor="middle">法務ページ編集画面</text>

<!-- Customizer -->
<text x="80" y="22370" class="h3">10.2 テーマカスタマイザー</text>

<rect x="80" y="22400" width="1240" height="773" rx="8" fill="#fff" stroke="#e2e8f0"/>
<image x="82" y="22402" width="1236" height="769" xlink:href="wp-operation-manual-assets/27-rinascente-customizer.png" preserveAspectRatio="xMidYMin meet"/>
<text x="700" y="23200" class="caption" text-anchor="middle">テーマカスタマイザー（GA4・Slack・関連サイトURL 等のサイト全体設定）</text>

<text x="80" y="23280" class="body">「外観 > カスタマイズ」から開きます。GA4測定ID・GTMコンテナID・Slack Webhook URL・関連サイトURLを設定できます。</text>
<text x="80" y="23310" class="body">この画面はサイト全体に影響するため、通常運用では頻繁に触らず、変更目的がはっきりしているときだけ更新します。</text>

<!-- ═══════════════════════════════════════════════
     よくある迷いどころ
     ═══════════════════════════════════════════════ -->
<rect y="23400" width="1400" height="50" fill="#0068B7"/>
<text x="80" y="23433" fill="#fff" font-size="14" font-weight="600" letter-spacing=".12em">FAQ</text>
<text x="180" y="23433" fill="#fff" font-size="18" font-weight="700">よくある迷いどころ</text>

<rect x="80" y="23500" width="1240" height="420" rx="12" fill="#fff" stroke="#e2e8f0"/>

<rect x="120" y="23530" width="1160" height="60" rx="8" fill="#FFF5F5"/>
<text x="140" y="23555" class="h4" fill="#C53030">Q: YUMEHO の会社概要を直したい</text>
<text x="140" y="23578" class="body">A: YUMEHO > 固定ページではなく、Rinascente > 会社概要 を更新します。</text>

<rect x="120" y="23610" width="1160" height="60" rx="8" fill="#FFF5F5"/>
<text x="140" y="23635" class="h4" fill="#C53030">Q: YUMEHO の価格を変えたい</text>
<text x="140" y="23658" class="body">A: YUMEHO > 価格参照は確認画面です。Rinascente > 会員サイト運用 > 製品マスター を更新します。</text>

<rect x="120" y="23690" width="1160" height="60" rx="8" fill="#EBF8FF"/>
<text x="140" y="23715" class="h4" fill="#0068B7">Q: FAQページに見出し文を追加したい</text>
<text x="140" y="23738" class="body">A: FAQ質問一覧はFAQ投稿で更新。ページ上部の導入文は固定ページ > FAQ で更新します。</text>

<rect x="120" y="23770" width="1160" height="60" rx="8" fill="#EBF8FF"/>
<text x="140" y="23795" class="h4" fill="#0068B7">Q: 固定ページを編集したのに公開画面が変わらない</text>
<text x="140" y="23818" class="body">A: そのページはテンプレート固定の可能性が高いです。セクション1の早見表を確認してください。</text>

<rect x="120" y="23850" width="1160" height="50" rx="8" fill="#f7fafc"/>
<text x="140" y="23882" class="body" fill="#0068B7" font-weight="600">Q: 会員向けコンテンツを YUMEHO 側で探してしまう</text>
<text x="700" y="23882" class="body">→ 現在は Rinascente 側の「会員サイト運用」で更新します。</text>

<!-- Footer -->
<rect y="24000" width="1400" height="80" fill="#002a4a"/>
<text x="80" y="24048" fill="#fff" font-size="14" opacity=".5">更新先が分からなくなった場合 →「固定ページ本文を直す前に、セクション1の早見表を見る」を基本ルールにしてください。</text>
<text x="1320" y="24048" fill="#fff" font-size="14" opacity=".5" text-anchor="end">WordPress 更新マニュアル</text>

</svg>
